<svg width="24" height="25" viewBox="0 0 24 25" fill="none" xmlns="http://www.w3.org/2000/svg">
<path d="M8.28615 6.62013C8.10293 6.80341 8 7.05196 8 7.31111C8 7.57026 8.10293 7.81881 8.28615 8.00208L13.124 12.8399L8.28615 17.6777C8.10812 17.862 8.00961 18.1089 8.01184 18.3651C8.01406 18.6214 8.11685 18.8665 8.29806 19.0477C8.47926 19.2289 8.72439 19.3317 8.98064 19.3339C9.2369 19.3362 9.48377 19.2377 9.6681 19.0596L15.1969 13.5309C15.3801 13.3476 15.483 13.099 15.483 12.8399C15.483 12.5807 15.3801 12.3322 15.1969 12.1489L9.6681 6.62013C9.48482 6.43691 9.23628 6.33398 8.97712 6.33398C8.71797 6.33398 8.46943 6.43691 8.28615 6.62013Z" fill="#6E55FF"/>
</svg>
