<svg width="16" height="16" viewBox="0 0 16 16" fill="none" xmlns="http://www.w3.org/2000/svg">
<path d="M10.4772 4.19072C10.5993 4.31291 10.668 4.4786 10.668 4.65137C10.668 4.82414 10.5993 4.98984 10.4772 5.11202L7.252 8.33722L10.4772 11.5624C10.5959 11.6853 10.6616 11.8499 10.6601 12.0207C10.6586 12.1916 10.5901 12.355 10.4693 12.4758C10.3485 12.5966 10.185 12.6651 10.0142 12.6666C9.84337 12.6681 9.67879 12.6024 9.5559 12.4837L5.87005 8.79787C5.7479 8.67569 5.67929 8.50999 5.67929 8.33722C5.67929 8.16445 5.7479 7.99876 5.87005 7.87657L9.5559 4.19072C9.67809 4.06857 9.84378 3.99995 10.0166 3.99995C10.1893 3.99995 10.355 4.06857 10.4772 4.19072Z" fill="#343F48"/>
</svg>
