<svg width="16" height="16" viewBox="0 0 16 16" fill="none" xmlns="http://www.w3.org/2000/svg">
<mask id="mask0_2912_77529" style="mask-type:alpha" maskUnits="userSpaceOnUse" x="0" y="0" width="16" height="16">
<g clip-path="url(#clip0_2912_77529)">
<path d="M4.88889 11.8889H8.77778C8.99815 11.8889 9.183 11.8142 9.33233 11.6649C9.48167 11.5156 9.55607 11.331 9.55556 11.1111C9.55556 10.8907 9.48089 10.7059 9.33156 10.5566C9.18222 10.4072 8.99763 10.3328 8.77778 10.3333H4.88889C4.66852 10.3333 4.48367 10.408 4.33433 10.5573C4.185 10.7067 4.11059 10.8913 4.11111 11.1111C4.11111 11.3315 4.18578 11.5163 4.33511 11.6657C4.48445 11.815 4.66904 11.8894 4.88889 11.8889ZM4.88889 8.77778H11.1111C11.3315 8.77778 11.5163 8.70311 11.6657 8.55378C11.815 8.40444 11.8894 8.21985 11.8889 8C11.8889 7.77963 11.8142 7.59478 11.6649 7.44544C11.5156 7.29611 11.331 7.2217 11.1111 7.22222H4.88889C4.66852 7.22222 4.48367 7.29689 4.33433 7.44622C4.185 7.59556 4.11059 7.78015 4.11111 8C4.11111 8.22037 4.18578 8.40522 4.33511 8.55456C4.48445 8.70389 4.66904 8.7783 4.88889 8.77778ZM4.88889 5.66667H11.1111C11.3315 5.66667 11.5163 5.592 11.6657 5.44267C11.815 5.29333 11.8894 5.10874 11.8889 4.88889C11.8889 4.66852 11.8142 4.48367 11.6649 4.33433C11.5156 4.185 11.331 4.11059 11.1111 4.11111H4.88889C4.66852 4.11111 4.48367 4.18578 4.33433 4.33511C4.185 4.48445 4.11059 4.66904 4.11111 4.88889C4.11111 5.10926 4.18578 5.29411 4.33511 5.44345C4.48445 5.59278 4.66904 5.66719 4.88889 5.66667ZM2.55556 15C2.12778 15 1.76145 14.8476 1.45656 14.5427C1.15167 14.2378 0.999483 13.8717 1 13.4444V2.55556C1 2.12778 1.15245 1.76145 1.45733 1.45656C1.76222 1.15167 2.1283 0.999483 2.55556 1H13.4444C13.8722 1 14.2386 1.15245 14.5434 1.45733C14.8483 1.76222 15.0005 2.1283 15 2.55556V13.4444C15 13.8722 14.8476 14.2386 14.5427 14.5434C14.2378 14.8483 13.8717 15.0005 13.4444 15H2.55556Z" fill="black"/>
</g>
</mask>
<g mask="url(#mask0_2912_77529)">
<rect width="16" height="16" fill="white"/>
</g>
<defs>
<clipPath id="clip0_2912_77529">
<rect width="16" height="16" fill="white"/>
</clipPath>
</defs>
</svg>
