<svg width="40" height="40" viewBox="0 0 40 40" fill="none" xmlns="http://www.w3.org/2000/svg">
<mask id="mask0_2703_122629" style="mask-type:alpha" maskUnits="userSpaceOnUse" x="0" y="0" width="40" height="40">
<g clip-path="url(#clip0_2703_122629)">
<path d="M12.2222 29.7222H21.9444C22.4954 29.7222 22.9575 29.5356 23.3308 29.1622C23.7042 28.7889 23.8902 28.3274 23.8889 27.7778C23.8889 27.2269 23.7022 26.7647 23.3289 26.3914C22.9556 26.0181 22.4941 25.832 21.9444 25.8333H12.2222C11.6713 25.8333 11.2092 26.02 10.8358 26.3933C10.4625 26.7667 10.2765 27.2281 10.2778 27.7778C10.2778 28.3287 10.4644 28.7908 10.8378 29.1642C11.2111 29.5375 11.6726 29.7235 12.2222 29.7222ZM12.2222 21.9444H27.7778C28.3287 21.9444 28.7908 21.7578 29.1642 21.3844C29.5375 21.0111 29.7235 20.5496 29.7222 20C29.7222 19.4491 29.5356 18.9869 29.1622 18.6136C28.7889 18.2403 28.3274 18.0543 27.7778 18.0556H12.2222C11.6713 18.0556 11.2092 18.2422 10.8358 18.6156C10.4625 18.9889 10.2765 19.4504 10.2778 20C10.2778 20.5509 10.4644 21.0131 10.8378 21.3864C11.2111 21.7597 11.6726 21.9457 12.2222 21.9444ZM12.2222 14.1667H27.7778C28.3287 14.1667 28.7908 13.98 29.1642 13.6067C29.5375 13.2333 29.7235 12.7719 29.7222 12.2222C29.7222 11.6713 29.5356 11.2092 29.1622 10.8358C28.7889 10.4625 28.3274 10.2765 27.7778 10.2778H12.2222C11.6713 10.2778 11.2092 10.4644 10.8358 10.8378C10.4625 11.2111 10.2765 11.6726 10.2778 12.2222C10.2778 12.7731 10.4644 13.2353 10.8378 13.6086C11.2111 13.9819 11.6726 14.168 12.2222 14.1667ZM6.38889 37.5C5.31945 37.5 4.40361 37.1189 3.64139 36.3567C2.87917 35.5944 2.49871 34.6793 2.5 33.6111V6.38889C2.5 5.31945 2.88111 4.40361 3.64334 3.64139C4.40556 2.87917 5.32074 2.49871 6.38889 2.5H33.6111C34.6806 2.5 35.5964 2.88111 36.3586 3.64334C37.1208 4.40556 37.5013 5.32074 37.5 6.38889V33.6111C37.5 34.6806 37.1189 35.5964 36.3567 36.3586C35.5944 37.1208 34.6793 37.5013 33.6111 37.5H6.38889Z" fill="black"/>
</g>
</mask>
<g mask="url(#mask0_2703_122629)">
<rect width="40" height="40" fill="#343F48"/>
</g>
<defs>
<clipPath id="clip0_2703_122629">
<rect width="40" height="40" fill="white"/>
</clipPath>
</defs>
</svg>
