<svg width="16" height="14" viewBox="0 0 16 14" fill="none" xmlns="http://www.w3.org/2000/svg">
<g clip-path="url(#clip0_3561_129680)">
<path d="M9.59993 1.39961H12.7999C13.2424 1.39961 13.5999 1.75711 13.5999 2.19961C13.5999 2.64211 13.2424 2.99961 12.7999 2.99961H9.95993C9.82993 3.64461 9.38743 4.17711 8.79993 4.43211V11.7996H12.7999C13.2424 11.7996 13.5999 12.1571 13.5999 12.5996C13.5999 13.0421 13.2424 13.3996 12.7999 13.3996H3.19993C2.75743 13.3996 2.39993 13.0421 2.39993 12.5996C2.39993 12.1571 2.75743 11.7996 3.19993 11.7996H7.19993V4.43211C6.61243 4.17461 6.16993 3.64211 6.03993 2.99961H3.19993C2.75743 2.99961 2.39993 2.64211 2.39993 2.19961C2.39993 1.75711 2.75743 1.39961 3.19993 1.39961H6.39993C6.76493 0.914609 7.34493 0.599609 7.99993 0.599609C8.65493 0.599609 9.23493 0.914609 9.59993 1.39961ZM3.14493 5.03211L1.27743 8.59961H5.12243L3.25493 5.03211C3.24493 5.01211 3.22243 4.99961 3.19993 4.99961C3.17743 4.99961 3.15743 5.01211 3.14493 5.03211ZM3.19993 3.79961C3.66993 3.79961 4.09993 4.05961 4.31743 4.47461L6.26243 8.18711C6.33993 8.33211 6.41493 8.53711 6.39993 8.78211C6.38243 9.08461 6.27993 9.66211 5.77993 10.1596C5.27243 10.6646 4.45493 10.9996 3.19993 10.9996C1.94493 10.9996 1.12743 10.6646 0.619925 10.1621C0.119925 9.66211 0.0149253 9.08711 -7.47071e-05 8.78461C-0.0150747 8.53961 0.0624253 8.33461 0.137425 8.18961L2.08243 4.47461C2.29993 4.05961 2.72993 3.79961 3.19993 3.79961ZM12.7999 4.99961C12.7774 4.99961 12.7574 5.01211 12.7449 5.03211L10.8774 8.59961H14.7224L12.8549 5.03211C12.8449 5.01211 12.8224 4.99961 12.7999 4.99961ZM11.6824 4.47461C11.8999 4.05961 12.3299 3.79961 12.7999 3.79961C13.2699 3.79961 13.6999 4.05961 13.9174 4.47461L15.8624 8.18711C15.9399 8.33211 16.0149 8.53711 15.9999 8.78211C15.9824 9.08461 15.8799 9.66211 15.3799 10.1596C14.8724 10.6646 14.0549 10.9996 12.7999 10.9996C11.5449 10.9996 10.7274 10.6646 10.2199 10.1621C9.71992 9.66211 9.61493 9.08711 9.59993 8.78461C9.58493 8.53961 9.66243 8.33461 9.73743 8.18961L11.6824 4.47461Z" fill="#343F48"/>
</g>
<defs>
<clipPath id="clip0_3561_129680">
<rect width="16" height="12.8" fill="white" transform="translate(0 0.599609)"/>
</clipPath>
</defs>
</svg>
