<svg width="16" height="16" viewBox="0 0 16 16" fill="none" xmlns="http://www.w3.org/2000/svg">
<path d="M9.33333 2C9.86377 2 10.3725 2.21071 10.7475 2.58579C11.1226 2.96086 11.3333 3.46957 11.3333 4H13.3333C13.687 4 14.0261 4.14048 14.2761 4.39052C14.5262 4.64057 14.6667 4.97971 14.6667 5.33333V12.6667C14.6667 13.0203 14.5262 13.3594 14.2761 13.6095C14.0261 13.8595 13.687 14 13.3333 14H2.66667C2.31304 14 1.9739 13.8595 1.72386 13.6095C1.47381 13.3594 1.33333 13.0203 1.33333 12.6667V5.33333C1.33333 4.97971 1.47381 4.64057 1.72386 4.39052C1.9739 4.14048 2.31304 4 2.66667 4H4.66667C4.66667 3.46957 4.87738 2.96086 5.25245 2.58579C5.62752 2.21071 6.13623 2 6.66667 2H9.33333ZM12.6667 6.66667H3.33333C3.16341 6.66686 2.99998 6.73192 2.87642 6.84857C2.75286 6.96521 2.67851 7.12464 2.66855 7.29426C2.65859 7.46389 2.71378 7.63092 2.82284 7.76122C2.9319 7.89152 3.0866 7.97526 3.25533 7.99533L3.33333 8H7.33333V8.66667C7.33352 8.83659 7.39858 9.00002 7.51523 9.12358C7.63188 9.24714 7.7913 9.32149 7.96093 9.33145C8.13056 9.34141 8.29759 9.28622 8.42789 9.17716C8.55819 9.0681 8.64193 8.9134 8.662 8.74467L8.66667 8.66667V8H12.6667C12.8366 7.99981 13 7.93475 13.1236 7.8181C13.2471 7.70146 13.3215 7.54203 13.3314 7.3724C13.3414 7.20278 13.2862 7.03575 13.1772 6.90545C13.0681 6.77514 12.9134 6.6914 12.7447 6.67133L12.6667 6.66667ZM9.33333 3.33333H6.66667C6.50338 3.33335 6.34577 3.3933 6.22375 3.50181C6.10173 3.61032 6.02377 3.75983 6.00467 3.922L6 4H10C9.99998 3.83671 9.94003 3.67911 9.83152 3.55709C9.72302 3.43506 9.5735 3.3571 9.41133 3.338L9.33333 3.33333Z" fill="black"/>
</svg>
