<svg width="25" height="24" viewBox="0 0 25 24" fill="none" xmlns="http://www.w3.org/2000/svg">
<path d="M8.65633 3.14344C8.50004 3.18859 8.29164 3.37614 8.21871 3.53591C8.16313 3.66094 8.15271 3.77556 8.15271 4.44589V5.21347L7.71162 5.23431C6.82595 5.27251 6.12783 5.59552 5.52697 6.23807C5.01293 6.79031 4.6795 7.61346 4.6795 8.33588V8.52344H12.6748H20.6667L20.6458 8.20043C20.5903 7.36686 20.2499 6.6479 19.6386 6.07135C19.0482 5.51216 18.3153 5.22389 17.4887 5.22389H17.1831V4.44936C17.1831 3.70262 17.1796 3.66442 17.1032 3.51854C16.8149 2.97672 16.0438 2.97672 15.7695 3.52202C15.6931 3.66789 15.6896 3.71652 15.6896 4.44936V5.22389H12.6679H9.64619V4.44936C9.64619 3.57411 9.62535 3.48381 9.38223 3.28584C9.17731 3.11565 8.91682 3.06702 8.65633 3.14344Z" fill="#00C8E8"/>
<path d="M4.68644 14.14L4.69686 18.2315L4.77327 18.5093C4.88441 18.9053 5.15879 19.4401 5.39845 19.7249C5.8326 20.239 6.43694 20.6245 7.07601 20.7947L7.37123 20.8711H12.6679H17.9645L18.2597 20.7912C18.5793 20.7079 19.0377 20.5029 19.2843 20.3327C19.8783 19.9229 20.3541 19.2456 20.559 18.5093L20.6389 18.2315L20.6493 14.14L20.6597 10.052H12.6679H4.67602L4.68644 14.14ZM16.1828 12.2541C16.6308 12.386 16.8496 12.8306 16.6655 13.23C16.5752 13.4245 12.2615 17.7105 12.0635 17.8008C11.869 17.8876 11.612 17.8841 11.4106 17.7869C11.1848 17.6827 8.72578 15.2758 8.63548 15.0708C8.56601 14.9215 8.54865 14.6228 8.60074 14.4873C8.65632 14.3484 8.85429 14.1435 9.00364 14.0775C9.17382 13.9976 9.43084 13.9941 9.6045 14.0636C9.68786 14.1018 10.0699 14.4561 10.7229 15.1056L11.7127 16.0954L13.5535 14.2546C14.5677 13.2405 15.4117 12.4138 15.4325 12.4138C15.4534 12.4138 15.4916 12.3895 15.5159 12.3617C15.5611 12.3062 15.832 12.2124 15.9535 12.2089C15.9917 12.2054 16.0959 12.2263 16.1828 12.2541Z" fill="#00C8E8"/>
</svg>
