<svg width="40" height="40" viewBox="0 0 40 40" fill="none" xmlns="http://www.w3.org/2000/svg">
<mask id="mask0_2703_122797" style="mask-type:alpha" maskUnits="userSpaceOnUse" x="0" y="0" width="40" height="40">
<g clip-path="url(#clip0_2703_122797)">
<path d="M13.5714 2.5C14.7567 2.5 15.7143 3.47754 15.7143 4.6875V6.875H24.2857V4.6875C24.2857 3.47754 25.2433 2.5 26.4286 2.5C27.6138 2.5 28.5714 3.47754 28.5714 4.6875V6.875H31.7857C33.5603 6.875 35 8.34473 35 10.1562V13.4375H5V10.1562C5 8.34473 6.43973 6.875 8.21429 6.875H11.4286V4.6875C11.4286 3.47754 12.3862 2.5 13.5714 2.5ZM5 15.625H35V34.2188C35 36.0303 33.5603 37.5 31.7857 37.5H8.21429C6.43973 37.5 5 36.0303 5 34.2188V15.625ZM10.3571 20C9.76786 20 9.28571 20.4922 9.28571 21.0938V27.6562C9.28571 28.2578 9.76786 28.75 10.3571 28.75H16.7857C17.375 28.75 17.8571 28.2578 17.8571 27.6562V21.0938C17.8571 20.4922 17.375 20 16.7857 20H10.3571Z" fill="black"/>
</g>
</mask>
<g mask="url(#mask0_2703_122797)">
<rect width="40" height="40" fill="#343F48"/>
</g>
<defs>
<clipPath id="clip0_2703_122797">
<rect width="40" height="40" fill="white"/>
</clipPath>
</defs>
</svg>
