<svg width="16" height="18" viewBox="0 0 16 18" fill="none" xmlns="http://www.w3.org/2000/svg">
<path d="M3.98464 0.153949C3.82834 0.1991 3.61995 0.386654 3.54701 0.546422C3.49144 0.671457 3.48102 0.786073 3.48102 1.4564V2.22398L3.03992 2.24482C2.15426 2.28303 1.45614 2.60603 0.855276 3.24858C0.341241 3.80082 0.0078125 4.62397 0.0078125 5.3464V5.53395H8.00314H15.995L15.9742 5.21094C15.9186 4.37737 15.5782 3.65842 14.9669 3.08186C14.3765 2.52268 13.6436 2.2344 12.817 2.2344H12.5114V1.45988C12.5114 0.713135 12.5079 0.67493 12.4315 0.529055C12.1432 -0.0127654 11.3722 -0.0127654 11.0978 0.532528C11.0214 0.678403 11.0179 0.727028 11.0179 1.45988V2.2344H7.99619H4.9745V1.45988C4.9745 0.584627 4.95366 0.494323 4.71054 0.29635C4.50562 0.126163 4.24513 0.077538 3.98464 0.153949Z" fill="#00C8E8"/>
<path d="M0.0143259 11.1501L0.0247455 15.2415L0.101156 15.5194C0.212299 15.9153 0.486682 16.4502 0.726334 16.735C1.16049 17.2491 1.76482 17.6346 2.40389 17.8048L2.69912 17.8812H7.99576H13.2924L13.5876 17.8013C13.9072 17.7179 14.3656 17.513 14.6122 17.3428C15.2061 16.933 15.682 16.2557 15.8869 15.5194L15.9668 15.2415L15.9772 11.1501L15.9876 7.06213H7.99576H0.00390625L0.0143259 11.1501ZM11.5107 9.26415C11.9587 9.39613 12.1775 9.8407 11.9934 10.2401C11.9031 10.4346 7.5894 14.7206 7.39142 14.8109C7.19692 14.8977 6.93991 14.8942 6.73846 14.797C6.5127 14.6928 4.05367 12.2858 3.96337 12.0809C3.8939 11.9316 3.87654 11.6329 3.92863 11.4974C3.9842 11.3585 4.18218 11.1536 4.33153 11.0876C4.50171 11.0077 4.75873 11.0042 4.93239 11.0737C5.01575 11.1119 5.3978 11.4662 6.05076 12.1157L7.04063 13.1055L8.88143 11.2647C9.89561 10.2505 10.7396 9.42391 10.7604 9.42391C10.7813 9.42391 10.8195 9.3996 10.8438 9.37182C10.8889 9.31625 11.1599 9.22247 11.2814 9.219C11.3196 9.21552 11.4238 9.23636 11.5107 9.26415Z" fill="#00C8E8"/>
</svg>
