<svg width="32" height="32" viewBox="0 0 32 32" fill="none" xmlns="http://www.w3.org/2000/svg">
<path d="M26.6152 15.2874L22.8277 19.0749C22.1777 19.725 21.406 20.2407 20.5566 20.5925C19.7073 20.9443 18.797 21.1254 17.8777 21.1254C16.9584 21.1254 16.0481 20.9443 15.1988 20.5925C14.3494 20.2407 13.5777 19.725 12.9277 19.0749C12.7674 18.9415 12.6368 18.7762 12.544 18.5894C12.4512 18.4027 12.3984 18.1987 12.3889 17.9904C12.3794 17.7821 12.4134 17.5741 12.4888 17.3797C12.5642 17.1853 12.6792 17.0088 12.8267 16.8614C12.9741 16.7139 13.1507 16.5988 13.3451 16.5235C13.5395 16.4481 13.7474 16.4141 13.9557 16.4236C14.164 16.4331 14.368 16.4859 14.5548 16.5787C14.7415 16.6715 14.9068 16.8021 15.0402 16.9624C15.7938 17.7082 16.8112 18.1265 17.8715 18.1265C18.9317 18.1265 19.9491 17.7082 20.7027 16.9624L24.4902 13.1749C25.2411 12.424 25.6629 11.4056 25.6629 10.3436C25.6629 9.28172 25.2411 8.26329 24.4902 7.51239C23.7393 6.7615 22.7209 6.33965 21.659 6.33965C20.597 6.33965 19.5786 6.7615 18.8277 7.51239L17.6277 8.72489C17.3459 9.00669 16.9637 9.165 16.5652 9.165C16.1667 9.165 15.7845 9.00669 15.5027 8.72489C15.2209 8.4431 15.0626 8.06091 15.0626 7.66239C15.0626 7.26388 15.2209 6.88169 15.5027 6.59989L16.7152 5.38739C18.028 4.07457 19.8086 3.33704 21.6652 3.33704C23.5218 3.33704 25.3024 4.07457 26.6152 5.38739C27.928 6.70022 28.6656 8.48078 28.6656 10.3374C28.6656 12.194 27.928 13.9746 26.6152 15.2874ZM14.3777 23.2749L13.1777 24.4874C12.4268 25.2383 11.4084 25.6601 10.3465 25.6601C9.28453 25.6601 8.26609 25.2383 7.5152 24.4874C6.76431 23.7365 6.34246 22.7181 6.34246 21.6561C6.34246 20.5942 6.76431 19.5758 7.5152 18.8249L11.3027 15.0374C12.0563 14.2916 13.0737 13.8733 14.134 13.8733C15.1942 13.8733 16.2116 14.2916 16.9652 15.0374C17.2528 15.2768 17.6194 15.4 17.9932 15.383C18.367 15.3659 18.7209 15.2098 18.9855 14.9452C19.2501 14.6806 19.4062 14.3267 19.4233 13.9529C19.4403 13.5791 19.3171 13.2125 19.0777 12.9249C18.4285 12.2733 17.6571 11.7563 16.8076 11.4036C15.9582 11.0508 15.0475 10.8692 14.1277 10.8692C13.2079 10.8692 12.2972 11.0508 11.4478 11.4036C10.5983 11.7563 9.82688 12.2733 9.1777 12.9249L5.3902 16.7124C4.07738 18.0252 3.33984 19.8058 3.33984 21.6624C3.33984 23.519 4.07738 25.2996 5.3902 26.6124C6.70302 27.9252 8.48359 28.6628 10.3402 28.6628C12.1968 28.6628 13.9774 27.9252 15.2902 26.6124L16.5027 25.3999C16.7845 25.1181 16.9428 24.7359 16.9428 24.3374C16.9428 23.9389 16.7845 23.5567 16.5027 23.2749C16.2209 22.9931 15.8387 22.8348 15.4402 22.8348C15.0417 22.8348 14.6595 22.9931 14.3777 23.2749Z" fill="#6E55FF"/>
</svg>
