<svg width="16" height="17" viewBox="0 0 16 17" fill="none" xmlns="http://www.w3.org/2000/svg">
<path d="M8.00065 1.83398C8.59798 1.83398 9.17665 1.91265 9.72732 2.05998L8.30998 3.47665C8.20246 3.58461 8.10762 3.70449 8.02732 3.83398H8.00065C7.07767 3.83398 6.17542 4.10768 5.40799 4.62046C4.64056 5.13324 4.04242 5.86207 3.68921 6.7148C3.336 7.56752 3.24359 8.50583 3.42365 9.41107C3.60372 10.3163 4.04817 11.1478 4.70082 11.8005C5.35346 12.4531 6.18499 12.8976 7.09023 13.0777C7.99547 13.2577 8.93379 13.1653 9.78651 12.8121C10.6392 12.4589 11.3681 11.8607 11.8808 11.0933C12.3936 10.3259 12.6673 9.42363 12.6673 8.50065V8.47398C12.7953 8.39398 12.9153 8.29998 13.024 8.19065L14.4413 6.77398C14.5887 7.32465 14.6673 7.90332 14.6673 8.50065C14.6673 12.1827 11.6827 15.1673 8.00065 15.1673C4.31865 15.1673 1.33398 12.1827 1.33398 8.50065C1.33398 4.81865 4.31865 1.83398 8.00065 1.83398ZM7.72465 5.17865C7.72465 5.74598 7.69665 6.32132 7.72732 6.88798L7.36732 7.24798C7.24348 7.37182 7.14525 7.51884 7.07823 7.68064C7.01121 7.84244 6.97671 8.01585 6.97671 8.19098C6.97671 8.36612 7.01121 8.53953 7.07823 8.70133C7.14525 8.86313 7.24348 9.01015 7.36732 9.13398C7.49115 9.25782 7.63817 9.35605 7.79997 9.42307C7.96177 9.49009 8.13519 9.52459 8.31032 9.52459C8.48545 9.52459 8.65887 9.49009 8.82067 9.42307C8.98247 9.35605 9.12948 9.25782 9.25332 9.13398L9.61332 8.77398C10.18 8.80465 10.7547 8.77665 11.3227 8.77665C11.27 9.41021 11.0372 10.0155 10.6519 10.5211C10.2665 11.0268 9.74456 11.4116 9.14763 11.6304C8.55069 11.8491 7.90366 11.8926 7.28284 11.7556C6.66201 11.6187 6.09329 11.3071 5.64375 10.8576C5.19421 10.408 4.8826 9.83929 4.74567 9.21847C4.60875 8.59764 4.65221 7.95061 4.87094 7.35368C5.08968 6.75674 5.47455 6.23481 5.98018 5.84943C6.4858 5.46406 7.09109 5.23131 7.72465 5.17865ZM12.3367 1.91865C12.4583 1.9691 12.5623 2.05448 12.6356 2.16399C12.7088 2.27351 12.7479 2.40225 12.748 2.53398V3.75398H13.9673C14.0992 3.75401 14.228 3.79313 14.3376 3.86638C14.4472 3.93964 14.5327 4.04375 14.5831 4.16555C14.6336 4.28735 14.6468 4.42137 14.621 4.55067C14.5953 4.67997 14.5319 4.79875 14.4387 4.89198L12.0807 7.24732C11.9557 7.37235 11.7861 7.44261 11.6093 7.44265H10.0007L8.78132 8.66198C8.65622 8.78699 8.4866 8.85718 8.30975 8.85712C8.1329 8.85706 7.96332 8.78675 7.83832 8.66165C7.71331 8.53656 7.64312 8.36693 7.64318 8.19008C7.64325 8.01324 7.71356 7.84366 7.83865 7.71865L9.05798 6.50065V4.89132C9.05792 4.80366 9.07513 4.71686 9.10865 4.63587C9.14217 4.55488 9.19133 4.48129 9.25332 4.41932L11.61 2.06265C11.7032 1.96936 11.822 1.90582 11.9514 1.88007C12.0807 1.85432 12.2148 1.86751 12.3367 1.91798V1.91865Z" fill="white"/>
</svg>
