<svg width="15" height="12" viewBox="0 0 15 12" fill="none" xmlns="http://www.w3.org/2000/svg">
<path d="M12.1975 0.697354C12.444 0.46266 12.7721 0.332912 13.1124 0.335487C13.4528 0.338062 13.7788 0.47276 14.0218 0.711158C14.2647 0.949556 14.4055 1.27301 14.4145 1.61326C14.4235 1.95351 14.3 2.28395 14.07 2.53485L7.0875 11.2674C6.96743 11.3967 6.82252 11.5005 6.66143 11.5725C6.50034 11.6445 6.32637 11.6833 6.14994 11.6866C5.97351 11.6899 5.79822 11.6575 5.63457 11.5915C5.47093 11.5255 5.32227 11.4271 5.1975 11.3024L0.566999 6.67185C0.438047 6.5517 0.334619 6.4068 0.262883 6.2458C0.191147 6.0848 0.152573 5.911 0.149464 5.73477C0.146354 5.55854 0.178773 5.38349 0.244785 5.22006C0.310797 5.05663 0.40905 4.90817 0.533682 4.78354C0.658315 4.6589 0.806774 4.56065 0.970204 4.49464C1.13363 4.42863 1.30868 4.39621 1.48491 4.39932C1.66114 4.40243 1.83494 4.441 1.99594 4.51274C2.15694 4.58447 2.30184 4.6879 2.422 4.81685L6.0865 8.4796L12.1643 0.735855C12.1752 0.722381 12.1869 0.709528 12.1993 0.697354H12.1975Z" fill="white"/>
</svg>
