<svg width="32" height="32" viewBox="0 0 32 32" fill="none" xmlns="http://www.w3.org/2000/svg">
<rect width="32" height="32" rx="6" fill="#3AEDBA"/>
<path d="M21.1975 10.6974C21.444 10.4627 21.7721 10.3329 22.1124 10.3355C22.4528 10.3381 22.7788 10.4728 23.0218 10.7112C23.2647 10.9496 23.4055 11.273 23.4145 11.6133C23.4235 11.9535 23.3 12.284 23.07 12.5349L16.0875 21.2674C15.9674 21.3967 15.8225 21.5005 15.6614 21.5725C15.5003 21.6445 15.3264 21.6833 15.1499 21.6866C14.9735 21.6899 14.7982 21.6575 14.6346 21.5915C14.4709 21.5255 14.3223 21.4271 14.1975 21.3024L9.567 16.6719C9.43805 16.5517 9.33462 16.4068 9.26288 16.2458C9.19115 16.0848 9.15257 15.911 9.14946 15.7348C9.14635 15.5585 9.17877 15.3835 9.24478 15.2201C9.3108 15.0566 9.40905 14.9082 9.53368 14.7835C9.65832 14.6589 9.80677 14.5607 9.9702 14.4946C10.1336 14.4286 10.3087 14.3962 10.4849 14.3993C10.6611 14.4024 10.8349 14.441 10.9959 14.5127C11.1569 14.5845 11.3018 14.6879 11.422 14.8169L15.0865 18.4796L21.1643 10.7359C21.1752 10.7224 21.1869 10.7095 21.1992 10.6974H21.1975Z" fill="white"/>
</svg>
