<svg width="12" height="9" viewBox="0 0 12 9" fill="none" xmlns="http://www.w3.org/2000/svg">
<path d="M9.51116 0.508137C9.68724 0.340499 9.92157 0.247821 10.1647 0.249661C10.4078 0.2515 10.6407 0.347713 10.8142 0.517997C10.9877 0.688281 11.0883 0.919318 11.0948 1.16236C11.1012 1.40539 11.0129 1.64142 10.8487 1.82064L5.86116 8.05814C5.7754 8.15051 5.67189 8.22464 5.55682 8.2761C5.44176 8.32755 5.3175 8.35527 5.19147 8.35761C5.06545 8.35994 4.94025 8.33684 4.82336 8.28968C4.70646 8.24252 4.60028 8.17227 4.51116 8.08314L1.20366 4.77564C1.11155 4.68981 1.03767 4.58631 0.986433 4.47131C0.935193 4.35631 0.90764 4.23217 0.905419 4.10629C0.903198 3.98041 0.926354 3.85538 0.973506 3.73864C1.02066 3.62191 1.09084 3.51586 1.17986 3.42684C1.26888 3.33782 1.37493 3.26764 1.49166 3.22048C1.6084 3.17333 1.73343 3.15018 1.85931 3.1524C1.98519 3.15462 2.10933 3.18217 2.22433 3.23341C2.33933 3.28465 2.44283 3.35853 2.52866 3.45064L5.14616 6.06689L9.48741 0.535638C9.49523 0.526014 9.50357 0.516833 9.51241 0.508137H9.51116Z" fill="white"/>
</svg>
