<svg width="17" height="17" viewBox="0 0 17 17" fill="none" xmlns="http://www.w3.org/2000/svg">
<path d="M7.56634 9.50372L6.11634 8.05372C5.99412 7.9315 5.84412 7.87039 5.66634 7.87039C5.48856 7.87039 5.33301 7.93705 5.19967 8.07039C5.07745 8.19261 5.01634 8.34817 5.01634 8.53706C5.01634 8.72594 5.07745 8.8815 5.19967 9.00372L7.09967 10.9037C7.2219 11.0259 7.37745 11.0871 7.56634 11.0871C7.75523 11.0871 7.91079 11.0259 8.03301 10.9037L11.8163 7.12039C11.9386 6.99817 11.9997 6.84817 11.9997 6.67039C11.9997 6.49261 11.933 6.33705 11.7997 6.20372C11.6775 6.0815 11.5219 6.02039 11.333 6.02039C11.1441 6.02039 10.9886 6.0815 10.8663 6.20372L7.56634 9.50372ZM8.49967 14.9704C7.57745 14.9704 6.71079 14.7953 5.89967 14.4451C5.08856 14.0953 4.38301 13.6204 3.78301 13.0204C3.18301 12.4204 2.70812 11.7148 2.35834 10.9037C2.00812 10.0926 1.83301 9.22594 1.83301 8.30372C1.83301 7.3815 2.00812 6.51483 2.35834 5.70372C2.70812 4.89261 3.18301 4.18705 3.78301 3.58705C4.38301 2.98705 5.08856 2.51194 5.89967 2.16172C6.71079 1.81194 7.57745 1.63705 8.49967 1.63705C9.4219 1.63705 10.2886 1.81194 11.0997 2.16172C11.9108 2.51194 12.6163 2.98705 13.2163 3.58705C13.8163 4.18705 14.2912 4.89261 14.641 5.70372C14.9912 6.51483 15.1663 7.3815 15.1663 8.30372C15.1663 9.22594 14.9912 10.0926 14.641 10.9037C14.2912 11.7148 13.8163 12.4204 13.2163 13.0204C12.6163 13.6204 11.9108 14.0953 11.0997 14.4451C10.2886 14.7953 9.4219 14.9704 8.49967 14.9704Z" fill="#6E55FF"/>
</svg>
