<svg width="32" height="32" viewBox="0 0 32 32" fill="none" xmlns="http://www.w3.org/2000/svg">
<path d="M8.66665 26.6668C6.64442 26.6668 4.91687 25.9668 3.48398 24.5668C2.0502 23.1668 1.33331 21.4557 1.33331 19.4335C1.33331 17.7002 1.85554 16.1557 2.89998 14.8002C3.94442 13.4446 5.31109 12.5779 6.99998 12.2002C7.55554 10.1557 8.66665 8.50016 10.3333 7.2335C12 5.96683 13.8889 5.3335 16 5.3335C18.6 5.3335 20.8053 6.23883 22.616 8.0495C24.4275 9.86105 25.3333 12.0668 25.3333 14.6668C26.8666 14.8446 28.1391 15.5055 29.1506 16.6495C30.1613 17.7944 30.6666 19.1335 30.6666 20.6668C30.6666 22.3335 30.0835 23.7504 28.9173 24.9175C27.7502 26.0837 26.3333 26.6668 24.6666 26.6668H8.66665Z" fill="#FF3E6C"/>
</svg>
