<svg width="40" height="40" viewBox="0 0 40 40" fill="none" xmlns="http://www.w3.org/2000/svg">
<path d="M13.8264 20L16.6944 17.1319C17.0833 16.7431 17.2778 16.2894 17.2778 15.7708C17.2778 15.2523 17.0833 14.7986 16.6944 14.4097C16.3056 14.0208 15.8441 13.8264 15.31 13.8264C14.7746 13.8264 14.3125 14.0208 13.9236 14.4097L9.69444 18.6389C9.5 18.8333 9.36259 19.044 9.28222 19.2708C9.20056 19.4977 9.15972 19.7407 9.15972 20C9.15972 20.2593 9.20056 20.5023 9.28222 20.7292C9.36259 20.956 9.5 21.1667 9.69444 21.3611L13.9236 25.5903C14.3125 25.9792 14.7746 26.1736 15.31 26.1736C15.8441 26.1736 16.3056 25.9792 16.6944 25.5903C17.0833 25.2014 17.2778 24.7477 17.2778 24.2292C17.2778 23.7106 17.0833 23.2569 16.6944 22.8681L13.8264 20ZM26.1736 20L23.3056 22.8681C22.9167 23.2569 22.7222 23.7106 22.7222 24.2292C22.7222 24.7477 22.9167 25.2014 23.3056 25.5903C23.6944 25.9792 24.1566 26.1736 24.6919 26.1736C25.226 26.1736 25.6875 25.9792 26.0764 25.5903L30.3056 21.3611C30.5 21.1667 30.6374 20.956 30.7178 20.7292C30.7994 20.5023 30.8403 20.2593 30.8403 20C30.8403 19.7407 30.7994 19.4977 30.7178 19.2708C30.6374 19.044 30.5 18.8333 30.3056 18.6389L26.0764 14.4097C25.8819 14.2153 25.6635 14.0694 25.4211 13.9722C25.1774 13.875 24.9344 13.8264 24.6919 13.8264C24.4482 13.8264 24.2052 13.875 23.9628 13.9722C23.7191 14.0694 23.5 14.2153 23.3056 14.4097C22.9167 14.7986 22.7222 15.2523 22.7222 15.7708C22.7222 16.2894 22.9167 16.7431 23.3056 17.1319L26.1736 20ZM6.38889 37.5C5.31944 37.5 4.40361 37.1195 3.64139 36.3586C2.88046 35.5964 2.5 34.6806 2.5 33.6111V6.38889C2.5 5.31944 2.88046 4.40361 3.64139 3.64139C4.40361 2.88046 5.31944 2.5 6.38889 2.5H33.6111C34.6806 2.5 35.5964 2.88046 36.3586 3.64139C37.1195 4.40361 37.5 5.31944 37.5 6.38889V33.6111C37.5 34.6806 37.1195 35.5964 36.3586 36.3586C35.5964 37.1195 34.6806 37.5 33.6111 37.5H6.38889Z" fill="#343F48"/>
</svg>
