<svg width="32" height="32" viewBox="0 0 32 32" fill="none" xmlns="http://www.w3.org/2000/svg"><path d="M11.0611 16L13.3556 13.7056C13.6667 13.3944 13.8222 13.0315 13.8222 12.6167C13.8222 12.2019 13.6667 11.8389 13.3556 11.5278C13.0444 11.2167 12.6753 11.0611 12.248 11.0611C11.8197 11.0611 11.45 11.2167 11.1389 11.5278L7.75556 14.9111C7.6 15.0667 7.49007 15.2352 7.42578 15.4167C7.36044 15.5981 7.32778 15.7926 7.32778 16C7.32778 16.2074 7.36044 16.4019 7.42578 16.5833C7.49007 16.7648 7.6 16.9333 7.75556 17.0889L11.1389 20.4722C11.45 20.7833 11.8197 20.9389 12.248 20.9389C12.6753 20.9389 13.0444 20.7833 13.3556 20.4722C13.6667 20.1611 13.8222 19.7981 13.8222 19.3833C13.8222 18.9685 13.6667 18.6056 13.3556 18.2944L11.0611 16ZM20.9389 16L18.6444 18.2944C18.3333 18.6056 18.1778 18.9685 18.1778 19.3833C18.1778 19.7981 18.3333 20.1611 18.6444 20.4722C18.9556 20.7833 19.3253 20.9389 19.7536 20.9389C20.1808 20.9389 20.55 20.7833 20.8611 20.4722L24.2444 17.0889C24.4 16.9333 24.5099 16.7648 24.5742 16.5833C24.6396 16.4019 24.6722 16.2074 24.6722 16C24.6722 15.7926 24.6396 15.5981 24.5742 15.4167C24.5099 15.2352 24.4 15.0667 24.2444 14.9111L20.8611 11.5278C20.7056 11.3722 20.5308 11.2556 20.3369 11.1778C20.1419 11.1 19.9475 11.0611 19.7536 11.0611C19.5586 11.0611 19.3641 11.1 19.1702 11.1778C18.9753 11.2556 18.8 11.3722 18.6444 11.5278C18.3333 11.8389 18.1778 12.2019 18.1778 12.6167C18.1778 13.0315 18.3333 13.3944 18.6444 13.7056L20.9389 16ZM5.11111 30C4.25556 30 3.52289 29.6956 2.91311 29.0869C2.30437 28.4771 2 27.7444 2 26.8889V5.11111C2 4.25556 2.30437 3.52289 2.91311 2.91311C3.52289 2.30437 4.25556 2 5.11111 2H26.8889C27.7444 2 28.4771 2.30437 29.0869 2.91311C29.6956 3.52289 30 4.25556 30 5.11111V26.8889C30 27.7444 29.6956 28.4771 29.0869 29.0869C28.4771 29.6956 27.7444 30 26.8889 30H5.11111Z" fill="#6E55FF"/></svg>