<svg width="17" height="16" viewBox="0 0 17 16" fill="none" xmlns="http://www.w3.org/2000/svg">
<path d="M6.19706 8L7.34428 6.85278C7.49984 6.69722 7.57762 6.51574 7.57762 6.30833C7.57762 6.10093 7.49984 5.91944 7.34428 5.76389C7.18873 5.60833 7.00413 5.53056 6.7905 5.53056C6.57636 5.53056 6.3915 5.60833 6.23595 5.76389L4.54428 7.45556C4.4665 7.53333 4.41154 7.61759 4.37939 7.70833C4.34673 7.79907 4.33039 7.8963 4.33039 8C4.33039 8.1037 4.34673 8.20093 4.37939 8.29167C4.41154 8.38241 4.4665 8.46667 4.54428 8.54444L6.23595 10.2361C6.3915 10.3917 6.57636 10.4694 6.7905 10.4694C7.00413 10.4694 7.18873 10.3917 7.34428 10.2361C7.49984 10.0806 7.57762 9.89907 7.57762 9.69167C7.57762 9.48426 7.49984 9.30278 7.34428 9.14722L6.19706 8ZM11.1359 8L9.98873 9.14722C9.83317 9.30278 9.75539 9.48426 9.75539 9.69167C9.75539 9.89907 9.83317 10.0806 9.98873 10.2361C10.1443 10.3917 10.3291 10.4694 10.5433 10.4694C10.7569 10.4694 10.9415 10.3917 11.0971 10.2361L12.7887 8.54444C12.8665 8.46667 12.9215 8.38241 12.9536 8.29167C12.9863 8.20093 13.0026 8.1037 13.0026 8C13.0026 7.8963 12.9863 7.79907 12.9536 7.70833C12.9215 7.61759 12.8665 7.53333 12.7887 7.45556L11.0971 5.76389C11.0193 5.68611 10.9319 5.62778 10.8349 5.58889C10.7375 5.55 10.6402 5.53056 10.5433 5.53056C10.4458 5.53056 10.3486 5.55 10.2516 5.58889C10.1541 5.62778 10.0665 5.68611 9.98873 5.76389C9.83317 5.91944 9.75539 6.10093 9.75539 6.30833C9.75539 6.51574 9.83317 6.69722 9.98873 6.85278L11.1359 8ZM3.22206 15C2.79428 15 2.42795 14.8478 2.12306 14.5434C1.81869 14.2386 1.6665 13.8722 1.6665 13.4444V2.55556C1.6665 2.12778 1.81869 1.76144 2.12306 1.45656C2.42795 1.15219 2.79428 1 3.22206 1H14.1109C14.5387 1 14.9051 1.15219 15.2099 1.45656C15.5143 1.76144 15.6665 2.12778 15.6665 2.55556V13.4444C15.6665 13.8722 15.5143 14.2386 15.2099 14.5434C14.9051 14.8478 14.5387 15 14.1109 15H3.22206Z" fill="white"/>
</svg>
