<svg width="17" height="13" viewBox="0 0 17 13" fill="none" xmlns="http://www.w3.org/2000/svg"> <g clip-path="url(#clip0_802_7720)"> <path d="M10.0999 0.900006H13.2999C13.7424 0.900006 14.0999 1.25751 14.0999 1.70001C14.0999 2.14251 13.7424 2.50001 13.2999 2.50001H10.4599C10.3299 3.14501 9.88743 3.67751 9.29993 3.93251V11.3H13.2999C13.7424 11.3 14.0999 11.6575 14.0999 12.1C14.0999 12.5425 13.7424 12.9 13.2999 12.9H3.69993C3.25743 12.9 2.89993 12.5425 2.89993 12.1C2.89993 11.6575 3.25743 11.3 3.69993 11.3H7.69993V3.93251C7.11243 3.67501 6.66993 3.14251 6.53993 2.50001H3.69993C3.25743 2.50001 2.89993 2.14251 2.89993 1.70001C2.89993 1.25751 3.25743 0.900006 3.69993 0.900006H6.89993C7.26493 0.415006 7.84493 0.100006 8.49993 0.100006C9.15493 0.100006 9.73493 0.415006 10.0999 0.900006ZM3.64493 4.53251L1.77743 8.10001H5.62243L3.75493 4.53251C3.74493 4.51251 3.72243 4.50001 3.69993 4.50001C3.67743 4.50001 3.65743 4.51251 3.64493 4.53251ZM3.69993 3.30001C4.16993 3.30001 4.59993 3.56001 4.81743 3.97501L6.76243 7.68751C6.83993 7.83251 6.91493 8.03751 6.89993 8.28251C6.88243 8.58501 6.77993 9.16251 6.27993 9.66001C5.77243 10.165 4.95493 10.5 3.69993 10.5C2.44493 10.5 1.62743 10.165 1.11993 9.66251C0.619925 9.16251 0.514925 8.58751 0.499925 8.28501C0.484925 8.04001 0.562425 7.83501 0.637425 7.69001L2.58243 3.97501C2.79993 3.56001 3.22993 3.30001 3.69993 3.30001ZM13.2999 4.50001C13.2774 4.50001 13.2574 4.51251 13.2449 4.53251L11.3774 8.10001H15.2224L13.3549 4.53251C13.3449 4.51251 13.3224 4.50001 13.2999 4.50001ZM12.1824 3.97501C12.3999 3.56001 12.8299 3.30001 13.2999 3.30001C13.7699 3.30001 14.1999 3.56001 14.4174 3.97501L16.3624 7.68751C16.4399 7.83251 16.5149 8.03751 16.4999 8.28251C16.4824 8.58501 16.3799 9.16251 15.8799 9.66001C15.3724 10.165 14.5549 10.5 13.2999 10.5C12.0449 10.5 11.2274 10.165 10.7199 9.66251C10.2199 9.16251 10.1149 8.58751 10.0999 8.28501C10.0849 8.04001 10.1624 7.83501 10.2374 7.69001L12.1824 3.97501Z" fill="#6E55FF"/> </g> <defs> <clipPath id="clip0_802_7720"> <rect width="16" height="12.8" fill="white" transform="translate(0.5 0.100006)"/> </clipPath> </defs> </svg>