<svg width="15" height="16" viewBox="0 0 15 16" fill="none" xmlns="http://www.w3.org/2000/svg">
<path d="M8.97059 4.23526V-3.05176e-05H4.73529C4.36087 -3.05176e-05 4.00178 0.148709 3.73703 0.413466C3.47227 0.678223 3.32353 1.03731 3.32353 1.41173V6.78303C3.78288 6.65331 4.25797 6.58775 4.73529 6.5882C5.84306 6.5882 6.86988 6.93644 7.71223 7.52938H12.2647C12.3895 7.52938 12.5092 7.57896 12.5975 7.66721C12.6857 7.75547 12.7353 7.87516 12.7353 7.99997C12.7353 8.12478 12.6857 8.24447 12.5975 8.33273C12.5092 8.42098 12.3895 8.47056 12.2647 8.47056H8.7287C8.96682 8.7595 9.17482 9.07479 9.34706 9.41173H12.2647C12.3895 9.41173 12.5092 9.46131 12.5975 9.54957C12.6857 9.63782 12.7353 9.75751 12.7353 9.88232C12.7353 10.0071 12.6857 10.1268 12.5975 10.2151C12.5092 10.3033 12.3895 10.3529 12.2647 10.3529H9.71694C9.80392 10.6606 9.86221 10.9757 9.89106 11.2941H12.2647C12.3895 11.2941 12.5092 11.3437 12.5975 11.4319C12.6857 11.5202 12.7353 11.6399 12.7353 11.7647C12.7353 11.8895 12.6857 12.0092 12.5975 12.0974C12.5092 12.1857 12.3895 12.2353 12.2647 12.2353H9.89106C9.7977 13.2722 9.39246 14.2566 8.7287 15.0588H13.2059C13.5803 15.0588 13.9394 14.9101 14.2041 14.6453C14.4689 14.3805 14.6176 14.0215 14.6176 13.647V5.64703H10.3824C10.0079 5.64703 9.64884 5.49829 9.38408 5.23353C9.11933 4.96877 8.97059 4.60969 8.97059 4.23526ZM9.91176 4.23526V0.235264L14.3824 4.70585H10.3824C10.2575 4.70585 10.1378 4.65627 10.0496 4.56802C9.96134 4.47977 9.91176 4.36007 9.91176 4.23526ZM4.73529 16C5.85856 16 6.93583 15.5538 7.7301 14.7595C8.52437 13.9652 8.97059 12.8879 8.97059 11.7647C8.97059 10.6414 8.52437 9.56414 7.7301 8.76987C6.93583 7.9756 5.85856 7.52938 4.73529 7.52938C3.61202 7.52938 2.53476 7.9756 1.74049 8.76987C0.946217 9.56414 0.5 10.6414 0.5 11.7647C0.5 12.8879 0.946217 13.9652 1.74049 14.7595C2.53476 15.5538 3.61202 16 4.73529 16ZM4.26471 9.88232C4.26471 9.75751 4.31429 9.63782 4.40254 9.54957C4.49079 9.46131 4.61049 9.41173 4.73529 9.41173C4.8601 9.41173 4.9798 9.46131 5.06805 9.54957C5.1563 9.63782 5.20588 9.75751 5.20588 9.88232V11.2941H6.14706C6.27187 11.2941 6.39156 11.3437 6.47981 11.4319C6.56807 11.5202 6.61765 11.6399 6.61765 11.7647C6.61765 11.8895 6.56807 12.0092 6.47981 12.0974C6.39156 12.1857 6.27187 12.2353 6.14706 12.2353H4.73529C4.61049 12.2353 4.49079 12.1857 4.40254 12.0974C4.31429 12.0092 4.26471 11.8895 4.26471 11.7647V9.88232Z" fill="#6E55FF"/>
</svg>
