<svg width="16" height="16" viewBox="0 0 16 16" fill="none" xmlns="http://www.w3.org/2000/svg">
<path fill-rule="evenodd" clip-rule="evenodd" d="M6.80086 0.80005C5.58219 0.80005 4.38553 0.899384 3.22019 1.09005C3.10314 1.10919 2.9967 1.16931 2.91989 1.25968C2.84308 1.35005 2.80089 1.46478 2.80086 1.58338V1.84138C2.24953 1.94605 1.70619 2.07138 1.17086 2.21738C1.06788 2.2455 0.976604 2.30584 0.910388 2.38957C0.844171 2.4733 0.80649 2.57603 0.80286 2.68272C0.772956 3.52955 1.06668 4.35598 1.62432 4.99399C2.18196 5.63199 2.96165 6.03368 3.80486 6.11738C4.32587 6.70655 5.00901 7.12905 5.76886 7.33205C5.70625 7.8448 5.55179 8.34207 5.31286 8.80005H5.13419C4.86898 8.80005 4.61462 8.90541 4.42709 9.09294C4.23955 9.28048 4.13419 9.53483 4.13419 9.80005V11.4667H3.63419C3.17419 11.4667 2.80086 11.84 2.80086 12.3C2.80086 12.576 3.02486 12.8 3.30086 12.8H10.3009C10.4335 12.8 10.5606 12.7474 10.6544 12.6536C10.7482 12.5598 10.8009 12.4327 10.8009 12.3C10.8009 11.84 10.4275 11.4667 9.96752 11.4667H9.46752V9.80005C9.46752 9.53483 9.36217 9.28048 9.17463 9.09294C8.9871 8.90541 8.73274 8.80005 8.46753 8.80005H8.28886C8.04996 8.34206 7.89549 7.84479 7.83286 7.33205C8.5927 7.12905 9.27584 6.70655 9.79686 6.11738C10.6401 6.03368 11.4198 5.63199 11.9774 4.99399C12.535 4.35598 12.8288 3.52955 12.7989 2.68272C12.7952 2.57603 12.7575 2.4733 12.6913 2.38957C12.6251 2.30584 12.5338 2.2455 12.4309 2.21738C11.8927 2.07066 11.3489 1.94523 10.8009 1.84138V1.58338C10.8008 1.46478 10.7586 1.35005 10.6818 1.25968C10.605 1.16931 10.4986 1.10919 10.3815 1.09005C9.19779 0.896601 8.0003 0.799616 6.80086 0.80005ZM1.81753 3.08138C2.14219 3.00005 2.47019 2.92672 2.80086 2.86005V3.46672C2.80086 3.96005 2.89019 4.43205 3.05419 4.86872C2.7187 4.69343 2.43084 4.43922 2.2154 4.12797C1.99997 3.81673 1.86343 3.45778 1.81753 3.08205V3.08138ZM11.7842 3.08138C11.7384 3.45705 11.6019 3.81596 11.3866 4.1272C11.1713 4.43843 10.8836 4.69268 10.5482 4.86805C10.7159 4.41991 10.8015 3.94521 10.8009 3.46672V2.86005C11.1315 2.92605 11.4595 3.00005 11.7842 3.08138Z" fill="#343F48"/>
</svg>
