<svg width="16" height="16" viewBox="0 0 16 16" fill="none" xmlns="http://www.w3.org/2000/svg">
<mask id="mask0_2912_34605" style="mask-type:alpha" maskUnits="userSpaceOnUse" x="0" y="0" width="16" height="16">
<g clip-path="url(#clip0_2912_34605)">
<path d="M11.9343 5.94118H10.5714V1.82353C10.5714 1.37059 10.1857 1 9.71429 1H6.28571C5.81429 1 5.42857 1.37059 5.42857 1.82353V5.94118H4.06571C3.30286 5.94118 2.91714 6.83059 3.45714 7.34941L7.39143 11.1294C7.72571 11.4506 8.26571 11.4506 8.6 11.1294L12.5343 7.34941C13.0743 6.83059 12.6971 5.94118 11.9343 5.94118ZM2 14.1765C2 14.6294 2.38571 15 2.85714 15H13.1429C13.6143 15 14 14.6294 14 14.1765C14 13.7235 13.6143 13.3529 13.1429 13.3529H2.85714C2.38571 13.3529 2 13.7235 2 14.1765Z" fill="black"/>
</g>
</mask>
<g mask="url(#mask0_2912_34605)">
<rect width="16" height="16" fill="white"/>
</g>
<defs>
<clipPath id="clip0_2912_34605">
<rect width="16" height="16" fill="white"/>
</clipPath>
</defs>
</svg>
