<svg width="40" height="40" viewBox="0 0 40 40" fill="none" xmlns="http://www.w3.org/2000/svg">
<mask id="mask0_2703_122741" style="mask-type:alpha" maskUnits="userSpaceOnUse" x="0" y="0" width="40" height="40">
<g clip-path="url(#clip0_2703_122741)">
<path d="M29.8357 14.8529H26.4286V4.55882C26.4286 3.42647 25.4643 2.5 24.2857 2.5H15.7143C14.5357 2.5 13.5714 3.42647 13.5714 4.55882V14.8529H10.1643C8.25714 14.8529 7.29286 17.0765 8.64286 18.3735L18.4786 27.8235C19.3143 28.6265 20.6643 28.6265 21.5 27.8235L31.3357 18.3735C32.6857 17.0765 31.7429 14.8529 29.8357 14.8529ZM5 35.4412C5 36.5735 5.96429 37.5 7.14286 37.5H32.8571C34.0357 37.5 35 36.5735 35 35.4412C35 34.3088 34.0357 33.3824 32.8571 33.3824H7.14286C5.96429 33.3824 5 34.3088 5 35.4412Z" fill="black"/>
</g>
</mask>
<g mask="url(#mask0_2703_122741)">
<rect width="40" height="40" fill="#343F48"/>
</g>
<defs>
<clipPath id="clip0_2703_122741">
<rect width="40" height="40" fill="white"/>
</clipPath>
</defs>
</svg>
