<svg width="16" height="17" viewBox="0 0 16 17" fill="none" xmlns="http://www.w3.org/2000/svg">
<mask id="mask0_3001_115005" style="mask-type:alpha" maskUnits="userSpaceOnUse" x="0" y="0" width="16" height="17">
<g clip-path="url(#clip0_3001_115005)">
<path d="M11.9343 6.44118H10.5714V2.32353C10.5714 1.87059 10.1857 1.5 9.71429 1.5H6.28571C5.81429 1.5 5.42857 1.87059 5.42857 2.32353V6.44118H4.06571C3.30286 6.44118 2.91714 7.33059 3.45714 7.84941L7.39143 11.6294C7.72571 11.9506 8.26571 11.9506 8.6 11.6294L12.5343 7.84941C13.0743 7.33059 12.6971 6.44118 11.9343 6.44118ZM2 14.6765C2 15.1294 2.38571 15.5 2.85714 15.5H13.1429C13.6143 15.5 14 15.1294 14 14.6765C14 14.2235 13.6143 13.8529 13.1429 13.8529H2.85714C2.38571 13.8529 2 14.2235 2 14.6765Z" fill="black"/>
</g>
</mask>
<g mask="url(#mask0_3001_115005)">
<rect y="0.5" width="16" height="16" fill="#6E55FF"/>
</g>
<defs>
<clipPath id="clip0_3001_115005">
<rect width="16" height="16" fill="white" transform="translate(0 0.5)"/>
</clipPath>
</defs>
</svg>
