<svg width="16" height="16" viewBox="0 0 16 16" fill="none" xmlns="http://www.w3.org/2000/svg">
<g opacity="0.3">
<path d="M6.65302 13.1C6.65302 13.125 6.65614 13.1875 6.66237 13.2875C6.66861 13.3875 6.67017 13.4703 6.66705 13.5359C6.66393 13.6016 6.65458 13.675 6.63899 13.7563C6.6234 13.8375 6.59222 13.8984 6.54545 13.9391C6.49868 13.9797 6.43477 14 6.3537 14H3.3605C2.61844 14 1.98394 13.7359 1.45702 13.2078C0.93009 12.6797 0.666626 12.0438 0.666626 11.3V4.7C0.666626 3.95625 0.93009 3.32031 1.45702 2.79219C1.98394 2.26406 2.61844 2 3.3605 2H6.3537C6.43477 2 6.50492 2.02969 6.56416 2.08906C6.6234 2.14844 6.65302 2.21875 6.65302 2.3C6.65302 2.325 6.65614 2.3875 6.66237 2.4875C6.66861 2.5875 6.67017 2.67031 6.66705 2.73594C6.66393 2.80156 6.65458 2.875 6.63899 2.95625C6.6234 3.0375 6.59222 3.09844 6.54545 3.13906C6.49868 3.17969 6.43477 3.2 6.3537 3.2H3.3605C2.94894 3.2 2.59661 3.34688 2.30353 3.64063C2.01045 3.93438 1.8639 4.2875 1.8639 4.7V11.3C1.8639 11.7125 2.01045 12.0656 2.30353 12.3594C2.59661 12.6531 2.94894 12.8 3.3605 12.8H6.27887L6.38644 12.8094L6.49401 12.8375L6.56884 12.8891L6.63431 12.9734L6.65302 13.1ZM15.3333 8C15.3333 8.1625 15.2741 8.30313 15.1556 8.42188L10.0671 13.5219C9.94866 13.6406 9.80835 13.7 9.64622 13.7C9.48409 13.7 9.34378 13.6406 9.2253 13.5219C9.10682 13.4031 9.04758 13.2625 9.04758 13.1V10.4H4.8571C4.69497 10.4 4.55466 10.3406 4.43618 10.2219C4.3177 10.1031 4.25846 9.9625 4.25846 9.8V6.2C4.25846 6.0375 4.3177 5.89688 4.43618 5.77813C4.55466 5.65938 4.69497 5.6 4.8571 5.6H9.04758V2.9C9.04758 2.7375 9.10682 2.59688 9.2253 2.47813C9.34378 2.35938 9.48409 2.3 9.64622 2.3C9.80835 2.3 9.94866 2.35938 10.0671 2.47813L15.1556 7.57812C15.2741 7.69688 15.3333 7.8375 15.3333 8Z" fill="#343F48"/>
</g>
</svg>
