<svg width="16" height="16" viewBox="0 0 16 16" fill="none" xmlns="http://www.w3.org/2000/svg">
<g clip-path="url(#clip0_2912_27849)">
<mask id="mask0_2912_27849" style="mask-type:alpha" maskUnits="userSpaceOnUse" x="0" y="0" width="16" height="16">
<g clip-path="url(#clip1_2912_27849)">
<path fill-rule="evenodd" clip-rule="evenodd" d="M1.33594 8.50002C1.96594 5.45735 4.71127 3.16669 8.0026 3.16669C11.2939 3.16669 14.0393 5.45735 14.6693 8.50002C14.0393 11.5427 11.2939 13.8334 8.0026 13.8334C4.71127 13.8334 1.96594 11.5427 1.33594 8.50002ZM8.0026 11.8334C8.88666 11.8334 9.73451 11.4822 10.3596 10.857C10.9847 10.2319 11.3359 9.38408 11.3359 8.50002C11.3359 7.61597 10.9847 6.76812 10.3596 6.143C9.73451 5.51788 8.88666 5.16669 8.0026 5.16669C7.11855 5.16669 6.2707 5.51788 5.64558 6.143C5.02046 6.76812 4.66927 7.61597 4.66927 8.50002C4.66927 9.38408 5.02046 10.2319 5.64558 10.857C6.2707 11.4822 7.11855 11.8334 8.0026 11.8334ZM8.0026 10.5C8.53304 10.5 9.04175 10.2893 9.41682 9.91423C9.79189 9.53916 10.0026 9.03045 10.0026 8.50002C10.0026 7.96959 9.79189 7.46088 9.41682 7.08581C9.04175 6.71073 8.53304 6.50002 8.0026 6.50002C7.47217 6.50002 6.96346 6.71073 6.58839 7.08581C6.21332 7.46088 6.0026 7.96959 6.0026 8.50002C6.0026 9.03045 6.21332 9.53916 6.58839 9.91423C6.96346 10.2893 7.47217 10.5 8.0026 10.5Z" fill="black"/>
</g>
</mask>
<g mask="url(#mask0_2912_27849)">
<rect y="0.5" width="16" height="16" fill="#343F48"/>
</g>
</g>
<defs>
<clipPath id="clip0_2912_27849">
<rect width="16" height="16" fill="white" transform="translate(0 0.5)"/>
</clipPath>
<clipPath id="clip1_2912_27849">
<rect width="16" height="16" fill="white" transform="translate(0 0.5)"/>
</clipPath>
</defs>
</svg>
