<svg width="16" height="17" viewBox="0 0 16 17" fill="none" xmlns="http://www.w3.org/2000/svg">
<path d="M2.66536 15.1663C2.2987 15.1663 1.98492 15.0359 1.72403 14.775C1.4627 14.5137 1.33203 14.1997 1.33203 13.833V8.04967C1.33203 7.78301 1.40425 7.53856 1.5487 7.31634C1.69314 7.09412 1.88759 6.92745 2.13203 6.81634L5.06536 5.56634C5.28759 5.47745 5.4987 5.49679 5.6987 5.62434C5.8987 5.75234 5.9987 5.93856 5.9987 6.18301V6.49967L8.41536 5.53301C8.63759 5.44412 8.84581 5.46634 9.04003 5.59967C9.2347 5.73301 9.33203 5.91634 9.33203 6.14967V7.16634H14.6654V13.833C14.6654 14.1997 14.5349 14.5137 14.274 14.775C14.0127 15.0359 13.6987 15.1663 13.332 15.1663H2.66536ZM14.532 6.16634H11.4487L11.932 2.41634C11.9543 2.24967 12.0265 2.11079 12.1487 1.99967C12.2709 1.88856 12.4154 1.83301 12.582 1.83301H13.4154C13.582 1.83301 13.7265 1.88856 13.8487 1.99967C13.9709 2.11079 14.0431 2.24967 14.0654 2.41634L14.532 6.16634ZM7.9987 12.4997C8.18759 12.4997 8.34603 12.4357 8.47403 12.3077C8.60159 12.1801 8.66536 12.0219 8.66536 11.833V10.4997C8.66536 10.3108 8.60159 10.1523 8.47403 10.0243C8.34603 9.89679 8.18759 9.83301 7.9987 9.83301C7.80981 9.83301 7.65159 9.89679 7.52403 10.0243C7.39603 10.1523 7.33203 10.3108 7.33203 10.4997V11.833C7.33203 12.0219 7.39603 12.1801 7.52403 12.3077C7.65159 12.4357 7.80981 12.4997 7.9987 12.4997ZM5.33203 12.4997C5.52092 12.4997 5.67936 12.4357 5.80736 12.3077C5.93492 12.1801 5.9987 12.0219 5.9987 11.833V10.4997C5.9987 10.3108 5.93492 10.1523 5.80736 10.0243C5.67936 9.89679 5.52092 9.83301 5.33203 9.83301C5.14314 9.83301 4.9847 9.89679 4.8567 10.0243C4.72914 10.1523 4.66536 10.3108 4.66536 10.4997V11.833C4.66536 12.0219 4.72914 12.1801 4.8567 12.3077C4.9847 12.4357 5.14314 12.4997 5.33203 12.4997ZM10.6654 12.4997C10.8543 12.4997 11.0125 12.4357 11.14 12.3077C11.268 12.1801 11.332 12.0219 11.332 11.833V10.4997C11.332 10.3108 11.268 10.1523 11.14 10.0243C11.0125 9.89679 10.8543 9.83301 10.6654 9.83301C10.4765 9.83301 10.3183 9.89679 10.1907 10.0243C10.0627 10.1523 9.9987 10.3108 9.9987 10.4997V11.833C9.9987 12.0219 10.0627 12.1801 10.1907 12.3077C10.3183 12.4357 10.4765 12.4997 10.6654 12.4997Z" fill="#EDEDED"/>
</svg>
