<svg width="16" height="16" viewBox="0 0 16 16" fill="none" xmlns="http://www.w3.org/2000/svg">
<path d="M4.66732 11.9667L8.00065 10.5333L11.334 11.9667V3.33333H4.66732V11.9667ZM4.26732 13.6C4.0451 13.6889 3.83398 13.6693 3.63398 13.5413C3.43398 13.4138 3.33398 13.2278 3.33398 12.9833V3.33333C3.33398 2.96667 3.46465 2.65267 3.72598 2.39133C3.98687 2.13044 4.30065 2 4.66732 2H11.334C11.7007 2 12.0147 2.13044 12.276 2.39133C12.5369 2.65267 12.6673 2.96667 12.6673 3.33333V12.9833C12.6673 13.2278 12.5673 13.4138 12.3673 13.5413C12.1673 13.6693 11.9562 13.6889 11.734 13.6L8.00065 12L4.26732 13.6ZM4.66732 3.33333H11.334H8.00065H4.66732Z" fill="#343F48"/>
</svg>
