<svg width="16" height="17" viewBox="0 0 16 17" fill="none" xmlns="http://www.w3.org/2000/svg">
<g clip-path="url(#clip0_3919_24876)">
<path d="M10.1852 10.2844C10.6758 10.3875 11.0977 10.5781 11.4945 10.8781L11.6914 11.0281L12.1227 11.0375L12.5508 11.0469L12.5602 13.5219L12.5664 16H8.67891C6.16641 16 4.73516 15.9875 4.62578 15.9688C4.53203 15.95 4.36641 15.8937 4.25391 15.8406C4.06641 15.7531 3.89453 15.5906 2.04453 13.7406C-0.149218 11.5469 -0.0523434 11.6594 0.032032 11.375C0.0726566 11.2344 0.266407 11.05 0.469532 10.9594C0.660157 10.8719 0.991407 10.8688 1.20391 10.95C1.30391 10.9875 2.04766 11.525 3.29766 12.4656C4.37266 13.2687 5.29141 13.9375 5.36016 13.9594C5.45391 13.9937 5.75703 14 6.79766 13.9937C8.04766 13.9844 8.11953 13.9813 8.21953 13.9219C8.53203 13.7375 8.55078 13.3312 8.25703 13.1344C8.15078 13.0625 8.13828 13.0625 7.15703 13.0625C6.16641 13.0625 5.93203 13.0438 5.74141 12.9469C5.59141 12.8687 5.37891 12.65 5.29141 12.4844C5.21953 12.35 5.20703 12.2906 5.20703 12.0469C5.20703 11.8031 5.21953 11.7438 5.29141 11.6062C5.33828 11.5187 5.44766 11.3812 5.53516 11.3031C5.78516 11.0781 5.88516 11.0563 6.65391 11.0375L7.32266 11.025L7.56016 10.8531C8.32891 10.3 9.28203 10.0938 10.1852 10.2844Z" fill="#6E55FF"/>
<path d="M15.6726 10.5625C15.7226 10.5781 15.7976 10.6219 15.8414 10.6625C16.0101 10.8188 16.0039 10.7344 16.0039 13.5313C16.0039 16.0719 16.0039 16.1313 15.9414 16.25C15.9008 16.3313 15.8351 16.3969 15.7539 16.4375C15.6383 16.4969 15.5726 16.5 14.7476 16.5C13.7601 16.5 13.7133 16.4906 13.5758 16.2844L13.5039 16.1781V13.5344C13.5039 11.0156 13.507 10.8844 13.5633 10.7813C13.5945 10.7219 13.6695 10.6438 13.7258 10.6094C13.8258 10.55 13.8945 10.5469 14.707 10.5406C15.1883 10.5375 15.6226 10.5469 15.6726 10.5625Z" fill="#6E55FF"/>
<path fill-rule="evenodd" clip-rule="evenodd" d="M0.5 5.5C0.5 3.01477 2.51477 1 5 1C7.48523 1 9.5 3.01477 9.5 5.5C9.5 7.98523 7.48523 10 5 10C2.51477 10 0.5 7.98523 0.5 5.5ZM5.40909 3.04545C5.20741 3.04545 4.91368 3.10273 4.65882 3.286C4.38227 3.48482 4.18182 3.81209 4.18182 4.27273V5.09091H3.77273C3.66423 5.09091 3.56018 5.13401 3.48346 5.21073C3.40674 5.28745 3.36364 5.3915 3.36364 5.5C3.36364 5.6085 3.40674 5.71255 3.48346 5.78927C3.56018 5.86599 3.66423 5.90909 3.77273 5.90909H4.18182V6.31818C4.18182 6.38895 4.15727 6.50473 4.09509 6.59064C4.04845 6.65568 3.96664 6.72727 3.77273 6.72727C3.66423 6.72727 3.56018 6.77037 3.48346 6.84709C3.40674 6.92381 3.36364 7.02787 3.36364 7.13636C3.36364 7.24486 3.40674 7.34892 3.48346 7.42563C3.56018 7.50235 3.66423 7.54545 3.77273 7.54545H6.22727C6.33577 7.54545 6.43982 7.50235 6.51654 7.42563C6.59326 7.34892 6.63636 7.24486 6.63636 7.13636C6.63636 7.02787 6.59326 6.92381 6.51654 6.84709C6.43982 6.77037 6.33577 6.72727 6.22727 6.72727H4.93209C4.98118 6.57714 5 6.43273 5 6.31818V5.90909H5.40909C5.51759 5.90909 5.62164 5.86599 5.69836 5.78927C5.77508 5.71255 5.81818 5.6085 5.81818 5.5C5.81818 5.3915 5.77508 5.28745 5.69836 5.21073C5.62164 5.13401 5.51759 5.09091 5.40909 5.09091H5V4.27273C5 4.07882 5.07159 3.997 5.13664 3.95036C5.22255 3.88818 5.33832 3.86364 5.40909 3.86364C5.47986 3.86364 5.59564 3.88818 5.68155 3.95036C5.74659 3.997 5.81818 4.07882 5.81818 4.27273C5.81818 4.38122 5.86128 4.48528 5.938 4.562C6.01472 4.63872 6.11877 4.68182 6.22727 4.68182C6.33577 4.68182 6.43982 4.63872 6.51654 4.562C6.59326 4.48528 6.63636 4.38122 6.63636 4.27273C6.63636 3.81209 6.43509 3.48482 6.15936 3.286C5.93952 3.13146 5.67781 3.04755 5.40909 3.04545Z" fill="#6E55FF"/>
</g>
<defs>
<clipPath id="clip0_3919_24876">
<rect width="16" height="16" fill="white" transform="translate(0 0.5)"/>
</clipPath>
</defs>
</svg>
