<svg width="16" height="17" viewBox="0 0 16 17" fill="none" xmlns="http://www.w3.org/2000/svg">
<g clip-path="url(#clip0_187_2960)">
<path d="M5.95312 2.31992L7.04063 4.16992H4.75C4.05937 4.16992 3.5 3.61055 3.5 2.91992C3.5 2.2293 4.05937 1.66992 4.75 1.66992H4.81875C5.28437 1.66992 5.71875 1.9168 5.95312 2.31992ZM2 2.91992C2 3.36992 2.10938 3.79492 2.3 4.16992H1C0.446875 4.16992 0 4.6168 0 5.16992V7.16992C0 7.72305 0.446875 8.16992 1 8.16992H15C15.5531 8.16992 16 7.72305 16 7.16992V5.16992C16 4.6168 15.5531 4.16992 15 4.16992H13.7C13.8906 3.79492 14 3.36992 14 2.91992C14 1.40117 12.7688 0.169922 11.25 0.169922H11.1812C10.1844 0.169922 9.25938 0.698047 8.75313 1.55742L8 2.8418L7.24687 1.56055C6.74062 0.698047 5.81562 0.169922 4.81875 0.169922H4.75C3.23125 0.169922 2 1.40117 2 2.91992ZM12.5 2.91992C12.5 3.61055 11.9406 4.16992 11.25 4.16992H8.95938L10.0469 2.31992C10.2844 1.9168 10.7156 1.66992 11.1812 1.66992H11.25C11.9406 1.66992 12.5 2.2293 12.5 2.91992ZM1 9.16992V14.6699C1 15.498 1.67188 16.1699 2.5 16.1699H7V9.16992H1ZM9 16.1699H13.5C14.3281 16.1699 15 15.498 15 14.6699V9.16992H9V16.1699Z" fill="#FF8C52"/>
</g>
<defs>
<clipPath id="clip0_187_2960">
<rect width="16" height="16" fill="white" transform="translate(0 0.169922)"/>
</clipPath>
</defs>
</svg>
