<svg width="32" height="32" viewBox="0 0 32 32" fill="none" xmlns="http://www.w3.org/2000/svg"><path d="M2 22C2 21.4696 2.21071 20.9609 2.58579 20.5858C2.96086 20.2107 3.46957 20 4 20H8C8.53043 20 9.03914 20.2107 9.41421 20.5858C9.78929 20.9609 10 21.4696 10 22V28C10 28.5304 9.78929 29.0391 9.41421 29.4142C9.03914 29.7893 8.53043 30 8 30H4C3.46957 30 2.96086 29.7893 2.58579 29.4142C2.21071 29.0391 2 28.5304 2 28V22ZM12 14C12 13.4696 12.2107 12.9609 12.5858 12.5858C12.9609 12.2107 13.4696 12 14 12H18C18.5304 12 19.0391 12.2107 19.4142 12.5858C19.7893 12.9609 20 13.4696 20 14V28C20 28.5304 19.7893 29.0391 19.4142 29.4142C19.0391 29.7893 18.5304 30 18 30H14C13.4696 30 12.9609 29.7893 12.5858 29.4142C12.2107 29.0391 12 28.5304 12 28V14ZM22 4C22 3.46957 22.2107 2.96086 22.5858 2.58579C22.9609 2.21071 23.4696 2 24 2H28C28.5304 2 29.0391 2.21071 29.4142 2.58579C29.7893 2.96086 30 3.46957 30 4V28C30 28.5304 29.7893 29.0391 29.4142 29.4142C29.0391 29.7893 28.5304 30 28 30H24C23.4696 30 22.9609 29.7893 22.5858 29.4142C22.2107 29.0391 22 28.5304 22 28V4Z" fill="#3AEDBA"/></svg>