<svg width="16" height="17" viewBox="0 0 16 17" fill="none" xmlns="http://www.w3.org/2000/svg">
<g clip-path="url(#clip0_186_2442)">
<path d="M5.33333 2.16943V14.1694H3.33333C2.97971 14.1694 2.64057 14.029 2.39052 13.7789C2.14048 13.5289 2 13.1897 2 12.8361V3.50277C2 3.14914 2.14048 2.81001 2.39052 2.55996C2.64057 2.30991 2.97971 2.16943 3.33333 2.16943H5.33333ZM14 6.8361V12.8361C14.0001 13.1725 13.8731 13.4965 13.6443 13.7431C13.4156 13.9898 13.1021 14.1409 12.7667 14.1661L12.6667 14.1694H6.66667V6.8361H14ZM12.6667 2.16943C13.0031 2.16933 13.327 2.29637 13.5737 2.5251C13.8204 2.75383 13.9714 3.06733 13.9967 3.40277L14 3.50277V5.50277H6.66667V2.16943H12.6667Z" fill="#FF3E6C"/>
</g>
<defs>
<clipPath id="clip0_186_2442">
<rect width="16" height="16" fill="white" transform="translate(0 0.169434)"/>
</clipPath>
</defs>
</svg>
