<svg width="17" height="16" viewBox="0 0 17 16" fill="none" xmlns="http://www.w3.org/2000/svg">
<g opacity="0.3">
<path d="M9.01525 2.9465C8.876 2.81485 8.69164 2.74149 8.5 2.74149C8.30837 2.74149 8.124 2.81485 7.98475 2.9465L4.35175 6.38C4.24051 6.48526 4.15194 6.61213 4.09145 6.75283C4.03097 6.89353 3.99985 7.0451 4 7.19825V11.3758C4.0002 11.674 4.11881 11.9599 4.32977 12.1708C4.54073 12.3816 4.82676 12.5 5.125 12.5H6.25C6.54837 12.5 6.83452 12.3815 7.0455 12.1705C7.25647 11.9595 7.375 11.6734 7.375 11.375V9.5C7.375 9.40054 7.41451 9.30516 7.48484 9.23483C7.55516 9.16451 7.65055 9.125 7.75 9.125H9.25C9.34946 9.125 9.44484 9.16451 9.51517 9.23483C9.58549 9.30516 9.625 9.40054 9.625 9.5V11.375C9.625 11.6734 9.74353 11.9595 9.95451 12.1705C10.1655 12.3815 10.4516 12.5 10.75 12.5H11.875C12.1734 12.5 12.4595 12.3815 12.6705 12.1705C12.8815 11.9595 13 11.6734 13 11.375V7.1975C13 7.04442 12.9687 6.89296 12.9081 6.7524C12.8474 6.61183 12.7588 6.48511 12.6475 6.38L9.01525 2.945V2.9465Z" fill="#343F48"/>
</g>
</svg>
