<svg width="32" height="32" viewBox="0 0 32 32" fill="none" xmlns="http://www.w3.org/2000/svg">
<path d="M2.52509 1.0744C1.93067 1.25756 1.47611 1.68295 1.17889 2.32696L1.02154 2.66964L1.00406 16.2588C0.992406 26.8346 1.00406 29.907 1.06234 30.1138C1.14975 30.4446 1.5169 30.8287 1.84325 30.9291C2.01225 30.9764 2.69409 31 4.18599 31H6.28979L6.30727 27.3782L6.32475 23.7623L6.51124 23.4078C6.72104 22.9883 7.08818 22.6279 7.53109 22.3916L7.83995 22.2262H9.9962H12.1525L12.4846 22.3916C13.1315 22.7106 13.5569 23.2897 13.6968 24.0282C13.7318 24.2113 13.7551 25.6825 13.7551 27.6677V31H16.3775H19L18.9883 17.8363L18.9709 4.67847L18.8135 4.3476C18.6095 3.92811 18.2074 3.51453 17.8053 3.31956C17.4498 3.14231 17.5023 3.14822 11.6862 2.25606C9.44257 1.91338 6.66859 1.48207 5.52053 1.30482C3.3468 0.973957 2.93886 0.938507 2.52509 1.0744ZM8.25372 6.22054C8.54511 6.36234 8.70245 6.6223 8.73159 7.00634C8.74907 7.27813 8.73159 7.37266 8.61504 7.53809C8.34696 7.93986 8.20127 7.98712 7.01825 8.00485C6.3772 8.01666 5.87019 7.99894 5.73033 7.96349C5.41563 7.87487 5.09511 7.52037 5.04266 7.19541C4.99021 6.88227 5.18835 6.45096 5.47391 6.2619C5.66039 6.13191 5.7245 6.12601 6.8609 6.12601C7.83995 6.12601 8.09054 6.14373 8.25372 6.22054ZM14.5127 6.25599C14.7924 6.45096 14.9323 6.66957 14.9614 6.96498C15.0022 7.30767 14.8274 7.66217 14.5302 7.84532C14.3145 7.98121 14.2679 7.98712 13.114 7.98712C11.9601 7.98712 11.9135 7.98121 11.6979 7.84532C11.4007 7.66217 11.2258 7.30767 11.2666 6.96498C11.2958 6.66957 11.4356 6.45096 11.7154 6.25599C11.9019 6.13191 11.9601 6.12601 13.114 6.12601C14.2679 6.12601 14.3262 6.13191 14.5127 6.25599ZM8.25372 10.0019C8.54511 10.1437 8.70245 10.4036 8.73159 10.7877C8.74907 11.0594 8.73159 11.154 8.61504 11.3194C8.34696 11.7212 8.20127 11.7684 7.01825 11.7862C6.3772 11.798 5.87019 11.7803 5.73033 11.7448C5.41563 11.6562 5.09511 11.3017 5.04266 10.9767C4.99021 10.6636 5.18835 10.2323 5.47391 10.0432C5.66039 9.91323 5.7245 9.90733 6.8609 9.90733C7.83995 9.90733 8.09054 9.92505 8.25372 10.0019ZM14.5127 10.0373C14.7924 10.2323 14.9323 10.4509 14.9614 10.7463C15.0022 11.089 14.8274 11.4435 14.5302 11.6266C14.3145 11.7625 14.2679 11.7684 13.114 11.7684C11.9601 11.7684 11.9135 11.7625 11.6979 11.6266C11.4007 11.4435 11.2258 11.089 11.2666 10.7463C11.2958 10.4509 11.4356 10.2323 11.7154 10.0373C11.9019 9.91323 11.9601 9.90733 13.114 9.90733C14.2679 9.90733 14.3262 9.91323 14.5127 10.0373ZM8.25372 13.7832C8.54511 13.925 8.70245 14.1849 8.73159 14.569C8.74907 14.8408 8.73159 14.9353 8.61504 15.1007C8.34696 15.5025 8.20127 15.5498 7.01825 15.5675C6.3772 15.5793 5.87019 15.5616 5.73033 15.5261C5.41563 15.4375 5.09511 15.083 5.04266 14.758C4.99021 14.4449 5.18835 14.0136 5.47391 13.8245C5.66039 13.6946 5.7245 13.6886 6.8609 13.6886C7.83995 13.6886 8.09054 13.7064 8.25372 13.7832ZM14.5127 13.8186C14.7924 14.0136 14.9323 14.2322 14.9614 14.5276C15.0022 14.8703 14.8274 15.2248 14.5302 15.408C14.3145 15.5439 14.2679 15.5498 13.114 15.5498C11.9601 15.5498 11.9135 15.5439 11.6979 15.408C11.4007 15.2248 11.2258 14.8703 11.2666 14.5276C11.2958 14.2322 11.4356 14.0136 11.7154 13.8186C11.9019 13.6946 11.9601 13.6886 13.114 13.6886C14.2679 13.6886 14.3262 13.6946 14.5127 13.8186ZM8.25372 17.5645C8.54511 17.7063 8.70245 17.9663 8.73159 18.3503C8.74907 18.6221 8.73159 18.7166 8.61504 18.8821C8.34696 19.2838 8.20127 19.3311 7.01825 19.3488C6.3772 19.3606 5.87019 19.3429 5.73033 19.3075C5.41563 19.2188 5.09511 18.8643 5.04266 18.5394C4.99021 18.2262 5.18835 17.7949 5.47391 17.6059C5.66039 17.4759 5.7245 17.47 6.8609 17.47C7.83995 17.47 8.09054 17.4877 8.25372 17.5645ZM14.5127 17.5999C14.7924 17.7949 14.9323 18.0135 14.9614 18.3089C15.0022 18.6516 14.8274 19.0061 14.5302 19.1893C14.3145 19.3252 14.2679 19.3311 13.114 19.3311C11.9601 19.3311 11.9135 19.3252 11.6979 19.1893C11.4007 19.0061 11.2258 18.6516 11.2666 18.3089C11.2958 18.0135 11.4356 17.7949 11.7154 17.5999C11.9019 17.4759 11.9601 17.47 13.114 17.47C14.2679 17.47 14.3262 17.4759 14.5127 17.5999Z" fill="#FF3E6C"/>
<path d="M20 21.9971V31L24.6499 30.9827L29.2936 30.9654L29.7019 30.7808C30.2017 30.5559 30.5673 30.2099 30.8111 29.7254L31 29.3505V22.8622V16.3739L30.8416 16.0567C30.5612 15.4857 30.0615 15.059 29.4704 14.8802C29.1839 14.7879 20.2316 13 20.0792 13C20.0183 13 20 14.8398 20 21.9971ZM26.6792 18.2252C27.0022 18.4502 27.0997 18.6347 27.0997 18.9981C27.0997 19.3614 27.0022 19.546 26.6792 19.7709C26.5269 19.8805 26.4111 19.892 25.3141 19.9093C23.9551 19.9324 23.754 19.8978 23.4798 19.6037C23.1629 19.2634 23.1507 18.7558 23.4554 18.4156C23.7418 18.0984 23.8637 18.0753 25.2532 18.0926C26.4172 18.1041 26.5269 18.1157 26.6792 18.2252ZM26.6792 21.9164C27.0022 22.1413 27.0997 22.3259 27.0997 22.6892C27.0997 23.0525 27.0022 23.2371 26.6792 23.462C26.5269 23.5716 26.4111 23.5831 25.3141 23.6004C23.9551 23.6235 23.754 23.5889 23.4798 23.2948C23.1629 22.9545 23.1507 22.447 23.4554 22.1067C23.7418 21.7895 23.8637 21.7664 25.2532 21.7837C26.4172 21.7953 26.5269 21.8068 26.6792 21.9164ZM26.6792 25.6075C27.0022 25.8324 27.0997 26.017 27.0997 26.3803C27.0997 26.7437 27.0022 26.9282 26.6792 27.1532C26.5269 27.2627 26.4111 27.2743 25.3141 27.2916C23.9551 27.3146 23.754 27.28 23.4798 26.9859C23.1629 26.6456 23.1507 26.1381 23.4554 25.7978C23.7418 25.4806 23.8637 25.4575 25.2532 25.4748C26.4172 25.4864 26.5269 25.4979 26.6792 25.6075Z" fill="#FF3E6C"/>
</svg>
