<svg width="15" height="14" viewBox="0 0 15 14" fill="none" xmlns="http://www.w3.org/2000/svg"><path d="M7.50004 10.3335C7.68893 10.3335 7.84737 10.2695 7.97537 10.1415C8.10293 10.0139 8.16671 9.85572 8.16671 9.66683V6.9835C8.16671 6.79461 8.10293 6.63905 7.97537 6.51683C7.84737 6.39461 7.68893 6.3335 7.50004 6.3335C7.31115 6.3335 7.15293 6.39727 7.02537 6.52483C6.89737 6.65283 6.83337 6.81127 6.83337 7.00016V9.6835C6.83337 9.87238 6.89737 10.0279 7.02537 10.1502C7.15293 10.2724 7.31115 10.3335 7.50004 10.3335ZM7.50004 5.00016C7.68893 5.00016 7.84737 4.93616 7.97537 4.80816C8.10293 4.68061 8.16671 4.52238 8.16671 4.3335C8.16671 4.14461 8.10293 3.98616 7.97537 3.85816C7.84737 3.73061 7.68893 3.66683 7.50004 3.66683C7.31115 3.66683 7.15293 3.73061 7.02537 3.85816C6.89737 3.98616 6.83337 4.14461 6.83337 4.3335C6.83337 4.52238 6.89737 4.68061 7.02537 4.80816C7.15293 4.93616 7.31115 5.00016 7.50004 5.00016ZM7.50004 13.6668C6.57782 13.6668 5.71115 13.4917 4.90004 13.1415C4.08893 12.7917 3.38337 12.3168 2.78337 11.7168C2.18337 11.1168 1.70849 10.4113 1.35871 9.60016C1.00849 8.78905 0.833374 7.92238 0.833374 7.00016C0.833374 6.07794 1.00849 5.21127 1.35871 4.40016C1.70849 3.58905 2.18337 2.8835 2.78337 2.2835C3.38337 1.6835 4.08893 1.20838 4.90004 0.858163C5.71115 0.508385 6.57782 0.333496 7.50004 0.333496C8.42226 0.333496 9.28893 0.508385 10.1 0.858163C10.9112 1.20838 11.6167 1.6835 12.2167 2.2835C12.8167 2.8835 13.2916 3.58905 13.6414 4.40016C13.9916 5.21127 14.1667 6.07794 14.1667 7.00016C14.1667 7.92238 13.9916 8.78905 13.6414 9.60016C13.2916 10.4113 12.8167 11.1168 12.2167 11.7168C11.6167 12.3168 10.9112 12.7917 10.1 13.1415C9.28893 13.4917 8.42226 13.6668 7.50004 13.6668Z" fill="#FF3E6C"/></svg>