<svg width="16" height="16" viewBox="0 0 16 16" fill="none" xmlns="http://www.w3.org/2000/svg">
<mask id="mask0_2983_33872" style="mask-type:alpha" maskUnits="userSpaceOnUse" x="0" y="0" width="16" height="16">
<g clip-path="url(#clip0_2983_33872)">
<g clip-path="url(#clip1_2983_33872)">
<path d="M6.87976 2.91887C7.22984 2.75302 7.61239 2.66699 7.99976 2.66699C8.38714 2.66699 8.76968 2.75302 9.11976 2.91887L15.6184 5.99754C15.7316 6.05112 15.8275 6.13551 15.8949 6.24103C15.9624 6.34656 15.9988 6.46896 15.9999 6.5942C16.001 6.71944 15.9668 6.84246 15.9012 6.94917C15.8356 7.05588 15.7413 7.14196 15.6291 7.19754L9.16243 10.4055C8.80107 10.5848 8.40315 10.6781 7.99976 10.6781C7.59638 10.6781 7.19845 10.5848 6.8371 10.4055L1.3331 7.67487V10.6669C1.3331 10.8437 1.26286 11.0133 1.13783 11.1383C1.01281 11.2633 0.84324 11.3335 0.666429 11.3335C0.489618 11.3335 0.320049 11.2633 0.195025 11.1383C0.0700005 11.0133 -0.000237372 10.8437 -0.000237372 10.6669V6.63354C-0.00643556 6.50175 0.0264552 6.37106 0.0943022 6.2579C0.162149 6.14475 0.261926 6.05417 0.381096 5.99754L6.87976 2.91887ZM2.66643 9.82554V12.0002C2.66645 12.0879 2.68377 12.1747 2.7174 12.2557C2.75104 12.3367 2.80032 12.4103 2.86243 12.4722L2.8651 12.4762L2.89576 12.5042L2.97576 12.5789C3.39361 12.9513 3.84536 13.2839 4.3251 13.5722C5.21576 14.1069 6.50243 14.6669 7.99976 14.6669C9.4971 14.6669 10.7838 14.1069 11.6758 13.5722C12.1555 13.2839 12.6072 12.9513 13.0251 12.5789L13.1051 12.5042L13.1264 12.4829L13.1344 12.4749L13.1358 12.4735L13.1384 12.4722C13.2003 12.4102 13.2493 12.3366 13.2827 12.2556C13.3161 12.1746 13.3333 12.0878 13.3331 12.0002V9.82421L9.75443 11.6002C9.20905 11.8707 8.60853 12.0114 7.99976 12.0114C7.391 12.0114 6.79048 11.8707 6.2451 11.6002L2.66643 9.82554Z" fill="black"/>
</g>
</g>
</mask>
<g mask="url(#mask0_2983_33872)">
<rect width="16" height="16" fill="white"/>
</g>
<defs>
<clipPath id="clip0_2983_33872">
<rect width="16" height="16" fill="white"/>
</clipPath>
<clipPath id="clip1_2983_33872">
<rect width="16" height="16" fill="white"/>
</clipPath>
</defs>
</svg>
