<svg width="40" height="40" viewBox="0 0 40 40" fill="none" xmlns="http://www.w3.org/2000/svg">
<mask id="mask0_2703_122853" style="mask-type:alpha" maskUnits="userSpaceOnUse" x="0" y="0" width="40" height="40">
<g clip-path="url(#clip0_2703_122853)">
<g clip-path="url(#clip1_2703_122853)">
<path d="M17.1999 7.29666C18.0751 6.88204 19.0315 6.66696 19.9999 6.66696C20.9683 6.66696 21.9247 6.88204 22.7999 7.29666L39.0466 14.9933C39.3296 15.1273 39.5691 15.3383 39.7378 15.6021C39.9064 15.8659 39.9974 16.1719 40.0002 16.485C40.0029 16.7981 39.9175 17.1056 39.7535 17.3724C39.5896 17.6392 39.3538 17.8544 39.0732 17.9933L22.9066 26.0133C22.0032 26.4615 21.0084 26.6948 19.9999 26.6948C18.9914 26.6948 17.9966 26.4615 17.0932 26.0133L3.33323 19.1867V26.6667C3.33323 27.1087 3.15763 27.5326 2.84507 27.8452C2.53251 28.1577 2.10859 28.3333 1.66656 28.3333C1.22453 28.3333 0.800611 28.1577 0.48805 27.8452C0.17549 27.5326 -0.000105149 27.1087 -0.000105149 26.6667V16.5833C-0.0156006 16.2538 0.0666262 15.9271 0.236244 15.6442C0.405861 15.3613 0.655303 15.1349 0.953228 14.9933L17.1999 7.29666ZM6.66656 24.5633V30C6.66661 30.2192 6.70991 30.4363 6.794 30.6388C6.87808 30.8413 7.00129 31.0252 7.15656 31.18L7.16323 31.19L7.23989 31.26L7.43989 31.4467C8.48452 32.3777 9.61388 33.2091 10.8132 33.93C13.0399 35.2667 16.2566 36.6667 19.9999 36.6667C23.7432 36.6667 26.9599 35.2667 29.1899 33.93C30.3892 33.2091 31.5186 32.3777 32.5632 31.4467L32.7632 31.26L32.8166 31.2067L32.8366 31.1867L32.8399 31.1833L32.8466 31.18C33.0012 31.0249 33.1238 30.8409 33.2073 30.6384C33.2908 30.436 33.3336 30.219 33.3332 30V24.56L24.3866 29C23.0231 29.6762 21.5218 30.028 19.9999 30.028C18.478 30.028 16.9767 29.6762 15.6132 29L6.66656 24.5633Z" fill="black"/>
</g>
</g>
</mask>
<g mask="url(#mask0_2703_122853)">
<rect width="40" height="40" fill="#343F48"/>
</g>
<defs>
<clipPath id="clip0_2703_122853">
<rect width="40" height="40" fill="white"/>
</clipPath>
<clipPath id="clip1_2703_122853">
<rect width="40" height="40" fill="white"/>
</clipPath>
</defs>
</svg>
