<svg width="13" height="13" viewBox="0 0 13 13" fill="none" xmlns="http://www.w3.org/2000/svg"><g opacity="0.7" clip-path="url(#clip0_892_8507)"><path d="M4.97335 0.76925C4.9962 0.691497 5.04363 0.623239 5.10853 0.5747C5.17343 0.526161 5.25231 0.499953 5.33335 0.5H8.33335C8.39274 0.500045 8.45127 0.514194 8.50412 0.541283C8.55697 0.568372 8.60263 0.607626 8.63734 0.655813C8.67205 0.704 8.69482 0.759742 8.70378 0.81845C8.71273 0.877159 8.70762 0.937155 8.68885 0.9935L7.35385 5H10.2083C10.2786 4.99995 10.3474 5.01962 10.407 5.05677C10.4666 5.09392 10.5146 5.14706 10.5454 5.21014C10.5763 5.27321 10.5888 5.34369 10.5816 5.41354C10.5744 5.4834 10.5477 5.54982 10.5046 5.60525L5.2546 12.3553C5.20082 12.4247 5.12434 12.4731 5.03852 12.492C4.95271 12.5108 4.86299 12.499 4.78504 12.4584C4.70708 12.4179 4.64584 12.3512 4.61199 12.2702C4.57815 12.1891 4.57385 12.0987 4.59985 12.0147L5.9506 7.625H3.45835C3.40005 7.62503 3.34254 7.61147 3.2904 7.5854C3.23825 7.55932 3.19291 7.52144 3.15796 7.47478C3.12302 7.42811 3.09943 7.37394 3.08908 7.31656C3.07874 7.25918 3.08191 7.20019 3.09835 7.14425L4.97335 0.76925Z" fill="#343F48"/></g><defs><clipPath id="clip0_892_8507"><rect width="12" height="12" fill="white" transform="translate(0.833374 0.5)"/></clipPath></defs></svg>