<svg width="16" height="17" viewBox="0 0 16 17" fill="none" xmlns="http://www.w3.org/2000/svg">
<mask id="mask0_3001_16161" style="mask-type:alpha" maskUnits="userSpaceOnUse" x="0" y="0" width="16" height="17">
<g clip-path="url(#clip0_3001_16161)">
<path d="M8 14.75C7.87127 14.7494 7.74466 14.7172 7.63125 14.6563C7.3625 14.5 1 10.8875 1 6.25001C0.999138 5.43716 1.24594 4.64334 1.70753 3.97427C2.16912 3.3052 2.8236 2.79264 3.5838 2.50485C4.344 2.21706 5.17383 2.16771 5.96278 2.36336C6.75173 2.55901 7.46235 2.99037 8 3.60001C8.53765 2.99037 9.24827 2.55901 10.0372 2.36336C10.8262 2.16771 11.656 2.21706 12.4162 2.50485C13.1764 2.79264 13.8309 3.3052 14.2925 3.97427C14.7541 4.64334 15.0009 5.43716 15 6.25001C15 10.8875 8.6375 14.5 8.36875 14.6563C8.25535 14.7172 8.12873 14.7494 8 14.75ZM5 3.75001C4.33696 3.75001 3.70108 4.0134 3.23224 4.48224C2.76339 4.95108 2.5 5.58697 2.5 6.25001C2.5 9.45001 6.7125 12.325 8 13.125C9.2875 12.325 13.5 9.45001 13.5 6.25001C13.4994 5.67261 13.299 5.1132 12.9328 4.66681C12.5665 4.22041 12.0571 3.91455 11.4909 3.80117C10.9247 3.68779 10.3368 3.77388 9.8269 4.04483C9.31701 4.31577 8.91663 4.75485 8.69375 5.28751C8.63725 5.42507 8.54112 5.54272 8.4176 5.62552C8.29407 5.70833 8.14871 5.75254 8 5.75254C7.85129 5.75254 7.70594 5.70833 7.58241 5.62552C7.45888 5.54272 7.36276 5.42507 7.30625 5.28751C7.11706 4.83183 6.79694 4.44252 6.38641 4.16883C5.97588 3.89515 5.4934 3.74939 5 3.75001Z" fill="black"/>
</g>
</mask>
<g mask="url(#mask0_3001_16161)">
<rect y="0.5" width="16" height="16" fill="#6E55FF"/>
</g>
<defs>
<clipPath id="clip0_3001_16161">
<rect width="16" height="16" fill="white" transform="translate(0 0.5)"/>
</clipPath>
</defs>
</svg>
