<svg width="16" height="16" viewBox="0 0 16 16" fill="none" xmlns="http://www.w3.org/2000/svg">
<g clip-path="url(#clip0_2912_27865)">
<mask id="mask0_2912_27865" style="mask-type:alpha" maskUnits="userSpaceOnUse" x="0" y="0" width="16" height="16">
<g clip-path="url(#clip1_2912_27865)">
<path d="M14.75 6.25C14.75 8.1625 13.6437 10.125 11.4625 12.0875C10.472 12.9779 9.39356 13.7653 8.24375 14.4375C8.16906 14.4785 8.08522 14.5 8 14.5C7.91478 14.5 7.83094 14.4785 7.75625 14.4375C7.4875 14.2875 1.25 10.7437 1.25 6.25C1.25 5.46294 1.49764 4.69583 1.95784 4.05734C2.41804 3.41884 3.06748 2.94133 3.81415 2.69244C4.56082 2.44355 5.36687 2.4359 6.11813 2.67057C6.86939 2.90525 7.52776 3.37035 8 4C8.47224 3.37035 9.13061 2.90525 9.88187 2.67057C10.6331 2.4359 11.4392 2.44355 12.1859 2.69244C12.9325 2.94133 13.582 3.41884 14.0422 4.05734C14.5024 4.69583 14.75 5.46294 14.75 6.25Z" fill="black"/>
</g>
</mask>
<g mask="url(#mask0_2912_27865)">
<rect y="0.5" width="16" height="16" fill="#6E55FF"/>
</g>
</g>
<defs>
<clipPath id="clip0_2912_27865">
<rect width="16" height="16" fill="white" transform="translate(0 0.5)"/>
</clipPath>
<clipPath id="clip1_2912_27865">
<rect width="16" height="16" fill="white" transform="translate(0 0.5)"/>
</clipPath>
</defs>
</svg>
