<svg width="16" height="16" viewBox="0 0 16 16" fill="none" xmlns="http://www.w3.org/2000/svg">
<path d="M2.40039 4.80002C2.40039 4.1635 2.65325 3.55306 3.10333 3.10297C3.55342 2.65288 4.16387 2.40002 4.80039 2.40002H11.2004C11.8369 2.40002 12.4474 2.65288 12.8974 3.10297C13.3475 3.55306 13.6004 4.1635 13.6004 4.80002V11.2C13.6004 11.8365 13.3475 12.447 12.8974 12.8971C12.4474 13.3472 11.8369 13.6 11.2004 13.6H4.80039C4.16387 13.6 3.55342 13.3472 3.10333 12.8971C2.65325 12.447 2.40039 11.8365 2.40039 11.2V4.80002ZM7.48359 5.68322C7.5587 5.60812 7.6009 5.50625 7.6009 5.40002C7.6009 5.2938 7.5587 5.19193 7.48359 5.11682C7.40848 5.04172 7.30661 4.99952 7.20039 4.99952C7.09417 4.99952 6.9923 5.04172 6.91719 5.11682L5.78759 6.24642L5.46999 5.95682C5.39108 5.88938 5.28903 5.85525 5.18542 5.86165C5.08181 5.86806 4.98474 5.91449 4.91474 5.99114C4.84473 6.0678 4.80727 6.16866 4.81026 6.27243C4.81326 6.3762 4.85648 6.47474 4.93079 6.54722L5.53079 7.09522C5.60681 7.16444 5.70657 7.20173 5.80935 7.19934C5.91214 7.19696 6.01006 7.15509 6.08279 7.08242L7.48279 5.68242L7.48359 5.68322ZM7.48359 9.11682C7.44643 9.07957 7.40229 9.05002 7.3537 9.02985C7.3051 9.00969 7.253 8.99931 7.20039 8.99931C7.14778 8.99931 7.09568 9.00969 7.04708 9.02985C6.99849 9.05002 6.95435 9.07957 6.91719 9.11682L5.78759 10.2464L5.46999 9.95682C5.39108 9.88938 5.28903 9.85525 5.18542 9.86165C5.08181 9.86805 4.98474 9.91449 4.91474 9.99114C4.84473 10.0678 4.80727 10.1687 4.81026 10.2724C4.81326 10.3762 4.85648 10.4747 4.93079 10.5472L5.53079 11.0952C5.60671 11.1645 5.70641 11.202 5.80919 11.1997C5.91198 11.1975 6.00995 11.1558 6.08279 11.0832L7.48279 9.68322C7.55778 9.60821 7.59991 9.50649 7.59991 9.40042C7.59991 9.29436 7.55778 9.19264 7.48279 9.11762L7.48359 9.11682ZM8.80039 9.60002C8.6943 9.60002 8.59256 9.64217 8.51755 9.71718C8.44253 9.7922 8.40039 9.89394 8.40039 10C8.40039 10.1061 8.44253 10.2079 8.51755 10.2829C8.59256 10.3579 8.6943 10.4 8.80039 10.4H10.8004C10.9065 10.4 11.0082 10.3579 11.0832 10.2829C11.1582 10.2079 11.2004 10.1061 11.2004 10C11.2004 9.89394 11.1582 9.7922 11.0832 9.71718C11.0082 9.64217 10.9065 9.60002 10.8004 9.60002H8.80039ZM8.40039 6.00002C8.40039 6.10611 8.44253 6.20785 8.51755 6.28287C8.59256 6.35788 8.6943 6.40002 8.80039 6.40002H10.8004C10.9065 6.40002 11.0082 6.35788 11.0832 6.28287C11.1582 6.20785 11.2004 6.10611 11.2004 6.00002C11.2004 5.89394 11.1582 5.7922 11.0832 5.71718C11.0082 5.64217 10.9065 5.60002 10.8004 5.60002H8.80039C8.6943 5.60002 8.59256 5.64217 8.51755 5.71718C8.44253 5.7922 8.40039 5.89394 8.40039 6.00002Z" fill="#343F48"/>
</svg>
