<svg width="16" height="16" viewBox="0 0 16 16" fill="none" xmlns="http://www.w3.org/2000/svg">
<path d="M7.99665 2C5.63067 2 3.71094 3.72795 3.71094 5.85714C3.71094 9.28571 7.99665 14 7.99665 14C7.99665 14 12.2824 9.28571 12.2824 5.85714C12.2824 3.72795 10.3626 2 7.99665 2ZM7.99665 8C7.6576 8 7.32616 7.89946 7.04425 7.71109C6.76233 7.52272 6.54261 7.25499 6.41286 6.94174C6.28311 6.6285 6.24916 6.28381 6.31531 5.95127C6.38145 5.61873 6.54472 5.31328 6.78447 5.07353C7.02422 4.83378 7.32967 4.67051 7.66221 4.60437C7.99475 4.53822 8.33944 4.57217 8.65268 4.70192C8.96593 4.83167 9.23366 5.0514 9.42203 5.33331C9.6104 5.61522 9.71094 5.94666 9.71094 6.28571C9.71044 6.74022 9.52967 7.17597 9.20829 7.49735C8.8869 7.81873 8.45116 7.9995 7.99665 8Z" fill="white"/>
</svg>
