<svg width="14" height="18" viewBox="0 0 14 18" fill="none" xmlns="http://www.w3.org/2000/svg">
<path d="M6.99888 0C3.44991 0 0.570312 2.59192 0.570312 5.78571C0.570312 10.9286 6.99888 18 6.99888 18C6.99888 18 13.4275 10.9286 13.4275 5.78571C13.4275 2.59192 10.5479 0 6.99888 0ZM6.99888 9C6.4903 9 5.99314 8.84919 5.57028 8.56664C5.14741 8.28408 4.81782 7.88248 4.62319 7.41261C4.42857 6.94275 4.37765 6.42572 4.47686 5.92691C4.57608 5.4281 4.82099 4.96992 5.18061 4.6103C5.54023 4.25068 5.99842 4.00577 6.49722 3.90655C6.99603 3.80733 7.51306 3.85826 7.98293 4.05288C8.45279 4.24751 8.8544 4.57709 9.13695 4.99996C9.4195 5.42283 9.57031 5.91999 9.57031 6.42857C9.56957 7.11033 9.29841 7.76395 8.81634 8.24602C8.33426 8.7281 7.68064 8.99926 6.99888 9Z" fill="#FF3E6C"/>
</svg>
