<svg width="16" height="17" viewBox="0 0 16 17" fill="none" xmlns="http://www.w3.org/2000/svg">
<path d="M7.99665 2.5C5.63067 2.5 3.71094 4.22795 3.71094 6.35714C3.71094 9.78571 7.99665 14.5 7.99665 14.5C7.99665 14.5 12.2824 9.78571 12.2824 6.35714C12.2824 4.22795 10.3626 2.5 7.99665 2.5ZM7.99665 8.5C7.6576 8.5 7.32616 8.39946 7.04425 8.21109C6.76233 8.02272 6.54261 7.75499 6.41286 7.44174C6.28311 7.1285 6.24916 6.78381 6.31531 6.45127C6.38145 6.11873 6.54472 5.81328 6.78447 5.57353C7.02422 5.33378 7.32967 5.17051 7.66221 5.10437C7.99475 5.03822 8.33944 5.07217 8.65268 5.20192C8.96593 5.33167 9.23366 5.5514 9.42203 5.83331C9.6104 6.11522 9.71094 6.44666 9.71094 6.78571C9.71044 7.24022 9.52967 7.67597 9.20829 7.99735C8.8869 8.31873 8.45116 8.4995 7.99665 8.5Z" fill="#FF3E6C"/>
</svg>
