<svg width="14" height="14" viewBox="0 0 14 14" fill="none" xmlns="http://www.w3.org/2000/svg">
<path fill-rule="evenodd" clip-rule="evenodd" d="M5.99999 0.333313C5.09638 0.33339 4.2059 0.549556 3.40282 0.963776C2.59975 1.378 1.90738 1.97826 1.38348 2.71448C0.859572 3.45071 0.519326 4.30154 0.391125 5.19601C0.262924 6.09047 0.350485 7.00263 0.646505 7.85637C0.942524 8.71011 1.43842 9.48068 2.09281 10.1038C2.7472 10.7269 3.54112 11.1845 4.40833 11.4384C5.27553 11.6923 6.19088 11.7351 7.078 11.5633C7.96512 11.3914 8.79828 11.01 9.50799 10.4506L11.9427 12.8853C12.0684 13.0068 12.2368 13.0739 12.4116 13.0724C12.5864 13.0709 12.7536 13.0008 12.8772 12.8772C13.0008 12.7536 13.0709 12.5864 13.0724 12.4116C13.074 12.2368 13.0068 12.0684 12.8853 11.9426L10.4507 9.50798C11.1093 8.67239 11.5194 7.66825 11.6341 6.61046C11.7487 5.55268 11.5632 4.48399 11.0988 3.52671C10.6344 2.56942 9.90991 1.76222 9.00819 1.19747C8.10646 0.632717 7.06396 0.333242 5.99999 0.333313ZM1.66665 5.99998C1.66665 4.85071 2.1232 3.74851 2.93586 2.93585C3.74851 2.12319 4.85071 1.66665 5.99999 1.66665C7.14926 1.66665 8.25146 2.12319 9.06412 2.93585C9.87677 3.74851 10.3333 4.85071 10.3333 5.99998C10.3333 7.14925 9.87677 8.25145 9.06412 9.06411C8.25146 9.87677 7.14926 10.3333 5.99999 10.3333C4.85071 10.3333 3.74851 9.87677 2.93586 9.06411C2.1232 8.25145 1.66665 7.14925 1.66665 5.99998Z" fill="#343F48"/>
</svg>
