<svg width="16" height="17" viewBox="0 0 16 17" fill="none" xmlns="http://www.w3.org/2000/svg">
<g clip-path="url(#clip0_181_3147)">
<path d="M8 2.66992C4.69156 2.66992 2 5.36148 2 8.66992C2 11.9784 4.69156 14.6699 8 14.6699C11.3084 14.6699 14 11.9784 14 8.66992C14 5.36148 11.3084 2.66992 8 2.66992ZM10.8534 11.5234C10.7597 11.6171 10.6326 11.6697 10.5 11.6697C10.3674 11.6697 10.2403 11.6171 10.1466 11.5234L8.80781 10.1849C8.24224 10.5741 7.55163 10.7379 6.87153 10.6441C6.19142 10.5503 5.5709 10.2058 5.13175 9.67807C4.6926 9.15035 4.46651 8.47756 4.49785 7.79174C4.5292 7.10591 4.81571 6.45655 5.30117 5.97109C5.78663 5.48563 6.43599 5.19912 7.12182 5.16778C7.80764 5.13643 8.48043 5.36252 9.00814 5.80167C9.53586 6.24082 9.88041 6.86134 9.97419 7.54145C10.068 8.22156 9.90419 8.91216 9.515 9.47773L10.8534 10.8165C10.9471 10.9102 10.9998 11.0374 10.9998 11.1699C10.9998 11.3025 10.9471 11.4296 10.8534 11.5234Z" fill="#FF3E6C"/>
<path d="M7.25 9.66992C8.2165 9.66992 9 8.88642 9 7.91992C9 6.95342 8.2165 6.16992 7.25 6.16992C6.2835 6.16992 5.5 6.95342 5.5 7.91992C5.5 8.88642 6.2835 9.66992 7.25 9.66992Z" fill="#FF3E6C"/>
</g>
<defs>
<clipPath id="clip0_181_3147">
<rect width="16" height="16" fill="white" transform="translate(0 0.669922)"/>
</clipPath>
</defs>
</svg>
