<svg width="10" height="13" viewBox="0 0 10 13" fill="#000" xmlns="http://www.w3.org/2000/svg">
<path d="M1.66671 10.4667L5.00004 9.03333L8.33337 10.4667V1.83333H1.66671V10.4667ZM1.26671 12.1C1.04449 12.1889 0.833374 12.1693 0.633374 12.0413C0.433374 11.9138 0.333374 11.7278 0.333374 11.4833V1.83333C0.333374 1.46667 0.464041 1.15267 0.725374 0.891333C0.986263 0.630444 1.30004 0.5 1.66671 0.5H8.33337C8.70004 0.5 9.01404 0.630444 9.27537 0.891333C9.53626 1.15267 9.66671 1.46667 9.66671 1.83333V11.4833C9.66671 11.7278 9.56671 11.9138 9.36671 12.0413C9.16671 12.1693 8.9556 12.1889 8.73337 12.1L5.00004 10.5L1.26671 12.1ZM1.66671 1.83333H8.33337H5.00004H1.66671Z" fill="#6E55FF"/>
</svg>
