<svg width="24" height="24" viewBox="0 0 24 24" fill="none" xmlns="http://www.w3.org/2000/svg">
<path d="M12.0011 1.5C10.1775 1.49986 8.38529 1.97465 6.80093 2.87761C5.21657 3.78058 3.8947 5.08059 2.96546 6.64965C2.03622 8.21871 1.53166 10.0027 1.50144 11.826C1.47123 13.6493 1.91641 15.4491 2.79315 17.0481L1.93495 20.0769C1.85489 20.3529 1.85039 20.6453 1.92191 20.9237C1.99344 21.202 2.13838 21.456 2.34159 21.6592C2.5448 21.8624 2.79883 22.0074 3.07717 22.0789C3.35551 22.1504 3.64794 22.1459 3.92395 22.0659L6.95289 21.2077C8.35659 21.977 9.9176 22.4152 11.5166 22.4889C13.1156 22.5625 14.7103 22.2696 16.1788 21.6326C17.6472 20.9955 18.9506 20.0312 19.9893 18.8132C21.028 17.5953 21.7744 16.156 22.1716 14.6054C22.5688 13.0548 22.6062 11.434 22.281 9.86668C21.9558 8.29941 21.2765 6.82724 20.2952 5.56268C19.3138 4.29812 18.0563 3.27467 16.6188 2.57053C15.1813 1.86639 13.6018 1.50022 12.0011 1.5ZM12.0011 20.8846C10.4062 20.8831 8.84081 20.4543 7.46781 19.6428C7.34111 19.5722 7.19889 19.534 7.05386 19.5317C6.97879 19.5318 6.90408 19.542 6.83173 19.562L3.47971 20.5212L4.43887 17.1692C4.46838 17.0632 4.47643 16.9523 4.46256 16.8431C4.44869 16.7338 4.41318 16.6285 4.3581 16.5332C3.3579 14.8473 2.94334 12.878 3.179 10.9319C3.41466 8.9859 4.2873 7.17244 5.66101 5.77401C7.03471 4.37558 8.83235 3.4707 10.7739 3.20031C12.7155 2.92992 14.692 3.30921 16.3955 4.2791C18.0991 5.24898 19.434 6.75501 20.1924 8.5626C20.9509 10.3702 21.0902 12.3778 20.5887 14.2729C20.0872 16.1679 18.9731 17.8439 17.4198 19.0397C15.8666 20.2356 13.9614 20.8842 12.0011 20.8846ZM16.0397 10.3846C16.0397 10.5988 15.9546 10.8043 15.8031 10.9557C15.6517 11.1072 15.4462 11.1923 15.232 11.1923H8.77026C8.55604 11.1923 8.35059 11.1072 8.19911 10.9557C8.04764 10.8043 7.96254 10.5988 7.96254 10.3846C7.96254 10.1704 8.04764 9.96496 8.19911 9.81349C8.35059 9.66202 8.55604 9.57692 8.77026 9.57692H15.232C15.4462 9.57692 15.6517 9.66202 15.8031 9.81349C15.9546 9.96496 16.0397 10.1704 16.0397 10.3846ZM16.0397 13.6154C16.0397 13.8296 15.9546 14.035 15.8031 14.1865C15.6517 14.338 15.4462 14.4231 15.232 14.4231H8.77026C8.55604 14.4231 8.35059 14.338 8.19911 14.1865C8.04764 14.035 7.96254 13.8296 7.96254 13.6154C7.96254 13.4012 8.04764 13.1957 8.19911 13.0443C8.35059 12.8928 8.55604 12.8077 8.77026 12.8077H15.232C15.4462 12.8077 15.6517 12.8928 15.8031 13.0443C15.9546 13.1957 16.0397 13.4012 16.0397 13.6154Z" fill="white"/>
</svg>
