<svg width="16" height="16" viewBox="0 0 16 16" fill="none" xmlns="http://www.w3.org/2000/svg">
<g clip-path="url(#clip0_2035_67969)">
<mask id="mask0_2035_67969" style="mask-type:alpha" maskUnits="userSpaceOnUse" x="0" y="0" width="64" height="16">
<path d="M11.9987 8.66533H3.9987C3.82189 8.66533 3.65232 8.5951 3.52729 8.47007C3.40227 8.34505 3.33203 8.17548 3.33203 7.99867C3.33203 7.82186 3.40227 7.65229 3.52729 7.52726C3.65232 7.40224 3.82189 7.332 3.9987 7.332H11.9987C12.1755 7.332 12.3451 7.40224 12.4701 7.52726C12.5951 7.65229 12.6654 7.82186 12.6654 7.99867C12.6654 8.17548 12.5951 8.34505 12.4701 8.47007C12.3451 8.5951 12.1755 8.66533 11.9987 8.66533Z" fill="#343F48"/>
</mask>
<g mask="url(#mask0_2035_67969)">
<rect width="16" height="16" fill="#343F48"/>
</g>
</g>
<defs>
<clipPath id="clip0_2035_67969">
<rect width="16" height="16" fill="white"/>
</clipPath>
</defs>
</svg>
