<svg width="16" height="16" viewBox="0 0 16 16" fill="none" xmlns="http://www.w3.org/2000/svg">
<g>
<path d="M8.50004 8.5C7.60629 8.5 6.84119 8.18177 6.20473 7.54531C5.56827 6.90885 5.25004 6.14375 5.25004 5.25C5.25004 4.35625 5.56827 3.59115 6.20473 2.95469C6.84119 2.31823 7.60629 2 8.50004 2C9.39379 2 10.1589 2.31823 10.7954 2.95469C11.4318 3.59115 11.75 4.35625 11.75 5.25C11.75 6.14375 11.4318 6.90885 10.7954 7.54531C10.1589 8.18177 9.39379 8.5 8.50004 8.5ZM3.62504 15C3.17817 15 2.79575 14.841 2.47779 14.5231C2.15929 14.2046 2.00004 13.8219 2.00004 13.375V12.725C2.00004 12.2646 2.11867 11.8413 2.35592 11.4551C2.59263 11.0694 2.90733 10.775 3.30004 10.5719C4.13963 10.1521 4.99275 9.8371 5.85942 9.62694C6.72608 9.41731 7.60629 9.3125 8.50004 9.3125C9.39379 9.3125 10.274 9.41731 11.1407 9.62694C12.0073 9.8371 12.8605 10.1521 13.7 10.5719C14.0927 10.775 14.4075 11.0694 14.6442 11.4551C14.8814 11.8413 15 12.2646 15 12.725V13.375C15 13.8219 14.8411 14.2046 14.5231 14.5231C14.2046 14.841 13.8219 15 13.375 15H3.62504Z" fill="black"/>
</g>
</svg>
