<svg width="16" height="17" viewBox="0 0 16 17" fill="none" xmlns="http://www.w3.org/2000/svg">
<g>
<path fill-rule="evenodd" clip-rule="evenodd" d="M10.3907 2.5C10.6407 2.25004 10.9798 2.10962 11.3333 2.10962C11.6869 2.10962 12.026 2.25004 12.276 2.5L14 4.224C14.25 4.47404 14.3904 4.81312 14.3904 5.16667C14.3904 5.52022 14.25 5.8593 14 6.10933L12.9427 7.16667L9.33333 3.55733L10.3907 2.5ZM8.39067 4.5L2.39067 10.5C2.1406 10.75 2.00008 11.0891 2 11.4427V13.1667C2 13.5203 2.14048 13.8594 2.39052 14.1095C2.64057 14.3595 2.97971 14.5 3.33333 14.5H5.05733C5.41093 14.4999 5.75001 14.3594 6 14.1093L12 8.10933L8.39067 4.5Z" fill="#343F48"/>
</g>
</svg>
