<svg width="16" height="17" viewBox="0 0 16 17" fill="none" xmlns="http://www.w3.org/2000/svg">
<path d="M14.1163 6.92625C13.8806 6.68 13.6369 6.42625 13.545 6.20312C13.46 5.99875 13.455 5.66 13.45 5.33187C13.4406 4.72187 13.4306 4.03062 12.95 3.55C12.4694 3.06937 11.7781 3.05937 11.1681 3.05C10.84 3.045 10.5013 3.04 10.2969 2.955C10.0744 2.86312 9.82 2.61937 9.57375 2.38375C9.1425 1.96937 8.6525 1.5 8 1.5C7.3475 1.5 6.85812 1.96937 6.42625 2.38375C6.18 2.61937 5.92625 2.86312 5.70312 2.955C5.5 3.04 5.16 3.045 4.83187 3.05C4.22187 3.05937 3.53062 3.06937 3.05 3.55C2.56937 4.03062 2.5625 4.72187 2.55 5.33187C2.545 5.66 2.54 5.99875 2.455 6.20312C2.36312 6.42562 2.11937 6.68 1.88375 6.92625C1.46937 7.3575 1 7.8475 1 8.5C1 9.1525 1.46937 9.64187 1.88375 10.0737C2.11937 10.32 2.36312 10.5737 2.455 10.7969C2.54 11.0013 2.545 11.34 2.55 11.6681C2.55937 12.2781 2.56937 12.9694 3.05 13.45C3.53062 13.9306 4.22187 13.9406 4.83187 13.95C5.16 13.955 5.49875 13.96 5.70312 14.045C5.92562 14.1369 6.18 14.3806 6.42625 14.6163C6.8575 15.0306 7.3475 15.5 8 15.5C8.6525 15.5 9.14187 15.0306 9.57375 14.6163C9.82 14.3806 10.0737 14.1369 10.2969 14.045C10.5013 13.96 10.84 13.955 11.1681 13.95C11.7781 13.9406 12.4694 13.9306 12.95 13.45C13.4306 12.9694 13.4406 12.2781 13.45 11.6681C13.455 11.34 13.46 11.0013 13.545 10.7969C13.6369 10.5744 13.8806 10.32 14.1163 10.0737C14.5306 9.6425 15 9.1525 15 8.5C15 7.8475 14.5306 7.35812 14.1163 6.92625ZM10.8538 7.35375L7.35375 10.8538C7.30731 10.9002 7.25217 10.9371 7.19147 10.9623C7.13077 10.9874 7.06571 11.0004 7 11.0004C6.93429 11.0004 6.86923 10.9874 6.80853 10.9623C6.74783 10.9371 6.69269 10.9002 6.64625 10.8538L5.14625 9.35375C5.05243 9.25993 4.99972 9.13268 4.99972 9C4.99972 8.86732 5.05243 8.74007 5.14625 8.64625C5.24007 8.55243 5.36732 8.49972 5.5 8.49972C5.63268 8.49972 5.75993 8.55243 5.85375 8.64625L7 9.79313L10.1462 6.64625C10.1927 6.59979 10.2479 6.56294 10.3086 6.5378C10.3692 6.51266 10.4343 6.49972 10.5 6.49972C10.5657 6.49972 10.6308 6.51266 10.6914 6.5378C10.7521 6.56294 10.8073 6.59979 10.8538 6.64625C10.9002 6.6927 10.9371 6.74786 10.9622 6.80855C10.9873 6.86925 11.0003 6.9343 11.0003 7C11.0003 7.0657 10.9873 7.13075 10.9622 7.19145C10.9371 7.25214 10.9002 7.3073 10.8538 7.35375Z" fill="white"/>
</svg>
