<svg width="24" height="25" viewBox="0 0 24 25" fill="none" xmlns="http://www.w3.org/2000/svg">
<circle cx="12" cy="12.5" r="12" fill="white"/>
<path d="M16.1347 8.31882C16.3421 8.11207 16.618 7.99776 16.9043 8.00003C17.1906 8.0023 17.4649 8.12096 17.6692 8.33098C17.8736 8.541 17.992 8.82594 17.9996 9.12569C18.0072 9.42543 17.9033 9.71653 17.7098 9.93756L11.8363 17.6305C11.7353 17.7444 11.6134 17.8358 11.4779 17.8993C11.3424 17.9627 11.196 17.9969 11.0476 17.9998C10.8992 18.0027 10.7518 17.9742 10.6141 17.916C10.4765 17.8579 10.3514 17.7712 10.2465 17.6613L6.35139 13.5821C6.24292 13.4762 6.15592 13.3485 6.09558 13.2067C6.03523 13.0649 6.00279 12.9118 6.00017 12.7565C5.99756 12.6013 6.02483 12.4471 6.08035 12.3031C6.13588 12.1591 6.21853 12.0283 6.32337 11.9185C6.42821 11.8087 6.55309 11.7222 6.69056 11.664C6.82803 11.6059 6.97528 11.5773 7.12352 11.5801C7.27176 11.5828 7.41796 11.6168 7.55338 11.68C7.68881 11.7432 7.8107 11.8343 7.91177 11.9479L10.9943 15.1746L16.1067 8.35274C16.1159 8.34087 16.1258 8.32954 16.1362 8.31882H16.1347Z" fill="#161428"/>
</svg>
