<svg width="16" height="16" viewBox="0 0 16 16" fill="none" xmlns="http://www.w3.org/2000/svg">
<g clip-path="url(#clip0_2035_67981)">
<mask id="mask0_2035_67981" style="mask-type:alpha" maskUnits="userSpaceOnUse" x="0" y="0" width="16" height="16">
<path d="M11.9987 8.66533H8.66536V11.9987C8.66536 12.1755 8.59513 12.345 8.4701 12.4701C8.34508 12.5951 8.17551 12.6653 7.9987 12.6653C7.82189 12.6653 7.65232 12.5951 7.52729 12.4701C7.40227 12.345 7.33203 12.1755 7.33203 11.9987V8.66533H3.9987C3.82189 8.66533 3.65232 8.5951 3.52729 8.47007C3.40227 8.34505 3.33203 8.17548 3.33203 7.99867C3.33203 7.82186 3.40227 7.65229 3.52729 7.52726C3.65232 7.40224 3.82189 7.332 3.9987 7.332H7.33203V3.99867C7.33203 3.82186 7.40227 3.65229 7.52729 3.52726C7.65232 3.40224 7.82189 3.332 7.9987 3.332C8.17551 3.332 8.34508 3.40224 8.4701 3.52726C8.59513 3.65229 8.66536 3.82186 8.66536 3.99867V7.332H11.9987C12.1755 7.332 12.3451 7.40224 12.4701 7.52726C12.5951 7.65229 12.6654 7.82186 12.6654 7.99867C12.6654 8.17548 12.5951 8.34505 12.4701 8.47007C12.3451 8.5951 12.1755 8.66533 11.9987 8.66533Z" fill="#343F48"/>
</mask>
<g mask="url(#mask0_2035_67981)">
<rect width="16" height="16" fill="#343F48"/>
</g>
</g>
<defs>
<clipPath id="clip0_2035_67981">
<rect width="16" height="16" fill="white"/>
</clipPath>
</defs>
</svg>
