<svg width="17" height="16" viewBox="0 0 17 16" fill="none" xmlns="http://www.w3.org/2000/svg"> <g> <path d="M8.32476 1.31073C8.47209 1.20214 8.65031 1.14355 8.83334 1.14355C9.01636 1.14355 9.19458 1.20214 9.34191 1.31073L14.7688 5.31359C15.411 5.78788 15.1105 6.78673 14.3459 6.85645H3.32076C2.55619 6.78673 2.25619 5.78788 2.89791 5.31359L8.32534 1.31073H8.32476ZM8.83334 5.14273C9.06066 5.14273 9.27868 5.05243 9.43943 4.89168C9.60017 4.73094 9.69048 4.51292 9.69048 4.28559C9.69048 4.05826 9.60017 3.84025 9.43943 3.6795C9.27868 3.51875 9.06066 3.42845 8.83334 3.42845C8.60601 3.42845 8.38799 3.51875 8.22724 3.6795C8.0665 3.84025 7.97619 4.05826 7.97619 4.28559C7.97619 4.51292 8.0665 4.73094 8.22724 4.89168C8.38799 5.05243 8.60601 5.14273 8.83334 5.14273ZM11.9762 7.42845H13.4042V10.857H11.9756V7.42845H11.9762ZM10.8333 10.857V7.42845H9.40476V10.857H10.8333ZM8.26191 10.8576V7.42902H6.83334V10.8576H8.26191ZM5.69105 10.8576V7.42902H4.26248V10.8576H5.69105ZM4.40534 11.429C3.91279 11.429 3.44042 11.6247 3.09214 11.973C2.74386 12.3212 2.54819 12.7936 2.54819 13.2862V13.5719C2.54834 13.6855 2.59353 13.7945 2.67385 13.875C2.75417 13.9554 2.86309 14.0007 2.97676 14.001H14.6893C14.803 14.001 14.912 13.9559 14.9924 13.8755C15.0728 13.7951 15.1179 13.6861 15.1179 13.5724V13.2867C15.1179 12.7942 14.9222 12.3218 14.574 11.9735C14.2257 11.6253 13.7533 11.4296 13.2608 11.4296H4.40591L4.40534 11.429Z" fill="#343F48"/> </g> </svg>