<svg width="16" height="16" viewBox="0 0 16 16" fill="none" xmlns="http://www.w3.org/2000/svg">
<g clip-path="url(#clip0_3868_97678)">
<path d="M1.79942 0.69693C1.41683 0.771086 1.00755 1.08848 0.832571 1.44739C0.776221 1.56308 0.713939 1.72919 0.69911 1.81817C0.657588 2.04064 0.657588 12.5827 0.69911 12.7993C0.773255 13.1878 1.08763 13.612 1.43463 13.787C1.75494 13.9502 1.79052 13.9531 3.93183 13.9531H5.90409L4.66735 12.7162C3.99115 12.034 3.40095 11.4229 3.3624 11.3577C3.10141 10.9275 3.07768 10.444 3.29419 9.98724C3.3713 9.8241 3.46027 9.70248 3.66491 9.49188L3.93777 9.21008L3.40392 9.20118C2.81966 9.19229 2.79 9.18339 2.64468 8.98761C2.55867 8.87193 2.55867 8.5931 2.64468 8.47742C2.79 8.27868 2.81373 8.27275 3.45137 8.26385C3.8132 8.25791 4.07716 8.26681 4.14537 8.28461C4.27883 8.32614 4.42712 8.48928 4.45085 8.62573L4.47161 8.72658L4.65549 8.64056C4.77412 8.5842 4.93131 8.54268 5.09443 8.52191L5.34949 8.48928L5.94561 7.8901L6.54174 7.29388H4.70591C2.89677 7.29388 2.86711 7.29388 2.78703 7.23159C2.62985 7.11591 2.58239 7.02099 2.58239 6.83411C2.58239 6.64724 2.62985 6.55232 2.78703 6.43663C2.86711 6.37434 2.89677 6.37434 4.70294 6.37434C6.50912 6.37434 6.53877 6.37434 6.61885 6.43663C6.77604 6.55232 6.82349 6.64724 6.82349 6.83708V7.01209L7.65688 6.17857L8.49324 5.34209L8.52586 5.08995C8.54959 4.90605 8.58814 4.7696 8.66525 4.60942C8.75719 4.41365 8.82837 4.33059 9.26435 3.89159C9.69439 3.46148 9.78929 3.38436 9.97614 3.29537C10.3291 3.12629 10.6761 3.09663 11.0438 3.20341L11.1091 3.22121V2.60127C11.1091 2.25718 11.0942 1.90716 11.0794 1.81817C11.0023 1.40883 10.6968 1.00839 10.3261 0.827445C10.2104 0.771086 10.0444 0.708795 9.95538 0.693963C9.75667 0.658368 1.98923 0.658368 1.79942 0.69693ZM8.99149 2.63983C9.14868 2.75551 9.19613 2.85043 9.19613 3.0373C9.19613 3.22418 9.14868 3.3191 8.99149 3.43478C8.91141 3.49708 8.88769 3.49708 5.95451 3.50597C3.9348 3.51191 2.96202 3.50597 2.88787 3.48224C2.58833 3.39622 2.47266 2.98391 2.6773 2.73771C2.83152 2.55677 2.66544 2.5627 5.92485 2.5716C8.88769 2.57754 8.91141 2.57754 8.99149 2.63983ZM8.04243 4.53823C8.19962 4.65391 8.24707 4.74883 8.24707 4.93571C8.24707 5.12258 8.19962 5.2175 8.04243 5.33319C7.96236 5.39548 7.9327 5.39548 5.47998 5.40438C3.79244 5.41031 2.96202 5.40438 2.88787 5.38065C2.58833 5.29463 2.47266 4.88232 2.6773 4.63612C2.83152 4.45518 2.70696 4.46111 5.45032 4.47001C7.93567 4.47594 7.96236 4.47594 8.04243 4.53823Z" fill="#343F48"/>
<path d="M10.4966 4.10485C10.3601 4.13451 10.2712 4.2057 9.87079 4.61504C9.42295 5.07481 9.37253 5.20829 9.53862 5.48416L9.592 5.57611L7.58416 7.58426C5.67714 9.49157 5.57038 9.59242 5.51699 9.54793C5.41022 9.46784 5.2471 9.43818 5.11068 9.47674C5.01281 9.50047 4.909 9.58352 4.60649 9.88311C4.39592 10.0908 4.19721 10.3043 4.16162 10.3577C4.08154 10.4912 4.08154 10.7137 4.16162 10.8442C4.25949 10.9984 7.64347 14.3622 7.73541 14.3948C7.85404 14.4393 8.0142 14.4333 8.12393 14.3829C8.2485 14.3236 8.98995 13.5761 9.0285 13.4693C9.07892 13.3388 9.06706 13.1757 8.99884 13.0511L8.93656 12.9354L9.6009 12.2709L10.2652 11.6065L11.7126 13.3151C13.2281 15.1067 13.2607 15.1423 13.6136 15.2758C13.8153 15.3529 14.2335 15.3529 14.453 15.2787C14.8148 15.1512 15.1232 14.8516 15.2626 14.4927C15.3486 14.2702 15.3575 13.8638 15.2804 13.6265C15.1677 13.2854 15.1025 13.2202 13.3052 11.7014L11.6087 10.2628L12.2731 9.59835L12.9374 8.93391L13.0531 8.9962C13.1777 9.06443 13.3408 9.07629 13.4713 9.02587C13.578 8.9873 14.3254 8.24574 14.3847 8.12116C14.4352 8.01141 14.4411 7.85123 14.3966 7.73258C14.364 7.64062 10.9592 4.21163 10.8406 4.15231C10.7368 4.09891 10.6033 4.08112 10.4966 4.10485Z" fill="#343F48"/>
</g>
<defs>
<clipPath id="clip0_3868_97678">
<rect width="16" height="16" fill="white"/>
</clipPath>
</defs>
</svg>
