<svg width="16" height="16" viewBox="0 0 16 16" fill="none" xmlns="http://www.w3.org/2000/svg">
<g>
<path d="M14.9894 8.39688L13.9894 3.65281C13.7962 2.61781 13.0525 2 12 2H4C3.475 2 3.03125 2.14656 2.68437 2.43563C2.3375 2.72469 2.11031 3.13281 2.01 3.65094L1.01 8.39688C1.00324 8.43083 0.999893 8.46538 0.999999 8.5V12C0.999999 12.5304 1.21071 13.0391 1.58579 13.4142C1.96086 13.7893 2.46957 14 3 14H13C13.5304 14 14.0391 13.7893 14.4142 13.4142C14.7893 13.0391 15 12.5304 15 12V8.5C14.9999 8.46536 14.9963 8.43081 14.9894 8.39688ZM2.98937 3.85313V3.84437C3.10031 3.26844 3.42094 3.00062 3.99844 3.00062H12C12.5816 3.00062 12.9022 3.26781 13.0084 3.84156C13.0084 3.84563 13.01 3.84969 13.0106 3.85375L13.8522 7.85C13.856 7.86821 13.8557 7.88704 13.8513 7.90511C13.8469 7.92319 13.8386 7.94006 13.8268 7.95449C13.8151 7.96893 13.8003 7.98056 13.7835 7.98854C13.7667 7.99652 13.7483 8.00065 13.7297 8.00062H10C9.86816 7.99996 9.74145 8.05165 9.6477 8.14435C9.55395 8.23704 9.50083 8.36316 9.5 8.495C9.5 8.89282 9.34196 9.27436 9.06066 9.55566C8.77936 9.83696 8.39782 9.995 8 9.995C7.60217 9.995 7.22064 9.83696 6.93934 9.55566C6.65803 9.27436 6.5 8.89282 6.5 8.495C6.49967 8.42967 6.48648 8.36504 6.46117 8.3048C6.43587 8.24457 6.39895 8.18991 6.35252 8.14394C6.30609 8.09798 6.25106 8.06161 6.19057 8.03691C6.13009 8.01221 6.06533 7.99967 6 8H2.27031C2.25171 8.00002 2.23334 7.99589 2.21653 7.98791C2.19973 7.97993 2.18492 7.9683 2.17318 7.95387C2.16144 7.93944 2.15307 7.92257 2.14868 7.90449C2.1443 7.88641 2.144 7.86758 2.14781 7.84937L2.98937 3.85313Z" fill="black"/>
<path d="M11.5 5H4.5C4.36739 5 4.24021 4.94732 4.14645 4.85355C4.05268 4.75979 4 4.63261 4 4.5C4 4.36739 4.05268 4.24021 4.14645 4.14645C4.24021 4.05268 4.36739 4 4.5 4H11.5C11.6326 4 11.7598 4.05268 11.8536 4.14645C11.9473 4.24021 12 4.36739 12 4.5C12 4.63261 11.9473 4.75979 11.8536 4.85355C11.7598 4.94732 11.6326 5 11.5 5ZM12 7H4C3.86739 7 3.74021 6.94732 3.64645 6.85355C3.55268 6.75979 3.5 6.63261 3.5 6.5C3.5 6.36739 3.55268 6.24021 3.64645 6.14645C3.74021 6.05268 3.86739 6 4 6H12C12.1326 6 12.2598 6.05268 12.3536 6.14645C12.4473 6.24021 12.5 6.36739 12.5 6.5C12.5 6.63261 12.4473 6.75979 12.3536 6.85355C12.2598 6.94732 12.1326 7 12 7Z" fill="black"/>
</g>
</svg>
