<svg width="16" height="16" viewBox="0 0 16 16" fill="none" xmlns="http://www.w3.org/2000/svg">
<g clip-path="url(#clip0_3373_132300)">
<path d="M14.4753 0.514486C12.3854 0.682136 10.2984 1.50303 8.5 2.86157C8.08433 3.17374 7.83608 3.39342 7.34536 3.87613L6.91237 4.30392L6.56598 4.32127C4.85134 4.40798 3.00969 5.21154 1.75113 6.42265C1.51155 6.65389 1.5 6.67123 1.5 6.78685C1.5 6.87935 1.52021 6.93138 1.58082 6.99786L1.65876 7.08747L2.89423 7.26668L4.1268 7.44589L3.95649 7.63955C3.76309 7.85923 3.72557 7.96039 3.79196 8.10203C3.85546 8.2321 7.81299 12.1892 7.91979 12.2297C8.05258 12.2788 8.15361 12.2383 8.36433 12.0562L8.55773 11.8857L8.73093 13.091C8.85505 13.9524 8.91856 14.3224 8.9532 14.3744C9.02247 14.4785 9.17835 14.5276 9.30825 14.4842C9.48722 14.4264 10.0039 13.8223 10.4254 13.1835C11.1499 12.088 11.6146 10.6919 11.6781 9.44033L11.6955 9.09347L12.1227 8.65989C12.7635 8.00664 13.1186 7.57307 13.5891 6.86201C14.7841 5.06701 15.5 2.87313 15.5 1.02032C15.5 0.70815 15.448 0.575187 15.3095 0.523158C15.2431 0.497144 14.7495 0.491363 14.4753 0.514486ZM11.5829 3.22577C12.1804 3.35295 12.6452 3.81832 12.7722 4.41665C12.7953 4.5236 12.8155 4.66523 12.8155 4.72882C12.8155 5.27513 12.4546 5.85901 11.9726 6.09603C11.7676 6.19719 11.4616 6.27524 11.2711 6.27524C10.7285 6.27524 10.1425 5.91104 9.90577 5.43121C9.80474 5.22599 9.7268 4.9196 9.7268 4.72882C9.7268 4.34728 9.90577 3.92816 10.1887 3.64489C10.5668 3.26624 11.0691 3.11593 11.5829 3.22577Z" fill="white"/>
<path d="M3.29391 10.5268C2.93521 10.5796 2.59709 10.7323 2.29425 10.9818C1.89732 11.3046 1.41807 12.3378 0.791814 14.2135C0.456633 15.2173 0.444872 15.279 0.583061 15.4169C0.72125 15.5549 0.785934 15.5431 1.78266 15.2115C3.66438 14.5862 4.70226 14.1049 5.02568 13.7086C5.68135 12.9102 5.65489 11.8359 4.961 11.105C4.66404 10.791 4.26712 10.5884 3.82021 10.5239C3.58793 10.4916 3.53795 10.4916 3.29391 10.5268Z" fill="white"/>
</g>
<defs>
<clipPath id="clip0_3373_132300">
<rect width="16" height="16" fill="white" transform="matrix(1 0 0 -1 0 16)"/>
</clipPath>
</defs>
</svg>
