<svg width="32" height="32" viewBox="0 0 32 32" fill="none" xmlns="http://www.w3.org/2000/svg">
<g opacity="0.5">
<path d="M28.9505 1.02897C24.7707 1.36427 20.5967 3.00607 17 5.72313C16.1687 6.34748 15.6722 6.78683 14.6907 7.75226L13.8247 8.60784L13.132 8.64253C9.70268 8.81596 6.01938 10.4231 3.50227 12.8453C3.02309 13.3078 3 13.3425 3 13.5737C3 13.7587 3.04041 13.8628 3.16165 13.9957L3.31753 14.1749L5.78845 14.5334L8.25361 14.8918L7.91299 15.2791C7.52619 15.7185 7.45113 15.9208 7.58392 16.2041C7.71093 16.4642 15.626 24.3784 15.8396 24.4593C16.1052 24.5576 16.3072 24.4766 16.7287 24.1124L17.1155 23.7714L17.4619 26.182C17.7101 27.9048 17.8371 28.6447 17.9064 28.7488C18.0449 28.9569 18.3567 29.0552 18.6165 28.9685C18.9744 28.8529 20.0078 27.6446 20.8507 26.367C22.2998 24.176 23.2293 21.3838 23.3563 18.8807L23.3909 18.1869L24.2454 17.3198C25.527 16.0133 26.2371 15.1461 27.1781 13.724C29.5682 10.134 31 5.74626 31 2.04065C31 1.4163 30.8961 1.15037 30.619 1.04632C30.4862 0.994287 29.499 0.982725 28.9505 1.02897ZM23.1658 6.45154C24.3608 6.7059 25.2903 7.63664 25.5443 8.8333C25.5905 9.0472 25.6309 9.33047 25.6309 9.45765C25.6309 10.5503 24.9093 11.718 23.9452 12.1921C23.5353 12.3944 22.9233 12.5505 22.5423 12.5505C21.4569 12.5505 20.2849 11.8221 19.8115 10.8624C19.6095 10.452 19.4536 9.83919 19.4536 9.45765C19.4536 8.69456 19.8115 7.85632 20.3773 7.28978C21.1336 6.53247 22.1381 6.23186 23.1658 6.45154Z" fill="#343F48"/>
<path d="M6.58783 21.0536C5.87042 21.1593 5.19418 21.4645 4.5885 21.9635C3.79465 22.6093 2.83615 24.6757 1.58363 28.4269C0.913265 30.4346 0.889744 30.5579 1.16612 30.8338C1.4425 31.1098 1.57187 31.0863 3.56532 30.4229C7.32876 29.1725 9.40453 28.2097 10.0514 27.4172C11.3627 25.8204 11.3098 23.6718 9.922 22.2101C9.32808 21.5819 8.53423 21.1769 7.64042 21.0477C7.17587 20.9831 7.0759 20.9831 6.58783 21.0536Z" fill="#343F48"/>
</g>
</svg>
