<svg width="17" height="16" viewBox="0 0 17 16" fill="none" xmlns="http://www.w3.org/2000/svg"> <path d="M12.7001 3.80666C12.6385 3.74486 12.5652 3.69583 12.4846 3.66237C12.4039 3.62892 12.3175 3.6117 12.2301 3.6117C12.1428 3.6117 12.0564 3.62892 11.9757 3.66237C11.8951 3.69583 11.8218 3.74486 11.7601 3.80666L8.50015 7.06L5.24015 3.8C5.17843 3.73828 5.10515 3.68932 5.02451 3.65591C4.94387 3.62251 4.85744 3.60532 4.77015 3.60532C4.68286 3.60532 4.59643 3.62251 4.51579 3.65591C4.43514 3.68932 4.36187 3.73828 4.30015 3.8C4.23843 3.86172 4.18947 3.93499 4.15606 4.01563C4.12266 4.09628 4.10547 4.18271 4.10547 4.27C4.10547 4.35728 4.12266 4.44372 4.15606 4.52436C4.18947 4.605 4.23843 4.67828 4.30015 4.74L7.56015 8L4.30015 11.26C4.23843 11.3217 4.18947 11.395 4.15606 11.4756C4.12266 11.5563 4.10547 11.6427 4.10547 11.73C4.10547 11.8173 4.12266 11.9037 4.15606 11.9844C4.18947 12.065 4.23843 12.1383 4.30015 12.2C4.36187 12.2617 4.43514 12.3107 4.51579 12.3441C4.59643 12.3775 4.68286 12.3947 4.77015 12.3947C4.85744 12.3947 4.94387 12.3775 5.02451 12.3441C5.10515 12.3107 5.17843 12.2617 5.24015 12.2L8.50015 8.94L11.7601 12.2C11.8219 12.2617 11.8951 12.3107 11.9758 12.3441C12.0564 12.3775 12.1429 12.3947 12.2301 12.3947C12.3174 12.3947 12.4039 12.3775 12.4845 12.3441C12.5652 12.3107 12.6384 12.2617 12.7001 12.2C12.7619 12.1383 12.8108 12.065 12.8442 11.9844C12.8776 11.9037 12.8948 11.8173 12.8948 11.73C12.8948 11.6427 12.8776 11.5563 12.8442 11.4756C12.8108 11.395 12.7619 11.3217 12.7001 11.26L9.44015 8L12.7001 4.74C12.9535 4.48666 12.9535 4.06 12.7001 3.80666Z" fill="#343F48"/> </svg>