<svg width="16" height="16" viewBox="0 0 16 16" fill="none" xmlns="http://www.w3.org/2000/svg">
<path d="M5.37563 1.07073C4.70587 1.302 3.67305 1.8879 3.29435 2.25177C3.00955 2.52313 2.95008 2.87774 3.10657 3.34029C3.22863 3.69182 3.23802 4.19446 3.13161 4.52749C2.9 5.2429 2.2897 5.7517 1.52605 5.86579C1.12544 5.92746 0.868802 6.0909 0.715445 6.38693C0.574607 6.65829 0.474455 7.55871 0.505752 8.27412C0.543309 9.15604 0.627812 9.4644 0.89384 9.69567C1.05346 9.83444 1.18804 9.88378 1.57299 9.9547C2.00177 10.0318 2.2678 10.1706 2.59016 10.4913C3.00329 10.9045 3.16603 11.293 3.1629 11.8666C3.1629 12.1441 3.15038 12.2088 3.04084 12.5141C2.77482 13.2665 2.91565 13.541 3.90465 14.1885C4.23953 14.4075 4.90304 14.7467 5.27548 14.8885C5.65731 15.0335 5.87952 15.0365 6.15494 14.9009C6.277 14.8392 6.38967 14.7559 6.46478 14.6634C6.82783 14.2225 7.07508 14.0374 7.49447 13.8987C8.26751 13.6396 9.10315 13.8863 9.63834 14.5277C9.93879 14.8854 10.3112 15.015 10.7025 14.8916C11.0092 14.7929 11.6883 14.4445 12.1108 14.167C12.646 13.8154 12.9183 13.5687 13.0091 13.3621C13.1249 13.0969 13.1249 12.9551 13.0122 12.622C12.887 12.252 12.8526 11.7956 12.9308 11.4749C13.0998 10.7626 13.6507 10.2137 14.3736 10.0441C14.89 9.92078 14.912 9.91153 15.0903 9.75118C15.2124 9.64017 15.2813 9.55074 15.3251 9.43048C15.5629 8.80142 15.5567 6.9944 15.3157 6.4671C15.2343 6.29442 15.0684 6.11248 14.9182 6.03539C14.865 6.01072 14.7242 5.96755 14.6052 5.94288C13.7759 5.77328 13.1937 5.24598 12.9966 4.48124C12.9214 4.20063 12.9465 3.67332 13.0435 3.41738C13.1405 3.15836 13.1436 2.85308 13.0498 2.64647C12.959 2.45529 12.8808 2.36894 12.5333 2.10375C11.8448 1.57645 10.7713 1.03989 10.3331 1.00597C10.0045 0.978222 9.86994 1.04298 9.45994 1.42535C9.19392 1.67821 9.04995 1.78305 8.87155 1.86939C8.31446 2.14075 7.70416 2.14075 7.13767 1.86939C6.94676 1.77688 6.82157 1.68437 6.54615 1.42535C6.28013 1.17557 6.16433 1.08615 6.04852 1.04606C5.83883 0.978222 5.61662 0.984388 5.37563 1.07073ZM8.59926 5.60368C9.25025 5.77637 9.75101 6.1279 10.1015 6.66137C10.8527 7.78998 10.5178 9.31947 9.35979 10.0626C8.93415 10.3371 8.54919 10.4481 8.00461 10.4481C7.29729 10.4481 6.72768 10.2168 6.23944 9.73576C5.7512 9.25471 5.51647 8.69349 5.51647 7.99659C5.51647 7.46003 5.62914 7.08075 5.90769 6.66137C6.28326 6.0909 6.86852 5.70544 7.5508 5.57285C7.81683 5.52351 8.35514 5.53584 8.59926 5.60368Z" fill="white"/>
</svg>
