<svg width="32" height="32" viewBox="0 0 32 32" fill="none" xmlns="http://www.w3.org/2000/svg"><path d="M10.7513 2.14146C9.41173 2.60401 7.3461 3.77579 6.5887 4.50353C6.01909 5.04625 5.90016 5.75549 6.21314 6.68058C6.45725 7.38365 6.47603 8.38892 6.26321 9.05498C5.80001 10.4858 4.57941 11.5034 3.0521 11.7316C2.25088 11.8549 1.7376 12.1818 1.43089 12.7739C1.14921 13.3166 0.94891 15.1174 1.0115 16.5482C1.08662 18.3121 1.25562 18.9288 1.78768 19.3913C2.10691 19.6689 2.37607 19.7676 3.14599 19.9094C4.00354 20.0636 4.53559 20.3411 5.18032 20.9825C6.00657 21.8089 6.33207 22.586 6.32581 23.7331C6.32581 24.2882 6.30077 24.4177 6.08169 25.0282C5.54963 26.5331 5.83131 27.0819 7.8093 28.3771C8.47907 28.815 9.80608 29.4934 10.551 29.777C11.3146 30.0669 11.759 30.0731 12.3099 29.8017C12.554 29.6784 12.7793 29.5119 12.9296 29.3268C13.6557 28.4449 14.1502 28.0749 14.9889 27.7974C16.535 27.2793 18.2063 27.7727 19.2767 29.0555C19.8776 29.7709 20.6225 30.0299 21.4049 29.7832C22.0183 29.5859 23.3766 28.889 24.2217 28.3339C25.292 27.6308 25.8366 27.1375 26.0181 26.7242C26.2497 26.1939 26.2497 25.9102 26.0244 25.2441C25.774 24.504 25.7052 23.5913 25.8617 22.9499C26.1997 21.5252 27.3013 20.4275 28.7473 20.0883C29.7801 19.8416 29.8239 19.8231 30.1807 19.5024C30.4248 19.2803 30.5625 19.1015 30.6502 18.861C31.1259 17.6028 31.1134 13.9888 30.6314 12.9342C30.4686 12.5888 30.1369 12.225 29.8364 12.0708C29.73 12.0214 29.4483 11.9351 29.2105 11.8858C27.5517 11.5466 26.3874 10.492 25.9931 8.96247C25.8429 8.40125 25.893 7.34665 26.087 6.83476C26.281 6.31671 26.2873 5.70615 26.0995 5.29294C25.918 4.91057 25.7615 4.73789 25.0667 4.2075C23.6896 3.15289 21.5426 2.07979 20.6663 2.01195C20.009 1.95644 19.7399 2.08596 18.9199 2.8507C18.3878 3.35642 18.0999 3.5661 17.7431 3.73879C16.6289 4.28151 15.4083 4.28151 14.2753 3.73879C13.8935 3.55377 13.6431 3.36875 13.0923 2.8507C12.5603 2.35115 12.3287 2.1723 12.097 2.09212C11.6777 1.95644 11.2332 1.96878 10.7513 2.14146ZM17.1985 11.2074C18.5005 11.5527 19.502 12.2558 20.2031 13.3227C21.7054 15.58 21.0356 18.6389 18.7196 20.1253C17.8683 20.6741 17.0984 20.8962 16.0092 20.8962C14.5946 20.8962 13.4554 20.4336 12.4789 19.4715C11.5024 18.5094 11.0329 17.387 11.0329 15.9932C11.0329 14.9201 11.2583 14.1615 11.8154 13.3227C12.5665 12.1818 13.737 11.4109 15.1016 11.1457C15.6337 11.047 16.7103 11.0717 17.1985 11.2074Z" fill="#3AEDBA"/></svg>
