<svg width="16" height="16" viewBox="0 0 16 16" fill="none" xmlns="http://www.w3.org/2000/svg">
<path d="M9.04787 11.514L5.6412 9.65599C5.3142 9.98059 4.89841 10.2011 4.44626 10.2897C3.99411 10.3784 3.52584 10.3312 3.10049 10.1541C2.67513 9.97695 2.31173 9.67787 2.0561 9.29453C1.80048 8.91119 1.66406 8.46075 1.66406 7.99999C1.66406 7.53924 1.80048 7.08879 2.0561 6.70545C2.31173 6.32211 2.67513 6.02304 3.10049 5.84593C3.52584 5.66882 3.99411 5.6216 4.44626 5.71024C4.89841 5.79888 5.3142 6.01939 5.6412 6.34399L9.04787 4.48599C8.93103 3.93782 9.01542 3.3659 9.2856 2.87483C9.55578 2.38376 9.9937 2.00635 10.5193 1.81161C11.0448 1.61688 11.623 1.61784 12.1479 1.81432C12.6728 2.01079 13.1095 2.38965 13.378 2.88162C13.6466 3.37358 13.729 3.94578 13.6104 4.49356C13.4917 5.04135 13.1799 5.52812 12.7318 5.86486C12.2838 6.2016 11.7295 6.36581 11.1703 6.32746C10.6111 6.2891 10.0844 6.05075 9.68654 5.65599L6.27987 7.51399C6.34783 7.83443 6.34783 8.16556 6.27987 8.48599L9.68654 10.344C10.0844 9.94923 10.6111 9.71088 11.1703 9.67253C11.7295 9.63418 12.2838 9.79838 12.7318 10.1351C13.1799 10.4719 13.4917 10.9586 13.6104 11.5064C13.729 12.0542 13.6466 12.6264 13.378 13.1184C13.1095 13.6103 12.6728 13.9892 12.1479 14.1857C11.623 14.3821 11.0448 14.3831 10.5193 14.1884C9.9937 13.9936 9.55578 13.6162 9.2856 13.1252C9.01542 12.6341 8.93103 12.0622 9.04787 11.514Z" fill="#6E55FF"/>
</svg>
