<svg width="17" height="16" viewBox="0 0 17 16" fill="none" xmlns="http://www.w3.org/2000/svg">
<g opacity="0.5">
<path d="M6.02426 4.19072C5.90212 4.3129 5.8335 4.4786 5.8335 4.65137C5.8335 4.82414 5.90212 4.98983 6.02426 5.11202L9.24946 8.33722L6.02426 11.5624C5.90558 11.6853 5.8399 11.8499 5.84139 12.0207C5.84287 12.1916 5.9114 12.355 6.0322 12.4758C6.153 12.5966 6.31642 12.6651 6.48726 12.6666C6.65809 12.6681 6.82268 12.6024 6.94556 12.4837L10.6314 8.79787C10.7536 8.67568 10.8222 8.50999 10.8222 8.33722C10.8222 8.16445 10.7536 7.99875 10.6314 7.87657L6.94556 4.19072C6.82338 4.06857 6.65768 3.99995 6.48491 3.99995C6.31214 3.99995 6.14645 4.06857 6.02426 4.19072Z" fill="#343F48"/>
</g>
</svg>
