<svg width="16" height="16" viewBox="0 0 16 16" fill="none" xmlns="http://www.w3.org/2000/svg">
<path d="M5.5 5.25C5.5 5.44891 5.42098 5.63968 5.28033 5.78033C5.13968 5.92098 4.94891 6 4.75 6C4.55109 6 4.36032 5.92098 4.21967 5.78033C4.07902 5.63968 4 5.44891 4 5.25C4 5.05109 4.07902 4.86032 4.21967 4.71967C4.36032 4.57902 4.55109 4.5 4.75 4.5C4.94891 4.5 5.13968 4.57902 5.28033 4.71967C5.42098 4.86032 5.5 5.05109 5.5 5.25ZM4.75 9C4.94891 9 5.13968 8.92098 5.28033 8.78033C5.42098 8.63968 5.5 8.44891 5.5 8.25C5.5 8.05109 5.42098 7.86032 5.28033 7.71967C5.13968 7.57902 4.94891 7.5 4.75 7.5C4.55109 7.5 4.36032 7.57902 4.21967 7.71967C4.07902 7.86032 4 8.05109 4 8.25C4 8.44891 4.07902 8.63968 4.21967 8.78033C4.36032 8.92098 4.55109 9 4.75 9ZM5.5 11.25C5.5 11.4489 5.42098 11.6397 5.28033 11.7803C5.13968 11.921 4.94891 12 4.75 12C4.55109 12 4.36032 11.921 4.21967 11.7803C4.07902 11.6397 4 11.4489 4 11.25C4 11.0511 4.07902 10.8603 4.21967 10.7197C4.36032 10.579 4.55109 10.5 4.75 10.5C4.94891 10.5 5.13968 10.579 5.28033 10.7197C5.42098 10.8603 5.5 11.0511 5.5 11.25ZM7.5 5C7.36739 5 7.24021 5.05268 7.14645 5.14645C7.05268 5.24021 7 5.36739 7 5.5C7 5.63261 7.05268 5.75979 7.14645 5.85355C7.24021 5.94732 7.36739 6 7.5 6H11.5C11.6326 6 11.7598 5.94732 11.8536 5.85355C11.9473 5.75979 12 5.63261 12 5.5C12 5.36739 11.9473 5.24021 11.8536 5.14645C11.7598 5.05268 11.6326 5 11.5 5H7.5ZM7 8.5C7 8.36739 7.05268 8.24021 7.14645 8.14645C7.24021 8.05268 7.36739 8 7.5 8H11.5C11.6326 8 11.7598 8.05268 11.8536 8.14645C11.9473 8.24021 12 8.36739 12 8.5C12 8.63261 11.9473 8.75979 11.8536 8.85355C11.7598 8.94732 11.6326 9 11.5 9H7.5C7.36739 9 7.24021 8.94732 7.14645 8.85355C7.05268 8.75979 7 8.63261 7 8.5ZM7.5 11C7.36739 11 7.24021 11.0527 7.14645 11.1464C7.05268 11.2402 7 11.3674 7 11.5C7 11.6326 7.05268 11.7598 7.14645 11.8536C7.24021 11.9473 7.36739 12 7.5 12H11.5C11.6326 12 11.7598 11.9473 11.8536 11.8536C11.9473 11.7598 12 11.6326 12 11.5C12 11.3674 11.9473 11.2402 11.8536 11.1464C11.7598 11.0527 11.6326 11 11.5 11H7.5ZM1 3C1 2.46957 1.21071 1.96086 1.58579 1.58579C1.96086 1.21071 2.46957 1 3 1H13C13.5304 1 14.0391 1.21071 14.4142 1.58579C14.7893 1.96086 15 2.46957 15 3V13C15 13.5304 14.7893 14.0391 14.4142 14.4142C14.0391 14.7893 13.5304 15 13 15H3C2.46957 15 1.96086 14.7893 1.58579 14.4142C1.21071 14.0391 1 13.5304 1 13V3ZM3 2C2.73478 2 2.48043 2.10536 2.29289 2.29289C2.10536 2.48043 2 2.73478 2 3V13C2 13.2652 2.10536 13.5196 2.29289 13.7071C2.48043 13.8946 2.73478 14 3 14H13C13.2652 14 13.5196 13.8946 13.7071 13.7071C13.8946 13.5196 14 13.2652 14 13V3C14 2.73478 13.8946 2.48043 13.7071 2.29289C13.5196 2.10536 13.2652 2 13 2H3Z" fill="#343F48"/>
</svg>
