<svg width="11" height="11" viewBox="0 0 11 11" fill="none" xmlns="http://www.w3.org/2000/svg"><path d="M9.00001 13.7L4.85001 16.2C4.66668 16.3167 4.47501 16.3667 4.27501 16.35C4.07501 16.3333 3.90001 16.2667 3.75001 16.15C3.60001 16.0333 3.48334 15.8877 3.40001 15.713C3.31668 15.5377 3.30001 15.3417 3.35001 15.125L4.45001 10.4L0.775009 7.225C0.608343 7.075 0.504343 6.904 0.463009 6.712C0.421009 6.52067 0.433343 6.33333 0.500009 6.15C0.566676 5.96667 0.666676 5.81667 0.800009 5.7C0.933343 5.58333 1.11668 5.50833 1.35001 5.475L6.20001 5.05L8.07501 0.6C8.15834 0.4 8.28768 0.25 8.46301 0.15C8.63768 0.0500001 8.81668 0 9.00001 0C9.18334 0 9.36268 0.0500001 9.53801 0.15C9.71268 0.25 9.84168 0.4 9.92501 0.6L11.8 5.05L16.65 5.475C16.8833 5.50833 17.0667 5.58333 17.2 5.7C17.3333 5.81667 17.4333 5.96667 17.5 6.15C17.5667 6.33333 17.5793 6.52067 17.538 6.712C17.496 6.904 17.3917 7.075 17.225 7.225L13.55 10.4L14.65 15.125C14.7 15.3417 14.6833 15.5377 14.6 15.713C14.5167 15.8877 14.4 16.0333 14.25 16.15C14.1 16.2667 13.925 16.3333 13.725 16.35C13.525 16.3667 13.3333 16.3167 13.15 16.2L9.00001 13.7Z" fill="#FED45C"/></svg>