<svg width="16" height="16" viewBox="0 0 16 16" fill="none" xmlns="http://www.w3.org/2000/svg">
<path d="M8.00054 11.7998L5.23387 13.4665C5.11165 13.5443 4.98387 13.5776 4.85054 13.5665C4.7172 13.5554 4.60054 13.511 4.50054 13.4332C4.40054 13.3554 4.32276 13.2583 4.2672 13.1418C4.21165 13.0249 4.20054 12.8943 4.23387 12.7498L4.9672 9.59984L2.5172 7.48317C2.40609 7.38317 2.33676 7.26917 2.3092 7.14117C2.2812 7.01362 2.28942 6.88873 2.33387 6.7665C2.37831 6.64428 2.44498 6.54428 2.53387 6.4665C2.62276 6.38873 2.74498 6.33873 2.90054 6.3165L6.13387 6.03317L7.38387 3.0665C7.43942 2.93317 7.52565 2.83317 7.64254 2.7665C7.75898 2.69984 7.87831 2.6665 8.00054 2.6665C8.12276 2.6665 8.24231 2.69984 8.3592 2.7665C8.47565 2.83317 8.56165 2.93317 8.6172 3.0665L9.8672 6.03317L13.1005 6.3165C13.2561 6.33873 13.3783 6.38873 13.4672 6.4665C13.5561 6.54428 13.6228 6.64428 13.6672 6.7665C13.7116 6.88873 13.7201 7.01362 13.6925 7.14117C13.6645 7.26917 13.595 7.38317 13.4839 7.48317L11.0339 9.59984L11.7672 12.7498C11.8005 12.8943 11.7894 13.0249 11.7339 13.1418C11.6783 13.2583 11.6005 13.3554 11.5005 13.4332C11.4005 13.511 11.2839 13.5554 11.1505 13.5665C11.0172 13.5776 10.8894 13.5443 10.7672 13.4665L8.00054 11.7998Z" fill="white"/>
</svg>
