<svg width="19" height="18" viewBox="0 0 19 18" fill="none" xmlns="http://www.w3.org/2000/svg">
<path fill-rule="evenodd" clip-rule="evenodd" d="M0.5 9C0.5 4.02955 4.52955 0 9.5 0C14.4705 0 18.5 4.02955 18.5 9C18.5 13.9705 14.4705 18 9.5 18C4.52955 18 0.5 13.9705 0.5 9ZM10.3182 4.09091C9.91482 4.09091 9.32736 4.20545 8.81764 4.572C8.26455 4.96964 7.86364 5.62418 7.86364 6.54545V8.18182H7.04545C6.82846 8.18182 6.62035 8.26802 6.46691 8.42146C6.31347 8.5749 6.22727 8.783 6.22727 9C6.22727 9.217 6.31347 9.4251 6.46691 9.57854C6.62035 9.73198 6.82846 9.81818 7.04545 9.81818H7.86364V10.6364C7.86364 10.7779 7.81455 11.0095 7.69018 11.1813C7.59691 11.3114 7.43327 11.4545 7.04545 11.4545C6.82846 11.4545 6.62035 11.5407 6.46691 11.6942C6.31347 11.8476 6.22727 12.0557 6.22727 12.2727C6.22727 12.4897 6.31347 12.6978 6.46691 12.8513C6.62035 13.0047 6.82846 13.0909 7.04545 13.0909H11.9545C12.1715 13.0909 12.3796 13.0047 12.5331 12.8513C12.6865 12.6978 12.7727 12.4897 12.7727 12.2727C12.7727 12.0557 12.6865 11.8476 12.5331 11.6942C12.3796 11.5407 12.1715 11.4545 11.9545 11.4545H9.36418C9.46236 11.1543 9.5 10.8655 9.5 10.6364V9.81818H10.3182C10.5352 9.81818 10.7433 9.73198 10.8967 9.57854C11.0502 9.4251 11.1364 9.217 11.1364 9C11.1364 8.783 11.0502 8.5749 10.8967 8.42146C10.7433 8.26802 10.5352 8.18182 10.3182 8.18182H9.5V6.54545C9.5 6.15764 9.64318 5.994 9.77327 5.90073C9.94509 5.77636 10.1766 5.72727 10.3182 5.72727C10.4597 5.72727 10.6913 5.77636 10.8631 5.90073C10.9932 5.994 11.1364 6.15764 11.1364 6.54545C11.1364 6.76245 11.2226 6.97056 11.376 7.124C11.5294 7.27744 11.7375 7.36364 11.9545 7.36364C12.1715 7.36364 12.3796 7.27744 12.5331 7.124C12.6865 6.97056 12.7727 6.76245 12.7727 6.54545C12.7727 5.62418 12.3702 4.96964 11.8187 4.572C11.379 4.26292 10.8556 4.09511 10.3182 4.09091Z" fill="#FF8C52"/>
</svg>
