<svg width="25" height="24" viewBox="0 0 25 24" fill="none" xmlns="http://www.w3.org/2000/svg">
<path fill-rule="evenodd" clip-rule="evenodd" d="M3.5 12C3.5 7.02955 7.52955 3 12.5 3C17.4705 3 21.5 7.02955 21.5 12C21.5 16.9705 17.4705 21 12.5 21C7.52955 21 3.5 16.9705 3.5 12ZM13.3182 7.09091C12.9148 7.09091 12.3274 7.20545 11.8176 7.572C11.2645 7.96964 10.8636 8.62418 10.8636 9.54545V11.1818H10.0455C9.82846 11.1818 9.62035 11.268 9.46691 11.4215C9.31347 11.5749 9.22727 11.783 9.22727 12C9.22727 12.217 9.31347 12.4251 9.46691 12.5785C9.62035 12.732 9.82846 12.8182 10.0455 12.8182H10.8636V13.6364C10.8636 13.7779 10.8145 14.0095 10.6902 14.1813C10.5969 14.3114 10.4333 14.4545 10.0455 14.4545C9.82846 14.4545 9.62035 14.5407 9.46691 14.6942C9.31347 14.8476 9.22727 15.0557 9.22727 15.2727C9.22727 15.4897 9.31347 15.6978 9.46691 15.8513C9.62035 16.0047 9.82846 16.0909 10.0455 16.0909H14.9545C15.1715 16.0909 15.3796 16.0047 15.5331 15.8513C15.6865 15.6978 15.7727 15.4897 15.7727 15.2727C15.7727 15.0557 15.6865 14.8476 15.5331 14.6942C15.3796 14.5407 15.1715 14.4545 14.9545 14.4545H12.3642C12.4624 14.1543 12.5 13.8655 12.5 13.6364V12.8182H13.3182C13.5352 12.8182 13.7433 12.732 13.8967 12.5785C14.0502 12.4251 14.1364 12.217 14.1364 12C14.1364 11.783 14.0502 11.5749 13.8967 11.4215C13.7433 11.268 13.5352 11.1818 13.3182 11.1818H12.5V9.54545C12.5 9.15764 12.6432 8.994 12.7733 8.90073C12.9451 8.77636 13.1766 8.72727 13.3182 8.72727C13.4597 8.72727 13.6913 8.77636 13.8631 8.90073C13.9932 8.994 14.1364 9.15764 14.1364 9.54545C14.1364 9.76245 14.2226 9.97056 14.376 10.124C14.5294 10.2774 14.7375 10.3636 14.9545 10.3636C15.1715 10.3636 15.3796 10.2774 15.5331 10.124C15.6865 9.97056 15.7727 9.76245 15.7727 9.54545C15.7727 8.62418 15.3702 7.96964 14.8187 7.572C14.379 7.26292 13.8556 7.09511 13.3182 7.09091Z" fill="#6E55FF"/>
</svg>
