<svg width="16" height="16" viewBox="0 0 16 16" fill="none" xmlns="http://www.w3.org/2000/svg">
<g clip-path="url(#clip0_730_29506)">
<path d="M11.1998 4.79999H4.7998V11.2H11.1998V4.79999Z" fill="#343F48"/>
<path fill-rule="evenodd" clip-rule="evenodd" d="M7.3998 2.39999V1.39999C7.3998 1.24086 7.46302 1.08825 7.57554 0.975724C7.68806 0.863202 7.84067 0.799988 7.9998 0.799988C8.15893 0.799988 8.31155 0.863202 8.42407 0.975724C8.53659 1.08825 8.5998 1.24086 8.5998 1.39999V2.39999H9.7998V1.39999C9.7998 1.24086 9.86302 1.08825 9.97554 0.975724C10.0881 0.863202 10.2407 0.799988 10.3998 0.799988C10.5589 0.799988 10.7115 0.863202 10.8241 0.975724C10.9366 1.08825 10.9998 1.24086 10.9998 1.39999V2.39999H11.3998C11.9833 2.39999 12.5429 2.63177 12.9554 3.04435C13.368 3.45693 13.5998 4.01651 13.5998 4.59999V4.99999H14.5998C14.7589 4.99999 14.9115 5.0632 15.0241 5.17572C15.1366 5.28825 15.1998 5.44086 15.1998 5.59999C15.1998 5.75912 15.1366 5.91173 15.0241 6.02425C14.9115 6.13677 14.7589 6.19999 14.5998 6.19999H13.5998V7.39999H14.5998C14.7589 7.39999 14.9115 7.4632 15.0241 7.57572C15.1366 7.68825 15.1998 7.84086 15.1998 7.99999C15.1998 8.15912 15.1366 8.31173 15.0241 8.42425C14.9115 8.53677 14.7589 8.59999 14.5998 8.59999H13.5998V9.79999H14.5998C14.7589 9.79999 14.9115 9.8632 15.0241 9.97572C15.1366 10.0882 15.1998 10.2409 15.1998 10.4C15.1998 10.5591 15.1366 10.7117 15.0241 10.8243C14.9115 10.9368 14.7589 11 14.5998 11H13.5998V11.4C13.5998 11.9835 13.368 12.543 12.9554 12.9556C12.5429 13.3682 11.9833 13.6 11.3998 13.6H10.9998V14.6C10.9998 14.7591 10.9366 14.9117 10.8241 15.0243C10.7115 15.1368 10.5589 15.2 10.3998 15.2C10.2407 15.2 10.0881 15.1368 9.97554 15.0243C9.86302 14.9117 9.7998 14.7591 9.7998 14.6V13.6H8.5998V14.6C8.5998 14.7591 8.53659 14.9117 8.42407 15.0243C8.31155 15.1368 8.15893 15.2 7.9998 15.2C7.84067 15.2 7.68806 15.1368 7.57554 15.0243C7.46302 14.9117 7.3998 14.7591 7.3998 14.6V13.6H6.1998V14.6C6.1998 14.7591 6.13659 14.9117 6.02407 15.0243C5.91155 15.1368 5.75893 15.2 5.5998 15.2C5.44067 15.2 5.28806 15.1368 5.17554 15.0243C5.06302 14.9117 4.9998 14.7591 4.9998 14.6V13.6H4.5998C4.01633 13.6 3.45675 13.3682 3.04417 12.9556C2.63159 12.543 2.3998 11.9835 2.3998 11.4V11H1.3998C1.24067 11 1.08806 10.9368 0.975541 10.8243C0.863019 10.7117 0.799805 10.5591 0.799805 10.4C0.799805 10.2409 0.863019 10.0882 0.975541 9.97572C1.08806 9.8632 1.24067 9.79999 1.3998 9.79999H2.3998V8.59999H1.3998C1.24067 8.59999 1.08806 8.53677 0.975541 8.42425C0.863019 8.31173 0.799805 8.15912 0.799805 7.99999C0.799805 7.84086 0.863019 7.68825 0.975541 7.57572C1.08806 7.4632 1.24067 7.39999 1.3998 7.39999H2.3998V6.19999H1.3998C1.24067 6.19999 1.08806 6.13677 0.975541 6.02425C0.863019 5.91173 0.799805 5.75912 0.799805 5.59999C0.799805 5.44086 0.863019 5.28825 0.975541 5.17572C1.08806 5.0632 1.24067 4.99999 1.3998 4.99999H2.3998V4.59999C2.3998 4.01651 2.63159 3.45693 3.04417 3.04435C3.45675 2.63177 4.01633 2.39999 4.5998 2.39999H4.9998V1.39999C4.9998 1.24086 5.06302 1.08825 5.17554 0.975724C5.28806 0.863202 5.44067 0.799988 5.5998 0.799988C5.75893 0.799988 5.91155 0.863202 6.02407 0.975724C6.13659 1.08825 6.1998 1.24086 6.1998 1.39999V2.39999H7.3998ZM3.5998 4.59999C3.5998 4.04799 4.0478 3.59999 4.5998 3.59999H11.3998C11.9518 3.59999 12.3998 4.04799 12.3998 4.59999V11.4C12.3998 11.952 11.9518 12.4 11.3998 12.4H4.5998C4.0478 12.4 3.5998 11.952 3.5998 11.4V4.59999Z" fill="#343F48"/>
</g>
<defs>
<clipPath id="clip0_730_29506">
<rect width="16" height="16" fill="white"/>
</clipPath>
</defs>
</svg>
