<svg width="16" height="17" viewBox="0 0 16 17" fill="none" xmlns="http://www.w3.org/2000/svg">
<path d="M11.2008 5.2998H4.80078V11.6998H11.2008V5.2998Z" fill="white"/>
<path fill-rule="evenodd" clip-rule="evenodd" d="M7.40078 2.8998V1.8998C7.40078 1.74067 7.464 1.58806 7.57652 1.47554C7.68904 1.36302 7.84165 1.2998 8.00078 1.2998C8.15991 1.2998 8.31252 1.36302 8.42505 1.47554C8.53757 1.58806 8.60078 1.74067 8.60078 1.8998V2.8998H9.80078V1.8998C9.80078 1.74067 9.864 1.58806 9.97652 1.47554C10.089 1.36302 10.2417 1.2998 10.4008 1.2998C10.5599 1.2998 10.7125 1.36302 10.825 1.47554C10.9376 1.58806 11.0008 1.74067 11.0008 1.8998V2.8998H11.4008C11.9843 2.8998 12.5438 3.13159 12.9564 3.54417C13.369 3.95675 13.6008 4.51633 13.6008 5.0998V5.4998H14.6008C14.7599 5.4998 14.9125 5.56302 15.025 5.67554C15.1376 5.78806 15.2008 5.94067 15.2008 6.0998C15.2008 6.25893 15.1376 6.41155 15.025 6.52407C14.9125 6.63659 14.7599 6.6998 14.6008 6.6998H13.6008V7.8998H14.6008C14.7599 7.8998 14.9125 7.96302 15.025 8.07554C15.1376 8.18806 15.2008 8.34067 15.2008 8.4998C15.2008 8.65893 15.1376 8.81155 15.025 8.92407C14.9125 9.03659 14.7599 9.0998 14.6008 9.0998H13.6008V10.2998H14.6008C14.7599 10.2998 14.9125 10.363 15.025 10.4755C15.1376 10.5881 15.2008 10.7407 15.2008 10.8998C15.2008 11.0589 15.1376 11.2115 15.025 11.3241C14.9125 11.4366 14.7599 11.4998 14.6008 11.4998H13.6008V11.8998C13.6008 12.4833 13.369 13.0429 12.9564 13.4554C12.5438 13.868 11.9843 14.0998 11.4008 14.0998H11.0008V15.0998C11.0008 15.2589 10.9376 15.4115 10.825 15.5241C10.7125 15.6366 10.5599 15.6998 10.4008 15.6998C10.2417 15.6998 10.089 15.6366 9.97652 15.5241C9.864 15.4115 9.80078 15.2589 9.80078 15.0998V14.0998H8.60078V15.0998C8.60078 15.2589 8.53757 15.4115 8.42505 15.5241C8.31252 15.6366 8.15991 15.6998 8.00078 15.6998C7.84165 15.6998 7.68904 15.6366 7.57652 15.5241C7.464 15.4115 7.40078 15.2589 7.40078 15.0998V14.0998H6.20078V15.0998C6.20078 15.2589 6.13757 15.4115 6.02505 15.5241C5.91252 15.6366 5.75991 15.6998 5.60078 15.6998C5.44165 15.6998 5.28904 15.6366 5.17652 15.5241C5.064 15.4115 5.00078 15.2589 5.00078 15.0998V14.0998H4.60078C4.01731 14.0998 3.45773 13.868 3.04515 13.4554C2.63257 13.0429 2.40078 12.4833 2.40078 11.8998V11.4998H1.40078C1.24165 11.4998 1.08904 11.4366 0.976517 11.3241C0.863995 11.2115 0.800781 11.0589 0.800781 10.8998C0.800781 10.7407 0.863995 10.5881 0.976517 10.4755C1.08904 10.363 1.24165 10.2998 1.40078 10.2998H2.40078V9.0998H1.40078C1.24165 9.0998 1.08904 9.03659 0.976517 8.92407C0.863995 8.81155 0.800781 8.65893 0.800781 8.4998C0.800781 8.34067 0.863995 8.18806 0.976517 8.07554C1.08904 7.96302 1.24165 7.8998 1.40078 7.8998H2.40078V6.6998H1.40078C1.24165 6.6998 1.08904 6.63659 0.976517 6.52407C0.863995 6.41155 0.800781 6.25893 0.800781 6.0998C0.800781 5.94067 0.863995 5.78806 0.976517 5.67554C1.08904 5.56302 1.24165 5.4998 1.40078 5.4998H2.40078V5.0998C2.40078 4.51633 2.63257 3.95675 3.04515 3.54417C3.45773 3.13159 4.01731 2.8998 4.60078 2.8998H5.00078V1.8998C5.00078 1.74067 5.064 1.58806 5.17652 1.47554C5.28904 1.36302 5.44165 1.2998 5.60078 1.2998C5.75991 1.2998 5.91252 1.36302 6.02505 1.47554C6.13757 1.58806 6.20078 1.74067 6.20078 1.8998V2.8998H7.40078ZM3.60078 5.0998C3.60078 4.5478 4.04878 4.0998 4.60078 4.0998H11.4008C11.9528 4.0998 12.4008 4.5478 12.4008 5.0998V11.8998C12.4008 12.4518 11.9528 12.8998 11.4008 12.8998H4.60078C4.04878 12.8998 3.60078 12.4518 3.60078 11.8998V5.0998Z" fill="white"/>
</svg>
