<svg width="32" height="32" viewBox="0 0 32 32" fill="none" xmlns="http://www.w3.org/2000/svg">
<path d="M9.86797 13.3334L11.988 13.3334L11.988 20C11.988 20.7334 12.588 21.3334 13.3213 21.3334L18.6546 21.3334C19.388 21.3334 19.988 20.7334 19.988 20L19.988 13.3334L22.108 13.3334C23.2946 13.3334 23.8946 11.8934 23.0546 11.0534L16.9346 4.93338C16.8113 4.80978 16.6648 4.71171 16.5035 4.64481C16.3422 4.5779 16.1693 4.54346 15.9946 4.54346C15.82 4.54346 15.6471 4.5779 15.4858 4.64481C15.3245 4.71171 15.178 4.80978 15.0546 4.93338L8.93464 11.0534C8.09464 11.8934 8.6813 13.3334 9.86797 13.3334ZM6.66797 25.3334C6.66797 26.0667 7.26797 26.6667 8.0013 26.6667L24.0013 26.6667C24.7346 26.6667 25.3346 26.0667 25.3346 25.3334C25.3346 24.6 24.7346 24 24.0013 24L8.0013 24C7.26797 24 6.66797 24.6 6.66797 25.3334Z" fill="#6E55FF"/>
</svg>
