<svg width="16" height="16" viewBox="0 0 16 16" fill="none" xmlns="http://www.w3.org/2000/svg">
<mask id="mask0_2912_27823" style="mask-type:alpha" maskUnits="userSpaceOnUse" x="0" y="0" width="16" height="16">
<g clip-path="url(#clip0_2912_27823)">
<path fill-rule="evenodd" clip-rule="evenodd" d="M3.1 3C2.54305 3 2.0089 3.22576 1.61508 3.62763C1.22125 4.02949 1 4.57454 1 5.14286V10.8571C1 11.4255 1.22125 11.9705 1.61508 12.3724C2.0089 12.7742 2.54305 13 3.1 13H10.1C10.657 13 11.1911 12.7742 11.5849 12.3724C11.9788 11.9705 12.2 11.4255 12.2 10.8571V9.72429L13.8051 11.3621C13.903 11.462 14.0277 11.53 14.1635 11.5576C14.2992 11.5851 14.44 11.571 14.5679 11.5169C14.6957 11.4629 14.8051 11.3713 14.882 11.2539C14.9589 11.1365 15 10.9984 15 10.8571V5.14286C15 5.00161 14.9589 4.86354 14.882 4.7461C14.8051 4.62867 14.6957 4.53714 14.5679 4.48309C14.44 4.42904 14.2992 4.41489 14.1635 4.44244C14.0277 4.46999 13.903 4.53799 13.8051 4.63786L12.2 6.27571V5.14286C12.2 4.57454 11.9788 4.02949 11.5849 3.62763C11.1911 3.22576 10.657 3 10.1 3H3.1Z" fill="black"/>
</g>
</mask>
<g mask="url(#mask0_2912_27823)">
<rect width="16" height="16" fill="white"/>
</g>
<defs>
<clipPath id="clip0_2912_27823">
<rect width="16" height="16" fill="white"/>
</clipPath>
</defs>
</svg>
