<svg width="40" height="40" viewBox="0 0 40 40" fill="none" xmlns="http://www.w3.org/2000/svg">
<mask id="mask0_2703_122685" style="mask-type:alpha" maskUnits="userSpaceOnUse" x="0" y="0" width="40" height="40">
<g clip-path="url(#clip0_2703_122685)">
<path fill-rule="evenodd" clip-rule="evenodd" d="M7.75 7.5C6.35761 7.5 5.02226 8.06441 4.03769 9.06907C3.05312 10.0737 2.5 11.4363 2.5 12.8571V27.1429C2.5 28.5637 3.05312 29.9263 4.03769 30.9309C5.02226 31.9356 6.35761 32.5 7.75 32.5H25.25C26.6424 32.5 27.9777 31.9356 28.9623 30.9309C29.9469 29.9263 30.5 28.5637 30.5 27.1429V24.3107L34.5127 28.4054C34.7575 28.655 35.0693 28.825 35.4087 28.8939C35.7481 28.9628 36.0999 28.9274 36.4196 28.7923C36.7394 28.6572 37.0127 28.4283 37.205 28.1347C37.3973 27.8412 37.4999 27.496 37.5 27.1429V12.8571C37.4999 12.504 37.3973 12.1588 37.205 11.8653C37.0127 11.5717 36.7394 11.3428 36.4196 11.2077C36.0999 11.0726 35.7481 11.0372 35.4087 11.1061C35.0693 11.175 34.7575 11.345 34.5127 11.5946L30.5 15.6893V12.8571C30.5 11.4363 29.9469 10.0737 28.9623 9.06907C27.9777 8.06441 26.6424 7.5 25.25 7.5H7.75Z" fill="black"/>
</g>
</mask>
<g mask="url(#mask0_2703_122685)">
<rect width="40" height="40" fill="#343F48"/>
</g>
<defs>
<clipPath id="clip0_2703_122685">
<rect width="40" height="40" fill="white"/>
</clipPath>
</defs>
</svg>
