<svg width="16" height="16" viewBox="0 0 16 16" fill="none" xmlns="http://www.w3.org/2000/svg">
<path d="M6.66884 2.00001H9.3355C9.70217 2.00001 10.0022 1.70001 10.0022 1.33334C10.0022 0.966672 9.70217 0.666672 9.3355 0.666672H6.66884C6.30217 0.666672 6.00217 0.966672 6.00217 1.33334C6.00217 1.70001 6.30217 2.00001 6.66884 2.00001ZM12.6888 4.92667L13.1888 4.42667C13.3121 4.30264 13.3813 4.13488 13.3813 3.96001C13.3813 3.78514 13.3121 3.61737 13.1888 3.49334L13.1822 3.48667C13.0581 3.3634 12.8904 3.29421 12.7155 3.29421C12.5406 3.29421 12.3729 3.3634 12.2488 3.48667L11.7488 3.98667C10.6871 3.13222 9.36506 2.66647 8.00217 2.66667C4.80217 2.66667 2.08217 5.30667 2.00217 8.50667C1.98061 9.30801 2.11988 10.1055 2.41176 10.8521C2.70364 11.5988 3.1422 12.2793 3.70153 12.8535C4.26086 13.4278 4.92962 13.8841 5.66828 14.1955C6.40695 14.5069 7.20054 14.6671 8.00217 14.6667C9.13171 14.6673 10.2384 14.3488 11.1949 13.748C12.1514 13.1471 12.9187 12.2883 13.4085 11.2705C13.8982 10.2527 14.0905 9.11718 13.9632 7.99484C13.8359 6.8725 13.3941 5.80895 12.6888 4.92667ZM8.66884 8.66667C8.66884 9.03334 8.36884 9.33334 8.00217 9.33334C7.6355 9.33334 7.3355 9.03334 7.3355 8.66667V6.00001C7.3355 5.63334 7.6355 5.33334 8.00217 5.33334C8.36884 5.33334 8.66884 5.63334 8.66884 6.00001V8.66667Z" fill="#FF8C52"/>
</svg>
