<svg width="25" height="24" viewBox="0 0 25 24" fill="none" xmlns="http://www.w3.org/2000/svg">
<path d="M10.3392 3H14.3392C14.8892 3 15.3392 2.55 15.3392 2C15.3392 1.45 14.8892 1 14.3392 1H10.3392C9.78919 1 9.33919 1.45 9.33919 2C9.33919 2.55 9.78919 3 10.3392 3ZM19.3692 7.39L20.1192 6.64C20.3041 6.45396 20.4079 6.20231 20.4079 5.94C20.4079 5.6777 20.3041 5.42605 20.1192 5.24L20.1092 5.23C19.9231 5.04509 19.6715 4.94131 19.4092 4.94131C19.1469 4.94131 18.8952 5.04509 18.7092 5.23L17.9592 5.98C16.3665 4.69833 14.3835 3.99969 12.3392 4C7.53919 4 3.45919 7.96 3.33919 12.76C3.30685 13.962 3.51576 15.1583 3.95358 16.2782C4.39139 17.3981 5.04923 18.4189 5.88823 19.2803C6.72723 20.1417 7.73036 20.8261 8.83836 21.2933C9.94636 21.7604 11.1367 22.0007 12.3392 22C14.0335 22.0009 15.6936 21.5232 17.1283 20.622C18.563 19.7207 19.714 18.4325 20.4486 16.9057C21.1833 15.379 21.4717 13.6758 21.2807 11.9923C21.0898 10.3087 20.4271 8.71341 19.3692 7.39ZM13.3392 13C13.3392 13.55 12.8892 14 12.3392 14C11.7892 14 11.3392 13.55 11.3392 13V9C11.3392 8.45 11.7892 8 12.3392 8C12.8892 8 13.3392 8.45 13.3392 9V13Z" fill="#F0EEFF"/>
</svg>
