<svg width="16" height="17" viewBox="0 0 16 17" fill="none" xmlns="http://www.w3.org/2000/svg">
<path fill-rule="evenodd" clip-rule="evenodd" d="M8.00008 2.5C6.78141 2.5 5.58474 2.59933 4.41941 2.79C4.30236 2.80914 4.19592 2.86926 4.11911 2.95963C4.04229 3.05 4.00011 3.16473 4.00008 3.28333V3.54133C3.44874 3.646 2.90541 3.77133 2.37008 3.91733C2.2671 3.94545 2.17582 4.00579 2.10961 4.08952C2.04339 4.17326 2.00571 4.27598 2.00208 4.38267C1.97217 5.2295 2.2659 6.05593 2.82354 6.69394C3.38118 7.33195 4.16086 7.73363 5.00408 7.81733C5.52509 8.4065 6.20823 8.829 6.96808 9.032C6.90547 9.54475 6.75101 10.042 6.51208 10.5H6.33341C6.06819 10.5 5.81384 10.6054 5.6263 10.7929C5.43877 10.9804 5.33341 11.2348 5.33341 11.5V13.1667H4.83341C4.37341 13.1667 4.00008 13.54 4.00008 14C4.00008 14.276 4.22408 14.5 4.50008 14.5H11.5001C11.6327 14.5 11.7599 14.4473 11.8536 14.3536C11.9474 14.2598 12.0001 14.1326 12.0001 14C12.0001 13.54 11.6267 13.1667 11.1667 13.1667H10.6667V11.5C10.6667 11.2348 10.5614 10.9804 10.3739 10.7929C10.1863 10.6054 9.93196 10.5 9.66674 10.5H9.48808C9.24918 10.042 9.09471 9.54474 9.03208 9.032C9.79192 8.829 10.4751 8.4065 10.9961 7.81733C11.8393 7.73363 12.619 7.33195 13.1766 6.69394C13.7343 6.05593 14.028 5.2295 13.9981 4.38267C13.9944 4.27598 13.9568 4.17326 13.8905 4.08952C13.8243 4.00579 13.7331 3.94545 13.6301 3.91733C13.0919 3.77061 12.5481 3.64518 12.0001 3.54133V3.28333C12 3.16473 11.9579 3.05 11.881 2.95963C11.8042 2.86926 11.6978 2.80914 11.5807 2.79C10.397 2.59655 9.19952 2.49957 8.00008 2.5ZM3.01674 4.78133C3.34141 4.7 3.66941 4.62667 4.00008 4.56V5.16667C4.00008 5.66 4.08941 6.132 4.25341 6.56867C3.91791 6.39338 3.63005 6.13917 3.41462 5.82793C3.19919 5.51668 3.06265 5.15774 3.01674 4.782V4.78133ZM12.9834 4.78133C12.9376 5.157 12.8011 5.51591 12.5858 5.82715C12.3705 6.13838 12.0828 6.39263 11.7474 6.568C11.9151 6.11986 12.0007 5.64516 12.0001 5.16667V4.56C12.3307 4.626 12.6587 4.7 12.9834 4.78133Z" fill="white"/>
</svg>
