<svg width="16" height="17" viewBox="0 0 16 17" fill="none" xmlns="http://www.w3.org/2000/svg">
<mask id="mask0_2301_89655" style="mask-type:alpha" maskUnits="userSpaceOnUse" x="0" y="0" width="24" height="17">
<path d="M13.9628 6.03694C13.956 5.53203 13.8615 5.03213 13.6834 4.55961C13.529 4.16104 13.2931 3.79908 12.9909 3.49683C12.6886 3.19459 12.3267 2.95871 11.9281 2.80428C11.4617 2.62918 10.9689 2.5345 10.4708 2.52428C9.82943 2.49561 9.62609 2.48761 7.99809 2.48761C6.37009 2.48761 6.16143 2.48761 5.52476 2.52428C5.02687 2.53458 4.53433 2.62926 4.06809 2.80428C3.66947 2.9586 3.30744 3.19444 3.00518 3.4967C2.70292 3.79896 2.46709 4.16098 2.31276 4.55961C2.13731 5.0257 2.04284 5.51835 2.03343 6.01628C2.00476 6.65828 1.99609 6.86161 1.99609 8.48961C1.99609 10.1176 1.99609 10.3256 2.03343 10.9629C2.04343 11.4616 2.13743 11.9536 2.31276 12.4209C2.46735 12.8195 2.70336 13.1813 3.00572 13.4835C3.30808 13.7856 3.67014 14.0213 4.06876 14.1756C4.53372 14.3577 5.02634 14.4592 5.52543 14.4756C6.16743 14.5043 6.37076 14.5129 7.99876 14.5129C9.62676 14.5129 9.83543 14.5129 10.4721 14.4756C10.9702 14.4658 11.463 14.3713 11.9294 14.1963C12.3279 14.0417 12.6898 13.8057 12.992 13.5035C13.2942 13.2013 13.5301 12.8394 13.6848 12.4409C13.8601 11.9743 13.9541 11.4823 13.9641 10.9829C13.9928 10.3416 14.0014 10.1383 14.0014 8.50961C14.0001 6.88161 14.0001 6.67494 13.9628 6.03694V6.03694ZM7.99409 11.5683C6.29143 11.5683 4.91209 10.1889 4.91209 8.48628C4.91209 6.78361 6.29143 5.40428 7.99409 5.40428C8.81149 5.40428 9.59541 5.72899 10.1734 6.30697C10.7514 6.88496 11.0761 7.66888 11.0761 8.48628C11.0761 9.30367 10.7514 10.0876 10.1734 10.6656C9.59541 11.2436 8.81149 11.5683 7.99409 11.5683V11.5683ZM11.1988 6.00894C11.1044 6.00903 11.0109 5.9905 10.9236 5.95442C10.8364 5.91833 10.7571 5.8654 10.6904 5.79865C10.6236 5.73189 10.5707 5.65263 10.5346 5.5654C10.4985 5.47817 10.48 5.38468 10.4801 5.29028C10.4801 5.19594 10.4987 5.10253 10.5348 5.01538C10.5709 4.92823 10.6238 4.84904 10.6905 4.78234C10.7572 4.71563 10.8364 4.66272 10.9235 4.62662C11.0107 4.59052 11.1041 4.57194 11.1984 4.57194C11.2928 4.57194 11.3862 4.59052 11.4733 4.62662C11.5605 4.66272 11.6397 4.71563 11.7064 4.78234C11.7731 4.84904 11.826 4.92823 11.8621 5.01538C11.8982 5.10253 11.9168 5.19594 11.9168 5.29028C11.9168 5.68761 11.5954 6.00894 11.1988 6.00894Z" fill="black"/>
<path d="M7.99419 10.4877C9.09986 10.4877 9.99619 9.59138 9.99619 8.4857C9.99619 7.38003 9.09986 6.4837 7.99419 6.4837C6.88851 6.4837 5.99219 7.38003 5.99219 8.4857C5.99219 9.59138 6.88851 10.4877 7.99419 10.4877Z" fill="black"/>
</mask>
<g mask="url(#mask0_2301_89655)">
<rect y="0.5" width="16" height="16" fill="#6E55FF"/>
</g>
</svg>
