<svg width="16" height="17" viewBox="0 0 16 17" fill="none" xmlns="http://www.w3.org/2000/svg">
<mask id="mask0_2301_89602" style="mask-type:alpha" maskUnits="userSpaceOnUse" x="0" y="0" width="48" height="17">
<path d="M14.638 9.64622V14.5656H11.786V9.97556C11.786 8.82222 11.3734 8.03556 10.3414 8.03556C9.55336 8.03556 9.08403 8.56622 8.87803 9.07889C8.8027 9.26222 8.78336 9.51756 8.78336 9.77422V14.5656H5.93003C5.93003 14.5656 5.9687 6.79222 5.93003 5.98622H8.78336V7.20222L8.7647 7.23022H8.78336V7.20222C9.16203 6.61889 9.8387 5.78489 11.354 5.78489C13.2307 5.78489 14.638 7.01156 14.638 9.64622V9.64622ZM2.94603 1.85089C1.9707 1.85089 1.33203 2.49089 1.33203 3.33289C1.33203 4.15622 1.95203 4.81556 2.9087 4.81556H2.92736C3.9227 4.81556 4.5407 4.15622 4.5407 3.33289C4.52336 2.49089 3.92336 1.85089 2.9467 1.85089H2.94603ZM1.50136 14.5656H4.35336V5.98622H1.50136V14.5656Z" fill="black"/>
</mask>
<g mask="url(#mask0_2301_89602)">
<rect y="0.5" width="16" height="16" fill="#6E55FF"/>
</g>
</svg>
