<svg width="24" height="24" viewBox="0 0 24 24" fill="none" xmlns="http://www.w3.org/2000/svg">
<g clip-path="url(#clip0_141_1420)">
<path d="M5.42496 5.86856C5.58695 5.84999 5.75102 5.87544 5.89941 5.94216C6.0478 6.00887 6.17488 6.11431 6.26692 6.24708C7.58757 8.15203 9.17306 8.94436 10.933 9.12435C11.0189 8.38231 11.222 7.6491 11.6041 7.00323C12.1642 6.05561 13.0751 5.35857 14.376 5.10093C16.1745 4.74447 17.5434 5.38681 18.3371 6.17296L19.9405 5.87738C20.1083 5.84638 20.2815 5.86336 20.4398 5.92631C20.5982 5.98925 20.7349 6.09555 20.834 6.23265C20.933 6.36975 20.9902 6.53193 20.9989 6.70005C21.0075 6.86817 20.9672 7.03521 20.8826 7.18146L19.3437 9.84786C19.4841 13.6957 18.3997 16.3815 16.0877 18.2318C14.8619 19.2129 13.1064 19.7697 11.18 19.9417C9.23838 20.1146 7.04356 19.9055 4.86216 19.2773C4.67578 19.2237 4.51214 19.1118 4.39593 18.9584C4.27973 18.805 4.21726 18.6185 4.21797 18.4271C4.21868 18.2356 4.28252 18.0496 4.39985 17.8971C4.51719 17.7445 4.68165 17.6338 4.86842 17.5815C5.96539 17.2735 6.80108 17.008 7.55536 16.543C6.48255 15.9818 5.69249 15.2477 5.13327 14.4113C4.35663 13.2484 4.06852 11.9513 4.01125 10.7823C3.95399 9.61316 4.12489 8.52966 4.30563 7.7488C4.40852 7.30323 4.52842 6.85677 4.69395 6.42972C4.75234 6.27919 4.85142 6.1473 4.98045 6.04837C5.10948 5.94944 5.26352 5.88726 5.42585 5.86856H5.42496Z" fill="white"/>
</g>
<defs>
<clipPath id="clip0_141_1420">
<rect width="24" height="24" fill="white"/>
</clipPath>
</defs>
</svg>
