<svg width="16" height="17" viewBox="0 0 16 17" fill="none" xmlns="http://www.w3.org/2000/svg">
<mask id="mask0_2301_89571" style="mask-type:alpha" maskUnits="userSpaceOnUse" x="0" y="0" width="80" height="17">
<g clip-path="url(#clip0_2301_89571)">
<path d="M3.61794 4.41235C3.72594 4.39998 3.83531 4.41694 3.93424 4.46142C4.03317 4.50589 4.11789 4.57619 4.17925 4.6647C5.05968 5.93466 6.11668 6.46289 7.28999 6.58288C7.34725 6.08819 7.48266 5.59938 7.73736 5.1688C8.11077 4.53705 8.71801 4.07236 9.58532 3.9006C10.7843 3.66296 11.6969 4.09118 12.226 4.61529L13.2949 4.41823C13.4068 4.39757 13.5223 4.40888 13.6279 4.45085C13.7334 4.49282 13.8246 4.56368 13.8906 4.65508C13.9567 4.74648 13.9948 4.8546 14.0005 4.96668C14.0063 5.07876 13.9794 5.19012 13.9231 5.28762L12.8971 7.06522C12.9907 9.63045 12.2678 11.421 10.7264 12.6545C9.90922 13.3086 8.73889 13.6798 7.45462 13.7945C6.16022 13.9097 4.69701 13.7703 3.24274 13.3515C3.11849 13.3158 3.00939 13.2412 2.93192 13.1389C2.85445 13.0367 2.81281 12.9123 2.81328 12.7847C2.81375 12.6571 2.85631 12.533 2.93454 12.4313C3.01276 12.3297 3.1224 12.2558 3.24692 12.221C3.97823 12.0157 4.53536 11.8386 5.03821 11.5286C4.323 11.1545 3.79629 10.6651 3.42348 10.1075C2.90572 9.33222 2.71365 8.46754 2.67547 7.68815C2.6373 6.90876 2.75123 6.18642 2.87172 5.66585C2.94032 5.3688 3.02025 5.07116 3.1306 4.78646C3.16953 4.6861 3.23558 4.59818 3.3216 4.53223C3.40762 4.46627 3.51031 4.42482 3.61854 4.41235H3.61794Z" fill="black"/>
</g>
</mask>
<g mask="url(#mask0_2301_89571)">
<rect y="0.5" width="16" height="16" fill="#6E55FF"/>
</g>
<defs>
<clipPath id="clip0_2301_89571">
<rect width="16" height="16" fill="white" transform="translate(0 0.5)"/>
</clipPath>
</defs>
</svg>
