<svg width="24" height="24" viewBox="0 0 24 24" fill="none" xmlns="http://www.w3.org/2000/svg">
<path d="M19.67 8.14038C19.5811 7.79766 19.4028 7.4847 19.1533 7.23346C18.9038 6.98222 18.5921 6.80171 18.25 6.71038C16.176 6.46577 14.0883 6.35554 12 6.38038C9.91177 6.35554 7.82408 6.46577 5.75004 6.71038C5.40796 6.80171 5.09625 6.98222 4.84677 7.23346C4.59728 7.4847 4.41897 7.79766 4.33004 8.14038C4.10285 9.41433 3.99239 10.7064 4.00004 12.0004C3.99201 13.3011 4.10247 14.5997 4.33004 15.8804C4.42358 16.2176 4.60394 16.5243 4.85312 16.77C5.10229 17.0156 5.41157 17.1916 5.75004 17.2804C7.82408 17.525 9.91177 17.6352 12 17.6104C14.0883 17.6352 16.176 17.525 18.25 17.2804C18.5885 17.1916 18.8978 17.0156 19.147 16.77C19.3961 16.5243 19.5765 16.2176 19.67 15.8804C19.8976 14.5997 20.0081 13.3011 20 12.0004C20.0077 10.7064 19.8972 9.41433 19.67 8.14038ZM10.36 14.3904V9.63038L14.55 12.0004L10.36 14.3804V14.3904Z" fill="white"/>
</svg>
