<svg width="205" height="76" viewBox="0 0 205 76" fill="none" xmlns="http://www.w3.org/2000/svg">
<g opacity="0.5" filter="url(#filter0_f_991_5359)">
<rect width="160" height="36" transform="translate(20 20)" fill="#161428"/>
<path d="M25.351 34.192C24.0923 34.192 23.0897 33.696 22.343 32.704C21.607 31.712 21.239 30.368 21.239 28.672C21.239 26.976 21.607 25.6373 22.343 24.656C23.079 23.664 24.0817 23.168 25.351 23.168C26.6203 23.168 27.623 23.664 28.359 24.656C29.095 25.6373 29.463 26.976 29.463 28.672C29.463 30.368 29.0897 31.712 28.343 32.704C27.607 33.696 26.6097 34.192 25.351 34.192ZM25.351 32.928C26.215 32.928 26.8923 32.5547 27.383 31.808C27.8843 31.0507 28.135 30.0053 28.135 28.672C28.135 27.3493 27.8843 26.3147 27.383 25.568C26.8923 24.8107 26.215 24.432 25.351 24.432C24.7857 24.432 24.2897 24.6027 23.863 24.944C23.447 25.2747 23.127 25.76 22.903 26.4C22.679 27.04 22.567 27.7973 22.567 28.672C22.567 30.0053 22.8123 31.0507 23.303 31.808C23.8043 32.5547 24.487 32.928 25.351 32.928ZM35.3041 34.192C34.0455 34.192 33.0428 33.696 32.2961 32.704C31.5601 31.712 31.1921 30.368 31.1921 28.672C31.1921 26.976 31.5601 25.6373 32.2961 24.656C33.0321 23.664 34.0348 23.168 35.3041 23.168C36.5735 23.168 37.5761 23.664 38.3121 24.656C39.0481 25.6373 39.4161 26.976 39.4161 28.672C39.4161 30.368 39.0428 31.712 38.2961 32.704C37.5601 33.696 36.5628 34.192 35.3041 34.192ZM35.3041 32.928C36.1681 32.928 36.8455 32.5547 37.3361 31.808C37.8375 31.0507 38.0881 30.0053 38.0881 28.672C38.0881 27.3493 37.8375 26.3147 37.3361 25.568C36.8455 24.8107 36.1681 24.432 35.3041 24.432C34.7388 24.432 34.2428 24.6027 33.8161 24.944C33.4001 25.2747 33.0801 25.76 32.8561 26.4C32.6321 27.04 32.5201 27.7973 32.5201 28.672C32.5201 30.0053 32.7655 31.0507 33.2561 31.808C33.7575 32.5547 34.4401 32.928 35.3041 32.928ZM45.2573 34.192C43.9986 34.192 42.9959 33.696 42.2493 32.704C41.5133 31.712 41.1453 30.368 41.1453 28.672C41.1453 26.976 41.5133 25.6373 42.2493 24.656C42.9853 23.664 43.9879 23.168 45.2573 23.168C46.5266 23.168 47.5293 23.664 48.2653 24.656C49.0013 25.6373 49.3693 26.976 49.3693 28.672C49.3693 30.368 48.9959 31.712 48.2493 32.704C47.5133 33.696 46.5159 34.192 45.2573 34.192ZM45.2573 32.928C46.1213 32.928 46.7986 32.5547 47.2893 31.808C47.7906 31.0507 48.0413 30.0053 48.0413 28.672C48.0413 27.3493 47.7906 26.3147 47.2893 25.568C46.7986 24.8107 46.1213 24.432 45.2573 24.432C44.6919 24.432 44.1959 24.6027 43.7693 24.944C43.3533 25.2747 43.0333 25.76 42.8093 26.4C42.5853 27.04 42.4733 27.7973 42.4733 28.672C42.4733 30.0053 42.7186 31.0507 43.2093 31.808C43.7106 32.5547 44.3933 32.928 45.2573 32.928ZM55.2104 34.192C53.9517 34.192 52.949 33.696 52.2024 32.704C51.4664 31.712 51.0984 30.368 51.0984 28.672C51.0984 26.976 51.4664 25.6373 52.2024 24.656C52.9384 23.664 53.941 23.168 55.2104 23.168C56.4797 23.168 57.4824 23.664 58.2184 24.656C58.9544 25.6373 59.3224 26.976 59.3224 28.672C59.3224 30.368 58.949 31.712 58.2024 32.704C57.4664 33.696 56.469 34.192 55.2104 34.192ZM55.2104 32.928C56.0744 32.928 56.7517 32.5547 57.2424 31.808C57.7437 31.0507 57.9944 30.0053 57.9944 28.672C57.9944 27.3493 57.7437 26.3147 57.2424 25.568C56.7517 24.8107 56.0744 24.432 55.2104 24.432C54.645 24.432 54.149 24.6027 53.7224 24.944C53.3064 25.2747 52.9864 25.76 52.7624 26.4C52.5384 27.04 52.4264 27.7973 52.4264 28.672C52.4264 30.0053 52.6717 31.0507 53.1624 31.808C53.6637 32.5547 54.3464 32.928 55.2104 32.928ZM65.1635 34.192C63.9048 34.192 62.9022 33.696 62.1555 32.704C61.4195 31.712 61.0515 30.368 61.0515 28.672C61.0515 26.976 61.4195 25.6373 62.1555 24.656C62.8915 23.664 63.8942 23.168 65.1635 23.168C66.4328 23.168 67.4355 23.664 68.1715 24.656C68.9075 25.6373 69.2755 26.976 69.2755 28.672C69.2755 30.368 68.9022 31.712 68.1555 32.704C67.4195 33.696 66.4222 34.192 65.1635 34.192ZM65.1635 32.928C66.0275 32.928 66.7048 32.5547 67.1955 31.808C67.6968 31.0507 67.9475 30.0053 67.9475 28.672C67.9475 27.3493 67.6968 26.3147 67.1955 25.568C66.7048 24.8107 66.0275 24.432 65.1635 24.432C64.5982 24.432 64.1022 24.6027 63.6755 24.944C63.2595 25.2747 62.9395 25.76 62.7155 26.4C62.4915 27.04 62.3795 27.7973 62.3795 28.672C62.3795 30.0053 62.6248 31.0507 63.1155 31.808C63.6168 32.5547 64.2995 32.928 65.1635 32.928ZM75.1166 34.192C73.858 34.192 72.8553 33.696 72.1086 32.704C71.3726 31.712 71.0046 30.368 71.0046 28.672C71.0046 26.976 71.3726 25.6373 72.1086 24.656C72.8446 23.664 73.8473 23.168 75.1166 23.168C76.386 23.168 77.3886 23.664 78.1246 24.656C78.8606 25.6373 79.2286 26.976 79.2286 28.672C79.2286 30.368 78.8553 31.712 78.1086 32.704C77.3726 33.696 76.3753 34.192 75.1166 34.192ZM75.1166 32.928C75.9806 32.928 76.658 32.5547 77.1486 31.808C77.65 31.0507 77.9006 30.0053 77.9006 28.672C77.9006 27.3493 77.65 26.3147 77.1486 25.568C76.658 24.8107 75.9806 24.432 75.1166 24.432C74.5513 24.432 74.0553 24.6027 73.6286 24.944C73.2126 25.2747 72.8926 25.76 72.6686 26.4C72.4446 27.04 72.3326 27.7973 72.3326 28.672C72.3326 30.0053 72.578 31.0507 73.0686 31.808C73.57 32.5547 74.2526 32.928 75.1166 32.928ZM85.0698 34.192C83.8111 34.192 82.8084 33.696 82.0618 32.704C81.3258 31.712 80.9578 30.368 80.9578 28.672C80.9578 26.976 81.3258 25.6373 82.0618 24.656C82.7978 23.664 83.8004 23.168 85.0698 23.168C86.3391 23.168 87.3418 23.664 88.0778 24.656C88.8138 25.6373 89.1818 26.976 89.1818 28.672C89.1818 30.368 88.8084 31.712 88.0618 32.704C87.3258 33.696 86.3284 34.192 85.0698 34.192ZM85.0698 32.928C85.9338 32.928 86.6111 32.5547 87.1018 31.808C87.6031 31.0507 87.8538 30.0053 87.8538 28.672C87.8538 27.3493 87.6031 26.3147 87.1018 25.568C86.6111 24.8107 85.9338 24.432 85.0698 24.432C84.5044 24.432 84.0084 24.6027 83.5818 24.944C83.1658 25.2747 82.8458 25.76 82.6218 26.4C82.3978 27.04 82.2858 27.7973 82.2858 28.672C82.2858 30.0053 82.5311 31.0507 83.0218 31.808C83.5231 32.5547 84.2058 32.928 85.0698 32.928ZM95.0229 34.192C93.7642 34.192 92.7615 33.696 92.0149 32.704C91.2789 31.712 90.9109 30.368 90.9109 28.672C90.9109 26.976 91.2789 25.6373 92.0149 24.656C92.7509 23.664 93.7535 23.168 95.0229 23.168C96.2922 23.168 97.2949 23.664 98.0309 24.656C98.7669 25.6373 99.1349 26.976 99.1349 28.672C99.1349 30.368 98.7615 31.712 98.0149 32.704C97.2789 33.696 96.2815 34.192 95.0229 34.192ZM95.0229 32.928C95.8869 32.928 96.5642 32.5547 97.0549 31.808C97.5562 31.0507 97.8069 30.0053 97.8069 28.672C97.8069 27.3493 97.5562 26.3147 97.0549 25.568C96.5642 24.8107 95.8869 24.432 95.0229 24.432C94.4575 24.432 93.9615 24.6027 93.5349 24.944C93.1189 25.2747 92.7989 25.76 92.5749 26.4C92.3509 27.04 92.2389 27.7973 92.2389 28.672C92.2389 30.0053 92.4842 31.0507 92.9749 31.808C93.4762 32.5547 94.1589 32.928 95.0229 32.928ZM104.976 34.192C103.717 34.192 102.715 33.696 101.968 32.704C101.232 31.712 100.864 30.368 100.864 28.672C100.864 26.976 101.232 25.6373 101.968 24.656C102.704 23.664 103.707 23.168 104.976 23.168C106.245 23.168 107.248 23.664 107.984 24.656C108.72 25.6373 109.088 26.976 109.088 28.672C109.088 30.368 108.715 31.712 107.968 32.704C107.232 33.696 106.235 34.192 104.976 34.192ZM104.976 32.928C105.84 32.928 106.517 32.5547 107.008 31.808C107.509 31.0507 107.76 30.0053 107.76 28.672C107.76 27.3493 107.509 26.3147 107.008 25.568C106.517 24.8107 105.84 24.432 104.976 24.432C104.411 24.432 103.915 24.6027 103.488 24.944C103.072 25.2747 102.752 25.76 102.528 26.4C102.304 27.04 102.192 27.7973 102.192 28.672C102.192 30.0053 102.437 31.0507 102.928 31.808C103.429 32.5547 104.112 32.928 104.976 32.928ZM114.929 34.192C113.67 34.192 112.668 33.696 111.921 32.704C111.185 31.712 110.817 30.368 110.817 28.672C110.817 26.976 111.185 25.6373 111.921 24.656C112.657 23.664 113.66 23.168 114.929 23.168C116.198 23.168 117.201 23.664 117.937 24.656C118.673 25.6373 119.041 26.976 119.041 28.672C119.041 30.368 118.668 31.712 117.921 32.704C117.185 33.696 116.188 34.192 114.929 34.192ZM114.929 32.928C115.793 32.928 116.47 32.5547 116.961 31.808C117.462 31.0507 117.713 30.0053 117.713 28.672C117.713 27.3493 117.462 26.3147 116.961 25.568C116.47 24.8107 115.793 24.432 114.929 24.432C114.364 24.432 113.868 24.6027 113.441 24.944C113.025 25.2747 112.705 25.76 112.481 26.4C112.257 27.04 112.145 27.7973 112.145 28.672C112.145 30.0053 112.39 31.0507 112.881 31.808C113.382 32.5547 114.065 32.928 114.929 32.928ZM124.882 34.192C123.624 34.192 122.621 33.696 121.874 32.704C121.138 31.712 120.77 30.368 120.77 28.672C120.77 26.976 121.138 25.6373 121.874 24.656C122.61 23.664 123.613 23.168 124.882 23.168C126.152 23.168 127.154 23.664 127.89 24.656C128.626 25.6373 128.994 26.976 128.994 28.672C128.994 30.368 128.621 31.712 127.874 32.704C127.138 33.696 126.141 34.192 124.882 34.192ZM124.882 32.928C125.746 32.928 126.424 32.5547 126.914 31.808C127.416 31.0507 127.666 30.0053 127.666 28.672C127.666 27.3493 127.416 26.3147 126.914 25.568C126.424 24.8107 125.746 24.432 124.882 24.432C124.317 24.432 123.821 24.6027 123.394 24.944C122.978 25.2747 122.658 25.76 122.434 26.4C122.21 27.04 122.098 27.7973 122.098 28.672C122.098 30.0053 122.344 31.0507 122.834 31.808C123.336 32.5547 124.018 32.928 124.882 32.928ZM134.835 34.192C133.577 34.192 132.574 33.696 131.827 32.704C131.091 31.712 130.723 30.368 130.723 28.672C130.723 26.976 131.091 25.6373 131.827 24.656C132.563 23.664 133.566 23.168 134.835 23.168C136.105 23.168 137.107 23.664 137.843 24.656C138.579 25.6373 138.947 26.976 138.947 28.672C138.947 30.368 138.574 31.712 137.827 32.704C137.091 33.696 136.094 34.192 134.835 34.192ZM134.835 32.928C135.699 32.928 136.377 32.5547 136.867 31.808C137.369 31.0507 137.619 30.0053 137.619 28.672C137.619 27.3493 137.369 26.3147 136.867 25.568C136.377 24.8107 135.699 24.432 134.835 24.432C134.27 24.432 133.774 24.6027 133.347 24.944C132.931 25.2747 132.611 25.76 132.387 26.4C132.163 27.04 132.051 27.7973 132.051 28.672C132.051 30.0053 132.297 31.0507 132.787 31.808C133.289 32.5547 133.971 32.928 134.835 32.928ZM144.789 34.192C143.53 34.192 142.527 33.696 141.781 32.704C141.045 31.712 140.677 30.368 140.677 28.672C140.677 26.976 141.045 25.6373 141.781 24.656C142.517 23.664 143.519 23.168 144.789 23.168C146.058 23.168 147.061 23.664 147.797 24.656C148.533 25.6373 148.901 26.976 148.901 28.672C148.901 30.368 148.527 31.712 147.781 32.704C147.045 33.696 146.047 34.192 144.789 34.192ZM144.789 32.928C145.653 32.928 146.33 32.5547 146.821 31.808C147.322 31.0507 147.573 30.0053 147.573 28.672C147.573 27.3493 147.322 26.3147 146.821 25.568C146.33 24.8107 145.653 24.432 144.789 24.432C144.223 24.432 143.727 24.6027 143.301 24.944C142.885 25.2747 142.565 25.76 142.341 26.4C142.117 27.04 142.005 27.7973 142.005 28.672C142.005 30.0053 142.25 31.0507 142.741 31.808C143.242 32.5547 143.925 32.928 144.789 32.928ZM154.742 34.192C153.483 34.192 152.48 33.696 151.734 32.704C150.998 31.712 150.63 30.368 150.63 28.672C150.63 26.976 150.998 25.6373 151.734 24.656C152.47 23.664 153.472 23.168 154.742 23.168C156.011 23.168 157.014 23.664 157.75 24.656C158.486 25.6373 158.854 26.976 158.854 28.672C158.854 30.368 158.48 31.712 157.734 32.704C156.998 33.696 156 34.192 154.742 34.192ZM154.742 32.928C155.606 32.928 156.283 32.5547 156.774 31.808C157.275 31.0507 157.526 30.0053 157.526 28.672C157.526 27.3493 157.275 26.3147 156.774 25.568C156.283 24.8107 155.606 24.432 154.742 24.432C154.176 24.432 153.68 24.6027 153.254 24.944C152.838 25.2747 152.518 25.76 152.294 26.4C152.07 27.04 151.958 27.7973 151.958 28.672C151.958 30.0053 152.203 31.0507 152.694 31.808C153.195 32.5547 153.878 32.928 154.742 32.928ZM164.695 34.192C163.436 34.192 162.433 33.696 161.687 32.704C160.951 31.712 160.583 30.368 160.583 28.672C160.583 26.976 160.951 25.6373 161.687 24.656C162.423 23.664 163.425 23.168 164.695 23.168C165.964 23.168 166.967 23.664 167.703 24.656C168.439 25.6373 168.807 26.976 168.807 28.672C168.807 30.368 168.433 31.712 167.687 32.704C166.951 33.696 165.953 34.192 164.695 34.192ZM164.695 32.928C165.559 32.928 166.236 32.5547 166.727 31.808C167.228 31.0507 167.479 30.0053 167.479 28.672C167.479 27.3493 167.228 26.3147 166.727 25.568C166.236 24.8107 165.559 24.432 164.695 24.432C164.129 24.432 163.633 24.6027 163.207 24.944C162.791 25.2747 162.471 25.76 162.247 26.4C162.023 27.04 161.911 27.7973 161.911 28.672C161.911 30.0053 162.156 31.0507 162.647 31.808C163.148 32.5547 163.831 32.928 164.695 32.928ZM174.648 34.192C173.389 34.192 172.387 33.696 171.64 32.704C170.904 31.712 170.536 30.368 170.536 28.672C170.536 26.976 170.904 25.6373 171.64 24.656C172.376 23.664 173.379 23.168 174.648 23.168C175.917 23.168 176.92 23.664 177.656 24.656C178.392 25.6373 178.76 26.976 178.76 28.672C178.76 30.368 178.387 31.712 177.64 32.704C176.904 33.696 175.907 34.192 174.648 34.192ZM174.648 32.928C175.512 32.928 176.189 32.5547 176.68 31.808C177.181 31.0507 177.432 30.0053 177.432 28.672C177.432 27.3493 177.181 26.3147 176.68 25.568C176.189 24.8107 175.512 24.432 174.648 24.432C174.083 24.432 173.587 24.6027 173.16 24.944C172.744 25.2747 172.424 25.76 172.2 26.4C171.976 27.04 171.864 27.7973 171.864 28.672C171.864 30.0053 172.109 31.0507 172.6 31.808C173.101 32.5547 173.784 32.928 174.648 32.928Z" fill="white"/>
</g>
<rect x="5.5" y="10.5" width="189" height="51" rx="15.5" fill="white"/>
<path d="M33.075 25.5542L37.248 29.9042V46.4462H21.6592V46.5002H37.3012V29.9589L33.075 25.5542Z" fill="#909090"/>
<path d="M33.4173 26H22V46.946H37.642V30.4047L33.4165 26" fill="#F4F4F4"/>
<path d="M21.4913 26.625H16.6988V31.7452H31.7738V26.625H21.4913Z" fill="#7A7B7C"/>
<path d="M31.854 31.6582H16.7963V26.5342H31.854V31.6582Z" fill="#DD2025"/>
<path d="M21.789 27.4005H20.8087V31.0005H21.5797V29.7863L21.75 29.796C21.9154 29.7932 22.0793 29.7635 22.2352 29.7083C22.372 29.6612 22.4978 29.587 22.605 29.49C22.7141 29.3976 22.8002 29.281 22.8562 29.1495C22.9315 28.9309 22.9583 28.6985 22.935 28.4685C22.9303 28.3042 22.9015 28.1415 22.8495 27.9855C22.8022 27.8729 22.7319 27.7715 22.6432 27.6875C22.5545 27.6036 22.4493 27.5391 22.3342 27.498C22.2348 27.462 22.1321 27.4359 22.0275 27.42C21.9483 27.4078 21.8684 27.4013 21.7882 27.4005M21.6465 29.121H21.5797V28.011H21.7245C21.7884 28.0064 21.8525 28.0162 21.9121 28.0397C21.9717 28.0632 22.0252 28.0998 22.0687 28.1468C22.159 28.2675 22.2072 28.4145 22.206 28.5653C22.206 28.7498 22.206 28.917 22.0395 29.0348C21.9195 29.1007 21.783 29.1304 21.6465 29.1203M24.3997 27.3908C24.3165 27.3908 24.2355 27.3968 24.1785 27.399L24 27.4035H23.415V31.0035H24.1035C24.3666 31.0107 24.6286 30.9661 24.8745 30.8723C25.0724 30.7938 25.2477 30.6672 25.3845 30.504C25.5175 30.3394 25.613 30.1476 25.6642 29.9423C25.7232 29.7097 25.7519 29.4705 25.7497 29.2305C25.7643 28.9471 25.7424 28.6631 25.6845 28.3853C25.6296 28.1808 25.5267 27.9923 25.3845 27.8355C25.2729 27.7089 25.1363 27.6067 24.9832 27.5355C24.8518 27.4747 24.7136 27.4299 24.5715 27.402C24.515 27.3927 24.4578 27.3884 24.4005 27.3893M24.264 30.342H24.189V28.044H24.1987C24.3534 28.0262 24.5098 28.0541 24.6487 28.1243C24.7505 28.2055 24.8334 28.3079 24.8917 28.4243C24.9547 28.5468 24.991 28.6812 24.9982 28.8188C25.005 28.9838 24.9982 29.1188 24.9982 29.2305C25.0013 29.3592 24.993 29.488 24.9735 29.6153C24.9504 29.7459 24.9076 29.8724 24.8467 29.9903C24.7778 30.0999 24.6847 30.1922 24.5745 30.2603C24.482 30.3201 24.3724 30.348 24.2625 30.3398M28.0725 27.4035H26.25V31.0035H27.021V29.5755H27.996V28.9065H27.021V28.0725H28.071V27.4035" fill="#464648"/>
<path d="M31.3358 39.1911C31.3358 39.1911 33.7268 38.7576 33.7268 39.5744C33.7268 40.3911 32.2455 40.0589 31.3358 39.1911ZM29.568 39.2534C29.1881 39.3373 28.8179 39.4602 28.4633 39.6201L28.7633 38.9451C29.0633 38.2701 29.3745 37.3499 29.3745 37.3499C29.7325 37.9524 30.149 38.5181 30.618 39.0389C30.2643 39.0916 29.9138 39.1637 29.568 39.2549V39.2534ZM28.6215 34.3784C28.6215 33.6666 28.8518 33.4724 29.031 33.4724C29.2103 33.4724 29.412 33.5586 29.4188 34.1766C29.3604 34.7981 29.2302 35.4106 29.031 36.0021C28.7581 35.5055 28.6169 34.9473 28.6208 34.3806L28.6215 34.3784ZM25.1348 42.2654C24.4013 41.8266 26.673 40.4759 27.0848 40.4324C27.0825 40.4331 25.9028 42.7244 25.1348 42.2654ZM34.425 39.6711C34.4175 39.5961 34.35 38.7659 32.8725 38.8011C32.2567 38.7912 31.6411 38.8346 31.0328 38.9309C30.4435 38.3372 29.936 37.6675 29.5238 36.9396C29.7835 36.1892 29.9406 35.4071 29.991 34.6146C29.9693 33.7146 29.754 33.1986 29.064 33.2061C28.374 33.2136 28.2735 33.8174 28.3643 34.7159C28.4532 35.3197 28.6208 35.9092 28.863 36.4694C28.863 36.4694 28.5443 37.4616 28.1228 38.4486C27.7013 39.4356 27.4133 39.9531 27.4133 39.9531C26.6803 40.1917 25.9903 40.5462 25.3695 41.0031C24.7515 41.5784 24.5003 42.0201 24.8258 42.4619C25.1063 42.8429 26.088 42.9291 26.9655 41.7794C27.4318 41.1855 27.8577 40.5611 28.2405 39.9104C28.2405 39.9104 29.5785 39.5436 29.9948 39.4431C30.411 39.3426 30.9143 39.2631 30.9143 39.2631C30.9143 39.2631 32.136 40.4924 33.3143 40.4489C34.4925 40.4054 34.4355 39.7446 34.428 39.6726" fill="#DD2025"/>
<path d="M32.9655 25.5576V29.9624H37.1903L32.9655 25.5576Z" fill="#909090"/>
<path d="M33.0233 25.5V29.9047H37.248L33.0233 25.5Z" fill="#F4F4F4"/>
<path d="M21.7313 27.3429H20.751V30.9429H21.525V29.7294L21.696 29.7391C21.8614 29.7363 22.0253 29.7067 22.1813 29.6514C22.318 29.6044 22.4438 29.5301 22.551 29.4331C22.6593 29.3405 22.7446 29.2239 22.8 29.0926C22.8752 28.874 22.9021 28.6417 22.8788 28.4116C22.8741 28.2473 22.8453 28.0846 22.7933 27.9286C22.7459 27.8161 22.6756 27.7146 22.5869 27.6307C22.4982 27.5467 22.393 27.4822 22.278 27.4411C22.1781 27.4048 22.0749 27.3784 21.9698 27.3624C21.8906 27.3502 21.8106 27.3437 21.7305 27.3429M21.5888 29.0634H21.522V27.9534H21.6675C21.7314 27.9488 21.7955 27.9586 21.8551 27.9821C21.9147 28.0056 21.9682 28.0422 22.0118 28.0891C22.102 28.2099 22.1502 28.3569 22.149 28.5076C22.149 28.6921 22.149 28.8594 21.9825 28.9771C21.8626 29.0431 21.726 29.0728 21.5895 29.0626M24.342 27.3331C24.2588 27.3331 24.1778 27.3391 24.1208 27.3414L23.9445 27.3459H23.3595V30.9459H24.048C24.3111 30.9531 24.5731 30.9085 24.819 30.8146C25.0169 30.7361 25.1922 30.6096 25.329 30.4464C25.462 30.2817 25.5575 30.09 25.6088 29.8846C25.6677 29.6521 25.6964 29.4128 25.6943 29.1729C25.7088 28.8895 25.6869 28.6054 25.629 28.3276C25.5741 28.1232 25.4713 27.9347 25.329 27.7779C25.2174 27.6513 25.0808 27.5491 24.9278 27.4779C24.7963 27.4171 24.6581 27.3723 24.516 27.3444C24.4595 27.3351 24.4023 27.3308 24.345 27.3316M24.2085 30.2844H24.1335V27.9864H24.1433C24.2979 27.9686 24.4543 27.9965 24.5933 28.0666C24.695 28.1479 24.7779 28.2502 24.8363 28.3666C24.8992 28.4892 24.9355 28.6236 24.9428 28.7611C24.9495 28.9261 24.9428 29.0611 24.9428 29.1729C24.9458 29.3016 24.9375 29.4304 24.918 29.5576C24.8949 29.6883 24.8522 29.8147 24.7913 29.9326C24.7223 30.0423 24.6292 30.1346 24.519 30.2026C24.4265 30.2625 24.3169 30.2904 24.207 30.2821M28.0148 27.3459H26.1923V30.9459H26.9633V29.5179H27.9383V28.8489H26.9633V28.0149H28.0133V27.3459" fill="white"/>
<path d="M54.808 42.192C53.5387 42.192 52.4827 41.7813 51.64 40.96C50.808 40.1387 50.392 39.0933 50.392 37.824V30.8H51.816V37.728C51.816 38.6453 52.0933 39.392 52.648 39.968C53.2027 40.5333 53.9227 40.816 54.808 40.816C55.672 40.816 56.3813 40.5333 56.936 39.968C57.4907 39.392 57.768 38.6453 57.768 37.728V30.8H59.192V37.824C59.192 39.0933 58.776 40.1387 57.944 40.96C57.112 41.7813 56.0667 42.192 54.808 42.192ZM66.4208 33.168C67.7114 33.168 68.7728 33.5947 69.6048 34.448C70.4474 35.3013 70.8688 36.3787 70.8688 37.68C70.8688 38.9707 70.4474 40.048 69.6048 40.912C68.7728 41.7653 67.7114 42.192 66.4208 42.192C65.1194 42.192 64.0474 41.744 63.2048 40.848V45.088H61.8448V33.36H62.7728L63.0448 34.688C63.4501 34.208 63.9408 33.8347 64.5168 33.568C65.1034 33.3013 65.7381 33.168 66.4208 33.168ZM66.3248 40.88C67.2421 40.88 67.9994 40.576 68.5968 39.968C69.1941 39.36 69.4928 38.5973 69.4928 37.68C69.4928 36.7627 69.1941 36 68.5968 35.392C67.9994 34.784 67.2421 34.48 66.3248 34.48C65.4074 34.48 64.6448 34.7893 64.0368 35.408C63.4394 36.016 63.1408 36.7733 63.1408 37.68C63.1408 38.2773 63.2741 38.8213 63.5408 39.312C63.8181 39.8027 64.2021 40.1867 64.6927 40.464C65.1834 40.7413 65.7274 40.88 66.3248 40.88ZM72.9385 42V30.272H74.2985V42H72.9385ZM80.9203 42.192C80.0669 42.192 79.2883 42 78.5843 41.616C77.8803 41.2213 77.3309 40.6827 76.9363 40C76.5416 39.3067 76.3443 38.5333 76.3443 37.68C76.3443 36.3787 76.7763 35.3013 77.6403 34.448C78.5149 33.5947 79.6083 33.168 80.9203 33.168C81.7843 33.168 82.5629 33.3653 83.2563 33.76C83.9603 34.144 84.5096 34.6827 84.9043 35.376C85.3096 36.0587 85.5123 36.8267 85.5123 37.68C85.5123 38.9707 85.0749 40.048 84.2003 40.912C83.3256 41.7653 82.2323 42.192 80.9203 42.192ZM78.6323 39.984C79.2403 40.5813 80.0029 40.88 80.9203 40.88C81.8483 40.88 82.6109 40.5813 83.2083 39.984C83.8163 39.376 84.1203 38.608 84.1203 37.68C84.1203 36.752 83.8163 35.9893 83.2083 35.392C82.6109 34.784 81.8483 34.48 80.9203 34.48C80.0029 34.48 79.2403 34.784 78.6323 35.392C78.0349 35.9893 77.7363 36.752 77.7363 37.68C77.7363 38.608 78.0349 39.376 78.6323 39.984ZM94.9391 33.36H96.0271V42H94.8911L94.7471 40.688C94.3418 41.168 93.8458 41.5413 93.2591 41.808C92.6831 42.064 92.0485 42.192 91.3551 42.192C90.0858 42.192 89.0245 41.7653 88.1711 40.912C87.3178 40.048 86.8911 38.9707 86.8911 37.68C86.8911 36.3893 87.3178 35.3173 88.1711 34.464C89.0245 33.6 90.0858 33.168 91.3551 33.168C92.0591 33.168 92.6991 33.3013 93.2751 33.568C93.8618 33.8347 94.3578 34.208 94.7631 34.688L94.9391 33.36ZM89.1791 39.968C89.7871 40.576 90.5498 40.88 91.4671 40.88C92.3845 40.88 93.1418 40.576 93.7391 39.968C94.3365 39.36 94.6351 38.5973 94.6351 37.68C94.6351 36.7627 94.3365 36 93.7391 35.392C93.1418 34.784 92.3845 34.48 91.4671 34.48C90.5498 34.48 89.7871 34.7893 89.1791 35.408C88.5818 36.016 88.2831 36.7733 88.2831 37.68C88.2831 38.5867 88.5818 39.3493 89.1791 39.968ZM105.727 30.272H107.087V42H106.047L105.855 40.768C105.001 41.7173 103.897 42.192 102.543 42.192C101.241 42.192 100.169 41.7653 99.3266 40.912C98.4946 40.048 98.0786 38.9707 98.0786 37.68C98.0786 36.3787 98.4946 35.3013 99.3266 34.448C100.169 33.5947 101.241 33.168 102.543 33.168C103.823 33.168 104.884 33.5947 105.727 34.448V30.272ZM100.367 39.968C100.964 40.576 101.716 40.88 102.623 40.88C103.54 40.88 104.303 40.576 104.911 39.968C105.519 39.3493 105.823 38.5867 105.823 37.68C105.823 36.7627 105.519 36 104.911 35.392C104.313 34.784 103.556 34.48 102.639 34.48C102.191 34.48 101.769 34.5653 101.375 34.736C100.98 34.896 100.644 35.1147 100.367 35.392C100.089 35.6693 99.8706 36.0107 99.7106 36.416C99.5506 36.8107 99.4706 37.232 99.4706 37.68C99.4706 38.5973 99.7693 39.36 100.367 39.968ZM119.946 33.36H121.402L117.29 42.352C116.97 43.056 116.655 43.6 116.346 43.984C116.036 44.368 115.69 44.6453 115.306 44.816C114.922 44.9973 114.452 45.088 113.898 45.088H113.082V43.856H113.786C114.362 43.856 114.794 43.7387 115.082 43.504C115.37 43.2693 115.69 42.7893 116.042 42.064L116.346 41.408L112.506 33.36H113.994L117.066 39.904L119.946 33.36ZM126.608 42.192C125.754 42.192 124.976 42 124.272 41.616C123.568 41.2213 123.018 40.6827 122.624 40C122.229 39.3067 122.032 38.5333 122.032 37.68C122.032 36.3787 122.464 35.3013 123.328 34.448C124.202 33.5947 125.296 33.168 126.608 33.168C127.472 33.168 128.25 33.3653 128.944 33.76C129.648 34.144 130.197 34.6827 130.592 35.376C130.997 36.0587 131.2 36.8267 131.2 37.68C131.2 38.9707 130.762 40.048 129.888 40.912C129.013 41.7653 127.92 42.192 126.608 42.192ZM124.32 39.984C124.928 40.5813 125.69 40.88 126.608 40.88C127.536 40.88 128.298 40.5813 128.896 39.984C129.504 39.376 129.808 38.608 129.808 37.68C129.808 36.752 129.504 35.9893 128.896 35.392C128.298 34.784 127.536 34.48 126.608 34.48C125.69 34.48 124.928 34.784 124.32 35.392C123.722 35.9893 123.424 36.752 123.424 37.68C123.424 38.608 123.722 39.376 124.32 39.984ZM136.947 42.192C135.784 42.192 134.851 41.8453 134.147 41.152C133.453 40.448 133.107 39.5147 133.107 38.352V33.36H134.467V38.128C134.467 38.6933 134.568 39.184 134.771 39.6C134.973 40.0053 135.261 40.32 135.635 40.544C136.008 40.768 136.445 40.88 136.947 40.88C137.715 40.88 138.317 40.6347 138.755 40.144C139.192 39.6533 139.411 38.9813 139.411 38.128V33.36H140.771V38.352C140.771 39.5147 140.424 40.448 139.731 41.152C139.037 41.8453 138.109 42.192 136.947 42.192ZM147.312 33.312H148.08V34.608H147.2C146.421 34.608 145.813 34.848 145.376 35.328C144.949 35.7973 144.736 36.4587 144.736 37.312V42H143.376V33.36H144.336L144.56 34.672C145.189 33.7653 146.107 33.312 147.312 33.312ZM158.418 42.176C156.754 42.176 155.378 41.632 154.29 40.544C153.213 39.456 152.674 38.0747 152.674 36.4C152.674 34.7253 153.213 33.344 154.29 32.256C155.378 31.168 156.754 30.624 158.418 30.624C159.272 30.624 160.061 30.7893 160.786 31.12C161.522 31.44 162.141 31.8987 162.642 32.496C163.154 33.0933 163.512 33.792 163.714 34.592H162.29C161.992 33.7813 161.501 33.1467 160.818 32.688C160.136 32.2293 159.336 32 158.418 32C157.16 32 156.125 32.416 155.314 33.248C154.514 34.0693 154.114 35.1253 154.114 36.416C154.114 37.696 154.514 38.7467 155.314 39.568C156.125 40.3893 157.16 40.8 158.418 40.8C159.357 40.8 160.173 40.56 160.866 40.08C161.56 39.5893 162.05 38.912 162.338 38.048H163.778C163.458 39.3173 162.813 40.3253 161.842 41.072C160.882 41.808 159.741 42.176 158.418 42.176ZM173.087 30.8H174.623L170.159 42H168.863L164.335 30.8H165.887L169.519 39.888L173.087 30.8Z" fill="black"/>
<rect x="5.5" y="10.5" width="189" height="51" rx="15.5" stroke="#FF3E6C"/>
<rect x="185" y="26" width="20" height="20" rx="10" fill="#FF3E6C"/>
<path d="M191.933 34.6664H192.993V37.9998C192.993 38.3664 193.293 38.6664 193.66 38.6664H196.327C196.693 38.6664 196.993 38.3664 196.993 37.9998V34.6664H198.053C198.647 34.6664 198.947 33.9464 198.527 33.5264L195.467 30.4664C195.405 30.4046 195.332 30.3556 195.251 30.3222C195.17 30.2887 195.084 30.2715 194.997 30.2715C194.909 30.2715 194.823 30.2887 194.742 30.3222C194.662 30.3556 194.588 30.4046 194.527 30.4664L191.467 33.5264C191.047 33.9464 191.34 34.6664 191.933 34.6664ZM190.333 40.6664C190.333 41.0331 190.633 41.3331 191 41.3331H199C199.367 41.3331 199.667 41.0331 199.667 40.6664C199.667 40.2998 199.367 39.9998 199 39.9998H191C190.633 39.9998 190.333 40.2998 190.333 40.6664Z" fill="white"/>
<defs>
<filter id="filter0_f_991_5359" x="0" y="0" width="200" height="76" filterUnits="userSpaceOnUse" color-interpolation-filters="sRGB">
<feFlood flood-opacity="0" result="BackgroundImageFix"/>
<feBlend mode="normal" in="SourceGraphic" in2="BackgroundImageFix" result="shape"/>
<feGaussianBlur stdDeviation="10" result="effect1_foregroundBlur_991_5359"/>
</filter>
</defs>
</svg>
