<svg width="896" height="17" viewBox="0 0 896 17" fill="none" xmlns="http://www.w3.org/2000/svg">
<g clip-path="url(#clip0_524_68410)">
<path d="M34.6728 3.28238C35.2669 3.27028 35.8543 3.40138 36.3781 3.66298C36.8799 3.91632 37.2968 4.2938 37.5831 4.75385C37.8781 5.22631 38.0302 5.76449 38.0231 6.31107C38.0351 6.71629 37.9558 7.11926 37.7904 7.49417C37.625 7.86903 37.377 8.20739 37.0626 8.48748C36.7465 8.77312 36.3721 8.99691 35.9616 9.14558C35.5512 9.29429 35.113 9.36483 34.6728 9.3532H33.071V12.1273H31.0205V3.28238H34.6728ZM34.5808 7.59225C34.7618 7.59903 34.9423 7.57085 35.1111 7.50949C35.2798 7.44818 35.4332 7.35496 35.5614 7.23575C35.8031 6.9857 35.9369 6.66106 35.9369 6.32446C35.9369 5.98792 35.8031 5.66326 35.5614 5.41319C35.4325 5.29405 35.2786 5.20092 35.1095 5.1396C34.9403 5.07827 34.7593 5.05006 34.5779 5.05672H33.0681V7.59225H34.5808Z" fill="white"/>
<path d="M43.0529 5.27117H43.7028V7.01063H42.8401C42.2821 7.01063 41.8853 7.13128 41.6437 7.37786C41.4021 7.62444 41.2842 8.02379 41.2842 8.58397V12.1273H39.3057V5.30601H40.5682L40.919 6.14491C41.1755 5.85276 41.5026 5.6213 41.8734 5.46944C42.2443 5.31758 42.6484 5.24964 43.0529 5.27117Z" fill="white"/>
<path d="M48.1343 12.3174C47.4316 12.3244 46.7386 12.1638 46.1213 11.851C45.5215 11.5521 45.0234 11.1028 44.6833 10.5537C44.3479 9.99179 44.1719 9.35942 44.1719 8.71643C44.1719 8.07338 44.3479 7.441 44.6833 6.87907C45.022 6.32844 45.5204 5.87792 46.1213 5.57916C46.745 5.27282 47.4394 5.11273 48.1444 5.11273C48.8494 5.11273 49.5438 5.27282 50.1675 5.57916C50.7599 5.88213 51.2506 6.33207 51.5853 6.87907C51.9249 7.44116 52.1034 8.07535 52.1034 8.72043C52.1034 9.3655 51.9249 9.99969 51.5853 10.5617C51.2428 11.1069 50.7452 11.5531 50.1474 11.851C49.53 12.1638 48.837 12.3244 48.1343 12.3174ZM46.7309 10.0632C47.109 10.3987 47.6109 10.5857 48.1329 10.5857C48.6548 10.5857 49.1568 10.3987 49.5348 10.0632C49.8904 9.69234 50.0869 9.21241 50.0869 8.71504C50.0869 8.21772 49.8904 7.7378 49.5348 7.36689C49.1558 7.03328 48.6542 6.84742 48.1329 6.84742C47.6116 6.84742 47.11 7.03328 46.7309 7.36689C46.3772 7.7386 46.1818 8.2182 46.1818 8.71504C46.1818 9.21193 46.3772 9.69154 46.7309 10.0632Z" fill="white"/>
<path d="M51.9565 14.5877V12.8911H52.5921C53.3111 12.8911 53.6705 12.5561 53.6705 11.886V5.30593H55.6491V12.028C55.665 12.3681 55.6049 12.7076 55.4724 13.0248C55.3401 13.3421 55.1383 13.6302 54.88 13.8709C54.6218 14.1116 54.3126 14.2996 53.9722 14.423C53.6318 14.5464 53.2676 14.6025 52.9027 14.5877H51.9565ZM53.6821 4.40269V2.68732H55.6548V4.40269H53.6821Z" fill="white"/>
<path d="M64.6507 8.69106C64.6501 8.8704 64.6364 9.04948 64.61 9.22712H59.0627C59.1157 9.64034 59.3284 10.0214 59.6609 10.2992C59.9969 10.5545 60.4212 10.687 60.8544 10.6717C61.1744 10.6768 61.4903 10.6048 61.7717 10.4627C62.0375 10.3298 62.2569 10.1289 62.4046 9.88377H64.4835C64.2986 10.3842 63.998 10.8405 63.6018 11.2202C63.2062 11.5998 62.7258 11.8935 62.1945 12.0804C61.6631 12.2672 61.0941 12.3426 60.528 12.3011C59.9618 12.2596 59.4124 12.1023 58.9189 11.8403C58.3451 11.5322 57.8727 11.0836 57.5529 10.5431C57.2194 9.98254 57.048 9.35076 57.0554 8.70984C57.0521 8.06952 57.2254 7.43912 57.5587 6.8792C57.8767 6.33909 58.3484 5.89113 58.9218 5.58463C59.5127 5.2704 60.1827 5.10851 60.863 5.11559C61.556 5.10495 62.2386 5.27283 62.8357 5.60071C63.4048 5.90874 63.8703 6.35782 64.1818 6.89799C64.4955 7.44995 64.657 8.06632 64.6507 8.69106ZM60.863 6.6862C60.4617 6.6759 60.0692 6.79628 59.7529 7.02664C59.4362 7.26932 59.2148 7.60299 59.1231 7.97544H62.672C62.5609 7.59845 62.3256 7.26361 61.9989 7.01858C61.6707 6.7926 61.2708 6.67563 60.863 6.6862Z" fill="white"/>
<path d="M69.4615 12.3175C68.9353 12.3248 68.4132 12.2337 67.9259 12.0495C67.4639 11.8729 67.0437 11.6133 66.6893 11.2856C66.3377 10.9562 66.0612 10.5642 65.8751 10.1331C65.6793 9.6802 65.5814 9.19553 65.5877 8.70717C65.5814 8.22143 65.6793 7.73943 65.8751 7.28933C66.0612 6.86143 66.3377 6.47302 66.6893 6.14752C67.0448 5.82394 67.4662 5.56974 67.9288 5.39974C68.4206 5.21642 68.9462 5.12534 69.4758 5.13172C70.3586 5.11222 71.2209 5.38473 71.9091 5.90094C72.5847 6.41294 73.0404 7.13384 73.1944 7.93259H71.23C71.0829 7.61051 70.8356 7.33693 70.5195 7.14728C70.2041 6.95887 69.8365 6.86101 69.4615 6.86586C69.2101 6.86111 68.9605 6.90647 68.7292 6.99889C68.4979 7.09136 68.2906 7.22877 68.1212 7.40192C67.761 7.7596 67.5681 8.23568 67.5836 8.72595C67.5681 9.22146 67.7622 9.70277 68.124 10.0661C68.2929 10.2396 68.4996 10.3772 68.7303 10.4697C68.9611 10.5622 69.2101 10.6074 69.4615 10.6021C69.8393 10.6094 70.2092 10.5053 70.5195 10.3046C70.8379 10.0918 71.084 9.79893 71.23 9.46035H73.2202C73.0765 10.278 72.6173 11.0186 71.9291 11.5429C71.2312 12.066 70.3564 12.3406 69.4615 12.3175Z" fill="white"/>
<path d="M78.0661 10.4868H78.9662V12.1272H77.5629C77.2136 12.1516 76.8632 12.1052 76.5357 11.991C76.2083 11.8769 75.9111 11.6978 75.6649 11.4661C75.4187 11.2344 75.2292 10.9557 75.1101 10.6492C74.991 10.3426 74.9447 10.0156 74.9744 9.69077V6.78535H73.6484V6.39139L76.542 3.52081H76.9188V5.30587H78.9318V6.78535H76.9474V9.44419C76.9308 9.58533 76.9485 9.72813 76.9995 9.86201C77.0499 9.99589 77.1323 10.1174 77.2405 10.2175C77.3487 10.3177 77.4793 10.3939 77.623 10.4405C77.7673 10.4871 77.9201 10.5029 78.0719 10.4868H78.0661Z" fill="white"/>
<path d="M84.1024 3.28238C84.6961 3.27028 85.2836 3.40138 85.8074 3.66298C86.3095 3.91632 86.7264 4.2938 87.0126 4.75385C87.3075 5.22631 87.4598 5.76449 87.4523 6.31107C87.4643 6.71629 87.3853 7.11926 87.2199 7.49417C87.0544 7.86903 86.8065 8.20739 86.4922 8.48748C86.1761 8.77312 85.8017 8.99691 85.3912 9.14558C84.9807 9.29429 84.5427 9.36483 84.1024 9.3532H82.5004V12.1273H80.4502V3.28238H84.1024ZM84.0102 7.59225C84.1912 7.59903 84.3715 7.57085 84.5404 7.50949C84.7093 7.44818 84.8627 7.35496 84.991 7.23575C85.2326 6.9857 85.3666 6.66106 85.3666 6.32446C85.3666 5.98792 85.2326 5.66326 84.991 5.41319C84.8622 5.29405 84.7082 5.20092 84.5387 5.1396C84.3698 5.07827 84.1889 5.05006 84.0074 5.05672H82.5004V7.59225H84.0102Z" fill="white"/>
<path d="M94.6338 5.29255H96.1178V12.1138H94.5616L94.3893 11.5054C93.7343 12.0394 92.8892 12.3263 92.0196 12.3095C91.3314 12.3182 90.6529 12.1573 90.0523 11.8431C89.4775 11.5379 89.004 11.0909 88.6834 10.5512C88.349 9.98619 88.1773 9.34986 88.1859 8.70452C88.1796 8.06622 88.3507 7.43726 88.6834 6.87927C89.0046 6.33894 89.4804 5.89253 90.0581 5.59006C90.6586 5.27587 91.3371 5.11498 92.0253 5.12369C92.9116 5.10312 93.7732 5.39725 94.4351 5.94653L94.6338 5.29255ZM90.7514 10.0393C91.1356 10.3808 91.6468 10.5713 92.1776 10.5713C92.7089 10.5713 93.2196 10.3808 93.6044 10.0393C93.9691 9.67584 94.1717 9.19683 94.1717 8.69919C94.1717 8.20155 93.9691 7.72247 93.6044 7.35904C93.2196 7.01753 92.7089 6.82709 92.1776 6.82709C91.6468 6.82709 91.1356 7.01753 90.7514 7.35904C90.385 7.72157 90.1806 8.20096 90.1806 8.69919C90.1806 9.19736 90.385 9.67675 90.7514 10.0393Z" fill="white"/>
<path d="M101.757 5.27117H102.404V7.01063H101.542C100.986 7.01063 100.587 7.13128 100.348 7.37786C100.074 7.7254 99.9448 8.1542 99.9854 8.58397V12.1273H98.0073V5.30601H99.2726L99.6236 6.14491C99.8801 5.85276 100.207 5.6213 100.578 5.46944C100.948 5.31758 101.353 5.24964 101.757 5.27117Z" fill="white"/>
<path d="M107.158 10.4868H108.058V12.1272H106.655C106.304 12.1537 105.952 12.1087 105.623 11.9955C105.294 11.8823 104.995 11.7035 104.747 11.4716C104.499 11.2397 104.309 10.9602 104.188 10.6526C104.069 10.3451 104.022 10.0169 104.052 9.69077V6.78535H102.729V6.39139L105.622 3.52081H105.999V5.30587H108.012V6.78535H106.025V9.44419C106.008 9.58549 106.027 9.72834 106.078 9.86217C106.129 9.99605 106.212 10.1175 106.32 10.2175C106.428 10.3177 106.559 10.3938 106.704 10.4404C106.847 10.487 107.001 10.5029 107.152 10.4868H107.158Z" fill="white"/>
<path d="M113.571 5.14507C113.941 5.1295 114.311 5.19091 114.654 5.32488C114.996 5.45884 115.302 5.662 115.55 5.91965C116.067 6.50026 116.331 7.24053 116.292 7.9942V12.1271H114.313V8.28901C114.313 7.27052 113.887 6.76125 113.036 6.76125C112.81 6.75122 112.585 6.78889 112.376 6.87154C112.168 6.95415 111.983 7.07954 111.834 7.23834C111.522 7.60909 111.366 8.07317 111.394 8.54365V12.1271H109.416V5.30588H110.773L111.155 6.15016C111.444 5.83443 111.804 5.58261 112.211 5.41309C112.638 5.23342 113.102 5.14199 113.571 5.14507Z" fill="white"/>
<path d="M125.206 8.6911C125.206 8.87033 125.194 9.04941 125.169 9.22715H119.613C119.667 9.64001 119.879 10.0207 120.211 10.2992C120.548 10.5547 120.973 10.6871 121.407 10.6718C121.727 10.6762 122.043 10.6042 122.325 10.4627C122.589 10.3289 122.807 10.1282 122.955 9.88381H125.033C124.849 10.3843 124.549 10.8407 124.153 11.2204C123.758 11.6003 123.277 11.8941 122.746 12.0809C122.215 12.2677 121.646 12.3431 121.08 12.3015C120.514 12.26 119.965 12.1025 119.472 11.8404C118.896 11.5331 118.423 11.0843 118.103 10.5431C117.77 9.98231 117.6 9.35058 117.608 8.70982C117.601 8.07046 117.771 7.44017 118.1 6.87924C118.416 6.33977 118.884 5.89111 119.455 5.58197C120.046 5.2674 120.717 5.1055 121.398 5.11293C122.092 5.10271 122.774 5.27055 123.371 5.59805C123.939 5.90701 124.404 6.35593 124.715 6.8953C125.038 7.44582 125.207 8.06347 125.206 8.6911ZM121.421 6.68624C121.019 6.6753 120.625 6.79568 120.309 7.02662C119.992 7.26877 119.771 7.60281 119.682 7.97542H123.228C123.119 7.59817 122.884 7.26301 122.558 7.01862C122.225 6.79013 121.82 6.67306 121.407 6.68624H121.421Z" fill="white"/>
<path d="M130.343 5.27107H130.99V7.01054H130.127C129.569 7.01054 129.172 7.13119 128.93 7.37777C128.689 7.62435 128.571 8.0237 128.571 8.58388V12.1272H126.593V5.30591H127.855L128.206 6.14482C128.463 5.8523 128.79 5.62059 129.162 5.46872C129.533 5.31685 129.938 5.24911 130.343 5.27107Z" fill="white"/>
<path d="M134.659 12.3174C133.856 12.3534 133.066 12.1162 132.436 11.65C132.161 11.4337 131.942 11.1622 131.795 10.8559C131.648 10.5496 131.577 10.2164 131.588 9.88108H133.512C133.507 10.0106 133.535 10.1395 133.594 10.2566C133.654 10.3737 133.743 10.4757 133.854 10.5539C134.113 10.7203 134.423 10.8032 134.737 10.7897C134.996 10.7965 135.253 10.7343 135.476 10.6101C135.572 10.558 135.65 10.4826 135.703 10.3919C135.757 10.3012 135.782 10.1987 135.778 10.0955C135.775 9.99815 135.738 9.90429 135.674 9.82745C135.588 9.73365 135.477 9.66252 135.352 9.62111C135.214 9.56652 135.07 9.52346 134.924 9.49246C134.783 9.46028 134.596 9.42544 134.366 9.39059L133.833 9.29139C133.693 9.26461 133.523 9.22443 133.322 9.1708C133.148 9.12726 132.978 9.06894 132.816 8.99658C132.663 8.91985 132.517 8.83015 132.382 8.72855C132.24 8.63143 132.116 8.51164 132.019 8.37477C131.919 8.22861 131.843 8.06971 131.792 7.90306C131.731 7.70429 131.701 7.49854 131.703 7.29192C131.696 6.98809 131.765 6.68692 131.907 6.41308C132.048 6.13923 132.257 5.90034 132.517 5.71598C133.131 5.28947 133.885 5.07448 134.651 5.10753C135.416 5.07218 136.169 5.29482 136.773 5.73471C137.033 5.93379 137.242 6.18582 137.382 6.47156C137.522 6.75725 137.59 7.06904 137.581 7.38306H135.703C135.709 7.26855 135.687 7.15425 135.636 7.04945C135.587 6.94471 135.511 6.85239 135.415 6.78004C135.176 6.63127 134.892 6.55971 134.605 6.57631C134.35 6.56265 134.098 6.62561 133.886 6.75586C133.804 6.80875 133.737 6.87982 133.692 6.96264C133.647 7.04545 133.625 7.13745 133.627 7.23029C133.625 7.29923 133.638 7.3678 133.667 7.4313C133.701 7.49501 133.754 7.54811 133.819 7.58407C133.894 7.62697 133.96 7.66449 134.026 7.69666C134.119 7.73631 134.215 7.76689 134.314 7.7878C134.443 7.81998 134.55 7.84138 134.63 7.85749L135.007 7.92179C135.532 7.99324 136.047 8.11725 136.543 8.29169C136.91 8.42664 137.222 8.66617 137.434 8.97614C137.646 9.28611 137.748 9.65067 137.724 10.0178C137.739 10.3406 137.671 10.6621 137.526 10.9553C137.38 11.2486 137.162 11.5052 136.888 11.7037C136.243 12.1422 135.456 12.3591 134.659 12.3174Z" fill="white"/>
<path d="M21.5309 6.36192C21.4648 9.59434 18.517 12.1406 15.0661 12.1406H14.6347C14.524 12.1407 14.4145 12.1617 14.3127 12.2022C14.2109 12.2427 14.1189 12.302 14.0423 12.3764L11.802 14.5903L10.252 16.1235C10.1517 16.222 10.0249 16.2939 9.88485 16.3314C9.74477 16.3689 9.59646 16.3708 9.45532 16.3369C9.31418 16.303 9.18535 16.2345 9.0822 16.1385C8.97904 16.0425 8.90532 15.9226 8.86869 15.7911L8.29353 13.7514L7.84777 12.1433L7.03104 9.19499L6.47888 7.19819C6.44823 7.08586 6.44551 6.96852 6.47091 6.85508C6.49631 6.74163 6.54916 6.63507 6.62544 6.54356C6.70171 6.45205 6.79941 6.37798 6.91106 6.32702C7.02272 6.27601 7.1454 6.24944 7.26973 6.24938H8.85144C9.03251 6.24933 9.20845 6.30541 9.35161 6.40877C9.49477 6.51213 9.59702 6.65684 9.64228 6.82023L10.298 9.19499L10.8732 11.2186L12.6792 9.43351C12.7552 9.35822 12.847 9.29819 12.9489 9.25721C13.0508 9.21617 13.1606 9.19499 13.2716 9.19499H15.2214C15.6556 9.1959 16.0854 9.11356 16.4839 8.95294C16.8825 8.79238 17.2413 8.55706 17.5381 8.26161C17.8348 7.9662 18.0631 7.61701 18.2088 7.23575C18.3545 6.85449 18.4144 6.44943 18.3848 6.04565C18.3141 5.28582 17.9361 4.57944 17.3273 4.06977C16.7185 3.56011 15.9245 3.2853 15.1063 3.30107H6.03313C5.85193 3.30155 5.67574 3.24565 5.53248 3.14223C5.38923 3.03882 5.2871 2.89381 5.24228 2.73018L4.8483 1.3016C4.81711 1.18947 4.8139 1.07217 4.8389 0.958707C4.86391 0.845244 4.91646 0.738624 4.99253 0.647024C5.0686 0.555424 5.16617 0.481278 5.27776 0.430274C5.38935 0.37927 5.51199 0.352762 5.63627 0.352783H15.207C16.0475 0.354809 16.8791 0.512454 17.6536 0.81656C18.4281 1.12067 19.1301 1.56517 19.7187 2.12426C20.3074 2.68334 20.771 3.34586 21.0825 4.07334C21.3941 4.80082 21.5475 5.57874 21.5338 6.36192H21.5309Z" fill="white"/>
</g>
<g clip-path="url(#clip1_524_68410)">
<path d="M185.148 3.28238C185.742 3.27028 186.33 3.40138 186.854 3.66298C187.355 3.91632 187.772 4.2938 188.059 4.75385C188.354 5.22631 188.506 5.76449 188.499 6.31107C188.511 6.71629 188.431 7.11926 188.266 7.49417C188.101 7.86903 187.853 8.20739 187.538 8.48748C187.222 8.77312 186.848 8.99691 186.437 9.14558C186.027 9.29429 185.589 9.36483 185.148 9.3532H183.547V12.1273H181.496V3.28238H185.148ZM185.056 7.59225C185.237 7.59903 185.418 7.57085 185.587 7.50949C185.755 7.44818 185.909 7.35496 186.037 7.23575C186.279 6.9857 186.412 6.66106 186.412 6.32446C186.412 5.98792 186.279 5.66326 186.037 5.41319C185.908 5.29405 185.754 5.20092 185.585 5.1396C185.416 5.07827 185.235 5.05006 185.053 5.05672H183.544V7.59225H185.056Z" fill="white"/>
<path d="M193.529 5.27117H194.179V7.01063H193.316C192.758 7.01063 192.361 7.13128 192.12 7.37786C191.878 7.62444 191.76 8.02379 191.76 8.58397V12.1273H189.782V5.30601H191.044L191.395 6.14491C191.652 5.85276 191.979 5.6213 192.35 5.46944C192.72 5.31758 193.124 5.24964 193.529 5.27117Z" fill="white"/>
<path d="M198.61 12.3174C197.908 12.3244 197.215 12.1638 196.597 11.851C195.998 11.5521 195.499 11.1028 195.159 10.5537C194.824 9.99179 194.648 9.35942 194.648 8.71643C194.648 8.07338 194.824 7.441 195.159 6.87907C195.498 6.32844 195.997 5.87792 196.597 5.57916C197.221 5.27282 197.915 5.11273 198.62 5.11273C199.325 5.11273 200.02 5.27282 200.644 5.57916C201.236 5.88213 201.727 6.33207 202.061 6.87907C202.401 7.44116 202.579 8.07535 202.579 8.72043C202.579 9.3655 202.401 9.99969 202.061 10.5617C201.719 11.1069 201.221 11.5531 200.623 11.851C200.006 12.1638 199.313 12.3244 198.61 12.3174ZM197.207 10.0632C197.585 10.3987 198.087 10.5857 198.609 10.5857C199.131 10.5857 199.633 10.3987 200.011 10.0632C200.366 9.69234 200.563 9.21241 200.563 8.71504C200.563 8.21772 200.366 7.7378 200.011 7.36689C199.632 7.03328 199.13 6.84742 198.609 6.84742C198.088 6.84742 197.586 7.03328 197.207 7.36689C196.853 7.7386 196.658 8.2182 196.658 8.71504C196.658 9.21193 196.853 9.69154 197.207 10.0632Z" fill="white"/>
<path d="M202.432 14.5877V12.8911H203.068C203.787 12.8911 204.146 12.5561 204.146 11.886V5.30593H206.125V12.028C206.141 12.3681 206.08 12.7076 205.948 13.0248C205.816 13.3421 205.614 13.6302 205.356 13.8709C205.097 14.1116 204.788 14.2996 204.448 14.423C204.107 14.5464 203.743 14.6025 203.378 14.5877H202.432ZM204.158 4.40269V2.68732H206.13V4.40269H204.158Z" fill="white"/>
<path d="M215.127 8.69106C215.126 8.8704 215.112 9.04948 215.086 9.22712H209.539C209.592 9.64034 209.804 10.0214 210.137 10.2992C210.473 10.5545 210.897 10.687 211.33 10.6717C211.65 10.6768 211.966 10.6048 212.248 10.4627C212.514 10.3298 212.733 10.1289 212.881 9.88377H214.96C214.775 10.3842 214.474 10.8405 214.078 11.2202C213.682 11.5998 213.202 11.8935 212.671 12.0804C212.139 12.2672 211.57 12.3426 211.004 12.3011C210.438 12.2596 209.889 12.1023 209.395 11.8403C208.821 11.5322 208.349 11.0836 208.029 10.5431C207.696 9.98254 207.524 9.35076 207.531 8.70984C207.528 8.06952 207.701 7.43912 208.035 6.8792C208.353 6.33909 208.824 5.89113 209.398 5.58463C209.989 5.2704 210.659 5.10851 211.339 5.11559C212.032 5.10495 212.715 5.27283 213.312 5.60071C213.881 5.90874 214.346 6.35782 214.658 6.89799C214.972 7.44995 215.133 8.06632 215.127 8.69106ZM211.339 6.6862C210.938 6.6759 210.545 6.79628 210.229 7.02664C209.912 7.26932 209.691 7.60299 209.599 7.97544H213.148C213.037 7.59845 212.802 7.26361 212.475 7.01858C212.147 6.7926 211.747 6.67563 211.339 6.6862Z" fill="white"/>
<path d="M219.938 12.3175C219.411 12.3248 218.889 12.2337 218.402 12.0495C217.94 11.8729 217.52 11.6133 217.165 11.2856C216.814 10.9562 216.537 10.5642 216.351 10.1331C216.155 9.6802 216.057 9.19553 216.064 8.70717C216.057 8.22143 216.155 7.73943 216.351 7.28933C216.537 6.86143 216.814 6.47302 217.165 6.14752C217.521 5.82394 217.942 5.56974 218.405 5.39974C218.897 5.21642 219.422 5.12534 219.952 5.13172C220.835 5.11222 221.697 5.38473 222.385 5.90094C223.061 6.41294 223.516 7.13384 223.67 7.93259H221.706C221.559 7.61051 221.312 7.33693 220.996 7.14728C220.68 6.95887 220.313 6.86101 219.938 6.86586C219.686 6.86111 219.437 6.90647 219.205 6.99889C218.974 7.09136 218.767 7.22877 218.597 7.40192C218.237 7.7596 218.044 8.23568 218.06 8.72595C218.044 9.22146 218.238 9.70277 218.6 10.0661C218.769 10.2396 218.976 10.3772 219.206 10.4697C219.437 10.5622 219.686 10.6074 219.938 10.6021C220.315 10.6094 220.685 10.5053 220.996 10.3046C221.314 10.0918 221.56 9.79893 221.706 9.46035H223.696C223.553 10.278 223.093 11.0186 222.405 11.5429C221.707 12.066 220.832 12.3406 219.938 12.3175Z" fill="white"/>
<path d="M228.542 10.4868H229.442V12.1272H228.039C227.69 12.1516 227.339 12.1052 227.012 11.991C226.684 11.8769 226.387 11.6978 226.141 11.4661C225.895 11.2344 225.705 10.9557 225.586 10.6492C225.467 10.3426 225.421 10.0156 225.451 9.69077V6.78535H224.125V6.39139L227.018 3.52081H227.395V5.30587H229.408V6.78535H227.423V9.44419C227.407 9.58533 227.425 9.72813 227.476 9.86201C227.526 9.99589 227.608 10.1174 227.717 10.2175C227.825 10.3177 227.955 10.3939 228.099 10.4405C228.243 10.4871 228.396 10.5029 228.548 10.4868H228.542Z" fill="white"/>
<path d="M234.578 3.28238C235.172 3.27028 235.76 3.40138 236.283 3.66298C236.786 3.91632 237.202 4.2938 237.489 4.75385C237.784 5.22631 237.936 5.76449 237.928 6.31107C237.94 6.71629 237.861 7.11926 237.696 7.49417C237.53 7.86903 237.283 8.20739 236.968 8.48748C236.652 8.77312 236.278 8.99691 235.867 9.14558C235.457 9.29429 235.019 9.36483 234.578 9.3532H232.977V12.1273H230.926V3.28238H234.578ZM234.486 7.59225C234.667 7.59903 234.848 7.57085 235.016 7.50949C235.185 7.44818 235.339 7.35496 235.467 7.23575C235.709 6.9857 235.843 6.66106 235.843 6.32446C235.843 5.98792 235.709 5.66326 235.467 5.41319C235.338 5.29405 235.184 5.20092 235.015 5.1396C234.846 5.07827 234.665 5.05006 234.483 5.05672H232.977V7.59225H234.486Z" fill="white"/>
<path d="M245.11 5.29255H246.594V12.1138H245.038L244.865 11.5054C244.21 12.0394 243.365 12.3263 242.496 12.3095C241.807 12.3182 241.129 12.1573 240.528 11.8431C239.954 11.5379 239.48 11.0909 239.159 10.5512C238.825 9.98619 238.653 9.34986 238.662 8.70452C238.656 8.06622 238.827 7.43726 239.159 6.87927C239.481 6.33894 239.956 5.89253 240.534 5.59006C241.135 5.27587 241.813 5.11498 242.501 5.12369C243.388 5.10312 244.249 5.39725 244.911 5.94653L245.11 5.29255ZM241.227 10.0393C241.612 10.3808 242.123 10.5713 242.654 10.5713C243.185 10.5713 243.696 10.3808 244.08 10.0393C244.445 9.67584 244.648 9.19683 244.648 8.69919C244.648 8.20155 244.445 7.72247 244.08 7.35904C243.696 7.01753 243.185 6.82709 242.654 6.82709C242.123 6.82709 241.612 7.01753 241.227 7.35904C240.861 7.72157 240.657 8.20096 240.657 8.69919C240.657 9.19736 240.861 9.67675 241.227 10.0393Z" fill="white"/>
<path d="M252.234 5.27117H252.88V7.01063H252.018C251.462 7.01063 251.063 7.13128 250.824 7.37786C250.55 7.7254 250.421 8.1542 250.462 8.58397V12.1273H248.483V5.30601H249.749L250.1 6.14491C250.356 5.85276 250.683 5.6213 251.054 5.46944C251.425 5.31758 251.829 5.24964 252.234 5.27117Z" fill="white"/>
<path d="M257.634 10.4868H258.534V12.1272H257.131C256.781 12.1537 256.428 12.1087 256.099 11.9955C255.77 11.8823 255.471 11.7035 255.223 11.4716C254.975 11.2397 254.785 10.9602 254.664 10.6526C254.545 10.3451 254.498 10.0169 254.528 9.69077V6.78535H253.205V6.39139L256.098 3.52081H256.475V5.30587H258.488V6.78535H256.501V9.44419C256.485 9.58549 256.503 9.72834 256.554 9.86217C256.605 9.99605 256.688 10.1175 256.796 10.2175C256.904 10.3177 257.035 10.3938 257.18 10.4404C257.323 10.487 257.477 10.5029 257.628 10.4868H257.634Z" fill="white"/>
<path d="M264.047 5.14507C264.417 5.1295 264.787 5.19091 265.129 5.32488C265.472 5.45884 265.777 5.662 266.025 5.91965C266.542 6.50026 266.807 7.24053 266.767 7.9942V12.1271H264.789V8.28901C264.789 7.27052 264.363 6.76125 263.512 6.76125C263.286 6.75122 263.06 6.78889 262.852 6.87154C262.644 6.95415 262.458 7.07954 262.31 7.23834C261.997 7.60909 261.841 8.07317 261.869 8.54365V12.1271H259.891V5.30588H261.249L261.631 6.15016C261.92 5.83443 262.28 5.58261 262.686 5.41309C263.113 5.23342 263.578 5.14199 264.047 5.14507Z" fill="white"/>
<path d="M275.682 8.6911C275.682 8.87033 275.67 9.04941 275.645 9.22715H270.089C270.143 9.64001 270.356 10.0207 270.687 10.2992C271.024 10.5547 271.449 10.6871 271.883 10.6718C272.203 10.6762 272.519 10.6042 272.801 10.4627C273.065 10.3289 273.284 10.1282 273.431 9.88381H275.51C275.325 10.3843 275.025 10.8407 274.63 11.2204C274.234 11.6003 273.754 11.8941 273.222 12.0809C272.691 12.2677 272.122 12.3431 271.556 12.3015C270.99 12.26 270.441 12.1025 269.948 11.8404C269.373 11.5331 268.899 11.0843 268.579 10.5431C268.246 9.98231 268.076 9.35058 268.084 8.70982C268.077 8.07046 268.247 7.44017 268.576 6.87924C268.892 6.33977 269.36 5.89111 269.931 5.58197C270.522 5.2674 271.193 5.1055 271.874 5.11293C272.568 5.10271 273.25 5.27055 273.847 5.59805C274.415 5.90701 274.88 6.35593 275.191 6.8953C275.514 7.44582 275.683 8.06347 275.682 8.6911ZM271.897 6.68624C271.495 6.6753 271.102 6.79568 270.785 7.02662C270.468 7.26877 270.247 7.60281 270.158 7.97542H273.704C273.595 7.59817 273.36 7.26301 273.034 7.01862C272.701 6.79013 272.296 6.67306 271.883 6.68624H271.897Z" fill="white"/>
<path d="M280.819 5.27107H281.466V7.01054H280.603C280.045 7.01054 279.648 7.13119 279.407 7.37777C279.165 7.62435 279.047 8.0237 279.047 8.58388V12.1272H277.069V5.30591H278.331L278.682 6.14482C278.939 5.8523 279.266 5.62059 279.638 5.46872C280.009 5.31685 280.414 5.24911 280.819 5.27107Z" fill="white"/>
<path d="M285.135 12.3174C284.332 12.3534 283.542 12.1162 282.912 11.65C282.637 11.4337 282.418 11.1622 282.271 10.8559C282.124 10.5496 282.053 10.2164 282.064 9.88108H283.988C283.983 10.0106 284.011 10.1395 284.07 10.2566C284.13 10.3737 284.219 10.4757 284.33 10.5539C284.589 10.7203 284.899 10.8032 285.213 10.7897C285.472 10.7965 285.729 10.7343 285.952 10.6101C286.048 10.558 286.126 10.4826 286.179 10.3919C286.233 10.3012 286.258 10.1987 286.254 10.0955C286.251 9.99815 286.214 9.90429 286.15 9.82745C286.064 9.73365 285.953 9.66252 285.829 9.62111C285.69 9.56652 285.546 9.52346 285.4 9.49246C285.259 9.46028 285.072 9.42544 284.842 9.39059L284.31 9.29139C284.169 9.26461 283.999 9.22443 283.798 9.1708C283.624 9.12726 283.454 9.06894 283.292 8.99658C283.139 8.91985 282.993 8.83015 282.858 8.72855C282.716 8.63143 282.593 8.51164 282.495 8.37477C282.396 8.22861 282.319 8.06971 282.268 7.90306C282.207 7.70429 282.177 7.49854 282.179 7.29192C282.172 6.98809 282.242 6.68692 282.383 6.41308C282.524 6.13923 282.733 5.90034 282.993 5.71598C283.607 5.28947 284.361 5.07448 285.127 5.10753C285.892 5.07218 286.646 5.29482 287.249 5.73471C287.509 5.93379 287.718 6.18582 287.858 6.47156C287.998 6.75725 288.066 7.06904 288.057 7.38306H286.179C286.185 7.26855 286.163 7.15425 286.112 7.04945C286.063 6.94471 285.987 6.85239 285.891 6.78004C285.652 6.63127 285.368 6.55971 285.081 6.57631C284.827 6.56265 284.574 6.62561 284.362 6.75586C284.28 6.80875 284.213 6.87982 284.168 6.96264C284.123 7.04545 284.101 7.13745 284.103 7.23029C284.101 7.29923 284.114 7.3678 284.143 7.4313C284.177 7.49501 284.23 7.54811 284.295 7.58407C284.37 7.62697 284.436 7.66449 284.503 7.69666C284.595 7.73631 284.691 7.76689 284.79 7.7878C284.919 7.81998 285.026 7.84138 285.107 7.85749L285.483 7.92179C286.008 7.99324 286.523 8.11725 287.019 8.29169C287.386 8.42664 287.698 8.66617 287.91 8.97614C288.122 9.28611 288.224 9.65067 288.201 10.0178C288.215 10.3406 288.147 10.6621 288.002 10.9553C287.856 11.2486 287.638 11.5052 287.364 11.7037C286.719 12.1422 285.932 12.3591 285.135 12.3174Z" fill="white"/>
<path d="M172.007 6.36192C171.941 9.59434 168.993 12.1406 165.542 12.1406H165.111C165 12.1407 164.891 12.1617 164.789 12.2022C164.687 12.2427 164.595 12.302 164.518 12.3764L162.278 14.5903L160.728 16.1235C160.628 16.222 160.501 16.2939 160.361 16.3314C160.221 16.3689 160.073 16.3708 159.931 16.3369C159.79 16.303 159.661 16.2345 159.558 16.1385C159.455 16.0425 159.381 15.9226 159.345 15.7911L158.77 13.7514L158.324 12.1433L157.507 9.19499L156.955 7.19819C156.924 7.08586 156.922 6.96852 156.947 6.85508C156.972 6.74163 157.025 6.63507 157.102 6.54356C157.178 6.45205 157.275 6.37798 157.387 6.32702C157.499 6.27601 157.621 6.24944 157.746 6.24938H159.328C159.509 6.24933 159.685 6.30541 159.828 6.40877C159.971 6.51213 160.073 6.65684 160.118 6.82023L160.774 9.19499L161.349 11.2186L163.155 9.43351C163.231 9.35822 163.323 9.29819 163.425 9.25721C163.527 9.21617 163.637 9.19499 163.748 9.19499H165.697C166.132 9.1959 166.561 9.11356 166.96 8.95294C167.359 8.79238 167.717 8.55706 168.014 8.26161C168.311 7.9662 168.539 7.61701 168.685 7.23575C168.831 6.85449 168.89 6.44943 168.861 6.04565C168.79 5.28582 168.412 4.57944 167.803 4.06977C167.195 3.56011 166.401 3.2853 165.582 3.30107H156.509C156.328 3.30155 156.152 3.24565 156.009 3.14223C155.865 3.03882 155.763 2.89381 155.718 2.73018L155.324 1.3016C155.293 1.18947 155.29 1.07217 155.315 0.958707C155.34 0.845244 155.393 0.738624 155.469 0.647024C155.545 0.555424 155.642 0.481278 155.754 0.430274C155.865 0.37927 155.988 0.352762 156.112 0.352783H165.683C166.524 0.354809 167.355 0.512454 168.13 0.81656C168.904 1.12067 169.606 1.56517 170.195 2.12426C170.783 2.68334 171.247 3.34586 171.559 4.07334C171.87 4.80082 172.024 5.57874 172.01 6.36192H172.007Z" fill="white"/>
</g>
<g clip-path="url(#clip2_524_68410)">
<path d="M335.625 3.28238C336.219 3.27028 336.806 3.40138 337.33 3.66298C337.832 3.91632 338.249 4.2938 338.535 4.75385C338.83 5.22631 338.982 5.76449 338.975 6.31107C338.987 6.71629 338.908 7.11926 338.743 7.49417C338.577 7.86903 338.329 8.20739 338.015 8.48748C337.699 8.77312 337.324 8.99691 336.914 9.14558C336.503 9.29429 336.065 9.36483 335.625 9.3532H334.023V12.1273H331.973V3.28238H335.625ZM335.533 7.59225C335.714 7.59903 335.894 7.57085 336.063 7.50949C336.232 7.44818 336.385 7.35496 336.514 7.23575C336.755 6.9857 336.889 6.66106 336.889 6.32446C336.889 5.98792 336.755 5.66326 336.514 5.41319C336.385 5.29405 336.231 5.20092 336.062 5.1396C335.892 5.07827 335.711 5.05006 335.53 5.05672H334.02V7.59225H335.533Z" fill="white"/>
<path d="M344.006 5.27117H344.655V7.01063H343.793C343.235 7.01063 342.838 7.13128 342.596 7.37786C342.355 7.62444 342.237 8.02379 342.237 8.58397V12.1273H340.258V5.30601H341.521L341.872 6.14491C342.128 5.85276 342.455 5.6213 342.826 5.46944C343.197 5.31758 343.601 5.24964 344.006 5.27117Z" fill="white"/>
<path d="M349.087 12.3174C348.384 12.3244 347.691 12.1638 347.074 11.851C346.474 11.5521 345.976 11.1028 345.636 10.5537C345.301 9.99179 345.125 9.35942 345.125 8.71643C345.125 8.07338 345.301 7.441 345.636 6.87907C345.975 6.32844 346.473 5.87792 347.074 5.57916C347.698 5.27282 348.392 5.11273 349.097 5.11273C349.802 5.11273 350.496 5.27282 351.12 5.57916C351.713 5.88213 352.203 6.33207 352.538 6.87907C352.878 7.44116 353.056 8.07535 353.056 8.72043C353.056 9.3655 352.878 9.99969 352.538 10.5617C352.195 11.1069 351.698 11.5531 351.1 11.851C350.483 12.1638 349.79 12.3244 349.087 12.3174ZM347.684 10.0632C348.062 10.3987 348.564 10.5857 349.086 10.5857C349.607 10.5857 350.109 10.3987 350.487 10.0632C350.843 9.69234 351.04 9.21241 351.04 8.71504C351.04 8.21772 350.843 7.7378 350.487 7.36689C350.108 7.03328 349.607 6.84742 349.086 6.84742C348.564 6.84742 348.063 7.03328 347.684 7.36689C347.33 7.7386 347.134 8.2182 347.134 8.71504C347.134 9.21193 347.33 9.69154 347.684 10.0632Z" fill="white"/>
<path d="M352.909 14.5877V12.8911H353.544C354.263 12.8911 354.623 12.5561 354.623 11.886V5.30593H356.601V12.028C356.617 12.3681 356.557 12.7076 356.425 13.0248C356.292 13.3421 356.09 13.6302 355.832 13.8709C355.574 14.1116 355.265 14.2996 354.924 14.423C354.584 14.5464 354.22 14.6025 353.855 14.5877H352.909ZM354.634 4.40269V2.68732H356.607V4.40269H354.634Z" fill="white"/>
<path d="M365.603 8.69106C365.602 8.8704 365.589 9.04948 365.562 9.22712H360.015C360.068 9.64034 360.281 10.0214 360.613 10.2992C360.949 10.5545 361.373 10.687 361.807 10.6717C362.127 10.6768 362.442 10.6048 362.724 10.4627C362.99 10.3298 363.209 10.1289 363.357 9.88377H365.436C365.251 10.3842 364.95 10.8405 364.554 11.2202C364.158 11.5998 363.678 11.8935 363.147 12.0804C362.615 12.2672 362.046 12.3426 361.48 12.3011C360.914 12.2596 360.365 12.1023 359.871 11.8403C359.297 11.5322 358.825 11.0836 358.505 10.5431C358.172 9.98254 358 9.35076 358.008 8.70984C358.004 8.06952 358.178 7.43912 358.511 6.8792C358.829 6.33909 359.301 5.89113 359.874 5.58463C360.465 5.2704 361.135 5.10851 361.815 5.11559C362.508 5.10495 363.191 5.27283 363.788 5.60071C364.357 5.90874 364.822 6.35782 365.134 6.89799C365.448 7.44995 365.609 8.06632 365.603 8.69106ZM361.815 6.6862C361.414 6.6759 361.021 6.79628 360.705 7.02664C360.388 7.26932 360.167 7.60299 360.075 7.97544H363.624C363.513 7.59845 363.278 7.26361 362.951 7.01858C362.623 6.7926 362.223 6.67563 361.815 6.6862Z" fill="white"/>
<path d="M370.414 12.3175C369.887 12.3248 369.365 12.2337 368.878 12.0495C368.416 11.8729 367.996 11.6133 367.641 11.2856C367.29 10.9562 367.013 10.5642 366.827 10.1331C366.631 9.6802 366.534 9.19553 366.54 8.70717C366.534 8.22143 366.631 7.73943 366.827 7.28933C367.013 6.86143 367.29 6.47302 367.641 6.14752C367.997 5.82394 368.418 5.56974 368.881 5.39974C369.373 5.21642 369.898 5.12534 370.428 5.13172C371.311 5.11222 372.173 5.38473 372.861 5.90094C373.537 6.41294 373.993 7.13384 374.147 7.93259H372.182C372.035 7.61051 371.788 7.33693 371.472 7.14728C371.156 6.95887 370.789 6.86101 370.414 6.86586C370.162 6.86111 369.913 6.90647 369.681 6.99889C369.45 7.09136 369.243 7.22877 369.073 7.40192C368.713 7.7596 368.52 8.23568 368.536 8.72595C368.52 9.22146 368.714 9.70277 369.076 10.0661C369.245 10.2396 369.452 10.3772 369.682 10.4697C369.913 10.5622 370.162 10.6074 370.414 10.6021C370.791 10.6094 371.161 10.5053 371.472 10.3046C371.79 10.0918 372.036 9.79893 372.182 9.46035H374.172C374.029 10.278 373.569 11.0186 372.881 11.5429C372.183 12.066 371.308 12.3406 370.414 12.3175Z" fill="white"/>
<path d="M379.019 10.4868H379.919V12.1272H378.516C378.166 12.1516 377.816 12.1052 377.488 11.991C377.161 11.8769 376.864 11.6978 376.618 11.4661C376.371 11.2344 376.182 10.9557 376.063 10.6492C375.944 10.3426 375.897 10.0156 375.927 9.69077V6.78535H374.601V6.39139L377.495 3.52081H377.871V5.30587H379.884V6.78535H377.9V9.44419C377.883 9.58533 377.901 9.72813 377.952 9.86201C378.003 9.99589 378.085 10.1174 378.193 10.2175C378.301 10.3177 378.432 10.3939 378.576 10.4405C378.72 10.4871 378.873 10.5029 379.024 10.4868H379.019Z" fill="white"/>
<path d="M385.055 3.28238C385.648 3.27028 386.236 3.40138 386.76 3.66298C387.262 3.91632 387.679 4.2938 387.965 4.75385C388.26 5.22631 388.412 5.76449 388.404 6.31107C388.416 6.71629 388.337 7.11926 388.172 7.49417C388.007 7.86903 387.759 8.20739 387.444 8.48748C387.128 8.77312 386.754 8.99691 386.343 9.14558C385.933 9.29429 385.495 9.36483 385.055 9.3532H383.453V12.1273H381.402V3.28238H385.055ZM384.962 7.59225C385.143 7.59903 385.324 7.57085 385.493 7.50949C385.661 7.44818 385.815 7.35496 385.943 7.23575C386.185 6.9857 386.319 6.66106 386.319 6.32446C386.319 5.98792 386.185 5.66326 385.943 5.41319C385.814 5.29405 385.66 5.20092 385.491 5.1396C385.322 5.07827 385.141 5.05006 384.96 5.05672H383.453V7.59225H384.962Z" fill="white"/>
<path d="M395.586 5.29255H397.07V12.1138H395.514L395.341 11.5054C394.686 12.0394 393.841 12.3263 392.972 12.3095C392.284 12.3182 391.605 12.1573 391.004 11.8431C390.43 11.5379 389.956 11.0909 389.636 10.5512C389.301 9.98619 389.129 9.34986 389.138 8.70452C389.132 8.06622 389.303 7.43726 389.636 6.87927C389.957 6.33894 390.433 5.89253 391.01 5.59006C391.611 5.27587 392.289 5.11498 392.977 5.12369C393.864 5.10312 394.725 5.39725 395.387 5.94653L395.586 5.29255ZM391.704 10.0393C392.088 10.3808 392.599 10.5713 393.13 10.5713C393.661 10.5713 394.172 10.3808 394.556 10.0393C394.921 9.67584 395.124 9.19683 395.124 8.69919C395.124 8.20155 394.921 7.72247 394.556 7.35904C394.172 7.01753 393.661 6.82709 393.13 6.82709C392.599 6.82709 392.088 7.01753 391.704 7.35904C391.337 7.72157 391.133 8.20096 391.133 8.69919C391.133 9.19736 391.337 9.67675 391.704 10.0393Z" fill="white"/>
<path d="M402.71 5.27117H403.357V7.01063H402.494C401.938 7.01063 401.539 7.13128 401.3 7.37786C401.026 7.7254 400.897 8.1542 400.938 8.58397V12.1273H398.959V5.30601H400.225L400.576 6.14491C400.832 5.85276 401.159 5.6213 401.53 5.46944C401.901 5.31758 402.305 5.24964 402.71 5.27117Z" fill="white"/>
<path d="M408.11 10.4868H409.01V12.1272H407.607C407.257 12.1537 406.905 12.1087 406.575 11.9955C406.246 11.8823 405.947 11.7035 405.699 11.4716C405.451 11.2397 405.261 10.9602 405.141 10.6526C405.021 10.3451 404.974 10.0169 405.004 9.69077V6.78535H403.681V6.39139L406.574 3.52081H406.951V5.30587H408.964V6.78535H406.977V9.44419C406.961 9.58549 406.979 9.72834 407.03 9.86217C407.081 9.99605 407.164 10.1175 407.272 10.2175C407.38 10.3177 407.511 10.3938 407.656 10.4404C407.799 10.487 407.953 10.5029 408.105 10.4868H408.11Z" fill="white"/>
<path d="M414.523 5.14507C414.894 5.1295 415.263 5.19091 415.606 5.32488C415.948 5.45884 416.254 5.662 416.502 5.91965C417.019 6.50026 417.283 7.24053 417.244 7.9942V12.1271H415.265V8.28901C415.265 7.27052 414.839 6.76125 413.988 6.76125C413.762 6.75122 413.537 6.78889 413.328 6.87154C413.12 6.95415 412.935 7.07954 412.786 7.23834C412.474 7.60909 412.318 8.07317 412.346 8.54365V12.1271H410.368V5.30588H411.725L412.108 6.15016C412.396 5.83443 412.756 5.58261 413.163 5.41309C413.59 5.23342 414.054 5.14199 414.523 5.14507Z" fill="white"/>
<path d="M426.159 8.6911C426.159 8.87033 426.146 9.04941 426.121 9.22715H420.565C420.62 9.64001 420.832 10.0207 421.164 10.2992C421.5 10.5547 421.926 10.6871 422.36 10.6718C422.68 10.6762 422.996 10.6042 423.277 10.4627C423.541 10.3289 423.76 10.1282 423.907 9.88381H425.986C425.802 10.3843 425.501 10.8407 425.106 11.2204C424.71 11.6003 424.23 11.8941 423.699 12.0809C423.167 12.2677 422.599 12.3431 422.033 12.3015C421.467 12.26 420.917 12.1025 420.424 11.8404C419.849 11.5331 419.376 11.0843 419.056 10.5431C418.723 9.98231 418.552 9.35058 418.561 8.70982C418.554 8.07046 418.723 7.44017 419.053 6.87924C419.369 6.33977 419.837 5.89111 420.407 5.58197C420.999 5.2674 421.67 5.1055 422.351 5.11293C423.044 5.10271 423.727 5.27055 424.324 5.59805C424.891 5.90701 425.356 6.35593 425.667 6.8953C425.991 7.44582 426.16 8.06347 426.159 8.6911ZM422.374 6.68624C421.972 6.6753 421.578 6.79568 421.262 7.02662C420.944 7.26877 420.724 7.60281 420.635 7.97542H424.18C424.072 7.59817 423.837 7.26301 423.51 7.01862C423.178 6.79013 422.772 6.67306 422.36 6.68624H422.374Z" fill="white"/>
<path d="M431.296 5.27107H431.942V7.01054H431.08C430.521 7.01054 430.125 7.13119 429.883 7.37777C429.641 7.62435 429.524 8.0237 429.524 8.58388V12.1272H427.545V5.30591H428.808L429.159 6.14482C429.415 5.8523 429.743 5.62059 430.114 5.46872C430.486 5.31685 430.89 5.24911 431.296 5.27107Z" fill="white"/>
<path d="M435.612 12.3174C434.808 12.3534 434.018 12.1162 433.389 11.65C433.114 11.4337 432.894 11.1622 432.748 10.8559C432.601 10.5496 432.53 10.2164 432.541 9.88108H434.464C434.459 10.0106 434.487 10.1395 434.547 10.2566C434.606 10.3737 434.696 10.4757 434.807 10.5539C435.066 10.7203 435.375 10.8032 435.69 10.7897C435.949 10.7965 436.205 10.7343 436.429 10.6101C436.524 10.558 436.603 10.4826 436.656 10.3919C436.709 10.3012 436.735 10.1987 436.73 10.0955C436.728 9.99815 436.691 9.90429 436.627 9.82745C436.541 9.73365 436.43 9.66252 436.305 9.62111C436.167 9.56652 436.023 9.52346 435.876 9.49246C435.735 9.46028 435.549 9.42544 435.319 9.39059L434.786 9.29139C434.645 9.26461 434.476 9.22443 434.274 9.1708C434.1 9.12726 433.931 9.06894 433.768 8.99658C433.615 8.91985 433.47 8.83015 433.334 8.72855C433.192 8.63143 433.069 8.51164 432.972 8.37477C432.872 8.22861 432.795 8.06971 432.744 7.90306C432.684 7.70429 432.654 7.49854 432.655 7.29192C432.648 6.98809 432.718 6.68692 432.86 6.41308C433.001 6.13923 433.21 5.90034 433.469 5.71598C434.084 5.28947 434.838 5.07448 435.603 5.10753C436.369 5.07218 437.122 5.29482 437.726 5.73471C437.986 5.93379 438.194 6.18582 438.335 6.47156C438.475 6.75725 438.543 7.06904 438.533 7.38306H436.655C436.662 7.26855 436.639 7.15425 436.589 7.04945C436.539 6.94471 436.464 6.85239 436.368 6.78004C436.129 6.63127 435.844 6.55971 435.557 6.57631C435.303 6.56265 435.051 6.62561 434.838 6.75586C434.756 6.80875 434.689 6.87982 434.645 6.96264C434.599 7.04545 434.577 7.13745 434.579 7.23029C434.577 7.29923 434.591 7.3678 434.62 7.4313C434.653 7.49501 434.707 7.54811 434.772 7.58407C434.847 7.62697 434.913 7.66449 434.979 7.69666C435.071 7.73631 435.167 7.76689 435.266 7.7878C435.396 7.81998 435.502 7.84138 435.583 7.85749L435.96 7.92179C436.484 7.99324 437 8.11725 437.495 8.29169C437.862 8.42664 438.174 8.66617 438.387 8.97614C438.599 9.28611 438.701 9.65067 438.677 10.0178C438.692 10.3406 438.624 10.6621 438.478 10.9553C438.333 11.2486 438.114 11.5052 437.841 11.7037C437.196 12.1422 436.409 12.3591 435.612 12.3174Z" fill="white"/>
<path d="M322.484 6.36192C322.417 9.59434 319.47 12.1406 316.019 12.1406H315.587C315.477 12.1407 315.367 12.1617 315.265 12.2022C315.164 12.2427 315.072 12.302 314.995 12.3764L312.755 14.5903L311.205 16.1235C311.104 16.222 310.978 16.2939 310.837 16.3314C310.697 16.3689 310.549 16.3708 310.408 16.3369C310.267 16.303 310.138 16.2345 310.035 16.1385C309.932 16.0425 309.858 15.9226 309.821 15.7911L309.246 13.7514L308.8 12.1433L307.984 9.19499L307.432 7.19819C307.401 7.08586 307.398 6.96852 307.424 6.85508C307.449 6.74163 307.502 6.63507 307.578 6.54356C307.654 6.45205 307.752 6.37798 307.864 6.32702C307.975 6.27601 308.098 6.24944 308.222 6.24938H309.804C309.985 6.24933 310.161 6.30541 310.304 6.40877C310.447 6.51213 310.55 6.65684 310.595 6.82023L311.251 9.19499L311.826 11.2186L313.632 9.43351C313.708 9.35822 313.8 9.29819 313.902 9.25721C314.003 9.21617 314.113 9.19499 314.224 9.19499H316.174C316.608 9.1959 317.038 9.11356 317.437 8.95294C317.835 8.79238 318.194 8.55706 318.491 8.26161C318.787 7.9662 319.016 7.61701 319.161 7.23575C319.307 6.85449 319.367 6.44943 319.337 6.04565C319.267 5.28582 318.889 4.57944 318.28 4.06977C317.671 3.56011 316.877 3.2853 316.059 3.30107H306.986C306.805 3.30155 306.628 3.24565 306.485 3.14223C306.342 3.03882 306.24 2.89381 306.195 2.73018L305.801 1.3016C305.77 1.18947 305.767 1.07217 305.792 0.958707C305.817 0.845244 305.869 0.738624 305.945 0.647024C306.021 0.555424 306.119 0.481278 306.23 0.430274C306.342 0.37927 306.465 0.352762 306.589 0.352783H316.16C317 0.354809 317.832 0.512454 318.606 0.81656C319.381 1.12067 320.083 1.56517 320.671 2.12426C321.26 2.68334 321.724 3.34586 322.035 4.07334C322.347 4.80082 322.5 5.57874 322.486 6.36192H322.484Z" fill="white"/>
</g>
<g clip-path="url(#clip3_524_68410)">
<path d="M486.101 3.28238C486.696 3.27028 487.283 3.40138 487.807 3.66298C488.309 3.91632 488.726 4.2938 489.012 4.75385C489.307 5.22631 489.459 5.76449 489.452 6.31107C489.464 6.71629 489.385 7.11926 489.219 7.49417C489.054 7.86903 488.806 8.20739 488.491 8.48748C488.175 8.77312 487.801 8.99691 487.39 9.14558C486.98 9.29429 486.542 9.36483 486.101 9.3532H484.5V12.1273H482.449V3.28238H486.101ZM486.009 7.59225C486.19 7.59903 486.371 7.57085 486.54 7.50949C486.709 7.44818 486.862 7.35496 486.99 7.23575C487.232 6.9857 487.366 6.66106 487.366 6.32446C487.366 5.98792 487.232 5.66326 486.99 5.41319C486.861 5.29405 486.707 5.20092 486.538 5.1396C486.369 5.07827 486.188 5.05006 486.007 5.05672H484.497V7.59225H486.009Z" fill="white"/>
<path d="M494.483 5.27117H495.132V7.01063H494.27C493.712 7.01063 493.315 7.13128 493.073 7.37786C492.832 7.62444 492.714 8.02379 492.714 8.58397V12.1273H490.735V5.30601H491.998L492.349 6.14491C492.605 5.85276 492.932 5.6213 493.303 5.46944C493.674 5.31758 494.078 5.24964 494.483 5.27117Z" fill="white"/>
<path d="M499.564 12.3174C498.861 12.3244 498.168 12.1638 497.551 11.851C496.951 11.5521 496.453 11.1028 496.113 10.5537C495.778 9.99179 495.602 9.35942 495.602 8.71643C495.602 8.07338 495.778 7.441 496.113 6.87907C496.452 6.32844 496.95 5.87792 497.551 5.57916C498.175 5.27282 498.869 5.11273 499.574 5.11273C500.279 5.11273 500.974 5.27282 501.597 5.57916C502.19 5.88213 502.68 6.33207 503.015 6.87907C503.355 7.44116 503.533 8.07535 503.533 8.72043C503.533 9.3655 503.355 9.99969 503.015 10.5617C502.673 11.1069 502.175 11.5531 501.577 11.851C500.96 12.1638 500.267 12.3244 499.564 12.3174ZM498.161 10.0632C498.539 10.3987 499.041 10.5857 499.563 10.5857C500.085 10.5857 500.587 10.3987 500.965 10.0632C501.32 9.69234 501.517 9.21241 501.517 8.71504C501.517 8.21772 501.32 7.7378 500.965 7.36689C500.585 7.03328 500.084 6.84742 499.563 6.84742C499.041 6.84742 498.54 7.03328 498.161 7.36689C497.807 7.7386 497.612 8.2182 497.612 8.71504C497.612 9.21193 497.807 9.69154 498.161 10.0632Z" fill="white"/>
<path d="M503.386 14.5877V12.8911H504.021C504.74 12.8911 505.1 12.5561 505.1 11.886V5.30593H507.078V12.028C507.094 12.3681 507.034 12.7076 506.902 13.0248C506.769 13.3421 506.568 13.6302 506.309 13.8709C506.051 14.1116 505.742 14.2996 505.401 14.423C505.061 14.5464 504.697 14.6025 504.332 14.5877H503.386ZM505.111 4.40269V2.68732H507.084V4.40269H505.111Z" fill="white"/>
<path d="M516.08 8.69106C516.079 8.8704 516.066 9.04948 516.039 9.22712H510.492C510.545 9.64034 510.758 10.0214 511.09 10.2992C511.426 10.5545 511.85 10.687 512.284 10.6717C512.604 10.6768 512.92 10.6048 513.201 10.4627C513.467 10.3298 513.686 10.1289 513.834 9.88377H515.913C515.728 10.3842 515.427 10.8405 515.031 11.2202C514.635 11.5998 514.155 11.8935 513.624 12.0804C513.092 12.2672 512.523 12.3426 511.957 12.3011C511.391 12.2596 510.842 12.1023 510.348 11.8403C509.774 11.5322 509.302 11.0836 508.982 10.5431C508.649 9.98254 508.477 9.35076 508.485 8.70984C508.481 8.06952 508.655 7.43912 508.988 6.8792C509.306 6.33909 509.778 5.89113 510.351 5.58463C510.942 5.2704 511.612 5.10851 512.292 5.11559C512.985 5.10495 513.668 5.27283 514.265 5.60071C514.834 5.90874 515.3 6.35782 515.611 6.89799C515.925 7.44995 516.086 8.06632 516.08 8.69106ZM512.292 6.6862C511.891 6.6759 511.498 6.79628 511.182 7.02664C510.865 7.26932 510.644 7.60299 510.552 7.97544H514.101C513.99 7.59845 513.755 7.26361 513.428 7.01858C513.1 6.7926 512.7 6.67563 512.292 6.6862Z" fill="white"/>
<path d="M520.891 12.3175C520.365 12.3248 519.842 12.2337 519.355 12.0495C518.893 11.8729 518.473 11.6133 518.118 11.2856C517.767 10.9562 517.49 10.5642 517.304 10.1331C517.108 9.6802 517.011 9.19553 517.017 8.70717C517.011 8.22143 517.108 7.73943 517.304 7.28933C517.49 6.86143 517.767 6.47302 518.118 6.14752C518.474 5.82394 518.895 5.56974 519.358 5.39974C519.85 5.21642 520.375 5.12534 520.905 5.13172C521.788 5.11222 522.65 5.38473 523.338 5.90094C524.014 6.41294 524.47 7.13384 524.624 7.93259H522.659C522.512 7.61051 522.265 7.33693 521.949 7.14728C521.633 6.95887 521.266 6.86101 520.891 6.86586C520.639 6.86111 520.39 6.90647 520.158 6.99889C519.927 7.09136 519.72 7.22877 519.55 7.40192C519.19 7.7596 518.997 8.23568 519.013 8.72595C518.997 9.22146 519.191 9.70277 519.553 10.0661C519.722 10.2396 519.929 10.3772 520.16 10.4697C520.39 10.5622 520.639 10.6074 520.891 10.6021C521.269 10.6094 521.638 10.5053 521.949 10.3046C522.267 10.0918 522.513 9.79893 522.659 9.46035H524.649C524.506 10.278 524.047 11.0186 523.358 11.5429C522.66 12.066 521.786 12.3406 520.891 12.3175Z" fill="white"/>
<path d="M529.495 10.4868H530.395V12.1272H528.992C528.642 12.1516 528.292 12.1052 527.964 11.991C527.637 11.8769 527.34 11.6978 527.094 11.4661C526.847 11.2344 526.658 10.9557 526.539 10.6492C526.42 10.3426 526.373 10.0156 526.403 9.69077V6.78535H525.077V6.39139L527.971 3.52081H528.347V5.30587H530.361V6.78535H528.376V9.44419C528.36 9.58533 528.377 9.72813 528.428 9.86201C528.479 9.99589 528.561 10.1174 528.669 10.2175C528.777 10.3177 528.908 10.3939 529.052 10.4405C529.196 10.4871 529.349 10.5029 529.501 10.4868H529.495Z" fill="white"/>
<path d="M535.532 3.28238C536.126 3.27028 536.713 3.40138 537.237 3.66298C537.739 3.91632 538.156 4.2938 538.442 4.75385C538.737 5.22631 538.889 5.76449 538.882 6.31107C538.894 6.71629 538.815 7.11926 538.65 7.49417C538.484 7.86903 538.236 8.20739 537.922 8.48748C537.606 8.77312 537.231 8.99691 536.821 9.14558C536.41 9.29429 535.972 9.36483 535.532 9.3532H533.93V12.1273H531.88V3.28238H535.532ZM535.44 7.59225C535.621 7.59903 535.801 7.57085 535.97 7.50949C536.139 7.44818 536.292 7.35496 536.421 7.23575C536.662 6.9857 536.796 6.66106 536.796 6.32446C536.796 5.98792 536.662 5.66326 536.421 5.41319C536.292 5.29405 536.138 5.20092 535.968 5.1396C535.799 5.07827 535.619 5.05006 535.437 5.05672H533.93V7.59225H535.44Z" fill="white"/>
<path d="M546.062 5.29255H547.546V12.1138H545.99L545.818 11.5054C545.163 12.0394 544.318 12.3263 543.448 12.3095C542.76 12.3182 542.082 12.1573 541.481 11.8431C540.906 11.5379 540.433 11.0909 540.112 10.5512C539.778 9.98619 539.606 9.34986 539.615 8.70452C539.608 8.06622 539.779 7.43726 540.112 6.87927C540.433 6.33894 540.909 5.89253 541.487 5.59006C542.087 5.27587 542.766 5.11498 543.454 5.12369C544.34 5.10312 545.202 5.39725 545.864 5.94653L546.062 5.29255ZM542.18 10.0393C542.564 10.3808 543.076 10.5713 543.606 10.5713C544.138 10.5713 544.648 10.3808 545.033 10.0393C545.398 9.67584 545.6 9.19683 545.6 8.69919C545.6 8.20155 545.398 7.72247 545.033 7.35904C544.648 7.01753 544.138 6.82709 543.606 6.82709C543.076 6.82709 542.564 7.01753 542.18 7.35904C541.814 7.72157 541.609 8.20096 541.609 8.69919C541.609 9.19736 541.814 9.67675 542.18 10.0393Z" fill="white"/>
<path d="M553.187 5.27117H553.834V7.01063H552.971C552.415 7.01063 552.016 7.13128 551.777 7.37786C551.503 7.7254 551.374 8.1542 551.415 8.58397V12.1273H549.437V5.30601H550.702L551.053 6.14491C551.309 5.85276 551.636 5.6213 552.007 5.46944C552.378 5.31758 552.782 5.24964 553.187 5.27117Z" fill="white"/>
<path d="M558.587 10.4868H559.487V12.1272H558.084C557.734 12.1537 557.382 12.1087 557.052 11.9955C556.723 11.8823 556.424 11.7035 556.176 11.4716C555.928 11.2397 555.738 10.9602 555.618 10.6526C555.498 10.3451 555.451 10.0169 555.481 9.69077V6.78535H554.158V6.39139L557.051 3.52081H557.428V5.30587H559.441V6.78535H557.454V9.44419C557.438 9.58549 557.456 9.72834 557.508 9.86217C557.558 9.99605 557.641 10.1175 557.749 10.2175C557.857 10.3177 557.988 10.3938 558.133 10.4404C558.276 10.487 558.43 10.5029 558.582 10.4868H558.587Z" fill="white"/>
<path d="M565 5.14507C565.371 5.1295 565.74 5.19091 566.083 5.32488C566.425 5.45884 566.731 5.662 566.979 5.91965C567.496 6.50026 567.76 7.24053 567.721 7.9942V12.1271H565.742V8.28901C565.742 7.27052 565.316 6.76125 564.465 6.76125C564.239 6.75122 564.014 6.78889 563.805 6.87154C563.597 6.95415 563.412 7.07954 563.263 7.23834C562.951 7.60909 562.795 8.07317 562.823 8.54365V12.1271H560.845V5.30588H562.202L562.585 6.15016C562.873 5.83443 563.233 5.58261 563.64 5.41309C564.067 5.23342 564.531 5.14199 565 5.14507Z" fill="white"/>
<path d="M576.636 8.6911C576.636 8.87033 576.623 9.04941 576.598 9.22715H571.042C571.096 9.64001 571.309 10.0207 571.64 10.2992C571.977 10.5547 572.402 10.6871 572.836 10.6718C573.156 10.6762 573.472 10.6042 573.754 10.4627C574.018 10.3289 574.237 10.1282 574.384 9.88381H576.463C576.278 10.3843 575.978 10.8407 575.583 11.2204C575.187 11.6003 574.707 11.8941 574.175 12.0809C573.644 12.2677 573.076 12.3431 572.509 12.3015C571.944 12.26 571.394 12.1025 570.901 11.8404C570.326 11.5331 569.852 11.0843 569.532 10.5431C569.199 9.98231 569.029 9.35058 569.037 8.70982C569.031 8.07046 569.2 7.44017 569.529 6.87924C569.845 6.33977 570.314 5.89111 570.884 5.58197C571.475 5.2674 572.146 5.1055 572.828 5.11293C573.521 5.10271 574.203 5.27055 574.801 5.59805C575.368 5.90701 575.833 6.35593 576.144 6.8953C576.467 7.44582 576.636 8.06347 576.636 8.6911ZM572.851 6.68624C572.449 6.6753 572.055 6.79568 571.738 7.02662C571.421 7.26877 571.2 7.60281 571.111 7.97542H574.657C574.548 7.59817 574.313 7.26301 573.987 7.01862C573.654 6.79013 573.249 6.67306 572.836 6.68624H572.851Z" fill="white"/>
<path d="M581.773 5.27107H582.42V7.01054H581.557C580.999 7.01054 580.602 7.13119 580.36 7.37777C580.119 7.62435 580.001 8.0237 580.001 8.58388V12.1272H578.022V5.30591H579.285L579.636 6.14482C579.892 5.8523 580.22 5.62059 580.591 5.46872C580.963 5.31685 581.367 5.24911 581.773 5.27107Z" fill="white"/>
<path d="M586.089 12.3174C585.286 12.3534 584.495 12.1162 583.866 11.65C583.591 11.4337 583.372 11.1622 583.225 10.8559C583.078 10.5496 583.007 10.2164 583.018 9.88108H584.941C584.936 10.0106 584.964 10.1395 585.024 10.2566C585.083 10.3737 585.173 10.4757 585.284 10.5539C585.543 10.7203 585.852 10.8032 586.167 10.7897C586.426 10.7965 586.682 10.7343 586.906 10.6101C587.001 10.558 587.08 10.4826 587.133 10.3919C587.186 10.3012 587.212 10.1987 587.208 10.0955C587.205 9.99815 587.168 9.90429 587.104 9.82745C587.018 9.73365 586.907 9.66252 586.782 9.62111C586.644 9.56652 586.5 9.52346 586.353 9.49246C586.212 9.46028 586.026 9.42544 585.796 9.39059L585.263 9.29139C585.122 9.26461 584.953 9.22443 584.751 9.1708C584.577 9.12726 584.408 9.06894 584.245 8.99658C584.092 8.91985 583.947 8.83015 583.811 8.72855C583.669 8.63143 583.546 8.51164 583.449 8.37477C583.349 8.22861 583.272 8.06971 583.222 7.90306C583.161 7.70429 583.131 7.49854 583.132 7.29192C583.125 6.98809 583.195 6.68692 583.337 6.41308C583.478 6.13923 583.687 5.90034 583.946 5.71598C584.561 5.28947 585.315 5.07448 586.08 5.10753C586.846 5.07218 587.599 5.29482 588.203 5.73471C588.463 5.93379 588.671 6.18582 588.812 6.47156C588.952 6.75725 589.02 7.06904 589.01 7.38306H587.133C587.139 7.26855 587.116 7.15425 587.066 7.04945C587.016 6.94471 586.941 6.85239 586.845 6.78004C586.606 6.63127 586.321 6.55971 586.034 6.57631C585.78 6.56265 585.528 6.62561 585.315 6.75586C585.233 6.80875 585.166 6.87982 585.122 6.96264C585.077 7.04545 585.054 7.13745 585.056 7.23029C585.054 7.29923 585.068 7.3678 585.097 7.4313C585.13 7.49501 585.184 7.54811 585.249 7.58407C585.324 7.62697 585.39 7.66449 585.456 7.69666C585.548 7.73631 585.644 7.76689 585.744 7.7878C585.873 7.81998 585.979 7.84138 586.06 7.85749L586.437 7.92179C586.961 7.99324 587.477 8.11725 587.972 8.29169C588.339 8.42664 588.651 8.66617 588.864 8.97614C589.076 9.28611 589.178 9.65067 589.154 10.0178C589.169 10.3406 589.101 10.6621 588.955 10.9553C588.81 11.2486 588.591 11.5052 588.318 11.7037C587.673 12.1422 586.886 12.3591 586.089 12.3174Z" fill="white"/>
<path d="M472.961 6.36192C472.894 9.59434 469.947 12.1406 466.496 12.1406H466.064C465.954 12.1407 465.844 12.1617 465.742 12.2022C465.641 12.2427 465.549 12.302 465.472 12.3764L463.232 14.5903L461.682 16.1235C461.581 16.222 461.455 16.2939 461.315 16.3314C461.174 16.3689 461.026 16.3708 460.885 16.3369C460.744 16.303 460.615 16.2345 460.512 16.1385C460.409 16.0425 460.335 15.9226 460.298 15.7911L459.723 13.7514L459.277 12.1433L458.461 9.19499L457.909 7.19819C457.878 7.08586 457.875 6.96852 457.901 6.85508C457.926 6.74163 457.979 6.63507 458.055 6.54356C458.131 6.45205 458.229 6.37798 458.341 6.32702C458.452 6.27601 458.575 6.24944 458.699 6.24938H460.281C460.462 6.24933 460.638 6.30541 460.781 6.40877C460.924 6.51213 461.027 6.65684 461.072 6.82023L461.728 9.19499L462.303 11.2186L464.109 9.43351C464.185 9.35822 464.277 9.29819 464.379 9.25721C464.48 9.21617 464.59 9.19499 464.701 9.19499H466.651C467.085 9.1959 467.515 9.11356 467.914 8.95294C468.312 8.79238 468.671 8.55706 468.968 8.26161C469.264 7.9662 469.493 7.61701 469.639 7.23575C469.784 6.85449 469.844 6.44943 469.814 6.04565C469.744 5.28582 469.366 4.57944 468.757 4.06977C468.148 3.56011 467.354 3.2853 466.536 3.30107H457.463C457.282 3.30155 457.105 3.24565 456.962 3.14223C456.819 3.03882 456.717 2.89381 456.672 2.73018L456.278 1.3016C456.247 1.18947 456.244 1.07217 456.269 0.958707C456.294 0.845244 456.346 0.738624 456.422 0.647024C456.498 0.555424 456.596 0.481278 456.707 0.430274C456.819 0.37927 456.942 0.352762 457.066 0.352783H466.637C467.477 0.354809 468.309 0.512454 469.083 0.81656C469.858 1.12067 470.56 1.56517 471.148 2.12426C471.737 2.68334 472.201 3.34586 472.512 4.07334C472.824 4.80082 472.977 5.57874 472.963 6.36192H472.961Z" fill="white"/>
</g>
<g clip-path="url(#clip4_524_68410)">
<path d="M636.578 3.2822C637.172 3.2701 637.76 3.4012 638.283 3.66279C638.785 3.91613 639.202 4.29362 639.488 4.75366C639.783 5.22612 639.935 5.76431 639.928 6.31088C639.94 6.7161 639.861 7.11908 639.696 7.49399C639.53 7.86885 639.282 8.20721 638.968 8.4873C638.652 8.77294 638.277 8.99673 637.867 9.14539C637.456 9.29411 637.018 9.36465 636.578 9.35302H634.976V12.1271H632.926V3.2822H636.578ZM636.486 7.59207C636.667 7.59885 636.848 7.57067 637.016 7.50931C637.185 7.448 637.338 7.35477 637.467 7.23557C637.708 6.98552 637.842 6.66087 637.842 6.32428C637.842 5.98773 637.708 5.66308 637.467 5.41301C637.338 5.29387 637.184 5.20074 637.015 5.13941C636.846 5.07809 636.665 5.04987 636.483 5.05653H634.973V7.59207H636.486Z" fill="white"/>
<path d="M644.959 5.27098H645.609V7.01045H644.746C644.188 7.01045 643.792 7.1311 643.55 7.37768C643.308 7.62426 643.19 8.02361 643.19 8.58378V12.1271H641.212V5.30582H642.474L642.825 6.14473C643.082 5.85258 643.409 5.62111 643.78 5.46926C644.151 5.3174 644.555 5.24946 644.959 5.27098Z" fill="white"/>
<path d="M650.041 12.3172C649.338 12.3242 648.645 12.1637 648.028 11.8508C647.428 11.5519 646.93 11.1026 646.59 10.5536C646.254 9.99161 646.078 9.35924 646.078 8.71624C646.078 8.0732 646.254 7.44082 646.59 6.87888C646.928 6.32826 647.427 5.87773 648.028 5.57897C648.651 5.27264 649.346 5.11255 650.051 5.11255C650.756 5.11255 651.45 5.27264 652.074 5.57897C652.666 5.88195 653.157 6.33188 653.492 6.87888C653.831 7.44098 654.01 8.07517 654.01 8.72025C654.01 9.36532 653.831 9.99951 653.492 10.5616C653.149 11.1067 652.651 11.5529 652.054 11.8508C651.436 12.1637 650.743 12.3242 650.041 12.3172ZM648.637 10.0631C649.015 10.3985 649.517 10.5856 650.039 10.5856C650.561 10.5856 651.063 10.3985 651.441 10.0631C651.797 9.69215 651.993 9.21223 651.993 8.71486C651.993 8.21754 651.797 7.73761 651.441 7.3667C651.062 7.03309 650.56 6.84724 650.039 6.84724C649.518 6.84724 649.016 7.03309 648.637 7.3667C648.283 7.73841 648.088 8.21802 648.088 8.71486C648.088 9.21175 648.283 9.69135 648.637 10.0631Z" fill="white"/>
<path d="M653.862 14.5875V12.8909H654.498C655.217 12.8909 655.576 12.5559 655.576 11.8858V5.30575H657.555V12.0278C657.571 12.368 657.511 12.7074 657.378 13.0247C657.246 13.3419 657.044 13.63 656.786 13.8707C656.528 14.1115 656.218 14.2994 655.878 14.4229C655.538 14.5462 655.173 14.6023 654.808 14.5875H653.862ZM655.588 4.4025V2.68713H657.561V4.4025H655.588Z" fill="white"/>
<path d="M666.556 8.69088C666.556 8.87022 666.542 9.0493 666.516 9.22694H660.968C661.022 9.64016 661.234 10.0213 661.567 10.2991C661.903 10.5543 662.327 10.6868 662.76 10.6716C663.08 10.6766 663.396 10.6046 663.678 10.4626C663.943 10.3296 664.163 10.1287 664.31 9.88359H666.389C666.204 10.3841 665.904 10.8403 665.508 11.22C665.112 11.5997 664.632 11.8934 664.1 12.0802C663.569 12.267 663 12.3424 662.434 12.3009C661.868 12.2594 661.318 12.1021 660.825 11.8402C660.251 11.532 659.778 11.0834 659.459 10.5429C659.125 9.98236 658.954 9.35057 658.961 8.70966C658.958 8.06933 659.131 7.43893 659.464 6.87902C659.782 6.33891 660.254 5.89095 660.828 5.58445C661.418 5.27022 662.088 5.10832 662.769 5.1154C663.462 5.10477 664.144 5.27265 664.742 5.60053C665.311 5.90856 665.776 6.35764 666.088 6.8978C666.401 7.44977 666.563 8.06613 666.556 8.69088ZM662.769 6.68602C662.367 6.67572 661.975 6.7961 661.659 7.02646C661.342 7.26914 661.121 7.6028 661.029 7.97526H664.578C664.467 7.59827 664.231 7.26343 663.905 7.0184C663.577 6.79242 663.177 6.67545 662.769 6.68602Z" fill="white"/>
<path d="M671.367 12.3173C670.841 12.3246 670.319 12.2335 669.832 12.0493C669.37 11.8727 668.949 11.6132 668.595 11.2854C668.243 10.956 667.967 10.564 667.781 10.1329C667.585 9.68002 667.487 9.19534 667.493 8.70699C667.487 8.22125 667.585 7.73924 667.781 7.28915C667.967 6.86125 668.243 6.47284 668.595 6.14734C668.951 5.82376 669.372 5.56955 669.835 5.39956C670.326 5.21624 670.852 5.12516 671.382 5.13153C672.264 5.11204 673.127 5.38455 673.815 5.90076C674.49 6.41275 674.946 7.13365 675.1 7.93241H673.136C672.989 7.61032 672.741 7.33674 672.425 7.1471C672.11 6.95869 671.742 6.86082 671.367 6.86568C671.116 6.86093 670.866 6.90629 670.635 6.99871C670.404 7.09118 670.196 7.22858 670.027 7.40174C669.667 7.75941 669.474 8.2355 669.489 8.72577C669.474 9.22128 669.668 9.70259 670.03 10.0659C670.199 10.2394 670.405 10.3771 670.636 10.4695C670.867 10.562 671.116 10.6072 671.367 10.6019C671.745 10.6092 672.115 10.5051 672.425 10.3044C672.744 10.0916 672.99 9.79874 673.136 9.46017H675.126C674.982 10.2778 674.523 11.0185 673.835 11.5427C673.137 12.0658 672.262 12.3404 671.367 12.3173Z" fill="white"/>
<path d="M679.971 10.4866H680.871V12.127H679.468C679.119 12.1514 678.769 12.105 678.441 11.9909C678.114 11.8767 677.816 11.6976 677.57 11.4659C677.324 11.2343 677.134 10.9555 677.015 10.649C676.896 10.3424 676.85 10.0154 676.88 9.69059V6.78517H675.554V6.3912L678.447 3.52063H678.824V5.30569H680.837V6.78517H678.853V9.44401C678.836 9.58515 678.854 9.72794 678.905 9.86182C678.955 9.99571 679.038 10.1172 679.146 10.2174C679.254 10.3175 679.385 10.3937 679.528 10.4403C679.673 10.4869 679.825 10.5027 679.977 10.4866H679.971Z" fill="white"/>
<path d="M686.009 3.2822C686.602 3.2701 687.19 3.4012 687.714 3.66279C688.216 3.91613 688.633 4.29362 688.919 4.75366C689.214 5.22612 689.366 5.76431 689.359 6.31088C689.371 6.7161 689.292 7.11908 689.126 7.49399C688.961 7.86885 688.713 8.20721 688.398 8.4873C688.082 8.77294 687.708 8.99673 687.297 9.14539C686.887 9.29411 686.449 9.36465 686.009 9.35302H684.407V12.1271H682.356V3.2822H686.009ZM685.916 7.59207C686.097 7.59885 686.278 7.57067 686.447 7.50931C686.616 7.448 686.769 7.35477 686.897 7.23557C687.139 6.98552 687.273 6.66087 687.273 6.32428C687.273 5.98773 687.139 5.66308 686.897 5.41301C686.768 5.29387 686.614 5.20074 686.445 5.13941C686.276 5.07809 686.095 5.04987 685.914 5.05653H684.407V7.59207H685.916Z" fill="white"/>
<path d="M696.539 5.29237H698.023V12.1136H696.467L696.295 11.5052C695.64 12.0393 694.795 12.3261 693.925 12.3093C693.237 12.318 692.558 12.1571 691.958 11.8429C691.383 11.5377 690.909 11.0907 690.589 10.551C690.254 9.986 690.083 9.34968 690.091 8.70434C690.085 8.06604 690.256 7.43708 690.589 6.87909C690.91 6.33876 691.386 5.89235 691.963 5.58987C692.564 5.27568 693.242 5.11479 693.931 5.12351C694.817 5.10293 695.679 5.39707 696.34 5.94635L696.539 5.29237ZM692.657 10.0391C693.041 10.3806 693.552 10.5711 694.083 10.5711C694.614 10.5711 695.125 10.3806 695.51 10.0391C695.874 9.67566 696.077 9.19664 696.077 8.699C696.077 8.20136 695.874 7.72229 695.51 7.35885C695.125 7.01735 694.614 6.8269 694.083 6.8269C693.552 6.8269 693.041 7.01735 692.657 7.35885C692.29 7.72138 692.086 8.20078 692.086 8.699C692.086 9.19718 692.29 9.67657 692.657 10.0391Z" fill="white"/>
<path d="M703.663 5.27098H704.31V7.01045H703.447C702.892 7.01045 702.492 7.1311 702.254 7.37768C701.979 7.72521 701.851 8.15402 701.891 8.58378V12.1271H699.913V5.30582H701.178L701.529 6.14473C701.786 5.85258 702.113 5.62111 702.484 5.46926C702.854 5.3174 703.258 5.24946 703.663 5.27098Z" fill="white"/>
<path d="M709.064 10.4866H709.964V12.127H708.561C708.21 12.1535 707.858 12.1086 707.529 11.9953C707.2 11.8822 706.9 11.7033 706.653 11.4714C706.405 11.2395 706.214 10.96 706.094 10.6525C705.975 10.3449 705.928 10.0167 705.958 9.69059V6.78517H704.635V6.3912L707.528 3.52063H707.905V5.30569H709.918V6.78517H707.931V9.44401C707.914 9.58531 707.933 9.72815 707.984 9.86198C708.035 9.99586 708.118 10.1173 708.226 10.2174C708.334 10.3175 708.465 10.3936 708.609 10.4402C708.753 10.4868 708.906 10.5027 709.058 10.4866H709.064Z" fill="white"/>
<path d="M715.477 5.14488C715.847 5.12931 716.217 5.19073 716.559 5.32469C716.902 5.45865 717.208 5.66181 717.455 5.91946C717.972 6.50008 718.237 7.24035 718.197 7.99401V12.1269H716.219V8.28883C716.219 7.27034 715.793 6.76107 714.942 6.76107C714.716 6.75103 714.49 6.78871 714.282 6.87136C714.074 6.95396 713.889 7.07936 713.74 7.23816C713.428 7.60891 713.271 8.07299 713.299 8.54347V12.1269H711.321V5.3057H712.679L713.061 6.14998C713.35 5.83425 713.71 5.58242 714.116 5.41291C714.544 5.23323 715.008 5.1418 715.477 5.14488Z" fill="white"/>
<path d="M727.112 8.69091C727.112 8.87015 727.1 9.04923 727.074 9.22697H721.518C721.573 9.63982 721.785 10.0205 722.117 10.299C722.453 10.5545 722.879 10.6869 723.313 10.6716C723.633 10.676 723.949 10.604 724.231 10.4625C724.494 10.3287 724.713 10.128 724.86 9.88363H726.939C726.755 10.3841 726.454 10.8405 726.059 11.2203C725.664 11.6001 725.183 11.8939 724.652 12.0807C724.121 12.2676 723.552 12.3429 722.986 12.3013C722.42 12.2598 721.871 12.1023 721.378 11.8402C720.802 11.5329 720.329 11.0841 720.009 10.5429C719.676 9.98213 719.505 9.35039 719.514 8.70964C719.507 8.07028 719.677 7.43998 720.006 6.87906C720.322 6.33958 720.79 5.89093 721.36 5.58179C721.952 5.26722 722.623 5.10532 723.304 5.11274C723.998 5.10253 724.68 5.27037 725.277 5.59787C725.845 5.90683 726.309 6.35575 726.62 6.89512C726.944 7.44564 727.113 8.06329 727.112 8.69091ZM723.327 6.68605C722.925 6.67511 722.531 6.79549 722.215 7.02644C721.897 7.26859 721.677 7.60263 721.588 7.97524H725.133C725.025 7.59798 724.79 7.26283 724.464 7.01843C724.131 6.78994 723.726 6.67287 723.313 6.68605H723.327Z" fill="white"/>
<path d="M732.248 5.27089H732.895V7.01036H732.032C731.474 7.01036 731.077 7.13101 730.836 7.37759C730.594 7.62417 730.476 8.02351 730.476 8.58369V12.127H728.498V5.30573H729.76L730.111 6.14464C730.368 5.85212 730.695 5.62041 731.067 5.46854C731.439 5.31667 731.843 5.24893 732.248 5.27089Z" fill="white"/>
<path d="M736.564 12.3172C735.761 12.3532 734.971 12.116 734.341 11.6499C734.066 11.4335 733.847 11.162 733.701 10.8557C733.553 10.5495 733.482 10.2162 733.493 9.8809H735.417C735.412 10.0105 735.44 10.1393 735.499 10.2564C735.559 10.3735 735.648 10.4755 735.759 10.5537C736.018 10.7201 736.328 10.803 736.642 10.7895C736.902 10.7964 737.158 10.7341 737.381 10.6099C737.477 10.5578 737.555 10.4824 737.609 10.3917C737.662 10.3011 737.688 10.1986 737.683 10.0953C737.68 9.99797 737.644 9.90411 737.579 9.82727C737.494 9.73346 737.383 9.66233 737.258 9.62093C737.119 9.56634 736.975 9.52328 736.829 9.49227C736.688 9.4601 736.501 9.42525 736.271 9.39041L735.739 9.29121C735.598 9.26442 735.428 9.22424 735.227 9.17062C735.053 9.12708 734.883 9.06875 734.721 8.9964C734.568 8.91966 734.422 8.82996 734.287 8.72837C734.145 8.63125 734.022 8.51146 733.924 8.37459C733.825 8.22843 733.748 8.06952 733.697 7.90288C733.636 7.70411 733.607 7.49835 733.608 7.29174C733.601 6.98791 733.671 6.68674 733.812 6.41289C733.954 6.13905 734.163 5.90015 734.422 5.71579C735.036 5.28929 735.79 5.0743 736.556 5.10734C737.321 5.07199 738.075 5.29464 738.678 5.73452C738.939 5.93361 739.147 6.18563 739.287 6.47138C739.428 6.75707 739.495 7.06885 739.486 7.38288H737.608C737.614 7.26837 737.592 7.15407 737.542 7.04927C737.492 6.94452 737.416 6.85221 737.321 6.77985C737.081 6.63109 736.797 6.55953 736.51 6.57612C736.256 6.56246 736.003 6.62543 735.791 6.75568C735.709 6.80856 735.642 6.87964 735.597 6.96245C735.552 7.04527 735.53 7.13726 735.532 7.23011C735.53 7.29905 735.544 7.36762 735.572 7.43112C735.606 7.49483 735.659 7.54792 735.724 7.58389C735.799 7.62679 735.865 7.6643 735.932 7.69648C736.024 7.73613 736.12 7.7667 736.219 7.78762C736.349 7.8198 736.455 7.84119 736.536 7.85731L736.912 7.92161C737.437 7.99306 737.952 8.11707 738.448 8.2915C738.815 8.42645 739.127 8.66599 739.339 8.97596C739.551 9.28593 739.653 9.65049 739.63 10.0176C739.645 10.3404 739.576 10.6619 739.431 10.9552C739.286 11.2484 739.067 11.505 738.793 11.7035C738.149 12.142 737.361 12.359 736.564 12.3172Z" fill="white"/>
<path d="M623.437 6.36174C623.371 9.59416 620.423 12.1404 616.972 12.1404H616.541C616.43 12.1405 616.321 12.1615 616.219 12.202C616.117 12.2425 616.025 12.3018 615.949 12.3763L613.708 14.5901L612.158 16.1233C612.058 16.2218 611.931 16.2937 611.791 16.3312C611.651 16.3687 611.503 16.3706 611.362 16.3367C611.22 16.3028 611.092 16.2343 610.988 16.1383C610.885 16.0423 610.812 15.9224 610.775 15.7909L610.2 13.7513L609.754 12.1431L608.937 9.19481L608.385 7.198C608.354 7.08568 608.352 6.96834 608.377 6.8549C608.403 6.74145 608.455 6.63489 608.532 6.54338C608.608 6.45186 608.706 6.3778 608.817 6.32684C608.929 6.27583 609.052 6.24925 609.176 6.2492H610.758C610.939 6.24915 611.115 6.30523 611.258 6.40859C611.401 6.51195 611.503 6.65666 611.549 6.82005L612.204 9.19481L612.779 11.2184L614.585 9.43333C614.661 9.35804 614.753 9.298 614.855 9.25702C614.957 9.21599 615.067 9.19481 615.178 9.19481H617.128C617.562 9.19571 617.992 9.11338 618.39 8.95276C618.789 8.7922 619.148 8.55688 619.444 8.26142C619.741 7.96602 619.969 7.61683 620.115 7.23557C620.261 6.85431 620.321 6.44925 620.291 6.04547C620.22 5.28563 619.842 4.57926 619.234 4.06959C618.625 3.55992 617.831 3.28512 617.013 3.30089H607.939C607.758 3.30136 607.582 3.24546 607.439 3.14205C607.295 3.03864 607.193 2.89363 607.149 2.73L606.755 1.30141C606.723 1.18929 606.72 1.07199 606.745 0.958524C606.77 0.845061 606.823 0.738441 606.899 0.646841C606.975 0.555241 607.072 0.481095 607.184 0.430091C607.296 0.379087 607.418 0.352579 607.543 0.3526H617.113C617.954 0.354626 618.785 0.512271 619.56 0.816377C620.334 1.12048 621.036 1.56499 621.625 2.12407C622.214 2.68316 622.677 3.34568 622.989 4.07316C623.3 4.80063 623.454 5.57856 623.44 6.36174H623.437Z" fill="white"/>
</g>
<g clip-path="url(#clip5_524_68410)">
<path d="M787.055 3.28238C787.649 3.27028 788.236 3.40138 788.76 3.66298C789.262 3.91632 789.679 4.2938 789.965 4.75385C790.26 5.22631 790.412 5.76449 790.405 6.31107C790.417 6.71629 790.338 7.11926 790.172 7.49417C790.007 7.86903 789.759 8.20739 789.444 8.48748C789.128 8.77312 788.754 8.99691 788.343 9.14558C787.933 9.29429 787.495 9.36483 787.055 9.3532H785.453V12.1273H783.402V3.28238H787.055ZM786.963 7.59225C787.144 7.59903 787.324 7.57085 787.493 7.50949C787.662 7.44818 787.815 7.35496 787.943 7.23575C788.185 6.9857 788.319 6.66106 788.319 6.32446C788.319 5.98792 788.185 5.66326 787.943 5.41319C787.814 5.29405 787.66 5.20092 787.491 5.1396C787.322 5.07827 787.141 5.05006 786.96 5.05672H785.45V7.59225H786.963Z" fill="white"/>
<path d="M795.435 5.27117H796.085V7.01063H795.222C794.664 7.01063 794.267 7.13128 794.026 7.37786C793.784 7.62444 793.666 8.02379 793.666 8.58397V12.1273H791.688V5.30601H792.95L793.301 6.14491C793.557 5.85276 793.884 5.6213 794.255 5.46944C794.626 5.31758 795.03 5.24964 795.435 5.27117Z" fill="white"/>
<path d="M800.517 12.3174C799.814 12.3244 799.121 12.1638 798.504 11.851C797.904 11.5521 797.406 11.1028 797.066 10.5537C796.731 9.99179 796.555 9.35942 796.555 8.71643C796.555 8.07338 796.731 7.441 797.066 6.87907C797.405 6.32844 797.903 5.87792 798.504 5.57916C799.128 5.27282 799.822 5.11273 800.527 5.11273C801.232 5.11273 801.927 5.27282 802.55 5.57916C803.143 5.88213 803.633 6.33207 803.968 6.87907C804.308 7.44116 804.486 8.07535 804.486 8.72043C804.486 9.3655 804.308 9.99969 803.968 10.5617C803.626 11.1069 803.128 11.5531 802.53 11.851C801.913 12.1638 801.22 12.3244 800.517 12.3174ZM799.114 10.0632C799.492 10.3987 799.994 10.5857 800.516 10.5857C801.038 10.5857 801.54 10.3987 801.918 10.0632C802.273 9.69234 802.47 9.21241 802.47 8.71504C802.47 8.21772 802.273 7.7378 801.918 7.36689C801.539 7.03328 801.037 6.84742 800.516 6.84742C799.994 6.84742 799.493 7.03328 799.114 7.36689C798.76 7.7386 798.565 8.2182 798.565 8.71504C798.565 9.21193 798.76 9.69154 799.114 10.0632Z" fill="white"/>
<path d="M804.339 14.5877V12.8911H804.974C805.693 12.8911 806.053 12.5561 806.053 11.886V5.30593H808.031V12.028C808.047 12.3681 807.987 12.7076 807.855 13.0248C807.722 13.3421 807.521 13.6302 807.262 13.8709C807.004 14.1116 806.695 14.2996 806.355 14.423C806.014 14.5464 805.65 14.6025 805.285 14.5877H804.339ZM806.064 4.40269V2.68732H808.037V4.40269H806.064Z" fill="white"/>
<path d="M817.033 8.69106C817.032 8.8704 817.019 9.04948 816.992 9.22712H811.445C811.498 9.64034 811.711 10.0214 812.043 10.2992C812.379 10.5545 812.804 10.687 813.237 10.6717C813.557 10.6768 813.873 10.6048 814.154 10.4627C814.42 10.3298 814.639 10.1289 814.787 9.88377H816.866C816.681 10.3842 816.38 10.8405 815.984 11.2202C815.588 11.5998 815.108 11.8935 814.577 12.0804C814.045 12.2672 813.476 12.3426 812.91 12.3011C812.344 12.2596 811.795 12.1023 811.301 11.8403C810.727 11.5322 810.255 11.0836 809.935 10.5431C809.602 9.98254 809.43 9.35076 809.438 8.70984C809.434 8.06952 809.608 7.43912 809.941 6.8792C810.259 6.33909 810.731 5.89113 811.304 5.58463C811.895 5.2704 812.565 5.10851 813.245 5.11559C813.938 5.10495 814.621 5.27283 815.218 5.60071C815.787 5.90874 816.253 6.35782 816.564 6.89799C816.878 7.44995 817.039 8.06632 817.033 8.69106ZM813.245 6.6862C812.844 6.6759 812.452 6.79628 812.135 7.02664C811.819 7.26932 811.597 7.60299 811.505 7.97544H815.054C814.943 7.59845 814.708 7.26361 814.381 7.01858C814.053 6.7926 813.653 6.67563 813.245 6.6862Z" fill="white"/>
<path d="M821.844 12.3175C821.318 12.3248 820.795 12.2337 820.308 12.0495C819.846 11.8729 819.426 11.6133 819.072 11.2856C818.72 10.9562 818.443 10.5642 818.257 10.1331C818.062 9.6802 817.964 9.19553 817.97 8.70717C817.964 8.22143 818.062 7.73943 818.257 7.28933C818.443 6.86143 818.72 6.47302 819.072 6.14752C819.427 5.82394 819.849 5.56974 820.311 5.39974C820.803 5.21642 821.329 5.12534 821.858 5.13172C822.741 5.11222 823.603 5.38473 824.291 5.90094C824.967 6.41294 825.423 7.13384 825.577 7.93259H823.612C823.465 7.61051 823.218 7.33693 822.902 7.14728C822.586 6.95887 822.219 6.86101 821.844 6.86586C821.592 6.86111 821.343 6.90647 821.112 6.99889C820.88 7.09136 820.673 7.22877 820.503 7.40192C820.143 7.7596 819.95 8.23568 819.966 8.72595C819.95 9.22146 820.145 9.70277 820.506 10.0661C820.675 10.2396 820.882 10.3772 821.113 10.4697C821.343 10.5622 821.592 10.6074 821.844 10.6021C822.222 10.6094 822.592 10.5053 822.902 10.3046C823.22 10.0918 823.466 9.79893 823.612 9.46035H825.603C825.459 10.278 825 11.0186 824.311 11.5429C823.614 12.066 822.739 12.3406 821.844 12.3175Z" fill="white"/>
<path d="M830.448 10.4868H831.348V12.1272H829.945C829.595 12.1516 829.245 12.1052 828.918 11.991C828.59 11.8769 828.293 11.6978 828.047 11.4661C827.801 11.2344 827.611 10.9557 827.492 10.6492C827.373 10.3426 827.326 10.0156 827.356 9.69077V6.78535H826.03V6.39139L828.924 3.52081H829.301V5.30587H831.314V6.78535H829.329V9.44419C829.313 9.58533 829.33 9.72813 829.381 9.86201C829.432 9.99589 829.514 10.1174 829.622 10.2175C829.731 10.3177 829.861 10.3939 830.005 10.4405C830.149 10.4871 830.302 10.5029 830.454 10.4868H830.448Z" fill="white"/>
<path d="M836.485 3.28238C837.079 3.27028 837.666 3.40138 838.19 3.66298C838.692 3.91632 839.109 4.2938 839.395 4.75385C839.69 5.22631 839.843 5.76449 839.835 6.31107C839.847 6.71629 839.768 7.11926 839.603 7.49417C839.437 7.86903 839.189 8.20739 838.875 8.48748C838.559 8.77312 838.185 8.99691 837.774 9.14558C837.363 9.29429 836.926 9.36483 836.485 9.3532H834.883V12.1273H832.833V3.28238H836.485ZM836.393 7.59225C836.574 7.59903 836.754 7.57085 836.923 7.50949C837.092 7.44818 837.246 7.35496 837.374 7.23575C837.615 6.9857 837.749 6.66106 837.749 6.32446C837.749 5.98792 837.615 5.66326 837.374 5.41319C837.245 5.29405 837.091 5.20092 836.922 5.1396C836.753 5.07827 836.572 5.05006 836.39 5.05672H834.883V7.59225H836.393Z" fill="white"/>
<path d="M847.016 5.29255H848.5V12.1138H846.943L846.771 11.5054C846.116 12.0394 845.271 12.3263 844.401 12.3095C843.713 12.3182 843.035 12.1573 842.434 11.8431C841.859 11.5379 841.386 11.0909 841.065 10.5512C840.731 9.98619 840.559 9.34986 840.568 8.70452C840.561 8.06622 840.733 7.43726 841.065 6.87927C841.386 6.33894 841.862 5.89253 842.44 5.59006C843.04 5.27587 843.719 5.11498 844.407 5.12369C845.293 5.10312 846.155 5.39725 846.817 5.94653L847.016 5.29255ZM843.133 10.0393C843.517 10.3808 844.029 10.5713 844.559 10.5713C845.091 10.5713 845.601 10.3808 845.986 10.0393C846.351 9.67584 846.554 9.19683 846.554 8.69919C846.554 8.20155 846.351 7.72247 845.986 7.35904C845.601 7.01753 845.091 6.82709 844.559 6.82709C844.029 6.82709 843.517 7.01753 843.133 7.35904C842.767 7.72157 842.562 8.20096 842.562 8.69919C842.562 9.19736 842.767 9.67675 843.133 10.0393Z" fill="white"/>
<path d="M854.14 5.27117H854.787V7.01063H853.924C853.369 7.01063 852.969 7.13128 852.73 7.37786C852.456 7.7254 852.327 8.1542 852.368 8.58397V12.1273H850.39V5.30601H851.655L852.006 6.14491C852.262 5.85276 852.589 5.6213 852.96 5.46944C853.331 5.31758 853.735 5.24964 854.14 5.27117Z" fill="white"/>
<path d="M859.54 10.4868H860.441V12.1272H859.037C858.687 12.1537 858.335 12.1087 858.006 11.9955C857.676 11.8823 857.377 11.7035 857.13 11.4716C856.882 11.2397 856.691 10.9602 856.571 10.6526C856.451 10.3451 856.404 10.0169 856.434 9.69077V6.78535H855.111V6.39139L858.004 3.52081H858.381V5.30587H860.394V6.78535H858.407V9.44419C858.391 9.58549 858.409 9.72834 858.461 9.86217C858.512 9.99605 858.594 10.1175 858.702 10.2175C858.81 10.3177 858.942 10.3938 859.086 10.4404C859.23 10.487 859.383 10.5029 859.535 10.4868H859.54Z" fill="white"/>
<path d="M865.953 5.14507C866.324 5.1295 866.694 5.19091 867.036 5.32488C867.378 5.45884 867.684 5.662 867.932 5.91965C868.449 6.50026 868.714 7.24053 868.674 7.9942V12.1271H866.695V8.28901C866.695 7.27052 866.269 6.76125 865.419 6.76125C865.192 6.75122 864.967 6.78889 864.758 6.87154C864.551 6.95415 864.365 7.07954 864.216 7.23834C863.904 7.60909 863.748 8.07317 863.776 8.54365V12.1271H861.798V5.30588H863.155L863.538 6.15016C863.826 5.83443 864.186 5.58261 864.593 5.41309C865.02 5.23342 865.484 5.14199 865.953 5.14507Z" fill="white"/>
<path d="M877.589 8.6911C877.589 8.87033 877.576 9.04941 877.551 9.22715H871.995C872.049 9.64001 872.262 10.0207 872.593 10.2992C872.93 10.5547 873.355 10.6871 873.789 10.6718C874.109 10.6762 874.425 10.6042 874.707 10.4627C874.971 10.3289 875.19 10.1282 875.337 9.88381H877.416C877.231 10.3843 876.931 10.8407 876.536 11.2204C876.14 11.6003 875.66 11.8941 875.128 12.0809C874.597 12.2677 874.029 12.3431 873.462 12.3015C872.897 12.26 872.347 12.1025 871.854 11.8404C871.279 11.5331 870.805 11.0843 870.485 10.5431C870.153 9.98231 869.982 9.35058 869.991 8.70982C869.984 8.07046 870.153 7.44017 870.482 6.87924C870.798 6.33977 871.267 5.89111 871.837 5.58197C872.428 5.2674 873.099 5.1055 873.781 5.11293C874.474 5.10271 875.157 5.27055 875.754 5.59805C876.321 5.90701 876.786 6.35593 877.097 6.8953C877.42 7.44582 877.589 8.06347 877.589 8.6911ZM873.804 6.68624C873.402 6.6753 873.008 6.79568 872.691 7.02662C872.374 7.26877 872.154 7.60281 872.064 7.97542H875.61C875.501 7.59817 875.266 7.26301 874.94 7.01862C874.607 6.79013 874.202 6.67306 873.789 6.68624H873.804Z" fill="white"/>
<path d="M882.725 5.27107H883.372V7.01054H882.509C881.951 7.01054 881.554 7.13119 881.312 7.37777C881.071 7.62435 880.953 8.0237 880.953 8.58388V12.1272H878.975V5.30591H880.237L880.588 6.14482C880.845 5.8523 881.172 5.62059 881.544 5.46872C881.915 5.31685 882.319 5.24911 882.725 5.27107Z" fill="white"/>
<path d="M887.041 12.3174C886.238 12.3534 885.448 12.1162 884.818 11.65C884.543 11.4337 884.324 11.1622 884.177 10.8559C884.03 10.5496 883.959 10.2164 883.97 9.88108H885.894C885.888 10.0106 885.916 10.1395 885.976 10.2566C886.036 10.3737 886.125 10.4757 886.236 10.5539C886.495 10.7203 886.804 10.8032 887.119 10.7897C887.378 10.7965 887.635 10.7343 887.858 10.6101C887.954 10.558 888.032 10.4826 888.085 10.3919C888.138 10.3012 888.164 10.1987 888.16 10.0955C888.157 9.99815 888.12 9.90429 888.056 9.82745C887.97 9.73365 887.859 9.66252 887.734 9.62111C887.596 9.56652 887.452 9.52346 887.305 9.49246C887.165 9.46028 886.978 9.42544 886.748 9.39059L886.215 9.29139C886.074 9.26461 885.905 9.22443 885.703 9.1708C885.529 9.12726 885.36 9.06894 885.197 8.99658C885.044 8.91985 884.899 8.83015 884.763 8.72855C884.621 8.63143 884.498 8.51164 884.401 8.37477C884.301 8.22861 884.225 8.06971 884.174 7.90306C884.113 7.70429 884.083 7.49854 884.084 7.29192C884.077 6.98809 884.147 6.68692 884.289 6.41308C884.43 6.13923 884.639 5.90034 884.898 5.71598C885.513 5.28947 886.267 5.07448 887.032 5.10753C887.798 5.07218 888.551 5.29482 889.155 5.73471C889.415 5.93379 889.624 6.18582 889.764 6.47156C889.904 6.75725 889.972 7.06904 889.963 7.38306H888.085C888.091 7.26855 888.069 7.15425 888.018 7.04945C887.968 6.94471 887.893 6.85239 887.797 6.78004C887.558 6.63127 887.273 6.55971 886.987 6.57631C886.732 6.56265 886.48 6.62561 886.267 6.75586C886.186 6.80875 886.119 6.87982 886.074 6.96264C886.029 7.04545 886.006 7.13745 886.009 7.23029C886.006 7.29923 886.02 7.3678 886.049 7.4313C886.082 7.49501 886.136 7.54811 886.201 7.58407C886.276 7.62697 886.342 7.66449 886.408 7.69666C886.5 7.73631 886.597 7.76689 886.696 7.7878C886.825 7.81998 886.932 7.84138 887.012 7.85749L887.389 7.92179C887.913 7.99324 888.429 8.11725 888.925 8.29169C889.292 8.42664 889.604 8.66617 889.816 8.97614C890.028 9.28611 890.13 9.65067 890.106 10.0178C890.121 10.3406 890.053 10.6621 889.908 10.9553C889.762 11.2486 889.543 11.5052 889.27 11.7037C888.625 12.1422 887.838 12.3591 887.041 12.3174Z" fill="white"/>
<path d="M773.914 6.36192C773.848 9.59434 770.9 12.1406 767.449 12.1406H767.018C766.907 12.1407 766.797 12.1617 766.695 12.2022C766.594 12.2427 766.502 12.302 766.425 12.3764L764.185 14.5903L762.635 16.1235C762.534 16.222 762.408 16.2939 762.268 16.3314C762.128 16.3689 761.979 16.3708 761.838 16.3369C761.697 16.303 761.568 16.2345 761.465 16.1385C761.362 16.0425 761.288 15.9226 761.252 15.7911L760.676 13.7514L760.231 12.1433L759.414 9.19499L758.862 7.19819C758.831 7.08586 758.828 6.96852 758.854 6.85508C758.879 6.74163 758.932 6.63507 759.008 6.54356C759.085 6.45205 759.182 6.37798 759.294 6.32702C759.406 6.27601 759.528 6.24944 759.653 6.24938H761.234C761.415 6.24933 761.591 6.30541 761.734 6.40877C761.878 6.51213 761.98 6.65684 762.025 6.82023L762.681 9.19499L763.256 11.2186L765.062 9.43351C765.138 9.35822 765.23 9.29819 765.332 9.25721C765.434 9.21617 765.543 9.19499 765.654 9.19499H767.604C768.038 9.1959 768.468 9.11356 768.867 8.95294C769.265 8.79238 769.624 8.55706 769.921 8.26161C770.218 7.9662 770.446 7.61701 770.592 7.23575C770.737 6.85449 770.797 6.44943 770.768 6.04565C770.697 5.28582 770.319 4.57944 769.71 4.06977C769.101 3.56011 768.307 3.2853 767.489 3.30107H758.416C758.235 3.30155 758.059 3.24565 757.915 3.14223C757.772 3.03882 757.67 2.89381 757.625 2.73018L757.231 1.3016C757.2 1.18947 757.197 1.07217 757.222 0.958707C757.247 0.845244 757.299 0.738624 757.375 0.647024C757.451 0.555424 757.549 0.481278 757.661 0.430274C757.772 0.37927 757.895 0.352762 758.019 0.352783H767.59C768.43 0.354809 769.262 0.512454 770.036 0.81656C770.811 1.12067 771.513 1.56517 772.102 2.12426C772.69 2.68334 773.154 3.34586 773.465 4.07334C773.777 4.80082 773.93 5.57874 773.917 6.36192H773.914Z" fill="white"/>
</g>
<defs>
<clipPath id="clip0_524_68410">
<rect width="133.401" height="16.0081" fill="white" transform="translate(4.82275 0.352844)"/>
</clipPath>
<clipPath id="clip1_524_68410">
<rect width="133.401" height="16.0081" fill="white" transform="translate(155.299 0.352844)"/>
</clipPath>
<clipPath id="clip2_524_68410">
<rect width="133.401" height="16.0081" fill="white" transform="translate(305.776 0.352844)"/>
</clipPath>
<clipPath id="clip3_524_68410">
<rect width="133.401" height="16.0081" fill="white" transform="translate(456.253 0.352844)"/>
</clipPath>
<clipPath id="clip4_524_68410">
<rect width="133.401" height="16.0081" fill="white" transform="translate(606.729 0.352844)"/>
</clipPath>
<clipPath id="clip5_524_68410">
<rect width="133.401" height="16.0081" fill="white" transform="translate(757.206 0.352844)"/>
</clipPath>
</defs>
</svg>
