<svg width="1600" height="910" viewBox="0 0 1600 910" fill="none" xmlns="http://www.w3.org/2000/svg">
<path d="M1724.32 134.5C1534.32 164 1620 335 1427 400.5C1234 466 1273.32 588.5 1101.32 600.5C929.324 612.5 979.824 538 828.324 541C688.26 543.774 482.381 605.524 431.158 488M-23.6758 1C-41.6758 111 44.3242 340.571 254.824 288.5C349.824 265 403.3 343.303 421.824 455.5C423.824 467.615 426.976 478.405 431.158 488M431.158 488C418.105 487 367.5 483 326 500C291.562 514.107 233 549.5 215 684C194.907 834.138 134 961 -61 875.5" stroke="#FED45C" stroke-width="12"/>
</svg>
