<svg width="29" height="24" viewBox="0 0 29 24" fill="none" xmlns="http://www.w3.org/2000/svg">
<path d="M20.3333 15.6667C20.3333 16.8159 19.8768 17.9181 19.0641 18.7308C18.2515 19.5435 17.1493 20 16 20H15.3613C16.0044 18.7653 16.3392 17.3934 16.3373 16.0013C16.3373 13.308 15.412 11.1493 13.1827 9.312C11.6293 8.032 10.2147 7.51733 8.408 7.36533C7.17938 7.25835 5.94208 7.41563 4.7793 7.82661C3.61652 8.23758 2.55519 8.89273 1.66667 9.748V4.332C1.66702 3.18296 2.12372 2.0811 2.93634 1.26873C3.74896 0.456363 4.85096 -5.43924e-08 6 0H16C17.1493 0 18.2515 0.456546 19.0641 1.2692C19.8768 2.08186 20.3333 3.18406 20.3333 4.33333V15.6667ZM28.016 1.85733C28.221 2.09854 28.3335 2.4048 28.3333 2.72133V17.2787C28.3334 17.5333 28.2606 17.7826 28.1235 17.9972C27.9864 18.2117 27.7907 18.3825 27.5596 18.4894C27.3285 18.5962 27.0716 18.6347 26.8193 18.6002C26.5671 18.5657 26.3299 18.4597 26.136 18.2947L21.6667 14.4933V5.504L26.136 1.70533C26.2694 1.59183 26.4239 1.50572 26.5906 1.45192C26.7572 1.39813 26.9329 1.37771 27.1075 1.39182C27.2821 1.40594 27.4522 1.45431 27.6081 1.53419C27.7639 1.61406 27.9026 1.72387 28.016 1.85733ZM12.3333 10.3413C11.0211 9.25607 9.37084 8.66367 7.668 8.66667C6.39106 8.66636 5.13617 8.99944 4.02746 9.63294C2.91875 10.2664 1.99463 11.1784 1.34653 12.2787C0.698424 13.3789 0.34879 14.6293 0.332211 15.9061C0.315632 17.1829 0.632683 18.442 1.252 19.5587L0.364001 22.4733C0.328467 22.589 0.325097 22.7122 0.354254 22.8297C0.38341 22.9471 0.443993 23.0544 0.529504 23.1401C0.615015 23.2257 0.722228 23.2865 0.839644 23.3158C0.957061 23.3452 1.08025 23.342 1.196 23.3067L4.112 22.4187C5.71221 23.3089 7.58757 23.5684 9.3694 23.1461C11.1512 22.7238 12.7107 21.6503 13.7411 20.1365C14.7716 18.6228 15.1985 16.7783 14.938 14.9658C14.6775 13.1532 13.7484 11.5036 12.3333 10.3413ZM5 15.3333C4.82319 15.3333 4.65362 15.2631 4.5286 15.1381C4.40357 15.013 4.33333 14.8435 4.33333 14.6667C4.33333 14.4899 4.40357 14.3203 4.5286 14.1953C4.65362 14.0702 4.82319 14 5 14H10.336C10.5128 14 10.6824 14.0702 10.8074 14.1953C10.9324 14.3203 11.0027 14.4899 11.0027 14.6667C11.0027 14.8435 10.9324 15.013 10.8074 15.1381C10.6824 15.2631 10.5128 15.3333 10.336 15.3333H5ZM7.668 18H5.00133C4.82452 18 4.65495 17.9298 4.52993 17.8047C4.40491 17.6797 4.33467 17.5101 4.33467 17.3333C4.33467 17.1565 4.40491 16.987 4.52993 16.8619C4.65495 16.7369 4.82452 16.6667 5.00133 16.6667H7.668C7.84481 16.6667 8.01438 16.7369 8.13941 16.8619C8.26443 16.987 8.33467 17.1565 8.33467 17.3333C8.33467 17.5101 8.26443 17.6797 8.13941 17.8047C8.01438 17.9298 7.84481 18 7.668 18Z" fill="white"/>
</svg>
