<svg width="26" height="26" viewBox="0 0 26 26" fill="none" xmlns="http://www.w3.org/2000/svg">
<path d="M13 3.74713e-08C10.7423 -0.000171361 8.52339 0.587659 6.56186 1.70562C4.60033 2.82357 2.96378 4.43311 1.81333 6.37575C0.662881 8.3184 0.0382004 10.5272 0.000793053 12.7846C-0.0366143 15.042 0.514542 17.2703 1.6 19.25L0.537495 22.9875C0.437568 23.3314 0.431224 23.6958 0.519118 24.0429C0.607012 24.3901 0.785961 24.7076 1.0375 24.9625C1.28901 25.2152 1.60426 25.3952 1.94978 25.4832C2.2953 25.5712 2.65821 25.5641 3 25.4625L6.75 24.4C8.48785 25.3525 10.4205 25.8951 12.4001 25.9862C14.3798 26.0774 16.3541 25.7148 18.1722 24.926C19.9902 24.1373 21.6039 22.9433 22.8898 21.4354C24.1757 19.9275 25.0999 18.1456 25.5916 16.2258C26.0834 14.306 26.1297 12.2992 25.7271 10.3588C25.3244 8.41832 24.4835 6.59563 23.2685 5.02999C22.0535 3.46435 20.4967 2.19721 18.7169 1.32542C16.9372 0.453631 14.9818 0.00027451 13 3.74713e-08ZM17 16H9C8.73478 16 8.48042 15.8946 8.29289 15.7071C8.10535 15.5196 8 15.2652 8 15C8 14.7348 8.10535 14.4804 8.29289 14.2929C8.48042 14.1054 8.73478 14 9 14H17C17.2652 14 17.5196 14.1054 17.7071 14.2929C17.8946 14.4804 18 14.7348 18 15C18 15.2652 17.8946 15.5196 17.7071 15.7071C17.5196 15.8946 17.2652 16 17 16ZM17 12H9C8.73478 12 8.48042 11.8946 8.29289 11.7071C8.10535 11.5196 8 11.2652 8 11C8 10.7348 8.10535 10.4804 8.29289 10.2929C8.48042 10.1054 8.73478 10 9 10H17C17.2652 10 17.5196 10.1054 17.7071 10.2929C17.8946 10.4804 18 10.7348 18 11C18 11.2652 17.8946 11.5196 17.7071 11.7071C17.5196 11.8946 17.2652 12 17 12Z" fill="white"/>
</svg>
