<svg width="22" height="28" viewBox="0 0 22 28" fill="none" xmlns="http://www.w3.org/2000/svg">
<path d="M17.6667 0.666992H4.33334C3.27248 0.666992 2.25506 1.08842 1.50492 1.83857C0.754771 2.58871 0.333344 3.60613 0.333344 4.66699V23.3337C0.333344 24.3945 0.754771 25.4119 1.50492 26.1621C2.25506 26.9122 3.27248 27.3337 4.33334 27.3337H17.6667C18.7275 27.3337 19.745 26.9122 20.4951 26.1621C21.2453 25.4119 21.6667 24.3945 21.6667 23.3337V4.66699C21.6667 3.60613 21.2453 2.58871 20.4951 1.83857C19.745 1.08842 18.7275 0.666992 17.6667 0.666992ZM11 22.0003C10.6044 22.0003 10.2178 21.883 9.88887 21.6633C9.55997 21.4435 9.30363 21.1311 9.15225 20.7657C9.00088 20.4002 8.96127 19.9981 9.03844 19.6101C9.11561 19.2222 9.30609 18.8658 9.5858 18.5861C9.8655 18.3064 10.2219 18.1159 10.6098 18.0388C10.9978 17.9616 11.3999 18.0012 11.7654 18.1526C12.1308 18.3039 12.4432 18.5603 12.663 18.8892C12.8827 19.2181 13 19.6048 13 20.0003C13 20.5308 12.7893 21.0395 12.4142 21.4145C12.0392 21.7896 11.5304 22.0003 11 22.0003ZM14.3333 8.66699H7.66668C7.31306 8.66699 6.97392 8.52652 6.72387 8.27647C6.47382 8.02642 6.33334 7.68728 6.33334 7.33366C6.33334 6.98004 6.47382 6.6409 6.72387 6.39085C6.97392 6.1408 7.31306 6.00033 7.66668 6.00033H14.3333C14.687 6.00033 15.0261 6.1408 15.2762 6.39085C15.5262 6.6409 15.6667 6.98004 15.6667 7.33366C15.6667 7.68728 15.5262 8.02642 15.2762 8.27647C15.0261 8.52652 14.687 8.66699 14.3333 8.66699Z" fill="white"/>
</svg>
