<svg width="28" height="24" viewBox="0 0 28 24" fill="none" xmlns="http://www.w3.org/2000/svg">
<path d="M0.666666 9.99973C0.667147 7.84088 1.36625 5.74015 2.6595 4.01152C3.95275 2.28289 5.77068 1.01919 7.84159 0.409302C9.91251 -0.200589 12.1252 -0.123923 14.1489 0.627844C16.1726 1.37961 17.8988 2.7661 19.0693 4.5801C20.2398 6.39409 20.7918 8.53817 20.6428 10.6919C20.4939 12.8456 19.652 14.8933 18.2429 16.5289C16.8338 18.1645 14.9333 19.3001 12.8254 19.7662C10.7174 20.2322 8.51524 20.0036 6.548 19.1144C4.87067 19.5011 3.064 19.8344 2.23333 19.9837C2.02105 20.0217 1.80272 20.0073 1.59721 19.942C1.39171 19.8766 1.20522 19.7622 1.05385 19.6086C0.902483 19.455 0.790799 19.2668 0.72845 19.0604C0.666102 18.854 0.654964 18.6354 0.696 18.4237C0.853333 17.6104 1.20267 15.8664 1.604 14.2331C0.984638 12.9079 0.66462 11.4625 0.666666 9.99973ZM8.85867 4.40906C8.26933 4.72373 7.80533 5.21306 7.45467 5.8624C7.33989 6.09437 7.31952 6.3618 7.39784 6.60847C7.47616 6.85515 7.64707 7.06185 7.87463 7.18513C8.10219 7.30841 8.36869 7.33866 8.6181 7.26952C8.8675 7.20038 9.08039 7.03724 9.212 6.8144C9.408 6.4544 9.60933 6.27573 9.80133 6.1744C10.0013 6.0664 10.2733 6.00106 10.6667 6.00106C10.9653 6.00106 11.316 6.1064 11.5733 6.3184C11.8013 6.50506 12 6.80373 12 7.33306C12 7.59306 11.9 7.71306 11.216 8.2504C10.616 8.7224 9.66667 9.48773 9.66667 10.9997C9.66667 11.2649 9.77202 11.5193 9.95956 11.7068C10.1471 11.8944 10.4015 11.9997 10.6667 11.9997C10.9319 11.9997 11.1862 11.8944 11.3738 11.7068C11.5613 11.5193 11.6667 11.2649 11.6667 10.9997C11.6667 10.5064 11.8853 10.2677 12.4507 9.8224L12.564 9.73573C13.08 9.3384 14 8.63306 14 7.33306C14 6.2024 13.532 5.33573 12.8427 4.7704C12.2258 4.27427 11.4583 4.00294 10.6667 4.00106C10.06 4.00106 9.43733 4.09973 8.85867 4.40906ZM12 14.6664C12 14.3128 11.8595 13.9736 11.6095 13.7236C11.3594 13.4735 11.0203 13.3331 10.6667 13.3331C10.313 13.3331 9.97391 13.4735 9.72386 13.7236C9.47381 13.9736 9.33333 14.3128 9.33333 14.6664C9.33333 15.02 9.47381 15.3592 9.72386 15.6092C9.97391 15.8593 10.313 15.9997 10.6667 15.9997C11.0203 15.9997 11.3594 15.8593 11.6095 15.6092C11.8595 15.3592 12 15.02 12 14.6664ZM10.5333 21.3331C12.3808 23.0505 14.8109 24.0035 17.3333 23.9997C18.7536 24.0017 20.1579 23.6998 21.452 23.1144C23.132 23.5011 24.9467 23.8344 25.7827 23.9811C25.9953 24.0186 26.2139 24.0037 26.4195 23.9377C26.6251 23.8717 26.8115 23.7565 26.9626 23.6022C27.1136 23.4478 27.2247 23.259 27.2863 23.052C27.3479 22.8451 27.3581 22.6262 27.316 22.4144C27.0394 21.0142 26.7327 19.6201 26.396 18.2331C26.9889 16.9637 27.3085 15.5839 27.3342 14.1832C27.3599 12.7824 27.0911 11.3919 26.5452 10.1016C25.9993 8.81136 25.1885 7.65014 24.1653 6.69317C23.142 5.7362 21.9292 5.00482 20.6053 4.5464C21.5584 6.28237 22.0399 8.23778 22.002 10.2178C21.964 12.1978 21.4079 14.1333 20.389 15.8315C19.3701 17.5297 17.924 18.9312 16.1948 19.8965C14.4655 20.8618 12.5136 21.3571 10.5333 21.3331Z" fill="white"/>
</svg>
