<svg width="46" height="69" viewBox="0 0 46 69" fill="none" xmlns="http://www.w3.org/2000/svg">
<path d="M34.8364 6.9923C34.8364 8.29838 34.3761 10.1141 32.5348 10.1141C30.3126 10.1141 30.3126 7.61348 30.3126 7.08787C30.3126 6.56225 30.3126 3.88638 32.5983 3.88638C34.6777 3.88638 34.8364 6.19591 34.8364 6.9923ZM30.3285 0H28.8364V9.63631L28.8047 11.0698H30.2491L30.2809 9.8593C30.4769 10.1846 30.7426 10.462 31.0587 10.6716C31.587 11.0163 32.2064 11.1938 32.8364 11.1813C33.3795 11.1936 33.9177 11.0758 34.4064 10.8375C34.895 10.5993 35.3199 10.2476 35.646 9.81152C36.0428 9.2859 36.4079 8.44173 36.4079 6.88081C36.4079 5.12875 35.8682 4.33236 35.4714 3.87045C34.7412 3.04221 33.7412 2.85107 32.9317 2.85107C31.1221 2.85107 30.5348 3.85453 30.3285 4.22086V0Z" fill="#1E1E1E"/>
<path d="M38.9952 7.31081C38.9952 6.59406 38.9952 4.04561 41.3762 4.04561C43.1381 4.04561 43.5667 5.54282 43.5667 6.99225C43.5667 7.56565 43.4873 8.71245 42.9159 9.49291C42.4079 10.1938 41.6143 10.2734 41.2333 10.2734C39.1381 10.2894 38.9952 8.29833 38.9952 7.31081ZM37.5508 14.1757H39.027V10.1938C39.4556 10.8946 40.3127 11.3884 41.4714 11.3884C43.3762 11.3884 45.1063 10.0823 45.1063 7.08782C45.1063 4.09339 43.4714 2.93066 41.7571 2.93066C41.1064 2.93066 39.7889 3.1218 39.027 4.38009L38.9952 3.05809H37.4873C37.5191 3.82262 37.5349 4.01375 37.5349 4.36417V14.1757H37.5508Z" fill="#1E1E1E"/>
<path fill-rule="evenodd" clip-rule="evenodd" d="M25.6936 19.7028C24.8608 17.7615 23.8344 15.9098 22.6301 14.1758C21.4331 15.9143 20.4071 17.7653 19.5667 19.7028C20.756 20.967 21.785 22.374 22.6301 23.8918C23.4673 22.3689 24.497 20.9609 25.6936 19.7028Z" fill="#1E1E1E"/>
<path fill-rule="evenodd" clip-rule="evenodd" d="M19.5825 54.473C20.4154 56.4142 21.4417 58.2659 22.646 59.9999C23.1857 59.1717 24.5825 57.1329 25.7095 54.473C24.525 53.2046 23.4965 51.7982 22.646 50.2839C21.7955 51.7982 20.767 53.2046 19.5825 54.473Z" fill="#1E1E1E"/>
<path fill-rule="evenodd" clip-rule="evenodd" d="M19.5825 19.7026C18.1295 18.1691 16.5351 16.7771 14.8206 15.5454C14.2869 17.5888 13.9573 19.6803 13.8364 21.7891C15.3835 22.5681 16.8283 23.5365 18.138 24.6721C18.4087 22.9611 18.894 21.2913 19.5825 19.7026Z" fill="#1E1E1E"/>
<path fill-rule="evenodd" clip-rule="evenodd" d="M25.6936 54.4732C27.1428 56.0105 28.7376 57.4028 30.4555 58.6303C30.9877 56.5867 31.3173 54.4953 31.4396 52.3866C29.896 51.6018 28.4518 50.6339 27.138 49.5037C26.8578 51.2125 26.3728 52.8811 25.6936 54.4732Z" fill="#1E1E1E"/>
<path fill-rule="evenodd" clip-rule="evenodd" d="M13.8365 21.7893C11.9537 20.8401 9.98089 20.0824 7.94763 19.5276C8.14611 21.6328 8.55016 23.7134 9.15398 25.7394C10.8702 25.9376 12.5552 26.3495 14.1699 26.9659C13.8502 25.2603 13.7383 23.522 13.8365 21.7893Z" fill="#1E1E1E"/>
<path fill-rule="evenodd" clip-rule="evenodd" d="M31.4238 52.3866C33.3066 53.3358 35.2794 54.0935 37.3127 54.6484C37.1142 52.5431 36.7101 50.4625 36.1063 48.4365C34.3895 48.2326 32.7046 47.8152 31.0905 47.1941C31.4254 48.9032 31.5374 50.6486 31.4238 52.3866Z" fill="#1E1E1E"/>
<path fill-rule="evenodd" clip-rule="evenodd" d="M11.2332 30.4858C10.3497 28.9947 9.65138 27.4007 9.15388 25.7393C7.06218 25.4934 4.95134 25.456 2.85229 25.6278C3.75978 27.531 4.84394 29.3442 6.0904 31.0433C7.77455 30.6415 9.50243 30.4542 11.2332 30.4858Z" fill="#1E1E1E"/>
<path fill-rule="evenodd" clip-rule="evenodd" d="M34.027 43.6899C34.9171 45.1777 35.6157 46.7725 36.1063 48.4364C38.198 48.6824 40.3089 48.7197 42.4079 48.5479C41.497 46.6382 40.4075 44.8196 39.154 43.1165C37.4762 43.5257 35.7533 43.7183 34.027 43.6899Z" fill="#1E1E1E"/>
<path fill-rule="evenodd" clip-rule="evenodd" d="M6.09044 31.0432C4.04583 31.537 2.05271 32.225 0.138062 33.0979C1.64089 34.5811 3.2835 35.9147 5.04282 37.0798C6.48612 36.1238 8.04325 35.3532 9.67774 34.7862C8.33531 33.6889 7.13072 32.432 6.09044 31.0432Z" fill="#1E1E1E"/>
<path fill-rule="evenodd" clip-rule="evenodd" d="M40.2333 37.0798C38.79 38.0359 37.2329 38.8064 35.5984 39.3734C36.9399 40.4666 38.1397 41.7241 39.1698 43.1164C41.216 42.6282 43.2097 41.94 45.1222 41.0618C43.6296 39.5735 41.9918 38.2394 40.2333 37.0798Z" fill="#1E1E1E"/>
<path fill-rule="evenodd" clip-rule="evenodd" d="M9.67774 39.3734C8.04325 38.8064 6.48612 38.0359 5.04282 37.0798C3.2835 38.2449 1.64089 39.5785 0.138062 41.0618C2.0498 41.942 4.04364 42.6302 6.09044 43.1164C7.1349 41.7311 8.33903 40.4747 9.67774 39.3734Z" fill="#1E1E1E"/>
<path fill-rule="evenodd" clip-rule="evenodd" d="M35.5984 34.7862C37.2315 35.3565 38.7883 36.1268 40.2333 37.0798C41.9926 35.9147 43.6352 34.5811 45.1381 33.0979C43.2263 32.2176 41.2325 31.5294 39.1857 31.0432C38.1454 32.432 36.9408 33.6889 35.5984 34.7862Z" fill="#1E1E1E"/>
<path fill-rule="evenodd" clip-rule="evenodd" d="M6.0904 43.1326C4.83069 44.8284 3.74575 46.6482 2.85229 48.5639C4.9516 48.7273 7.06163 48.69 9.15388 48.4524C9.65138 46.7911 10.3497 45.197 11.2332 43.706C9.50255 43.7167 7.77655 43.5242 6.0904 43.1326Z" fill="#1E1E1E"/>
<path fill-rule="evenodd" clip-rule="evenodd" d="M39.1698 31.0434C40.4268 29.3426 41.5165 27.5237 42.4238 25.612C40.3245 25.4486 38.2145 25.486 36.1222 25.7235C35.6247 27.3849 34.9264 28.9789 34.0428 30.47C35.7687 30.4513 37.4904 30.6439 39.1698 31.0434Z" fill="#1E1E1E"/>
<path fill-rule="evenodd" clip-rule="evenodd" d="M14.1699 47.1941C12.5534 47.8078 10.8694 48.2249 9.15398 48.4365C8.55016 50.4625 8.14611 52.5431 7.94763 54.6484C9.98089 54.0935 11.9537 53.3358 13.8365 52.3866C13.7388 50.6486 13.8507 48.9052 14.1699 47.1941Z" fill="#1E1E1E"/>
<path fill-rule="evenodd" clip-rule="evenodd" d="M31.0905 26.9659C32.7051 26.3495 34.3901 25.9376 36.1063 25.7394C36.7101 23.7134 37.1142 21.6328 37.3127 19.5276C35.2794 20.0824 33.3066 20.8401 31.4238 21.7893C31.5374 23.522 31.4254 25.2622 31.0905 26.9659Z" fill="#1E1E1E"/>
<path fill-rule="evenodd" clip-rule="evenodd" d="M13.8364 52.3866C13.9573 54.4954 14.2869 56.587 14.8206 58.6303C16.5391 57.4037 18.134 56.0113 19.5825 54.4732C18.894 52.8789 18.4087 51.2039 18.138 49.4878C16.8286 50.6281 15.3838 51.6017 13.8364 52.3866Z" fill="#1E1E1E"/>
<path fill-rule="evenodd" clip-rule="evenodd" d="M31.4238 21.7891C31.3029 19.6803 30.9732 17.5888 30.4396 15.5454C28.7211 16.7721 27.1262 18.1644 25.6777 19.7026C26.3569 21.2947 26.8419 22.9632 27.1222 24.6721C28.4386 23.5453 29.8823 22.5777 31.4238 21.7891Z" fill="#1E1E1E"/>
<path fill-rule="evenodd" clip-rule="evenodd" d="M21.0587 28.1763C21.3518 26.6682 21.8822 25.2165 22.6301 23.8758C21.785 22.358 20.756 20.951 19.5666 19.6868C18.8803 21.2762 18.395 22.9457 18.1222 24.6562C19.2789 25.6678 20.2699 26.8557 21.0587 28.1763Z" fill="#1E1E1E" fill-opacity="0.75"/>
<path fill-rule="evenodd" clip-rule="evenodd" d="M24.2016 45.9995C23.9058 47.5068 23.3755 48.9581 22.6301 50.3C23.4699 51.8212 24.4993 53.2289 25.6936 54.489C26.3749 52.8921 26.8599 51.218 27.1381 49.5036C25.978 48.5014 24.9865 47.3182 24.2016 45.9995Z" fill="#1E1E1E" fill-opacity="0.75"/>
<path fill-rule="evenodd" clip-rule="evenodd" d="M14.1698 26.9659C15.5982 27.5123 16.932 28.2809 18.1222 29.2435C17.8841 27.7291 17.8841 26.1866 18.1222 24.6723C16.8111 23.5385 15.3665 22.5703 13.8206 21.7893C13.7359 23.5226 13.8531 25.2599 14.1698 26.9659Z" fill="#1E1E1E" fill-opacity="0.75"/>
<path fill-rule="evenodd" clip-rule="evenodd" d="M31.0904 47.1941C29.662 46.6477 28.3283 45.8791 27.1381 44.9165C27.379 46.4311 27.3736 47.9749 27.1222 49.4878C28.4333 50.6215 29.8779 51.5897 31.4238 52.3707C31.5369 50.638 31.4249 48.8978 31.0904 47.1941Z" fill="#1E1E1E" fill-opacity="0.75"/>
<path fill-rule="evenodd" clip-rule="evenodd" d="M15.7254 31.2663C14.9844 29.9239 14.4594 28.4725 14.1698 26.9658C12.5551 26.3494 10.8702 25.9375 9.15393 25.7393C9.65143 27.4007 10.3497 28.9947 11.2333 30.4858C12.7626 30.5032 14.2792 30.7667 15.7254 31.2663Z" fill="#1E1E1E" fill-opacity="0.75"/>
<path fill-rule="evenodd" clip-rule="evenodd" d="M29.5349 42.9094C30.2759 44.2517 30.8009 45.7031 31.0905 47.2099C32.707 47.8236 34.3909 48.2407 36.1063 48.4523C35.6088 46.7909 34.9105 45.1969 34.027 43.7058C32.4986 43.6644 30.9848 43.396 29.5349 42.9094Z" fill="#1E1E1E" fill-opacity="0.75"/>
<path fill-rule="evenodd" clip-rule="evenodd" d="M9.67775 34.7864C11.1239 34.2849 12.64 34.0162 14.1698 33.99C13.014 32.9879 12.0277 31.8046 11.2492 30.4859C9.51873 30.4622 7.79181 30.6494 6.10632 31.0434C7.13642 32.4357 8.33624 33.6932 9.67775 34.7864Z" fill="#1E1E1E" fill-opacity="0.75"/>
<path fill-rule="evenodd" clip-rule="evenodd" d="M35.5984 39.3735C34.1522 39.8749 32.6362 40.1437 31.1063 40.1699C32.2621 41.172 33.2484 42.3553 34.027 43.674C35.7585 43.7015 37.4865 43.5088 39.1698 43.1006C38.1309 41.7205 36.932 40.4693 35.5984 39.3735Z" fill="#1E1E1E" fill-opacity="0.75"/>
<path fill-rule="evenodd" clip-rule="evenodd" d="M13.6143 37.08C12.1879 36.5326 10.8587 35.7581 9.67777 34.7864C8.04328 35.3534 6.48614 36.124 5.04285 37.08C6.48614 38.0361 8.04328 38.8066 9.67777 39.3736C10.8626 38.4076 12.1908 37.6336 13.6143 37.08Z" fill="#1E1E1E" fill-opacity="0.75"/>
<path fill-rule="evenodd" clip-rule="evenodd" d="M31.646 37.08C33.0756 37.6309 34.4095 38.405 35.5984 39.3736C37.2315 38.8033 38.7882 38.033 40.2333 37.08C38.79 36.124 37.2329 35.3534 35.5984 34.7864C34.4157 35.764 33.0803 36.5389 31.646 37.08Z" fill="#1E1E1E" fill-opacity="0.75"/>
<path fill-rule="evenodd" clip-rule="evenodd" d="M11.2333 43.6899C12.0169 42.3748 13.0025 41.1922 14.1539 40.1858C12.6241 40.1597 11.108 39.8909 9.66188 39.3894C8.32037 40.4826 7.12056 41.7401 6.09045 43.1325C7.77594 43.5264 9.50286 43.7136 11.2333 43.6899Z" fill="#1E1E1E" fill-opacity="0.75"/>
<path fill-rule="evenodd" clip-rule="evenodd" d="M34.027 30.4858C33.2434 31.8009 32.2577 32.9835 31.1063 33.9899C32.6362 34.0161 34.1522 34.2849 35.5984 34.7863C36.9399 33.6931 38.1397 32.4356 39.1698 31.0433C37.4858 30.6406 35.7578 30.4533 34.027 30.4858Z" fill="#1E1E1E" fill-opacity="0.75"/>
<path fill-rule="evenodd" clip-rule="evenodd" d="M15.7254 42.9094C14.2792 43.4089 12.7626 43.6724 11.2333 43.6898C10.3497 45.1809 9.65143 46.7749 9.15393 48.4363C10.8707 48.2324 12.5556 47.815 14.1698 47.194C14.4621 45.693 14.987 44.2473 15.7254 42.9094Z" fill="#1E1E1E" fill-opacity="0.75"/>
<path fill-rule="evenodd" clip-rule="evenodd" d="M29.5349 31.2663C30.981 30.7667 32.4977 30.5032 34.027 30.4858C34.9171 28.9981 35.6157 27.4032 36.1063 25.7393C34.3901 25.9375 32.7052 26.3494 31.0905 26.9658C30.8081 28.4745 30.2827 29.927 29.5349 31.2663Z" fill="#1E1E1E" fill-opacity="0.75"/>
<path fill-rule="evenodd" clip-rule="evenodd" d="M21.0587 45.9995C20.2738 47.3182 19.2822 48.5014 18.1222 49.5036C18.3951 51.2192 18.8803 52.894 19.5666 54.489C20.756 53.2247 21.785 51.8177 22.6301 50.3C21.8915 48.9549 21.3616 47.5048 21.0587 45.9995Z" fill="#1E1E1E" fill-opacity="0.75"/>
<path fill-rule="evenodd" clip-rule="evenodd" d="M18.1222 44.9324C16.9342 45.8983 15.5999 46.6672 14.1698 47.2101C13.8428 48.9147 13.7308 50.6539 13.8365 52.3866C15.3801 51.6018 16.8243 50.6339 18.1381 49.5037C17.8866 47.9908 17.8813 46.447 18.1222 44.9324Z" fill="#1E1E1E" fill-opacity="0.75"/>
<path fill-rule="evenodd" clip-rule="evenodd" d="M24.2016 28.1762C24.9914 26.861 25.9823 25.6785 27.1381 24.6721C26.8674 22.961 26.3821 21.2913 25.6936 19.7026C24.5092 20.9709 23.4806 22.3773 22.6301 23.8916C23.3805 25.2255 23.9111 26.6724 24.2016 28.1762Z" fill="#1E1E1E" fill-opacity="0.75"/>
<path fill-rule="evenodd" clip-rule="evenodd" d="M27.1381 29.2435C28.3238 28.2744 29.6587 27.5051 31.0904 26.9659C31.4175 25.2612 31.5295 23.522 31.4238 21.7893C29.8801 22.5741 28.4359 23.542 27.1222 24.6723C27.3736 26.1851 27.379 27.7289 27.1381 29.2435Z" fill="#1E1E1E" fill-opacity="0.75"/>
<path fill-rule="evenodd" clip-rule="evenodd" d="M21.0746 32.7954C20.3267 31.4369 19.3242 30.2362 18.1222 29.2595C18.377 30.788 18.9096 32.2565 19.6936 33.5918C18.526 32.5803 17.1801 31.797 15.7254 31.2823C16.4829 32.6341 17.484 33.8331 18.6778 34.8183C17.2344 34.2633 15.6995 33.9877 14.1539 34.0059C15.3259 35.0159 16.6777 35.7941 18.1381 36.2995C16.5935 36.2753 15.0584 36.5455 13.6143 37.0959C15.0612 37.636 16.5943 37.9059 18.1381 37.8923C16.6777 38.3977 15.3259 39.176 14.1539 40.1859C15.6995 40.2042 17.2344 39.9285 18.6778 39.3736C17.4804 40.3551 16.4787 41.5548 15.7254 42.9096C17.1789 42.3921 18.5243 41.6091 19.6936 40.6C18.9028 41.9321 18.3697 43.4019 18.1222 44.9324C19.3127 43.944 20.3132 42.7456 21.0746 41.3964C20.7886 42.9228 20.7886 44.4892 21.0746 46.0155C21.8604 44.6811 22.3932 43.2122 22.646 41.6831C22.8961 43.2129 23.4291 44.6823 24.2174 46.0155C24.5034 44.4892 24.5034 42.9228 24.2174 41.3964C24.9746 42.7486 25.9757 43.9476 27.1698 44.9324C26.9164 43.4011 26.378 41.9314 25.5825 40.6C26.7558 41.6119 28.107 42.3952 29.5666 42.9096C28.8133 41.5548 27.8116 40.3551 26.6143 39.3736C28.0576 39.9285 29.5925 40.2042 31.1381 40.1859C29.963 39.1765 28.6123 38.3936 27.1539 37.8764C28.6985 37.9007 30.2336 37.6304 31.6777 37.08C30.2312 36.5386 28.6978 36.2686 27.1539 36.2836C28.6143 35.7782 29.9661 35 31.1381 33.99C29.5925 33.9718 28.0576 34.2474 26.6143 34.8023C27.8162 33.8212 28.8232 32.6216 29.5825 31.2664C28.1228 31.7807 26.7716 32.564 25.5984 33.5759C26.3938 32.2446 26.9323 30.7748 27.1857 29.2435C25.9952 30.232 24.9947 31.4303 24.2333 32.7795C24.5193 31.2532 24.5193 29.6868 24.2333 28.1604C23.4449 29.4936 22.912 30.963 22.6619 32.4928C22.4118 30.963 21.8788 29.4936 21.0904 28.1604C20.791 29.6903 20.7856 31.2635 21.0746 32.7954Z" fill="#1E1E1E"/>
<path fill-rule="evenodd" clip-rule="evenodd" d="M21.0745 32.7953C20.7886 31.269 20.7886 29.7026 21.0745 28.1763C20.2896 26.8575 19.2981 25.6743 18.138 24.6721C17.892 26.1859 17.892 27.7297 18.138 29.2434C19.3231 30.2392 20.3181 31.4427 21.0745 32.7953Z" fill="#1E1E1E" fill-opacity="0.5"/>
<path fill-rule="evenodd" clip-rule="evenodd" d="M24.1857 41.3804C24.4716 42.9067 24.4716 44.4731 24.1857 45.9995C24.9755 47.3147 25.9664 48.4971 27.1222 49.5036C27.3658 47.99 27.3711 46.4475 27.1381 44.9323C25.9437 43.9416 24.9426 42.7373 24.1857 41.3804Z" fill="#1E1E1E" fill-opacity="0.5"/>
<path fill-rule="evenodd" clip-rule="evenodd" d="M18.1222 29.2434C16.9342 28.2775 15.5999 27.5086 14.1698 26.9658C14.4522 28.4745 14.9776 29.927 15.7254 31.2663C17.1817 31.7774 18.5283 32.5611 19.6936 33.5758C18.9072 32.2417 18.3744 30.7727 18.1222 29.2434Z" fill="#1E1E1E" fill-opacity="0.5"/>
<path fill-rule="evenodd" clip-rule="evenodd" d="M27.1381 44.9323C28.3238 45.9015 29.6587 46.6707 31.0905 47.21C30.8081 45.7012 30.2827 44.2487 29.5349 42.9095C28.0781 42.3888 26.728 41.6062 25.5508 40.5999C26.3555 41.9268 26.8947 43.3984 27.1381 44.9323Z" fill="#1E1E1E" fill-opacity="0.5"/>
<path fill-rule="evenodd" clip-rule="evenodd" d="M18.6936 34.8022C17.4963 33.8207 16.4946 32.621 15.7412 31.2663C14.2951 30.7667 12.7785 30.5032 11.2491 30.4858C12.0327 31.8009 13.0184 32.9835 14.1698 33.9899C15.7152 33.973 17.2499 34.2486 18.6936 34.8022Z" fill="#1E1E1E" fill-opacity="0.5"/>
<path fill-rule="evenodd" clip-rule="evenodd" d="M26.5825 39.3735C27.7798 40.355 28.7815 41.5547 29.5349 42.9095C30.981 43.409 32.4976 43.6725 34.027 43.6899C33.2434 42.3748 32.2577 41.1922 31.1063 40.1858C29.5608 40.2041 28.0258 39.9284 26.5825 39.3735Z" fill="#1E1E1E" fill-opacity="0.5"/>
<path fill-rule="evenodd" clip-rule="evenodd" d="M18.1381 36.2995C16.6777 35.7941 15.3259 35.0159 14.1539 34.0059C12.6241 34.0321 11.108 34.3009 9.66187 34.8023C10.845 35.7708 12.1736 36.545 13.5984 37.0959C15.047 36.542 16.588 36.2717 18.1381 36.2995Z" fill="#1E1E1E" fill-opacity="0.5"/>
<path fill-rule="evenodd" clip-rule="evenodd" d="M27.1222 37.8762C28.5806 38.3934 29.9313 39.1763 31.1063 40.1857C32.6362 40.1596 34.1522 39.8908 35.5984 39.3893C34.4118 38.4174 33.0773 37.643 31.646 37.0957C30.2009 37.6408 28.6658 37.9056 27.1222 37.8762Z" fill="#1E1E1E" fill-opacity="0.5"/>
<path fill-rule="evenodd" clip-rule="evenodd" d="M13.6142 37.0798C12.1878 37.6272 10.8586 38.4017 9.67773 39.3734C11.1239 39.8748 12.64 40.1436 14.1698 40.1698C15.3417 39.1599 16.6936 38.3816 18.1539 37.8762C16.6037 37.9069 15.0622 37.6364 13.6142 37.0798Z" fill="#1E1E1E" fill-opacity="0.5"/>
<path fill-rule="evenodd" clip-rule="evenodd" d="M31.646 37.08C33.0756 36.5291 34.4095 35.755 35.5984 34.7864C34.1522 34.285 32.6362 34.0162 31.1063 33.99C29.9344 35 28.5826 35.7782 27.1222 36.2836C28.6661 36.2673 30.1998 36.5373 31.646 37.08Z" fill="#1E1E1E" fill-opacity="0.5"/>
<path fill-rule="evenodd" clip-rule="evenodd" d="M18.6936 39.3735C17.2503 39.9284 15.7153 40.2041 14.1698 40.1858C13.014 41.1879 12.0277 42.3713 11.2491 43.6899C12.7777 43.6648 14.2932 43.4015 15.7412 42.9095C16.4844 41.5477 17.4876 40.3462 18.6936 39.3735Z" fill="#1E1E1E" fill-opacity="0.5"/>
<path fill-rule="evenodd" clip-rule="evenodd" d="M26.5825 34.8022C28.0258 34.2473 29.5608 33.9717 31.1063 33.9899C32.2621 32.9878 33.2484 31.8045 34.027 30.4858C32.4984 30.511 30.9829 30.7743 29.5349 31.2663C28.7815 32.621 27.7798 33.8207 26.5825 34.8022Z" fill="#1E1E1E" fill-opacity="0.5"/>
<path fill-rule="evenodd" clip-rule="evenodd" d="M21.0587 45.9994C21.3545 47.5067 21.8847 48.958 22.6301 50.2999C23.3712 48.956 23.9013 47.5054 24.2016 45.9994C23.4157 44.665 22.8829 43.1961 22.6301 41.667C22.3846 43.198 21.8513 44.6682 21.0587 45.9994Z" fill="#1E1E1E" fill-opacity="0.5"/>
<path fill-rule="evenodd" clip-rule="evenodd" d="M21.0746 41.3804C20.3225 42.736 19.3206 43.9359 18.1222 44.9164C17.8841 46.4308 17.8841 47.9733 18.1222 49.4877C19.278 48.4812 20.2689 47.2988 21.0587 45.9835C20.7862 44.4609 20.7916 42.9012 21.0746 41.3804Z" fill="#1E1E1E" fill-opacity="0.5"/>
<path fill-rule="evenodd" clip-rule="evenodd" d="M15.7254 42.9095C14.9844 44.2518 14.4594 45.7032 14.1698 47.21C15.5982 46.6636 16.932 45.8949 18.1222 44.9323C18.377 43.4037 18.9096 41.9352 19.6936 40.5999C18.5243 41.609 17.1788 42.392 15.7254 42.9095Z" fill="#1E1E1E" fill-opacity="0.5"/>
<path fill-rule="evenodd" clip-rule="evenodd" d="M24.2016 28.1762C23.9085 26.6681 23.378 25.2164 22.6301 23.8757C21.8865 25.2184 21.3563 26.6694 21.0587 28.1762C21.8471 29.5094 22.38 30.9787 22.6301 32.5085C22.8802 30.9787 23.4132 29.5094 24.2016 28.1762Z" fill="#1E1E1E" fill-opacity="0.5"/>
<path fill-rule="evenodd" clip-rule="evenodd" d="M24.1857 32.7952C24.9386 31.4401 25.9403 30.2404 27.1381 29.2593C27.379 27.7447 27.3736 26.2009 27.1222 24.688C25.9664 25.6944 24.9755 26.8769 24.1857 28.1921C24.4876 29.7115 24.4876 31.2758 24.1857 32.7952Z" fill="#1E1E1E" fill-opacity="0.5"/>
<path fill-rule="evenodd" clip-rule="evenodd" d="M29.5349 31.2663C30.2759 29.9239 30.8009 28.4725 31.0905 26.9658C29.6621 27.5122 28.3283 28.2808 27.1381 29.2434C26.8847 30.7747 26.3462 32.2445 25.5508 33.5758C26.728 32.5696 28.0781 31.7869 29.5349 31.2663Z" fill="#1E1E1E" fill-opacity="0.5"/>
</svg>
