<svg width="64" height="31" viewBox="0 0 64 31" fill="none" xmlns="http://www.w3.org/2000/svg">
<g clip-path="url(#clip0_47_1275)">
<path opacity="0.6" d="M29.0942 0.806885H22.4977V11.0882C26.2777 9.70714 29.0942 5.64064 29.0942 0.806885Z" fill="#1E1E1E"/>
<path d="M0.707031 23.8248C0.707031 27.3542 3.44938 30.1931 6.8588 30.1931H17.7541V24.2852H6.41409V17.7634H15.9011V11.8555H6.41409V6.71481H17.7541V0.806885H0.707031V23.8248Z" fill="#1E1E1E"/>
<path d="M22.4235 17.9169V30.1164H28.1305V17.4565H37.6176V11.5486H28.6493C25.1658 11.5486 22.4235 14.4642 22.4235 17.9169Z" fill="#1E1E1E"/>
<path d="M30.3541 6.71481H40.0635V0.806885H31.6141C31.6141 2.95522 31.1694 4.95011 30.3541 6.71481Z" fill="#1E1E1E"/>
<path d="M58.0741 14.5409V24.3619C58.0741 24.3619 57.4071 24.6688 55.2576 24.6688C50.5141 24.6688 47.9941 21.0627 47.9941 15.5384C47.9941 10.0141 50.5141 6.40793 55.2576 6.40793C59.0376 6.40793 60.9647 7.71228 60.9647 7.71228L63.1882 2.49489C63.1882 2.49489 60.3718 0.5 55.3318 0.5C46.8082 0.5 42.4353 7.02174 42.4353 15.5384C42.4353 24.055 46.8824 30.5767 55.3318 30.5767C61.6318 30.5767 63.8553 28.2749 63.8553 28.2749V14.5409H58.0741Z" fill="#1E1E1E"/>
</g>
<defs>
<clipPath id="clip0_47_1275">
<rect width="64" height="31" fill="white"/>
</clipPath>
</defs>
</svg>
