<svg width="267" height="32" viewBox="0 0 267 32" fill="none" xmlns="http://www.w3.org/2000/svg">
<path d="M59.7467 5.85603C60.9358 5.83184 62.1116 6.09389 63.16 6.61683C64.1641 7.12325 64.9987 7.87783 65.5717 8.79746C66.1622 9.74189 66.4665 10.8177 66.4523 11.9103C66.4764 12.7203 66.3177 13.5259 65.9865 14.2753C65.6554 15.0247 65.1591 15.701 64.5299 16.2609C63.8971 16.8319 63.1478 17.2793 62.3263 17.5764C61.5049 17.8737 60.6278 18.0147 59.7467 17.9915H56.5408V23.5368H52.4368V5.85603H59.7467ZM59.5626 14.4714C59.9248 14.4849 60.2862 14.4286 60.6239 14.3059C60.9617 14.1834 61.2686 13.997 61.5253 13.7587C62.0091 13.2589 62.2768 12.6099 62.2768 11.9371C62.2768 11.2643 62.0091 10.6154 61.5253 10.1155C61.2672 9.87732 60.9593 9.69115 60.6207 9.56856C60.2821 9.44597 59.9199 9.38957 59.5568 9.40289H56.5349V14.4714H59.5626Z" fill="white"/>
<path d="M76.5196 9.832H77.8205V13.3092H76.0937C74.977 13.3092 74.1827 13.5503 73.6991 14.0432C73.2157 14.5362 72.9797 15.3344 72.9797 16.4542V23.5372H69.0197V9.90164H71.5465L72.2488 11.5786C72.7621 10.9946 73.4168 10.5319 74.159 10.2283C74.9013 9.92479 75.7101 9.78897 76.5196 9.832Z" fill="white"/>
<path d="M86.6902 23.9166C85.2837 23.9306 83.8967 23.6097 82.661 22.9843C81.4606 22.3869 80.4636 21.4886 79.7831 20.3911C79.1118 19.2678 78.7594 18.0037 78.7594 16.7184C78.7594 15.4329 79.1118 14.1688 79.7831 13.0455C80.461 11.9448 81.4585 11.0442 82.661 10.447C83.9094 9.83467 85.2993 9.51465 86.7104 9.51465C88.1214 9.51465 89.5112 9.83467 90.7596 10.447C91.9452 11.0527 92.9274 11.9521 93.5973 13.0455C94.277 14.1691 94.6342 15.4369 94.6342 16.7264C94.6342 18.0159 94.277 19.2836 93.5973 20.4071C92.9118 21.4969 91.9157 22.3889 90.7193 22.9843C89.4836 23.6097 88.0966 23.9306 86.6902 23.9166ZM83.8813 19.4106C84.638 20.0811 85.6426 20.4551 86.6874 20.4551C87.732 20.4551 88.7367 20.0811 89.4933 19.4106C90.2049 18.6692 90.5982 17.7098 90.5982 16.7156C90.5982 15.7215 90.2049 14.7621 89.4933 14.0207C88.7347 13.3538 87.7307 12.9823 86.6874 12.9823C85.6439 12.9823 84.6399 13.3538 83.8813 14.0207C83.1733 14.7637 82.7823 15.7224 82.7823 16.7156C82.7823 17.7089 83.1733 18.6676 83.8813 19.4106Z" fill="white"/>
<path d="M94.3396 28.4556V25.0641H95.6117C97.0506 25.0641 97.7701 24.3945 97.7701 23.0549V9.90156H101.73V23.3389C101.762 24.0188 101.642 24.6973 101.377 25.3315C101.112 25.9657 100.708 26.5417 100.191 27.0228C99.674 27.504 99.0553 27.8798 98.3739 28.1265C97.6926 28.3731 96.9637 28.4852 96.2334 28.4556H94.3396ZM97.7932 8.09598V4.66699H101.742V8.09598H97.7932Z" fill="white"/>
<path d="M119.747 16.6678C119.746 17.0263 119.718 17.3843 119.665 17.7394H108.562C108.669 18.5654 109.094 19.3272 109.76 19.8825C110.432 20.3928 111.281 20.6575 112.148 20.6271C112.789 20.6372 113.421 20.4933 113.985 20.2093C114.516 19.9435 114.956 19.542 115.251 19.052H119.412C119.042 20.0524 118.44 20.9645 117.647 21.7235C116.856 22.4824 115.894 23.0695 114.831 23.443C113.767 23.8165 112.628 23.9671 111.495 23.8841C110.362 23.8012 109.262 23.4868 108.275 22.9632C107.126 22.3471 106.181 21.4504 105.541 20.37C104.873 19.2494 104.53 17.9865 104.545 16.7053C104.538 15.4253 104.885 14.1652 105.552 13.0459C106.189 11.9662 107.133 11.0708 108.28 10.4581C109.463 9.82995 110.804 9.50633 112.166 9.52048C113.553 9.49922 114.919 9.83481 116.114 10.4902C117.253 11.106 118.185 12.0037 118.808 13.0835C119.436 14.1868 119.759 15.4189 119.747 16.6678ZM112.166 12.6601C111.363 12.6395 110.577 12.8802 109.944 13.3406C109.31 13.8258 108.867 14.4927 108.683 15.2373H115.786C115.564 14.4837 115.093 13.8143 114.439 13.3245C113.782 12.8728 112.982 12.639 112.166 12.6601Z" fill="white"/>
<path d="M129.376 23.917C128.323 23.9316 127.278 23.7494 126.302 23.3812C125.378 23.0282 124.537 22.5094 123.827 21.8543C123.124 21.1957 122.57 20.4122 122.198 19.5504C121.806 18.6451 121.61 17.6762 121.623 16.7C121.61 15.729 121.806 14.7655 122.198 13.8658C122.57 13.0104 123.124 12.234 123.827 11.5833C124.539 10.9365 125.382 10.4283 126.308 10.0885C127.293 9.72206 128.345 9.53999 129.405 9.55274C131.172 9.51377 132.897 10.0585 134.275 11.0904C135.627 12.1139 136.539 13.5549 136.847 15.1516H132.916C132.621 14.5078 132.126 13.9609 131.494 13.5818C130.862 13.2052 130.126 13.0096 129.376 13.0193C128.873 13.0098 128.373 13.1004 127.91 13.2852C127.447 13.47 127.032 13.7447 126.693 14.0908C125.972 14.8058 125.586 15.7575 125.617 16.7376C125.586 17.7281 125.975 18.6902 126.699 19.4165C127.037 19.7633 127.451 20.0385 127.913 20.2233C128.374 20.4082 128.873 20.4985 129.376 20.488C130.132 20.5026 130.872 20.2944 131.494 19.8933C132.131 19.4678 132.623 18.8824 132.916 18.2056H136.899C136.611 19.8401 135.692 21.3206 134.315 22.3686C132.918 23.4143 131.167 23.9632 129.376 23.917Z" fill="white"/>
<path d="M146.598 20.2579H148.399V23.5369H145.591C144.892 23.5858 144.19 23.493 143.535 23.2648C142.879 23.0367 142.285 22.6787 141.792 22.2156C141.299 21.7524 140.92 21.1952 140.682 20.5825C140.443 19.9697 140.35 19.316 140.41 18.6667V12.8588H137.756V12.0712L143.547 6.33301H144.301V9.90131H148.331V12.8588H144.359V18.1737C144.326 18.4559 144.361 18.7413 144.463 19.0089C144.564 19.2766 144.729 19.5195 144.945 19.7197C145.162 19.9198 145.423 20.0721 145.711 20.1653C146 20.2585 146.306 20.2901 146.609 20.2579H146.598Z" fill="white"/>
<path d="M158.679 5.85603C159.868 5.83184 161.043 6.09389 162.092 6.61683C163.097 7.12325 163.931 7.87783 164.504 8.79746C165.094 9.74189 165.399 10.8177 165.384 11.9103C165.408 12.7203 165.25 13.5259 164.919 14.2753C164.588 15.0247 164.092 15.701 163.462 16.2609C162.83 16.8319 162.081 17.2793 161.259 17.5764C160.437 17.8737 159.561 18.0147 158.679 17.9915H155.473V23.5368H151.37V5.85603H158.679ZM158.495 14.4714C158.857 14.4849 159.218 14.4286 159.556 14.3059C159.894 14.1834 160.201 13.997 160.458 13.7587C160.941 13.2589 161.21 12.6099 161.21 11.9371C161.21 11.2643 160.941 10.6154 160.458 10.1155C160.2 9.87732 159.892 9.69115 159.553 9.56856C159.215 9.44597 158.852 9.38957 158.489 9.40289H155.473V14.4714H158.495Z" fill="white"/>
<path d="M179.758 9.87472H182.728V23.5103H179.613L179.268 22.2941C177.957 23.3616 176.266 23.935 174.525 23.9015C173.148 23.9189 171.79 23.5973 170.588 22.9692C169.437 22.3591 168.49 21.4655 167.848 20.3867C167.179 19.2572 166.835 17.9852 166.852 16.6952C166.84 15.4192 167.182 14.162 167.848 13.0466C168.491 11.9664 169.443 11.0741 170.599 10.4694C171.801 9.84137 173.159 9.51976 174.537 9.53718C176.311 9.49605 178.035 10.084 179.36 11.182L179.758 9.87472ZM171.987 19.3634C172.756 20.046 173.779 20.4268 174.842 20.4268C175.905 20.4268 176.927 20.046 177.697 19.3634C178.427 18.6368 178.833 17.6793 178.833 16.6845C178.833 15.6898 178.427 14.7321 177.697 14.0056C176.927 13.3229 175.905 12.9422 174.842 12.9422C173.779 12.9422 172.756 13.3229 171.987 14.0056C171.254 14.7303 170.845 15.6886 170.845 16.6845C170.845 17.6804 171.254 18.6387 171.987 19.3634Z" fill="white"/>
<path d="M194.015 9.832H195.31V13.3092H193.583C192.472 13.3092 191.672 13.5503 191.194 14.0432C190.645 14.738 190.387 15.5951 190.468 16.4542V23.5372H186.509V9.90164H189.042L189.744 11.5786C190.258 10.9946 190.912 10.5319 191.654 10.2283C192.396 9.92479 193.205 9.78897 194.015 9.832Z" fill="white"/>
<path d="M204.825 20.2579H206.626V23.5369H203.817C203.116 23.59 202.411 23.5001 201.752 23.2738C201.093 23.0476 200.494 22.6901 199.999 22.2265C199.503 21.7629 199.121 21.2043 198.881 20.5894C198.641 19.9746 198.547 19.3185 198.608 18.6667V12.8588H195.96V12.0712L201.75 6.33301H202.504V9.90131H206.533V12.8588H202.557V18.1737C202.524 18.4562 202.56 18.7417 202.663 19.0093C202.765 19.2769 202.93 19.5197 203.147 19.7197C203.363 19.9198 203.626 20.072 203.915 20.1651C204.202 20.2583 204.509 20.29 204.813 20.2579H204.825Z" fill="white"/>
<path d="M217.66 9.57993C218.401 9.5488 219.142 9.67157 219.827 9.93936C220.512 10.2071 221.124 10.6133 221.62 11.1283C222.655 12.2889 223.185 13.7687 223.105 15.2753V23.5369H219.145V15.8646C219.145 13.8287 218.293 12.8106 216.59 12.8106C216.137 12.7906 215.686 12.8659 215.269 13.0311C214.853 13.1962 214.481 13.4469 214.183 13.7644C213.559 14.5055 213.246 15.4332 213.302 16.3736V23.5369H209.343V9.90139H212.06L212.825 11.5891C213.403 10.958 214.124 10.4546 214.937 10.1157C215.792 9.75653 216.722 9.57377 217.66 9.57993Z" fill="white"/>
<path d="M240.949 16.6682C240.949 17.0265 240.923 17.3845 240.873 17.7398H229.753C229.862 18.5651 230.287 19.3261 230.95 19.8828C231.624 20.3936 232.476 20.6582 233.344 20.6276C233.985 20.6364 234.617 20.4925 235.181 20.2097C235.709 19.9421 236.147 19.541 236.442 19.0524H240.603C240.234 20.0529 239.632 20.9652 238.841 21.7243C238.049 22.4836 237.088 23.0709 236.025 23.4444C234.961 23.8179 233.823 23.9685 232.69 23.8854C231.558 23.8023 230.458 23.4875 229.471 22.9636C228.319 22.3493 227.372 21.4522 226.731 20.3704C226.065 19.2493 225.724 17.9865 225.741 16.7057C225.727 15.4276 226.067 14.1676 226.725 13.0464C227.358 11.968 228.295 11.0711 229.437 10.4531C230.62 9.82432 231.963 9.50068 233.327 9.51553C234.715 9.4951 236.081 9.83062 237.276 10.4853C238.412 11.1029 239.342 12.0003 239.964 13.0785C240.612 14.1789 240.95 15.4136 240.949 16.6682ZM233.373 12.6605C232.569 12.6387 231.78 12.8793 231.146 13.341C230.512 13.825 230.07 14.4928 229.892 15.2376H236.988C236.771 14.4835 236.301 13.8135 235.648 13.325C234.982 12.8682 234.17 12.6342 233.344 12.6605H233.373Z" fill="white"/>
<path d="M251.229 9.83132H252.524V13.3085H250.797C249.679 13.3085 248.885 13.5497 248.402 14.0426C247.918 14.5355 247.682 15.3338 247.682 16.4536V23.5366H243.723V9.90096H246.25L246.952 11.5779C247.466 10.9932 248.121 10.53 248.865 10.2264C249.608 9.92283 250.417 9.78743 251.229 9.83132Z" fill="white"/>
<path d="M259.868 23.9168C258.26 23.9887 256.679 23.5146 255.418 22.5827C254.868 22.1502 254.429 21.6076 254.136 20.9953C253.841 20.383 253.699 19.7169 253.721 19.0466H257.571C257.561 19.3056 257.617 19.5631 257.736 19.7972C257.856 20.0314 258.034 20.2353 258.257 20.3915C258.775 20.7242 259.395 20.8898 260.024 20.8629C260.543 20.8766 261.056 20.7521 261.503 20.5039C261.694 20.3998 261.851 20.2491 261.958 20.0677C262.065 19.8865 262.116 19.6816 262.107 19.4752C262.101 19.2806 262.028 19.093 261.9 18.9394C261.728 18.7519 261.505 18.6097 261.256 18.5269C260.978 18.4178 260.691 18.3317 260.397 18.2698C260.115 18.2054 259.742 18.1358 259.281 18.0661L258.215 17.8678C257.934 17.8143 257.594 17.734 257.191 17.6268C256.843 17.5397 256.503 17.4231 256.178 17.2785C255.872 17.1251 255.581 16.9458 255.309 16.7427C255.025 16.5486 254.779 16.3091 254.584 16.0355C254.385 15.7434 254.231 15.4257 254.129 15.0926C254.008 14.6952 253.948 14.2839 253.95 13.8709C253.937 13.2636 254.076 12.6615 254.359 12.1141C254.642 11.5667 255.061 11.0892 255.58 10.7206C256.809 9.86806 258.319 9.4383 259.851 9.50436C261.383 9.43369 262.891 9.87875 264.099 10.7581C264.62 11.1561 265.037 11.6598 265.318 12.231C265.599 12.8021 265.734 13.4254 265.715 14.0531H261.957C261.969 13.8242 261.925 13.5957 261.824 13.3862C261.724 13.1768 261.573 12.9923 261.382 12.8477C260.903 12.5503 260.333 12.4073 259.759 12.4404C259.25 12.4131 258.745 12.539 258.32 12.7994C258.156 12.9051 258.022 13.0471 257.932 13.2127C257.842 13.3782 257.797 13.5621 257.802 13.7477C257.797 13.8855 257.825 14.0226 257.882 14.1495C257.95 14.2769 258.056 14.383 258.187 14.4549C258.337 14.5407 258.469 14.6157 258.602 14.68C258.786 14.7592 258.979 14.8204 259.177 14.8622C259.436 14.9265 259.649 14.9693 259.811 15.0015L260.565 15.13C261.614 15.2728 262.646 15.5207 263.638 15.8694C264.372 16.1392 264.997 16.618 265.422 17.2376C265.846 17.8573 266.05 18.586 266.003 19.3199C266.033 19.9652 265.897 20.6078 265.605 21.194C265.314 21.7803 264.877 22.2932 264.329 22.6899C263.039 23.5666 261.463 24.0002 259.868 23.9168Z" fill="white"/>
<path d="M33.4423 12.0122C33.3099 18.4737 27.4101 23.5636 20.503 23.5636H19.6397C19.4181 23.5638 19.1989 23.6058 18.9951 23.6868C18.7914 23.7678 18.6073 23.8863 18.4539 24.0351L13.9701 28.4606L10.8677 31.5253C10.667 31.7223 10.4133 31.8659 10.1329 31.9409C9.85254 32.0159 9.55571 32.0197 9.27322 31.9519C8.99072 31.8842 8.73288 31.7472 8.52642 31.5554C8.31995 31.3635 8.17241 31.1237 8.09908 30.8609L6.94791 26.7837L6.05574 23.569L4.42107 17.6754L3.31593 13.6838C3.25459 13.4593 3.24914 13.2247 3.29997 12.998C3.3508 12.7712 3.45658 12.5582 3.60925 12.3753C3.76193 12.1923 3.95745 12.0443 4.18093 11.9424C4.40441 11.8404 4.64995 11.7873 4.89881 11.7872H8.06456C8.42696 11.7871 8.77912 11.8992 9.06565 12.1058C9.35217 12.3124 9.55682 12.6017 9.64742 12.9283L10.9598 17.6754L12.111 21.7205L15.7257 18.1522C15.8779 18.0017 16.0617 17.8817 16.2655 17.7998C16.4695 17.7178 16.6893 17.6754 16.9114 17.6754H20.8138C21.6829 17.6772 22.5431 17.5126 23.3408 17.1916C24.1386 16.8706 24.8567 16.4002 25.4507 15.8096C26.0446 15.2191 26.5016 14.5211 26.7932 13.7589C27.0848 12.9968 27.2046 12.1871 27.1454 11.3799C27.004 9.86105 26.2473 8.44901 25.0289 7.4302C23.8103 6.41138 22.2211 5.86205 20.5836 5.89358H2.42377C2.0611 5.89453 1.70847 5.78278 1.42173 5.57606C1.13501 5.36934 0.930605 5.07947 0.840899 4.75237L0.0523416 1.89666C-0.0100662 1.67252 -0.0164967 1.43805 0.0335443 1.21123C0.0835851 0.98442 0.188767 0.771289 0.341023 0.588182C0.493281 0.405075 0.688569 0.256859 0.911908 0.154902C1.13525 0.052946 1.38071 -4.17855e-05 1.62945 2.47236e-08H20.7851C22.4673 0.00405017 24.1317 0.319179 25.6819 0.927082C27.2321 1.53499 28.637 2.42354 29.8153 3.54114C30.9934 4.65875 31.9212 5.98311 32.5449 7.43733C33.1685 8.89154 33.4755 10.4466 33.4481 12.0122H33.4423Z" fill="#6E55FF"/>
</svg>
