<svg width="250" height="30" viewBox="0 0 250 30" fill="none" xmlns="http://www.w3.org/2000/svg">
<path d="M55.9426 5.49021C57.056 5.46753 58.1568 5.71321 59.1385 6.20346C60.0787 6.67823 60.8601 7.38565 61.3966 8.2478C61.9495 9.13321 62.2345 10.1418 62.2212 11.1661C62.2437 11.9255 62.0951 12.6807 61.785 13.3833C61.4751 14.0858 61.0104 14.7199 60.4212 15.2448C59.8287 15.7801 59.1271 16.1995 58.3579 16.4781C57.5888 16.7568 56.7676 16.889 55.9426 16.8672H52.9407V22.0659H49.098V5.49021H55.9426ZM55.7701 13.5671C56.1093 13.5798 56.4477 13.527 56.7639 13.412C57.0802 13.2971 57.3675 13.1224 57.6079 12.899C58.0609 12.4304 58.3115 11.822 58.3115 11.1912C58.3115 10.5605 58.0609 9.95209 57.6079 9.48344C57.3663 9.26017 57.078 9.08564 56.7609 8.97071C56.4438 8.85578 56.1047 8.80291 55.7648 8.81539H52.9353V13.5671H55.7701Z" fill="#161428"/>
<path d="M71.6475 9.21726H72.8655V12.4771H71.2487C70.2031 12.4771 69.4594 12.7032 69.0066 13.1653C68.5539 13.6274 68.333 14.3758 68.333 15.4256V22.0659H64.6251V9.28255H66.991L67.6486 10.8547C68.1292 10.3072 68.7422 9.87342 69.4372 9.58883C70.1322 9.30425 70.8895 9.17692 71.6475 9.21726Z" fill="#161428"/>
<path d="M81.1706 22.4222C79.8536 22.4354 78.5549 22.1345 77.3979 21.5482C76.2739 20.9881 75.3404 20.146 74.7032 19.1171C74.0747 18.064 73.7447 16.8789 73.7447 15.6739C73.7447 14.4688 74.0747 13.2837 74.7032 12.2306C75.338 11.1987 76.272 10.3544 77.3979 9.79451C78.5668 9.22043 79.8682 8.92041 81.1895 8.92041C82.5106 8.92041 83.812 9.22043 84.9809 9.79451C86.091 10.3623 87.0106 11.2055 87.6379 12.2306C88.2743 13.284 88.6088 14.4725 88.6088 15.6814C88.6088 16.8903 88.2743 18.0788 87.6379 19.1321C86.996 20.1538 86.0634 20.99 84.9431 21.5482C83.7861 22.1345 82.4874 22.4354 81.1706 22.4222ZM78.5405 18.1979C79.249 18.8265 80.1897 19.1771 81.1679 19.1771C82.146 19.1771 83.0868 18.8265 83.7951 18.1979C84.4615 17.5028 84.8297 16.6034 84.8297 15.6713C84.8297 14.7393 84.4615 13.8399 83.7951 13.1448C83.0848 12.5196 82.1448 12.1713 81.1679 12.1713C80.1909 12.1713 79.2508 12.5196 78.5405 13.1448C77.8776 13.8414 77.5115 14.7402 77.5115 15.6713C77.5115 16.6025 77.8776 17.5013 78.5405 18.1979Z" fill="#161428"/>
<path d="M88.3329 26.6768V23.4973H89.524C90.8713 23.4973 91.545 22.8695 91.545 21.6137V9.28241H95.253V21.8799C95.2827 22.5173 95.17 23.1534 94.9219 23.748C94.6738 24.3425 94.2957 24.8825 93.8117 25.3336C93.3277 25.7847 92.7484 26.137 92.1104 26.3683C91.4724 26.5995 90.7899 26.7046 90.1061 26.6768H88.3329ZM91.5666 7.58968V4.375H95.2637V7.58968H91.5666Z" fill="#161428"/>
<path d="M112.122 15.6263C112.121 15.9624 112.095 16.298 112.046 16.6309H101.65C101.75 17.4053 102.148 18.1195 102.771 18.6401C103.401 19.1185 104.196 19.3667 105.008 19.3382C105.607 19.3476 106.2 19.2127 106.727 18.9465C107.225 18.6973 107.636 18.3209 107.913 17.8615H111.809C111.462 18.7994 110.899 19.6545 110.157 20.366C109.415 21.0775 108.515 21.6279 107.519 21.9781C106.523 22.3282 105.457 22.4694 104.396 22.3916C103.335 22.3139 102.306 22.0191 101.381 21.5282C100.305 20.9507 99.42 20.11 98.8207 19.0971C98.1958 18.0466 97.8744 16.8626 97.8884 15.6615C97.8822 14.4615 98.2069 13.2801 98.8315 12.2308C99.4274 11.2186 100.311 10.3791 101.386 9.80471C102.493 9.21583 103.749 8.91243 105.024 8.9257C106.323 8.90577 107.602 9.22038 108.721 9.83485C109.788 10.4121 110.66 11.2537 111.244 12.266C111.832 13.3004 112.134 14.4555 112.122 15.6263ZM105.024 11.8691C104.272 11.8498 103.536 12.0754 102.944 12.5071C102.35 12.9619 101.935 13.5872 101.763 14.2852H108.414C108.206 13.5787 107.765 12.9512 107.153 12.492C106.538 12.0685 105.788 11.8493 105.024 11.8691Z" fill="#161428"/>
<path d="M121.138 22.4224C120.152 22.4361 119.174 22.2653 118.261 21.9201C117.395 21.5892 116.607 21.1028 115.943 20.4886C115.284 19.8712 114.766 19.1367 114.417 18.3287C114.05 17.48 113.867 16.5717 113.879 15.6565C113.867 14.7462 114.05 13.8429 114.417 12.9994C114.766 12.1975 115.284 11.4696 115.943 10.8596C116.609 10.2532 117.399 9.7768 118.266 9.45823C119.188 9.11467 120.173 8.94398 121.165 8.95593C122.82 8.9194 124.436 9.4301 125.725 10.3975C126.991 11.357 127.845 12.708 128.134 14.2049H124.453C124.177 13.6013 123.713 13.0886 123.121 12.7332C122.53 12.3801 121.841 12.1967 121.138 12.2058C120.667 12.1969 120.2 12.2819 119.766 12.4551C119.333 12.6284 118.944 12.8859 118.627 13.2104C117.952 13.8807 117.59 14.7729 117.619 15.6917C117.59 16.6203 117.954 17.5223 118.632 18.2032C118.948 18.5283 119.336 18.7863 119.768 18.9596C120.201 19.1329 120.667 19.2176 121.138 19.2077C121.847 19.2214 122.54 19.0262 123.121 18.6502C123.718 18.2513 124.179 17.7025 124.453 17.068H128.182C127.913 18.6003 127.053 19.9883 125.763 20.9708C124.455 21.9511 122.815 22.4657 121.138 22.4224Z" fill="#161428"/>
<path d="M137.264 18.9916H138.951V22.0657H136.321C135.666 22.1115 135.01 22.0245 134.396 21.8106C133.782 21.5967 133.225 21.2611 132.764 20.8269C132.303 20.3927 131.947 19.8703 131.724 19.2959C131.501 18.7214 131.414 18.1086 131.47 17.4998V12.0549H128.985V11.3166L134.408 5.93701H135.114V9.28229H138.886V12.0549H135.167V17.0377C135.136 17.3022 135.17 17.5698 135.265 17.8207C135.359 18.0716 135.514 18.2993 135.717 18.487C135.919 18.6746 136.164 18.8174 136.433 18.9048C136.704 18.9922 136.99 19.0218 137.275 18.9916H137.264Z" fill="#161428"/>
<path d="M148.576 5.49021C149.689 5.46753 150.79 5.71321 151.771 6.20346C152.712 6.67823 153.494 7.38565 154.03 8.2478C154.583 9.13321 154.868 10.1418 154.854 11.1661C154.877 11.9255 154.729 12.6807 154.418 13.3833C154.108 14.0858 153.644 14.7199 153.055 15.2448C152.462 15.7801 151.761 16.1995 150.991 16.4781C150.222 16.7568 149.401 16.889 148.576 16.8672H145.574V22.0659H141.732V5.49021H148.576ZM148.403 13.5671C148.742 13.5798 149.08 13.527 149.397 13.412C149.713 13.2971 150.001 13.1224 150.241 12.899C150.694 12.4304 150.945 11.822 150.945 11.1912C150.945 10.5605 150.694 9.95209 150.241 9.48344C150 9.26017 149.711 9.08564 149.394 8.97071C149.077 8.85578 148.738 8.80291 148.398 8.81539H145.574V13.5671H148.403Z" fill="#161428"/>
<path d="M168.312 9.25731H171.093V22.0407H168.177L167.854 20.9005C166.627 21.9013 165.043 22.4388 163.413 22.4074C162.123 22.4237 160.852 22.1222 159.726 21.5334C158.649 20.9614 157.762 20.1237 157.161 19.1123C156.534 18.0534 156.212 16.8609 156.229 15.6515C156.217 14.4553 156.538 13.2766 157.161 12.2309C157.763 11.2183 158.655 10.3817 159.737 9.81485C160.863 9.22604 162.134 8.92453 163.424 8.94086C165.085 8.9023 166.7 9.45353 167.94 10.4829L168.312 9.25731ZM161.036 18.1529C161.756 18.7929 162.715 19.1499 163.709 19.1499C164.705 19.1499 165.662 18.7929 166.383 18.1529C167.067 17.4718 167.446 16.5741 167.446 15.6415C167.446 14.7089 167.067 13.8111 166.383 13.13C165.662 12.49 164.705 12.1331 163.709 12.1331C162.715 12.1331 161.756 12.49 161.036 13.13C160.35 13.8094 159.967 14.7078 159.967 15.6415C159.967 16.5751 160.35 17.4735 161.036 18.1529Z" fill="#161428"/>
<path d="M181.662 9.21726H182.874V12.4771H181.257C180.217 12.4771 179.468 12.7032 179.02 13.1653C178.506 13.8166 178.265 14.6202 178.341 15.4256V22.0659H174.634V9.28255H177.005L177.663 10.8547C178.144 10.3072 178.756 9.87342 179.452 9.58883C180.146 9.30425 180.903 9.17692 181.662 9.21726Z" fill="#161428"/>
<path d="M191.783 18.9916H193.47V22.0657H190.84C190.183 22.1154 189.524 22.0312 188.907 21.819C188.29 21.6069 187.728 21.2718 187.265 20.8372C186.8 20.4025 186.443 19.8788 186.218 19.3024C185.994 18.726 185.906 18.1109 185.962 17.4998V12.0549H183.483V11.3166L188.904 5.93701H189.61V9.28229H193.383V12.0549H189.66V17.0377C189.629 17.3025 189.663 17.5702 189.76 17.821C189.855 18.0719 190.01 18.2995 190.212 18.487C190.415 18.6746 190.661 18.8173 190.931 18.9046C191.201 18.992 191.488 19.0217 191.772 18.9916H191.783Z" fill="#161428"/>
<path d="M203.801 8.981C204.496 8.95182 205.189 9.06692 205.83 9.31797C206.472 9.56902 207.045 9.94975 207.51 10.4326C208.479 11.5207 208.974 12.908 208.9 14.3204V22.0657H205.192V14.8729C205.192 12.9642 204.394 12.0098 202.799 12.0098C202.376 11.991 201.953 12.0616 201.562 12.2165C201.173 12.3713 200.825 12.6063 200.546 12.9039C199.961 13.5987 199.668 14.4684 199.721 15.3501V22.0657H196.014V9.28237H198.558L199.275 10.8646C199.815 10.2729 200.49 9.80097 201.252 9.48329C202.053 9.14657 202.923 8.97523 203.801 8.981Z" fill="#161428"/>
<path d="M225.607 15.6264C225.607 15.9623 225.584 16.2979 225.536 16.631H215.124C215.226 17.4047 215.624 18.1182 216.246 18.6401C216.877 19.1189 217.674 19.367 218.487 19.3383C219.087 19.3466 219.679 19.2117 220.207 18.9465C220.702 18.6957 221.112 18.3196 221.387 17.8616H225.283C224.938 18.7995 224.374 19.6548 223.634 20.3665C222.893 21.0783 221.992 21.6289 220.997 21.9791C220.001 22.3292 218.936 22.4704 217.874 22.3925C216.814 22.3146 215.784 22.0195 214.861 21.5283C213.782 20.9524 212.895 20.1114 212.295 19.0972C211.672 18.0462 211.352 16.8623 211.368 15.6615C211.355 14.4633 211.673 13.2821 212.29 12.2309C212.882 11.2199 213.76 10.3791 214.828 9.79976C215.937 9.21024 217.194 8.90683 218.471 8.92075C219.77 8.9016 221.049 9.21615 222.168 9.8299C223.232 10.4089 224.103 11.2502 224.686 12.261C225.292 13.2927 225.608 14.4502 225.607 15.6264ZM218.514 11.8692C217.761 11.8487 217.023 12.0743 216.429 12.5071C215.835 12.9609 215.422 13.5869 215.254 14.2852H221.899C221.695 13.5782 221.255 12.9501 220.644 12.4921C220.02 12.0639 219.261 11.8445 218.487 11.8692H218.514Z" fill="#161428"/>
<path d="M235.233 9.21705H236.445V12.4769H234.828C233.782 12.4769 233.039 12.703 232.586 13.1651C232.133 13.6272 231.912 14.3756 231.912 15.4254V22.0657H228.205V9.28234H230.571L231.229 10.8545C231.709 10.3063 232.323 9.87207 233.019 9.58745C233.716 9.30284 234.473 9.1759 235.233 9.21705Z" fill="#161428"/>
<path d="M243.322 22.4223C241.816 22.4897 240.336 22.0452 239.156 21.1716C238.64 20.7661 238.23 20.2574 237.955 19.6834C237.679 19.1094 237.546 18.4849 237.566 17.8565H241.172C241.162 18.0993 241.215 18.3407 241.326 18.5602C241.438 18.7797 241.605 18.9709 241.813 19.1173C242.298 19.4292 242.879 19.5845 243.468 19.5593C243.954 19.5721 244.434 19.4554 244.853 19.2227C245.032 19.1251 245.179 18.9838 245.279 18.8138C245.379 18.6439 245.427 18.4518 245.418 18.2583C245.413 18.0759 245.344 17.9 245.224 17.756C245.063 17.5802 244.855 17.4469 244.621 17.3693C244.362 17.267 244.092 17.1863 243.818 17.1282C243.554 17.0679 243.204 17.0026 242.772 16.9373L241.775 16.7514C241.511 16.7012 241.193 16.6259 240.815 16.5254C240.489 16.4438 240.172 16.3345 239.867 16.1989C239.58 16.0551 239.308 15.887 239.054 15.6966C238.787 15.5146 238.557 15.2901 238.374 15.0336C238.188 14.7597 238.044 14.4619 237.948 14.1496C237.835 13.7771 237.779 13.3915 237.781 13.0043C237.768 12.4349 237.899 11.8705 238.164 11.3573C238.429 10.8441 238.821 10.3964 239.307 10.0509C240.458 9.25161 241.871 8.84871 243.306 8.91064C244.74 8.84439 246.152 9.26163 247.283 10.086C247.771 10.4591 248.162 10.9314 248.425 11.4669C248.688 12.0023 248.814 12.5866 248.797 13.1751H245.278C245.29 12.9605 245.248 12.7463 245.153 12.5499C245.06 12.3536 244.918 12.1806 244.739 12.045C244.291 11.7662 243.757 11.6321 243.22 11.6632C242.744 11.6376 242.27 11.7556 241.872 11.9997C241.719 12.0988 241.593 12.232 241.51 12.3872C241.425 12.5424 241.383 12.7148 241.387 12.8888C241.383 13.018 241.409 13.1465 241.462 13.2655C241.526 13.3849 241.625 13.4844 241.748 13.5518C241.888 13.6322 242.012 13.7025 242.136 13.7628C242.309 13.8371 242.489 13.8944 242.675 13.9336C242.917 13.9939 243.117 14.034 243.268 14.0642L243.974 14.1847C244.957 14.3186 245.923 14.551 246.852 14.8779C247.54 15.1308 248.124 15.5797 248.522 16.1606C248.919 16.7415 249.11 17.4247 249.066 18.1127C249.094 18.7177 248.967 19.3201 248.694 19.8697C248.422 20.4193 248.012 20.9002 247.499 21.2721C246.291 22.094 244.815 22.5005 243.322 22.4223Z" fill="#161428"/>
<path d="M31.3131 11.2614C31.189 17.3191 25.6649 22.0909 19.1976 22.0909H18.3893C18.1817 22.0911 17.9765 22.1304 17.7857 22.2064C17.5949 22.2823 17.4226 22.3934 17.279 22.5329L13.0807 26.6818L10.1757 29.555C9.98783 29.7397 9.75028 29.8743 9.48776 29.9446C9.22524 30.0149 8.94731 30.0185 8.6828 29.9549C8.4183 29.8914 8.17687 29.763 7.98355 29.5832C7.79023 29.4033 7.65208 29.1785 7.58343 28.9321L6.50555 25.1097L5.67019 22.0959L4.1396 16.5707L3.10482 12.8286C3.04739 12.6181 3.04228 12.3982 3.08987 12.1856C3.13747 11.973 3.23652 11.7733 3.37947 11.6018C3.52242 11.4303 3.7055 11.2915 3.91475 11.196C4.12399 11.1004 4.3539 11.0506 4.58691 11.0505H7.5511C7.89043 11.0504 8.22016 11.1555 8.48845 11.3492C8.75673 11.5429 8.94835 11.8141 9.03318 12.1203L10.262 16.5707L11.3399 20.363L14.7244 17.0177C14.8669 16.8766 15.039 16.7641 15.2299 16.6873C15.4209 16.6104 15.6267 16.5707 15.8346 16.5707H19.4886C20.3023 16.5724 21.1078 16.4181 21.8547 16.1171C22.6017 15.8162 23.2741 15.3752 23.8302 14.8215C24.3864 14.2679 24.8143 13.6135 25.0873 12.899C25.3603 12.1845 25.4725 11.4254 25.417 10.6687C25.2846 9.24473 24.5762 7.92095 23.4353 6.96581C22.2943 6.01067 20.8063 5.49567 19.2731 5.52523H2.26947C1.92989 5.52612 1.5997 5.42136 1.33123 5.22756C1.06276 5.03376 0.871368 4.762 0.787374 4.45535L0.0490246 1.77812C-0.00940972 1.56799 -0.0154308 1.34817 0.031424 1.13553C0.0782788 0.922894 0.176763 0.723083 0.319326 0.551421C0.461889 0.379758 0.644743 0.240805 0.853862 0.145221C1.06298 0.0496369 1.29281 -3.91739e-05 1.52572 2.31784e-08H19.4617C21.0368 0.00379703 22.5953 0.29923 24.0468 0.869139C25.4983 1.43905 26.8137 2.27207 27.9169 3.31982C29.02 4.36758 29.8888 5.60917 30.4727 6.9725C31.0566 8.33582 31.3441 9.79369 31.3184 11.2614H31.3131Z" fill="#6E55FF"/>
</svg>
