<svg width="114" height="31" viewBox="0 0 114 31" fill="none" xmlns="http://www.w3.org/2000/svg">
<g clip-path="url(#clip0_47_1282)">
<path fill-rule="evenodd" clip-rule="evenodd" d="M6.96697 3.4597C7.95169 2.30239 9.06898 1.23168 10.4035 0.496826C11.0943 0.627934 11.7596 0.899051 12.4472 1.05849C12.6413 1.08115 12.8377 1.25515 12.8034 1.46638C12.6932 2.12839 12.5606 2.78717 12.4624 3.45323C12.4624 3.60861 12.3059 3.67417 12.2028 3.7551C11.619 3.54629 11.0176 3.39334 10.4227 3.22338C10.255 3.18373 10.0785 3.12303 9.90595 3.16673C9.71987 3.22743 9.55934 3.34559 9.39881 3.45484C8.13377 4.33132 7.1211 5.51938 6.18989 6.73982C5.8337 7.22864 5.49269 7.72798 5.16045 8.2338C4.91288 8.60284 4.7204 9.01478 4.40894 9.3385C4.33866 9.21387 4.26438 9.08356 4.26039 8.93626C4.23084 8.4693 4.16535 8.00638 4.12622 7.54022C4.23483 7.28124 4.40734 7.05626 4.55349 6.8167C5.27945 5.64321 6.07888 4.51342 6.96697 3.4597ZM14.3488 1.72293C15.4038 1.61772 16.458 1.48661 17.5201 1.48338C18.1471 1.40406 18.7764 1.48661 19.4041 1.49066C20.8105 1.57483 22.2409 1.77958 23.5339 2.37442C23.8701 3.08175 24.1193 3.83036 24.4491 4.54174C24.3932 4.66395 24.3629 4.81932 24.2247 4.87356C23.6417 5.19566 23.0619 5.52343 22.4757 5.84068C22.3527 5.86658 22.1259 5.88438 22.0724 5.74275C21.9071 5.12444 21.6044 4.55955 21.3704 3.96794C21.3009 3.80527 21.2218 3.62236 21.0445 3.55763C20.638 3.37958 20.2036 3.27761 19.7723 3.18291C18.8099 3.00001 17.8316 2.87862 16.8509 2.90775C15.5595 2.89076 14.2649 2.97654 12.9911 3.19263C12.9887 3.09066 12.9783 2.97493 13.0558 2.894C13.3041 2.59051 13.61 2.34367 13.88 2.06122C14.0221 1.93173 14.1427 1.74559 14.3488 1.72293ZM98.9379 2.58969C100.552 2.58321 102.166 2.59132 103.781 2.58484C103.832 3.32211 103.792 4.06425 103.806 4.80396C103.805 7.47143 103.806 10.1397 103.805 12.8072C103.806 13.0338 103.789 13.2629 103.834 13.4862C105.213 11.7948 106.521 10.0442 107.896 8.35115C108.5 8.29854 109.112 8.34385 109.719 8.32849C110.909 8.3309 112.1 8.32444 113.289 8.33172C111.688 10.2709 110.04 12.1703 108.426 14.0997C108.334 14.2081 108.237 14.3125 108.144 14.4194C109.936 17.2883 111.788 20.1193 113.578 22.9891C111.779 22.9891 109.978 22.9939 108.179 22.9883C107.229 21.2515 106.253 19.5293 105.301 17.7942C104.853 18.2563 104.441 18.7516 104.008 19.2274C103.918 19.3416 103.777 19.4443 103.787 19.607C103.784 20.7352 103.785 21.8642 103.788 22.9931C102.17 22.9875 100.553 22.9883 98.9371 22.9923C98.9411 16.1917 98.9379 9.3911 98.9379 2.58969ZM15.5747 5.29763C16.4332 5.17786 17.3013 5.173 18.1654 5.17786C18.6271 5.17786 19.0831 5.27497 19.5455 5.25555C19.5686 5.88195 19.5079 6.50917 19.5271 7.13638C19.5631 7.31928 19.4025 7.43987 19.2612 7.51351C18.1135 8.04927 16.9475 8.66919 16.1225 9.66869C15.748 10.1074 15.4876 10.6342 15.3143 11.187C15.1929 10.6035 15.3686 10.0119 15.2975 9.42509C15.2776 9.24866 15.0947 9.16774 14.939 9.15559C14.1715 9.06818 13.3976 9.04714 12.6301 8.9654C12.571 9.55457 12.6117 10.1486 12.5734 10.7378C12.551 11.0348 12.5686 11.3318 12.6069 11.6256C12.7507 11.624 12.8952 11.624 13.039 11.624C12.9887 11.658 12.9384 11.6904 12.8881 11.7227C12.694 11.7325 12.4983 11.6653 12.4161 11.4727C12.4129 11.0502 12.4129 10.6278 12.4376 10.2061C12.4919 9.68892 12.3937 9.15154 12.5646 8.64977C12.8881 7.59524 13.6523 6.75196 14.4973 6.08752C14.8335 5.79293 15.2049 5.54528 15.5747 5.29763ZM8.46441 7.51109C8.96675 6.7989 9.54896 6.15064 10.1224 5.49753C10.6383 5.90219 11.1279 6.3384 11.639 6.7471C11.7915 6.86445 11.7204 7.0773 11.6861 7.23592C11.4705 8.00881 11.3619 8.80678 11.31 9.60637C11.2524 10.6415 11.4817 11.726 12.0934 12.5725C11.7356 12.4244 11.4992 12.0983 11.1965 11.87C10.9721 11.7001 10.7405 11.4144 10.4275 11.5042C10.2238 11.5924 10.096 11.7907 9.94668 11.9477C9.54976 12.4034 9.11769 12.8266 8.72636 13.2888C9.10332 13.7169 9.59129 14.0204 10.0058 14.408C10.2198 14.595 10.4211 14.807 10.6766 14.9389C10.949 14.7876 11.1295 14.5189 11.3459 14.3012C11.7252 13.9079 12.0535 13.4579 12.4919 13.1293C12.2771 13.4765 11.96 13.7436 11.6917 14.0487C11.4114 14.3441 11.1478 14.6549 10.8643 14.9462C10.7757 15.0563 10.6287 15.0684 10.4993 15.053C9.97463 14.6273 9.4667 14.1798 8.94759 13.7468C8.24479 13.1892 7.90696 12.2957 7.74723 11.433C7.60188 10.546 7.58351 9.63227 7.7105 8.74284C7.84866 8.27021 8.19447 7.90765 8.46441 7.51109ZM23.0802 6.04624C23.137 5.90704 23.3127 5.94832 23.4308 5.9467C23.9188 5.99445 24.4076 6.05757 24.8916 6.13284C25.7165 6.89359 26.4729 7.73202 27.1972 8.59231C28.2754 9.87992 29.2625 11.2728 29.9054 12.8412C30.0388 13.1981 30.1817 13.5583 30.26 13.933C29.9309 14.5513 29.5931 15.1655 29.2609 15.7822C29.1994 15.8899 29.1363 16.0274 28.9981 16.042C28.8288 16.0987 28.6723 15.991 28.5206 15.9311C27.9887 15.6843 27.4376 15.4812 26.9041 15.2384C26.7763 15.189 26.7715 15.032 26.7236 14.9219C26.9952 14.561 27.1621 14.1377 27.3849 13.746C27.5159 13.5 27.6684 13.2653 27.773 13.0055C27.8537 12.8283 27.7738 12.6365 27.7195 12.4657C27.2004 11.0057 26.3003 9.72938 25.3476 8.5308C24.648 7.65109 23.8493 6.86121 23.0802 6.04624ZM39.7685 9.55377C40.7045 8.73314 41.8586 8.11159 43.1076 8.00638C44.2657 7.90036 45.474 8.16419 46.4412 8.83348C47.2701 9.39352 47.9178 10.2021 48.3435 11.1109C48.9593 12.4034 49.1741 13.8536 49.194 15.2764C49.2036 16.4094 49.0886 17.557 48.742 18.6399C48.397 19.7017 47.8683 20.7117 47.1184 21.5372C46.406 22.2988 45.502 22.8912 44.4957 23.1582C43.4974 23.4269 42.3993 23.4083 41.4497 22.9721C40.8691 22.7261 40.3811 22.3158 39.9187 21.8949C39.9922 22.5424 40.0201 23.1947 40.08 23.8453C40.112 24.0768 40.0984 24.3123 40.1008 24.5462C40.1008 25.7407 40.0984 26.9361 40.1024 28.1306C38.4364 28.1371 36.7713 28.1322 35.1061 28.1322C35.1029 21.5332 35.1077 14.9333 35.1029 8.33334C36.4598 8.32929 37.8159 8.32444 39.172 8.33577C39.2918 8.77522 39.3804 9.22358 39.5218 9.65656C39.6232 9.70996 39.6943 9.60638 39.7685 9.55377ZM40.4146 12.8088C40.2996 12.9529 40.084 13.0654 40.0992 13.275C40.1016 15.0255 40.0952 16.7777 40.1032 18.529C40.6151 19.0445 41.3538 19.2582 42.0614 19.2315C42.8513 19.1667 43.5078 18.5379 43.7713 17.8055C44.1267 16.8044 44.0932 15.7199 44.0572 14.6735C43.9909 13.9815 43.8919 13.2337 43.4295 12.6858C43.0997 12.2795 42.5734 12.0707 42.0598 12.095C41.4385 12.0699 40.8363 12.3556 40.4146 12.8088ZM54.1049 8.33739C55.5248 7.97967 57.0231 7.86071 58.4702 8.12859C59.7177 8.36571 60.9188 9.01477 61.6951 10.0499C62.3516 10.9223 62.6631 12.0052 62.8116 13.0783C62.9066 13.6724 62.8923 14.2753 62.9354 14.8742C62.9274 17.5789 62.9522 20.2836 62.9234 22.9875C61.5681 22.9939 60.212 22.9891 58.8568 22.9891C58.725 22.5092 58.6579 22.0066 58.4686 21.5453C57.5686 22.3044 56.5727 23.0393 55.3907 23.2465C54.4036 23.4148 53.3446 23.363 52.4341 22.9065C51.5884 22.5067 50.884 21.8018 50.4974 20.9383C50.0294 19.9113 49.9312 18.7208 50.1939 17.6242C50.4383 16.6304 51.0956 15.7733 51.9326 15.2133C53.1808 14.3692 54.6711 14.0147 56.1262 13.7387C56.7196 13.6384 57.3162 13.5469 57.9168 13.4959C57.9016 12.9488 57.5678 12.4268 57.075 12.2002C56.4664 11.9146 55.7636 11.9356 55.1167 12.0497C54.1017 12.2464 53.1737 12.7303 52.2616 13.2038C51.6586 12.1217 51.106 11.0106 50.507 9.92525C51.6259 9.23167 52.8382 8.68539 54.1049 8.33739ZM56.0304 16.9614C55.5472 17.1637 55.0992 17.5174 54.8899 18.0135C54.723 18.4262 54.8133 18.9741 55.1958 19.2339C55.5839 19.4897 56.0703 19.4783 56.5128 19.433C57.1021 19.3424 57.535 18.8819 57.9231 18.4618C57.9679 17.8087 57.9311 17.1491 57.9399 16.4936C57.289 16.5762 56.6397 16.7137 56.0304 16.9614ZM2.57367 8.41184C2.69027 8.30744 2.85479 8.36651 2.99375 8.36247C3.44259 8.9128 3.92896 9.43075 4.38498 9.9746C4.4888 10.0677 4.43369 10.211 4.43529 10.3307C3.89062 10.6674 3.39786 11.0818 2.86198 11.433C2.73979 11.5253 2.58325 11.6086 2.54013 11.7681C2.46506 12.0618 2.46186 12.3686 2.44908 12.6704C2.3804 14.3805 2.74777 16.0728 3.19741 17.7132C3.42502 18.4554 3.63266 19.2113 3.9601 19.9178C3.86107 19.9704 3.74527 20.0052 3.64464 19.9332C3.24932 19.7187 2.88993 19.4403 2.50259 19.2113C2.42752 19.1522 2.31891 19.1166 2.27977 19.0219C1.64965 17.2576 1.10099 15.4512 0.827054 13.5914C0.711251 12.7352 0.587463 11.8708 0.639374 11.0041C0.686494 10.6067 0.736009 10.2093 0.781531 9.81112C0.78233 9.6784 0.90532 9.61527 0.996364 9.54486C1.52586 9.17258 2.05216 8.79465 2.57367 8.41184ZM62.8563 8.34143C63.9744 8.31311 65.0941 8.33658 66.2138 8.32849C66.7625 8.33739 67.3127 8.31149 67.8606 8.34386C68.3174 9.8864 68.807 11.4193 69.2774 12.9577C69.6024 13.9856 69.9203 15.0166 70.1543 16.0711C70.2509 16.5276 70.3659 16.9792 70.4657 17.434C70.528 17.6841 70.564 17.9447 70.6877 18.1737C70.7692 17.9989 70.8059 17.8079 70.8443 17.6202C71.1621 16.1148 71.4728 14.6079 71.8745 13.1237C72.2826 11.5285 72.6995 9.93495 73.1028 8.339C74.1842 8.31472 75.2671 8.33496 76.3493 8.32849C76.8532 8.33576 77.358 8.31068 77.8619 8.34305C76.3668 12.8226 74.843 17.2932 73.3352 21.7687C72.9335 23.0231 72.4256 24.2459 71.7923 25.3992C71.1853 26.495 70.2948 27.4678 69.1408 27.9728C68.406 28.2957 67.605 28.4551 66.8048 28.4713C66.4773 28.5086 66.1467 28.5061 65.8193 28.4721C65.2442 28.4681 64.6684 28.3718 64.1238 28.184C64.432 26.9183 64.7036 25.6436 65.0047 24.3754C65.7194 24.6312 66.53 24.6296 67.2225 24.3034C67.8901 23.9457 68.2152 23.1947 68.3501 22.4768C68.1888 21.9621 67.9612 21.4692 67.7751 20.9634C66.1339 16.7566 64.4927 12.549 62.8563 8.34143ZM83.6832 8.33415C85.3467 8.32201 87.0119 8.33172 88.6762 8.32849C88.6738 11.1781 88.6762 14.0268 88.6746 16.8756C88.677 17.3612 88.7066 17.8581 88.8783 18.3154C89.018 18.7006 89.3838 18.9677 89.7799 19.03C90.2895 19.0915 90.8421 19.0381 91.279 18.741C91.6296 18.4983 91.9099 18.1689 92.1535 17.8209C92.2094 17.7424 92.183 17.6372 92.1926 17.5473C92.1894 14.4752 92.1902 11.4023 92.1926 8.33091C93.857 8.32929 95.5205 8.32849 97.1849 8.33172C97.1849 13.2175 97.1841 18.1041 97.1857 22.9891C95.8288 22.9915 94.4743 22.9883 93.119 22.9883C92.9984 22.3295 92.9034 21.6635 92.7493 21.0103C92.3683 21.3616 92.0465 21.7768 91.6376 22.098C91.1248 22.5124 90.565 22.8912 89.9309 23.0846C89.1123 23.3533 88.233 23.3759 87.3832 23.2845C86.325 23.1485 85.3204 22.5674 84.7166 21.6675C83.9691 20.5612 83.7446 19.191 83.6855 17.8767C83.68 14.6961 83.6847 11.5148 83.6832 8.33415ZM18.1878 9.35629C18.9409 8.88042 19.8657 8.79383 20.7331 8.86424C21.447 8.95083 22.1578 9.09894 22.8375 9.3393C23.2871 9.55054 23.5538 9.99323 23.8813 10.3485C24.505 11.047 25.0369 11.8207 25.5688 12.5911C25.0728 12.9707 24.5849 13.3608 24.0905 13.742C23.9811 13.8383 23.8278 13.7679 23.712 13.7201C23.0076 13.3648 22.2888 13.0273 21.5277 12.8153C20.5502 12.5086 19.472 12.4697 18.5049 12.8372C18.8291 12.354 19.4145 12.1476 19.7771 11.7025C19.8601 11.4452 19.6773 11.2137 19.5415 11.0138C19.1565 10.495 18.8339 9.93253 18.4498 9.41053C17.9019 9.75852 17.4163 10.1972 16.8892 10.5751C16.7207 10.7014 16.5434 10.8252 16.4236 11.0033C16.5786 11.3488 16.8181 11.6459 17.0266 11.9607C17.279 12.3152 17.4962 12.6947 17.7653 13.0379C17.9107 13.0257 18.0576 13.016 18.2022 12.9974C18.0433 13.1075 17.7645 13.2143 17.628 13.0209C17.2175 12.4139 16.8245 11.7948 16.4052 11.1935C16.2982 11.0761 16.3461 10.9134 16.3493 10.771C16.9587 10.2951 17.5721 9.82488 18.1878 9.35629ZM4.47922 13.1277C5.11174 12.9731 5.75144 12.8598 6.38556 12.7133C6.54529 12.6583 6.63234 12.8339 6.72738 12.9294C7.33434 13.7274 7.99641 14.4938 8.79345 15.1032C9.38923 15.5257 10.0665 15.8551 10.7924 15.9562C11.1039 15.991 11.4186 15.9546 11.7308 15.9886C10.9865 16.0841 10.2382 16.182 9.51701 16.3981C9.32933 16.4515 9.20874 16.649 9.25746 16.844C9.37006 17.5991 9.47788 18.355 9.61684 19.106C10.1439 19.068 10.6455 18.8867 11.1646 18.8026C11.4864 18.7346 11.8307 18.7119 12.1214 18.542C12.0567 17.7043 11.845 16.8829 11.8027 16.0436C11.8586 16.1084 11.8882 16.1893 11.8961 16.2743C12.0016 16.9751 12.0958 17.6776 12.2068 18.3777C12.2523 18.5525 12.1581 18.7799 11.9728 18.8147C11.3523 18.9466 10.7301 19.0737 10.1088 19.204C9.32853 19.4079 8.50913 19.1789 7.79675 18.8471C6.90467 18.4036 6.13399 17.7521 5.4248 17.0561C5.20038 16.3698 5.0143 15.6713 4.841 14.9713C4.68846 14.3627 4.63655 13.7347 4.47922 13.1277ZM19.1422 13.5995C19.234 13.5202 19.3418 13.4004 19.4736 13.466C20.1141 13.6497 20.7666 13.7929 21.4103 13.9678C21.9454 14.0803 22.403 14.4153 22.7959 14.786C23.6169 15.5783 24.1273 16.6369 24.5202 17.6987C24.5202 18.0807 24.4363 18.4554 24.374 18.8301C24.1951 19.8571 23.9683 20.8784 23.6257 21.8633C23.0595 21.6999 22.4813 21.5793 21.9118 21.4263C21.6363 21.3316 21.6651 20.982 21.6044 20.7481C21.3193 19.5431 20.9631 18.2935 20.1461 17.3377C19.8538 16.9808 19.5008 16.6838 19.115 16.437C19.6525 16.4046 20.1405 16.6846 20.6684 16.7202C20.8592 16.7445 21.0134 16.5915 21.0621 16.4167C21.2522 15.8656 21.4031 15.3015 21.5916 14.7495C21.6411 14.5869 21.7098 14.421 21.6866 14.2478C21.3768 14.094 21.0309 14.043 20.6987 13.9637C20.2028 13.8625 19.7212 13.7096 19.2284 13.5963C19.0056 14.2397 18.8267 14.8977 18.6095 15.5435C18.5384 15.7329 18.532 15.936 18.5783 16.1327C18.5632 16.1367 18.5328 16.1456 18.5176 16.1505C18.4282 16.0873 18.3851 15.9376 18.4362 15.834C18.6782 15.0903 18.8722 14.3319 19.1422 13.5995ZM27.0886 15.8324C27.3274 15.8227 27.44 16.0614 27.547 16.2379C27.7563 16.611 28.0014 16.9638 28.2011 17.3418C28.122 18.4756 27.9399 19.6005 27.7363 20.7182C27.3378 22.6913 26.7652 24.683 25.6111 26.3493C25.5472 26.4748 25.3947 26.4634 25.2789 26.4942C24.6384 26.6043 23.9987 26.7168 23.3598 26.8317C23.1801 26.881 23.0004 26.7143 22.9676 26.5419C22.7848 25.8969 22.6075 25.2503 22.4238 24.6053C22.3743 24.4742 22.4837 24.3601 22.5619 24.2718C23.1585 24.2152 23.7415 24.0711 24.3357 24.0023C24.5513 23.9692 24.8149 23.9578 24.9315 23.7385C25.8331 22.3368 26.3211 20.7085 26.6533 19.0834C26.8522 18.0086 27.0495 16.9274 27.0886 15.8324ZM78.6174 17.2633C79.1637 17.2001 79.7331 17.2341 80.2442 17.4551C80.9231 17.7424 81.4605 18.3291 81.7457 19.0097C81.9924 19.6167 82.0348 20.2973 81.9269 20.9399C81.804 21.674 81.3855 22.34 80.8089 22.7949C80.2889 23.1914 79.6261 23.3622 78.9816 23.3282C78.246 23.3355 77.5073 23.0304 77.0074 22.4808C75.91 21.3373 75.8925 19.3262 76.9522 18.1527C77.3787 17.6655 77.9817 17.3507 78.6174 17.2633ZM18.7484 17.4551C18.913 17.3863 19.151 17.4162 19.226 17.6024C19.5239 18.2749 19.8306 18.9434 20.1269 19.6175C20.4471 20.5515 20.281 21.5825 19.9536 22.4898C19.7212 23.0733 19.4624 23.6503 19.1382 24.1885C18.7684 24.4782 18.3411 24.6789 17.9378 24.9144C17.1128 25.3903 16.2327 25.7537 15.3606 26.13C15.1314 25.663 14.9198 25.188 14.7105 24.7121C14.6498 24.5583 14.4933 24.3835 14.6211 24.2209C14.9789 23.7385 15.3806 23.2885 15.6921 22.773C16.0411 22.2065 16.3885 21.6246 16.5634 20.9747C16.7535 20.3475 16.8054 19.6766 16.684 19.0308C16.7007 19.0122 16.7343 18.9749 16.7511 18.9579C16.9228 19.4613 17.1384 19.9485 17.3644 20.4301C17.4395 20.5903 17.5601 20.7943 17.7669 20.7635C18.0409 20.7085 18.2836 20.5563 18.5432 20.4576C19.0328 20.2634 19.5271 20.0845 20.0183 19.8951C19.7491 19.068 19.3099 18.3137 19.0032 17.502C18.3891 17.6687 17.81 17.9382 17.2167 18.1632C16.9603 18.253 16.7311 18.4019 16.5338 18.5905C16.5849 18.4796 16.5905 18.3218 16.7175 18.2708C17.3892 17.9868 18.0792 17.7472 18.7484 17.4551ZM13.8185 18.4513L13.8919 18.4724C14.5109 18.788 15.0859 19.1878 15.7024 19.5083C15.8861 19.5908 15.9868 19.8449 15.8686 20.0206C15.5898 20.5782 15.3063 21.135 15.0236 21.691C14.6578 22.5124 13.8792 23.049 13.0901 23.4026C12.3194 23.7175 11.5064 23.9198 10.6838 24.0242C10.5009 23.9959 10.3228 23.9416 10.1519 23.8729C9.43954 23.5775 8.73355 23.2667 8.03954 22.9284C7.63383 22.7325 7.26646 22.4687 6.86474 22.2656C7.13229 21.7266 7.39743 21.1868 7.67456 20.6534C7.73446 20.4786 7.93092 20.4382 8.09225 20.4495C9.04182 20.4859 9.99779 20.4179 10.9258 20.2059C11.7907 19.9801 12.6149 19.5374 13.2043 18.8454C13.0598 19.4225 12.6756 19.8919 12.4768 20.4438C12.3985 20.647 12.5534 20.8315 12.7203 20.9229C13.3481 21.2952 13.9958 21.6359 14.6123 22.0293C14.9837 21.4603 15.2273 20.8202 15.5635 20.2302C15.6553 20.0594 15.7576 19.8878 15.7943 19.6944C15.5228 19.4864 15.2033 19.3561 14.9206 19.1659C14.5548 18.9231 14.1339 18.7653 13.8185 18.4513ZM2.2614 20.507C2.95542 20.4471 3.65423 20.4406 4.34824 20.392C4.51995 20.3669 4.6062 20.5507 4.71881 20.6478C4.51835 21.1941 4.61339 21.7816 4.54151 22.3473C4.53113 22.5634 4.46724 22.8175 4.62057 22.9996C4.87534 23.3177 5.18841 23.5823 5.49907 23.8421C7.02128 25.0755 8.8246 25.8791 10.6351 26.5751C11.0145 26.7313 11.4321 26.8074 11.7692 27.0534C11.6709 27.1376 11.5695 27.225 11.4433 27.2622C11.0248 27.403 10.6072 27.5447 10.1895 27.6847C10.1128 27.7146 10.0369 27.7114 9.96265 27.675C8.30548 27.1198 6.67547 26.4586 5.14767 25.5999C3.95052 24.9314 2.83083 24.1043 1.914 23.0716C1.94435 22.3392 2.00105 21.6084 2.02341 20.8752C2.00903 20.7101 2.12404 20.5749 2.2614 20.507ZM20.396 26.2028C20.9551 25.8451 21.5485 25.5408 22.0764 25.1338C22.165 25.2511 22.1802 25.4041 22.1195 25.5392C21.9406 26.0086 21.8032 26.4974 21.5932 26.9539C20.8744 27.4621 20.1093 27.9032 19.3466 28.3394C18.1295 29.0103 16.8701 29.6157 15.5451 30.0325C14.6898 30.2842 13.8041 30.4954 12.9112 30.4995C12.4041 30.0729 11.9321 29.6027 11.425 29.1738C11.2564 29.05 11.072 28.8493 11.1798 28.6275C11.5368 28.095 11.9321 27.59 12.2827 27.0534C12.3785 26.8624 12.5734 26.7232 12.7906 26.792C13.1468 27.2558 13.6244 27.5957 14.0421 27.9963C14.1683 28.1096 14.2865 28.2358 14.4374 28.3159C14.669 28.3653 14.9078 28.3192 15.1378 28.2876C15.6937 28.1856 16.2495 28.0707 16.7838 27.8822C18.0417 27.4532 19.2444 26.8697 20.396 26.2028Z" fill="#1E1E1E"/>
<path fill-rule="evenodd" clip-rule="evenodd" d="M12.9911 3.19251C14.2649 2.97642 15.5595 2.89064 16.8509 2.90763C17.8316 2.8785 18.8099 2.99989 19.7723 3.1828C20.2036 3.27749 20.638 3.37946 21.0445 3.55751C21.2218 3.62225 21.3009 3.80515 21.3704 3.96782C21.6044 4.55943 21.9071 5.12432 22.0724 5.74263C21.6978 5.67384 21.3448 5.51845 20.9687 5.45371C20.4967 5.37278 20.0263 5.24653 19.5455 5.25543C19.0831 5.27485 18.6271 5.17774 18.1655 5.17774C17.3013 5.17288 16.4332 5.17774 15.5747 5.29751C15.0763 5.24976 14.5852 5.39382 14.0884 5.41244C13.9399 5.41729 13.848 5.27566 13.8001 5.15022C13.5286 4.49873 13.2706 3.84238 12.9911 3.19251ZM9.90596 3.16661C10.0785 3.12291 10.255 3.18361 10.4227 3.22326C11.0177 3.39322 11.619 3.54618 12.2028 3.75498C11.4226 4.21547 10.7246 4.82002 10.1224 5.49741C9.54897 6.15052 8.96676 6.79878 8.46442 7.51097C8.19448 7.90753 7.84867 8.27009 7.71051 8.74273C7.69533 8.72088 7.66419 8.67718 7.64901 8.65451C7.4206 9.03246 7.17861 9.4015 6.95659 9.78269C6.88711 9.9138 6.73218 10.0142 6.58283 9.95912C5.85847 9.75355 5.1373 9.53261 4.40894 9.33838C4.72041 9.01466 4.91288 8.60272 5.16046 8.23368C5.49269 7.72786 5.83371 7.22852 6.1899 6.7397C7.12111 5.51926 8.13378 4.3312 9.39882 3.45472C9.55935 3.34547 9.71987 3.22731 9.90596 3.16661ZM21.9981 8.03135C22.3455 7.36205 22.7169 6.70571 23.0803 6.04612C23.8493 6.86109 24.648 7.65098 25.3476 8.53069C26.3004 9.72927 27.2004 11.0056 27.7195 12.4656C27.7738 12.6364 27.8537 12.8282 27.773 13.0054C27.6684 13.2652 27.5159 13.4999 27.3849 13.7459C27.1621 14.1376 26.9952 14.5609 26.7236 14.9218C26.4545 14.0939 26.0648 13.3024 25.5688 12.591C25.0369 11.8206 24.505 11.0469 23.8813 10.3484C23.5538 9.99311 23.2871 9.55042 22.8375 9.33919C22.8798 9.34404 22.9645 9.35214 23.0076 9.35618C22.7153 9.03327 22.403 8.73221 22.1003 8.42143C21.9973 8.32432 21.9182 8.16893 21.9981 8.03135ZM12.6301 8.96529C13.3976 9.04703 14.1715 9.06807 14.939 9.15548C15.0947 9.16762 15.2776 9.24855 15.2975 9.42497C15.3686 10.0118 15.1929 10.6034 15.3143 11.1869C15.3095 11.4572 15.2983 11.8861 14.9398 11.8918C14.2561 11.8359 13.5701 11.7922 12.8881 11.7226C12.9384 11.6903 12.9887 11.6579 13.039 11.6239C12.8953 11.6239 12.7507 11.6239 12.6069 11.6255C12.5686 11.3317 12.551 11.0347 12.5734 10.7377C12.6117 10.1485 12.571 9.55446 12.6301 8.96529ZM18.4498 9.41041C18.8339 9.93241 19.1566 10.4949 19.5415 11.0137C19.6773 11.2136 19.8602 11.4451 19.7771 11.7024C19.4145 12.1475 18.8291 12.3539 18.5049 12.8371C18.4306 12.9277 18.3116 12.9698 18.2022 12.9973C18.0576 13.0159 17.9107 13.0256 17.7653 13.0378C17.4962 12.6946 17.279 12.3151 17.0266 11.9606C16.8182 11.6458 16.5786 11.3487 16.4236 11.0032C16.5434 10.8251 16.7207 10.7013 16.8892 10.575C17.4163 10.1971 17.9019 9.75841 18.4498 9.41041ZM2.86199 11.4329C3.39787 11.0817 3.89063 10.6673 4.4353 10.3306C4.30832 11.2557 4.33547 12.2066 4.47922 13.1276C4.63656 13.7346 4.68847 14.3626 4.84101 14.9712C5.01431 15.6712 5.20039 16.3697 5.42481 17.056C5.51506 17.4865 5.70273 17.8855 5.82732 18.3055C5.88243 18.4528 5.79777 18.6098 5.67398 18.6883C5.10296 19.0987 4.53114 19.5074 3.96011 19.9177C3.63267 19.2112 3.42502 18.4553 3.19741 17.7131C2.74778 16.0727 2.38041 14.3804 2.44909 12.6703C2.46187 12.3685 2.46506 12.0617 2.54014 11.768C2.58326 11.6085 2.73979 11.5252 2.86199 11.4329ZM9.94669 11.9476C10.096 11.7906 10.2238 11.5923 10.4275 11.5041C10.7405 11.4143 10.9721 11.7 11.1966 11.8699C11.4992 12.0982 11.7356 12.4243 12.0934 12.5724L12.1254 12.587C12.2651 12.7553 12.4352 12.9083 12.4919 13.1292C12.0535 13.4578 11.7252 13.9078 11.3459 14.3011C11.1295 14.5188 10.949 14.7875 10.6766 14.9388C10.4211 14.8069 10.2198 14.5949 10.0058 14.4079C9.59129 14.0203 9.10333 13.7168 8.72637 13.2887C9.1177 12.8265 9.54976 12.4033 9.94669 11.9476ZM19.2284 13.5962C19.7212 13.7095 20.2028 13.8624 20.6987 13.9636C21.031 14.0429 21.3768 14.0939 21.6866 14.2477C21.7098 14.4209 21.6411 14.5868 21.5916 14.7494C21.4031 15.3014 21.2522 15.8655 21.0621 16.4166C21.0134 16.5914 20.8593 16.7444 20.6684 16.7201C20.1405 16.6845 19.6525 16.4045 19.115 16.4369C18.9058 16.3794 18.6782 16.292 18.5177 16.1504C18.5328 16.1455 18.5632 16.1366 18.5783 16.1326C18.532 15.9359 18.5384 15.7328 18.6095 15.5434C18.8267 14.8976 19.0056 14.2396 19.2284 13.5962ZM25.0681 16.1932C25.7421 16.0759 26.4202 15.9788 27.0886 15.8323C27.0495 16.9273 26.8522 18.0085 26.6534 19.0833C26.3211 20.7084 25.8332 22.3367 24.9315 23.7384C24.8149 23.9577 24.5513 23.9691 24.3357 24.0022C23.7415 24.071 23.1585 24.2151 22.5619 24.2717C22.9517 23.6494 23.2695 22.9849 23.5227 22.2954C23.573 22.1554 23.6098 22.0114 23.6257 21.8632C23.9683 20.8783 24.1952 19.857 24.374 18.83C24.4363 18.4553 24.5202 18.0806 24.5202 17.6986C24.6767 17.2785 24.6176 16.8132 24.7254 16.3818C24.7774 16.2434 24.9443 16.2248 25.0681 16.1932ZM9.51702 16.398C10.2382 16.1819 10.9865 16.084 11.7308 15.9885L11.7987 15.9772L11.8027 16.0435C11.845 16.8828 12.0567 17.7042 12.1214 18.5419C11.8307 18.7118 11.4865 18.7345 11.1646 18.8025C10.6455 18.8866 10.1439 19.0679 9.61685 19.1059C9.47789 18.3549 9.37007 17.599 9.25746 16.8439C9.20875 16.6489 9.32934 16.4514 9.51702 16.398ZM17.2167 18.1631C17.8101 17.9381 18.3891 17.6686 19.0032 17.5019C19.3099 18.3136 19.7491 19.0679 20.0183 19.895C19.5271 20.0844 19.0328 20.2632 18.5432 20.4575C18.2836 20.5562 18.0409 20.7084 17.7669 20.7634C17.5601 20.7942 17.4395 20.5902 17.3644 20.43C17.1384 19.9484 16.9228 19.4612 16.7511 18.9578C16.7343 18.9748 16.7008 19.0121 16.684 19.0307C16.6193 18.8899 16.585 18.7361 16.5338 18.5904C16.7311 18.4018 16.9603 18.2529 17.2167 18.1631ZM13.5054 18.3929C13.646 18.3646 13.7945 18.3403 13.8919 18.4723L13.8185 18.4512C14.1339 18.7652 14.5548 18.923 14.9206 19.1658C15.2033 19.356 15.5228 19.4863 15.7943 19.6943C15.7576 19.8877 15.6553 20.0593 15.5635 20.2301C15.2273 20.8201 14.9837 21.4602 14.6123 22.0292C13.9958 21.6358 13.3481 21.2951 12.7204 20.9228C12.5534 20.8314 12.3985 20.6469 12.4768 20.4437C12.6756 19.8918 13.0598 19.4224 13.2043 18.8453C13.2826 18.6819 13.4064 18.5443 13.5054 18.3929ZM4.71881 20.6477C5.25151 21.2037 5.86725 21.6714 6.51415 22.0826C6.62596 22.1538 6.74176 22.2177 6.86475 22.2655C7.26646 22.4686 7.63384 22.7324 8.03954 22.9283C8.73356 23.2666 9.43955 23.5774 10.1519 23.8728C10.3228 23.9415 10.5009 23.9958 10.6838 24.0241C10.9905 24.2912 11.4282 24.2895 11.7692 24.4911C11.9217 24.5914 11.8834 24.7881 11.881 24.9435C11.8339 25.6459 11.8075 26.35 11.7692 27.0533C11.4321 26.8073 11.0145 26.7312 10.6351 26.575C8.8246 25.879 7.02128 25.0754 5.49908 23.842C5.18841 23.5822 4.87535 23.3176 4.62058 22.9995C4.46724 22.8174 4.53114 22.5633 4.54152 22.3472C4.61339 21.7815 4.51836 21.194 4.71881 20.6477ZM19.1382 24.1884C19.5383 24.0743 19.8282 23.7392 20.2092 23.5846C20.309 23.5644 20.3936 23.6227 20.4647 23.6858C21.0054 24.1649 21.5325 24.6594 22.0764 25.1337C21.5485 25.5407 20.9551 25.845 20.396 26.2027C19.2444 26.8696 18.0417 27.4531 16.7838 27.8821C16.2495 28.0706 15.6937 28.1855 15.1378 28.2875C14.9078 28.3191 14.669 28.3652 14.4374 28.3158C14.2865 28.2357 14.1683 28.1095 14.0421 27.9962C13.6244 27.5956 13.1468 27.2557 12.7906 26.7919C13.6691 26.6802 14.546 26.4884 15.3606 26.1299C16.2328 25.7536 17.1128 25.3902 17.9378 24.9143C18.3412 24.6788 18.7684 24.4781 19.1382 24.1884Z" fill="#1E1E1E" fill-opacity="0.5"/>
</g>
<defs>
<clipPath id="clip0_47_1282">
<rect width="114" height="31" fill="white"/>
</clipPath>
</defs>
</svg>
