<svg width="115" height="41" viewBox="0 0 115 41" fill="none" xmlns="http://www.w3.org/2000/svg">
<g clip-path="url(#clip0_47_1286)">
<path d="M16.0472 12.9368C6.77572 19.33 0.276123 27.9613 0.276123 27.9613L12.4359 36.1897C12.4359 36.1897 13.4938 33.5603 13.524 33.4869C16.4152 39.4492 22.6166 41.0494 26.0831 40.9652H89.0996C92.6067 41.0609 98.8705 39.4819 101.789 33.5268C101.888 33.7738 102.839 36.0915 102.839 36.0915L115 27.9511C115 27.9511 108.399 19.3094 99.062 12.9251C90.4577 7.04385 76.2606 0.030795 57.4895 0.030795C42.686 0.0166465 28.2298 4.51861 16.0472 12.9368Z" fill="#1E1E1E"/>
<path d="M39.0799 19.4661L40.1322 17.2166H26.6464L25.5938 19.4661H30.8153L25.4089 30.4793H28.8993L34.3069 19.4661H39.0799Z" fill="white"/>
<path d="M87.7766 26.8253C86.7747 28.2367 85.3547 28.951 84.6037 28.4223C83.8531 27.887 84.0599 26.3107 85.0625 24.8974C86.065 23.4841 87.4862 22.7707 88.237 23.3006C88.9856 23.8355 88.7797 25.4109 87.7766 26.8253ZM75.9723 26.7714C74.9677 28.1871 73.5481 28.8992 72.798 28.3705C72.0465 27.8354 72.2526 26.2589 73.2577 24.84C74.2596 23.4288 75.6796 22.7144 76.4315 23.2463C77.1835 23.7783 76.9733 25.3579 75.9723 26.7712V26.7714ZM61.3079 25.7463C61.3079 25.7463 61.9578 23.5516 64.0775 22.6733C64.0775 22.6733 64.6763 22.4659 64.9982 22.7294C64.9982 22.7294 65.4525 23.1707 64.9118 23.9756C64.429 24.6942 63.2724 25.9965 62.016 26.4336C62.016 26.4336 60.8783 26.928 61.3079 25.7463ZM40.7168 26.7714C39.713 28.1871 38.2931 28.8992 37.5423 28.3705C36.7923 27.8354 36.9996 26.2589 38.002 24.84C39.0046 23.4288 40.4252 22.7144 41.1754 23.2463C41.9256 23.7783 41.7192 25.3579 40.7168 26.7712V26.7714ZM91.1363 28.4938C91.1363 28.4938 90.4563 28.8067 90.162 28.5035C89.8677 28.2003 90.1301 27.636 90.1301 27.636L92.9823 21.6389H90.0757L89.6328 22.4383C87.935 20.944 84.7444 21.7166 82.7653 23.7861C81.6254 24.9805 80.9775 26.3918 80.8913 27.6207C80.4005 27.9473 79.8772 28.2221 79.3298 28.4408C79.3298 28.4408 78.6507 28.7515 78.3565 28.4472C78.0624 28.1429 78.3235 27.5786 78.3235 27.5786L83.3849 17.1595H80.4808L77.8258 22.3833C76.1302 20.8922 72.9392 21.6637 70.9606 23.7331C70.5758 24.1369 70.2353 24.5807 69.9447 25.0569L69.9458 25.0472C69.9269 25.0828 69.9058 25.1195 69.8865 25.1561C69.825 25.263 69.7647 25.3708 69.7113 25.4751C68.1321 28.2115 66.1687 28.6678 66.1687 28.6678C62.0187 29.9107 61.5434 27.8759 61.5434 27.8759C66.1934 26.1533 67.9375 24.1188 67.7807 22.5608C67.6201 20.9978 65.481 20.9196 65.481 20.9196C61.9664 20.7081 58.9272 23.1685 58.1872 25.5755C57.9573 26.2763 57.9036 27.023 58.0309 27.7496C56.6244 28.4984 55.8161 28.6182 55.8161 28.6182C54.645 28.9882 54.5011 28.4359 54.3596 28.0918C54.2181 27.7478 53.692 24.7534 53.692 24.7534L58.6265 21.5239H55.6047L51.8964 23.8244C51.063 24.1676 51.3865 23.2935 51.3865 23.2935L54.4119 17.1558H51.507L46.5964 27.1156C46.0319 27.4505 44.896 28.1137 44.0767 28.4407C44.0767 28.4407 43.3961 28.7514 43.1007 28.447C42.8053 28.1427 43.0688 27.5784 43.0688 27.5784L45.92 21.5837H43.0156L42.5704 22.3831C40.8752 20.892 37.684 21.6635 35.7058 23.733C33.7276 25.8024 33.2217 28.5312 34.5761 29.8249C35.6596 30.865 37.6051 30.6741 39.3523 29.4927C39.3523 29.4927 39.7954 29.1107 40.0347 29.5606C40.2842 30.0192 41.2846 31.0658 43.588 30.1551C44.2661 29.8864 44.9252 29.5719 45.5607 29.2137L44.9565 30.4395H47.8625L49.3167 27.4917L50.5812 26.6868C50.5812 26.6868 50.9668 26.3816 51.1242 27.0331C51.1242 27.0331 51.7501 29.5094 51.9941 29.8342C52.238 30.1589 52.7216 30.8851 54.7627 30.2981C56.0511 29.9265 57.3172 29.4816 58.555 28.9656C59.2379 29.9055 60.5541 30.5486 62.7061 30.5486C65.0385 30.5381 67.2955 29.7204 69.0943 28.2341C69.1411 28.836 69.4029 29.401 69.8317 29.8256C70.9152 30.8656 72.8592 30.6747 74.6079 29.4933C74.6079 29.4933 75.0509 29.1113 75.2918 29.5613C75.5392 30.0198 76.5401 31.0664 78.8441 30.1557C79.626 29.8602 80.3739 29.4815 81.0748 29.026C81.1975 29.3493 81.3896 29.6418 81.6375 29.8827C82.721 30.9194 84.6649 30.7266 86.4132 29.5477C86.4132 29.5477 86.8557 29.1689 87.0972 29.6145C87.3452 30.0771 88.3448 31.1197 90.6489 30.2101C92.9529 29.3005 93.6164 28.4751 93.6164 28.4751L93.0339 27.4468C92.4461 27.8716 91.8091 28.2234 91.1366 28.4946" fill="white"/>
<path d="M99.2738 28.218C99.2738 28.218 97.8995 36.2445 89.0353 36.2445H25.9974C17.1358 36.2445 15.8875 28.1446 15.8875 28.1446C15.5483 25.9942 15.9643 24.5241 16.6248 23.506C23.0062 15.0943 35.6328 3.80951 57.4612 3.80951C79.4777 3.80951 92.2072 15.2586 98.5896 23.6722C99.3264 24.6045 99.6007 26.1372 99.2738 28.218ZM57.4898 2.4187C22.329 2.4187 3.68201 27.3872 3.68201 27.3872L11.3277 32.5587C11.3277 32.5587 12.2519 30.2431 14.369 26.9285C14.3708 27.4019 14.4114 27.8743 14.4906 28.341C15.8418 38.8309 26.0268 38.5816 26.0268 38.5816H89.1664C89.1664 38.5816 99.4843 38.8622 100.834 28.3777C100.91 27.9259 100.948 27.4687 100.949 27.0106C103.025 30.2431 103.938 32.4896 103.938 32.4896L111.572 27.3743C111.572 27.3743 92.6508 2.4187 57.4898 2.4187Z" fill="white"/>
</g>
<defs>
<clipPath id="clip0_47_1286">
<rect width="115" height="41" fill="white"/>
</clipPath>
</defs>
</svg>
