<svg width="102" height="29" viewBox="0 0 102 29" fill="none" xmlns="http://www.w3.org/2000/svg">
<g clip-path="url(#clip0_47_1205)">
<path d="M7.85001 23.3926H20.3295C20.4302 23.3926 20.4302 23.4941 20.3295 23.4941C18.8199 24.1035 16.8071 26.0334 16.8071 26.0334C15.3981 27.2522 14.2911 28.0648 11.9763 28.0648H0.100628C-1.39773e-05 28.0648 -1.39773e-05 27.9632 0.100628 27.9632C1.40897 27.2522 3.32115 25.3224 3.32115 25.3224C4.12628 24.5098 5.73654 23.3926 7.85001 23.3926Z" fill="#1E1E1E" fill-opacity="0.6"/>
<path d="M89.4701 23.3926H101.95C102.05 23.3926 102.05 23.4941 101.95 23.4941C100.541 24.1035 98.5279 26.0334 98.5279 26.0334C97.1189 27.2522 96.0118 28.0648 93.6971 28.0648H81.7207C81.6201 28.0648 81.6201 27.9632 81.7207 27.9632C83.0291 27.2522 84.9413 25.3224 84.9413 25.3224C85.847 24.5098 87.4573 23.3926 89.4701 23.3926Z" fill="#1E1E1E" fill-opacity="0.6"/>
<path d="M28.2803 23.3926H40.7598C40.8604 23.3926 40.8604 23.4941 40.7598 23.4941C39.3508 24.1035 37.338 26.0334 37.338 26.0334C35.929 27.2522 34.8219 28.0648 32.5072 28.0648H20.6315C20.5309 28.0648 20.5309 27.9632 20.6315 27.9632C21.9398 27.2522 23.852 25.3224 23.852 25.3224C24.5565 24.5098 26.1668 23.3926 28.2803 23.3926Z" fill="#1E1E1E" fill-opacity="0.6"/>
<path d="M48.6097 23.3926H61.0893C61.1899 23.3926 61.1899 23.4941 61.0893 23.4941C59.6803 24.1035 57.6674 26.0334 57.6674 26.0334C56.2585 27.2522 55.1514 28.0648 52.8367 28.0648H40.961C40.8603 28.0648 40.8603 27.9632 40.961 27.9632C42.2693 27.2522 44.1815 25.3224 44.1815 25.3224C44.9866 24.5098 46.5969 23.3926 48.6097 23.3926Z" fill="#1E1E1E" fill-opacity="0.6"/>
<path d="M69.04 23.3926H81.5195C81.6202 23.3926 81.6202 23.4941 81.5195 23.4941C80.1106 24.1035 78.0977 26.0334 78.0977 26.0334C76.6888 27.2522 75.5817 28.0648 73.267 28.0648H61.3913C61.2906 28.0648 61.2906 27.9632 61.3913 27.9632C62.6996 27.2522 64.6118 25.3224 64.6118 25.3224C65.4169 24.5098 67.0272 23.3926 69.04 23.3926Z" fill="#1E1E1E" fill-opacity="0.6"/>
<path d="M72.4617 0.640869C64.6117 0.640869 59.479 4.39896 59.479 10.1885C59.479 15.4701 64.2092 19.025 71.3547 19.025C73.6694 19.025 75.6823 18.7203 78.0977 18.1109V13.6418C76.3868 15.4701 74.3739 16.1811 72.1598 16.1811C67.9329 16.1811 65.1149 13.5403 65.1149 9.6806C65.1149 5.92251 68.1342 3.18012 72.2605 3.18012C74.5752 3.18012 76.3868 3.99267 77.7957 5.41465V1.14872C76.2861 0.742439 74.3739 0.640869 72.4617 0.640869Z" fill="#1E1E1E"/>
<path d="M13.5866 3.68793C16.5052 3.68793 19.927 4.19578 21.4366 5.41462V1.14868H0.704468V5.41462C2.21409 4.29735 5.23333 3.7895 8.55449 3.7895V15.3685C8.55449 17.0952 8.45385 17.5015 7.64872 18.4156H14.2911C13.5866 17.5015 13.3853 16.9936 13.3853 15.3685V3.68793H13.5866Z" fill="#1E1E1E"/>
<path d="M35.0232 7.95387C33.8155 8.36015 31.702 8.46172 30.595 8.46172H28.8841V3.89107H31.1988C33.3123 3.89107 36.9354 4.29735 38.2437 5.51619V1.14868H23.2482C23.9527 2.06281 24.0533 2.57066 24.0533 4.19578V15.3685C24.0533 17.0952 23.9527 17.6031 23.2482 18.4156H39.2501V14.2513C37.036 15.8764 32.9097 15.8764 31.1988 15.7748H28.8841V11.001H30.595C31.8027 11.001 33.8155 11.1026 35.0232 11.5089V7.95387Z" fill="#1E1E1E"/>
<path d="M57.2649 1.75814C54.9501 1.04715 51.7296 0.539307 49.4149 0.539307C45.0873 0.539307 40.8604 1.85971 40.8604 6.22722C40.8604 13.7434 53.9437 9.78217 53.9437 14.3528C53.9437 15.8764 51.629 16.4858 49.8174 16.4858C46.4963 16.4858 44.0809 15.9779 41.1623 14.2513V18.0093C43.3764 18.7203 46.295 19.1266 49.6162 19.1266C54.145 19.1266 58.372 17.9078 58.372 13.5403C58.372 5.6178 45.2886 9.17275 45.2886 5.31309C45.2886 3.78954 47.402 3.18012 49.2136 3.18012C52.3335 3.18012 55.6546 4.09425 57.4662 5.82094V1.75814H57.2649Z" fill="#1E1E1E"/>
<path d="M84.3374 9.88374C84.3374 6.22722 86.6522 3.28169 90.1746 3.28169C93.6971 3.28169 96.0118 6.22722 96.0118 9.88374C96.1125 13.4387 93.7977 16.3842 90.2753 16.3842C86.6522 16.3842 84.3374 13.4387 84.3374 9.88374ZM101.346 9.6806C101.346 4.19582 97.1189 0.539307 90.7785 0.539307C83.9349 0.640877 79.2047 4.50053 79.2047 10.0869C79.2047 15.4701 83.5323 19.1266 89.8727 19.1266C96.6157 19.1266 101.346 15.267 101.346 9.6806Z" fill="#1E1E1E"/>
</g>
<defs>
<clipPath id="clip0_47_1205">
<rect width="102" height="29" fill="white"/>
</clipPath>
</defs>
</svg>
