<svg width="54" height="21" viewBox="0 0 54 21" fill="none" xmlns="http://www.w3.org/2000/svg">
<g clip-path="url(#clip0_2536_121966)">
<path d="M9.17988 5.25886L5.05812 2.87948L0.9375 5.25886V2.87948L5.05874 0.5L9.18051 2.87948V5.25886H9.17988Z" fill="#A435F0"/>
<path d="M0.9375 7.257H3.09636V12.5022C3.09636 13.8574 4.10838 14.5179 5.05874 14.5179C6.01729 14.5179 7.02165 13.8398 7.02165 12.484V7.2571H9.18051V12.6272C9.18051 13.8755 8.78797 14.8389 8.0031 15.4994C7.2176 16.1595 6.23667 16.4808 5.04051 16.4808C3.84548 16.4808 2.86403 16.16 2.09729 15.4995C1.32994 14.8393 0.9375 13.9118 0.9375 12.6804V7.257ZM27.8446 13.7759C27.1912 14.3578 26.4467 14.6429 25.5978 14.6429C24.0491 14.6429 23.0107 13.7606 22.8934 12.3942H29.8686C29.8686 12.3942 29.9155 11.9532 29.9155 11.539C29.9155 10.2542 29.5049 9.18353 28.666 8.30944C27.8459 7.43534 26.7758 7.00705 25.4728 7.00705C24.0995 7.00705 22.9749 7.43534 22.0826 8.30944C21.2085 9.18353 20.7627 10.3252 20.7627 11.7531V11.8235C20.7627 13.2332 21.2085 14.3572 22.0826 15.1961C22.9568 16.0344 24.1166 16.4627 25.5262 16.4627C27.1654 16.4627 28.4694 15.8162 29.448 14.7016L27.8446 13.7759ZM23.7416 9.39762C24.2227 9.0228 24.8123 8.82684 25.4722 8.82684C26.0965 8.82684 26.6139 9.0228 27.0603 9.41586C27.4862 9.77368 27.7163 10.2132 27.7362 10.7182H22.9486C23.0177 10.1961 23.2817 9.75617 23.7423 9.39824L23.7416 9.39762ZM49.5765 17.6747C48.7006 19.7426 47.7842 20.446 46.3793 20.446H45.4054V18.5323H46.1926C46.6761 18.5323 47.1255 18.3505 47.5537 17.3626L47.982 16.3735L44.2884 7.257H46.4831L49.1059 13.8228L51.8004 7.257H53.9945L49.5771 17.6746L49.5765 17.6747ZM17.5848 3.814V8.0713C16.8773 7.43773 15.7768 7.06052 14.7125 7.06052C13.4454 7.06052 12.3753 7.50633 11.5012 8.41565C10.6448 9.30788 10.2165 10.4138 10.2165 11.7519C10.2165 13.0907 10.6448 14.1965 11.5012 15.1063C12.3753 15.9986 13.446 16.4451 14.7126 16.4451C16.1734 16.4451 17.0967 15.8708 17.5848 15.4208V16.2486H19.7261V3.81451H17.5848V3.814ZM16.9424 13.7154C16.425 14.2329 15.7651 14.5009 14.9977 14.5009C14.2303 14.5009 13.6062 14.2329 13.0887 13.7154C12.59 13.198 12.3396 12.538 12.3396 11.7531C12.3396 10.9676 12.5895 10.3076 13.0888 9.79016C13.6062 9.27275 14.2303 9.00519 14.9976 9.00519C15.7651 9.00519 16.425 9.27275 16.9424 9.79016C17.4774 10.3076 17.7461 10.9676 17.7461 11.7531C17.7461 12.538 17.4774 13.198 16.9424 13.7154ZM40.9598 7.07866C39.3336 7.07866 38.4883 7.75327 37.9092 8.40332C37.6775 7.96156 37.0252 7.07866 35.5009 7.07866C34.2127 7.07866 33.4537 7.72985 33.0746 8.19327V7.25814H30.9521V16.2497H33.0746V11.0755C33.0746 9.86229 33.8243 8.98819 34.8228 8.98819C35.8407 8.98819 36.429 9.75555 36.429 10.9863V16.2491H38.5522V11.0749C38.5522 9.84415 39.2831 8.98767 40.3356 8.98767C41.3528 8.98767 41.9412 9.75493 41.9412 10.9852V16.2486H44.0825V10.6824C44.0825 8.33814 42.8224 7.07918 40.9598 7.07918V7.07866Z" fill="black"/>
</g>
<defs>
<clipPath id="clip0_2536_121966">
<rect width="53.0625" height="20" fill="white" transform="translate(0.9375 0.5)"/>
</clipPath>
</defs>
</svg>
