<svg width="24" height="16" viewBox="0 0 24 16" fill="none" xmlns="http://www.w3.org/2000/svg">
<g clip-path="url(#clip0_649_30164)">
<path d="M0.00390625 0H23.9964V16H0.00390625V0Z" fill="#012169"/>
<path d="M2.81553 0L11.9627 6.03333L21.0723 0H23.9964V2.06667L14.9992 8.03333L23.9964 13.9667V16H20.9973L12.0002 10.0333L3.04046 16H0.00390625V14L8.96361 8.06667L0.00390625 2.13333V0H2.81553Z" fill="white"/>
<path d="M15.8989 9.36667L23.9964 14.6667V16L13.8371 9.36667H15.8989ZM9.00109 10.0333L9.22602 11.2L2.02827 16H0.00390625L9.00109 10.0333ZM23.9964 0V0.1L14.6618 6.36667L14.7368 4.9L22.122 0H23.9964ZM0.00390625 0L8.96361 5.86667H6.71431L0.00390625 1.4V0Z" fill="#C8102E"/>
<path d="M9.03858 0V16H15.0367V0H9.03858ZM0.00390625 5.33333V10.6667H23.9964V5.33333H0.00390625Z" fill="white"/>
<path d="M0.00390625 6.43333V9.63333H23.9964V6.43333H0.00390625ZM10.2382 0V16H13.8371V0H10.2382Z" fill="#C8102E"/>
</g>
<defs>
<clipPath id="clip0_649_30164">
<rect width="24" height="16" rx="6" fill="white"/>
</clipPath>
</defs>
</svg>
